M48
; DRILL file {KiCad 8.0.4-8.0.4-0~ubuntu22.04.1} date 2024-08-07T00:11:30+0530
; FORMAT={-:-/ absolute / inch / decimal}
; #@! TF.CreationDate,2024-08-07T00:11:30+05:30
; #@! TF.GenerationSoftware,Kicad,Pcbnew,8.0.4-8.0.4-0~ubuntu22.04.1
; #@! TF.FileFunction,Plated,1,2,PTH
FMAT,2
INCH
; #@! TA.AperFunction,Plated,PTH,ViaDrill
T1C0.0118
; #@! TA.AperFunction,Plated,PTH,ComponentDrill
T2C0.0256
; #@! TA.AperFunction,Plated,PTH,ComponentDrill
T3C0.0394
; #@! TA.AperFunction,Plated,PTH,ComponentDrill
T4C0.1063
%
G90
G05
T1
X5.9339Y-2.5346
X6.0358Y-2.5819
X6.0551Y-2.5354
X6.0876Y-2.7559
X6.1002Y-3.1397
X6.122Y-3.7075
X6.1248Y-3.1061
X6.1496Y-3.4488
X6.1811Y-2.9528
X6.189Y-3.6614
X6.2441Y-2.9921
X6.252Y-3.3622
X6.2649Y-3.3279
X6.2756Y-3.1496
X6.3341Y-3.3732
X6.3543Y-2.5827
X6.3575Y-2.7165
X6.3701Y-3.5197
X6.4163Y-2.8829
X6.4163Y-2.9826
X6.4252Y-2.6299
X6.4252Y-3.0157
X6.4445Y-3.0472
X6.4626Y-3.2815
X6.4833Y-2.8346
T2
X5.7815Y-2.6362
X5.8315Y-2.6362
X5.8815Y-2.6362
X5.9315Y-2.6362
T3
X5.8079Y-2.7717
X5.8079Y-2.9213
X5.8079Y-3.0689
X5.8079Y-3.2205
X5.8079Y-3.3701
X5.8079Y-3.5197
X5.8642Y-3.7559
X5.9079Y-2.7717
X5.9079Y-2.9213
X5.9079Y-3.0689
X5.9079Y-3.2205
X5.9079Y-3.3701
X5.9079Y-3.5197
X5.9626Y-3.7559
X6.0079Y-2.7717
X6.0079Y-2.9213
X6.0079Y-3.0689
X6.0079Y-3.2205
X6.0079Y-3.3701
X6.0079Y-3.5197
X6.5305Y-2.7795
X6.5305Y-2.9291
X6.5305Y-3.0807
X6.5305Y-3.378
X6.5305Y-3.5276
X6.5323Y-3.2283
X6.5709Y-2.5463
X6.6305Y-2.7795
X6.6305Y-2.9291
X6.6305Y-3.0807
X6.6305Y-3.378
X6.6305Y-3.5276
X6.6323Y-3.2283
X6.6693Y-2.5463
X6.7305Y-2.7795
X6.7305Y-2.9291
X6.7305Y-3.0807
X6.7305Y-3.378
X6.7305Y-3.5276
X6.7323Y-3.2283
T4
X6.4803Y-3.7323
X6.6772Y-3.7323
M30
