%TF.GenerationSoftware,KiCad,Pcbnew,8.0.4-8.0.4-0~ubuntu22.04.1*%
%TF.CreationDate,2024-08-07T00:11:23+05:30*%
%TF.ProjectId,esp32Shield,65737033-3253-4686-9965-6c642e6b6963,rev?*%
%TF.SameCoordinates,Original*%
%TF.FileFunction,Legend,Bot*%
%TF.FilePolarity,Positive*%
%FSLAX46Y46*%
G04 Gerber Fmt 4.6, Leading zero omitted, Abs format (unit mm)*
G04 Created by KiCad (PCBNEW 8.0.4-8.0.4-0~ubuntu22.04.1) date 2024-08-07 00:11:23*
%MOMM*%
%LPD*%
G01*
G04 APERTURE LIST*
%ADD10C,0.150000*%
%ADD11C,0.000000*%
G04 APERTURE END LIST*
D10*
X171038094Y-92073866D02*
X170276190Y-92073866D01*
X170657142Y-92454819D02*
X170657142Y-91692914D01*
X169323809Y-91454819D02*
X169799999Y-91454819D01*
X169799999Y-91454819D02*
X169847618Y-91931009D01*
X169847618Y-91931009D02*
X169799999Y-91883390D01*
X169799999Y-91883390D02*
X169704761Y-91835771D01*
X169704761Y-91835771D02*
X169466666Y-91835771D01*
X169466666Y-91835771D02*
X169371428Y-91883390D01*
X169371428Y-91883390D02*
X169323809Y-91931009D01*
X169323809Y-91931009D02*
X169276190Y-92026247D01*
X169276190Y-92026247D02*
X169276190Y-92264342D01*
X169276190Y-92264342D02*
X169323809Y-92359580D01*
X169323809Y-92359580D02*
X169371428Y-92407200D01*
X169371428Y-92407200D02*
X169466666Y-92454819D01*
X169466666Y-92454819D02*
X169704761Y-92454819D01*
X169704761Y-92454819D02*
X169799999Y-92407200D01*
X169799999Y-92407200D02*
X169847618Y-92359580D01*
X168942856Y-91788152D02*
X168704761Y-92454819D01*
X168704761Y-92454819D02*
X168466666Y-91788152D01*
X151211847Y-65490476D02*
X150402323Y-65490476D01*
X150402323Y-65490476D02*
X150307085Y-65538095D01*
X150307085Y-65538095D02*
X150259466Y-65585714D01*
X150259466Y-65585714D02*
X150211847Y-65680952D01*
X150211847Y-65680952D02*
X150211847Y-65823809D01*
X150211847Y-65823809D02*
X150259466Y-65919047D01*
X150592800Y-65490476D02*
X150545180Y-65585714D01*
X150545180Y-65585714D02*
X150545180Y-65776190D01*
X150545180Y-65776190D02*
X150592800Y-65871428D01*
X150592800Y-65871428D02*
X150640419Y-65919047D01*
X150640419Y-65919047D02*
X150735657Y-65966666D01*
X150735657Y-65966666D02*
X151021371Y-65966666D01*
X151021371Y-65966666D02*
X151116609Y-65919047D01*
X151116609Y-65919047D02*
X151164228Y-65871428D01*
X151164228Y-65871428D02*
X151211847Y-65776190D01*
X151211847Y-65776190D02*
X151211847Y-65585714D01*
X151211847Y-65585714D02*
X151164228Y-65490476D01*
X151211847Y-65014285D02*
X150545180Y-65014285D01*
X151116609Y-65014285D02*
X151164228Y-64966666D01*
X151164228Y-64966666D02*
X151211847Y-64871428D01*
X151211847Y-64871428D02*
X151211847Y-64728571D01*
X151211847Y-64728571D02*
X151164228Y-64633333D01*
X151164228Y-64633333D02*
X151068990Y-64585714D01*
X151068990Y-64585714D02*
X150545180Y-64585714D01*
X150545180Y-63680952D02*
X151545180Y-63680952D01*
X150592800Y-63680952D02*
X150545180Y-63776190D01*
X150545180Y-63776190D02*
X150545180Y-63966666D01*
X150545180Y-63966666D02*
X150592800Y-64061904D01*
X150592800Y-64061904D02*
X150640419Y-64109523D01*
X150640419Y-64109523D02*
X150735657Y-64157142D01*
X150735657Y-64157142D02*
X151021371Y-64157142D01*
X151021371Y-64157142D02*
X151116609Y-64109523D01*
X151116609Y-64109523D02*
X151164228Y-64061904D01*
X151164228Y-64061904D02*
X151211847Y-63966666D01*
X151211847Y-63966666D02*
X151211847Y-63776190D01*
X151211847Y-63776190D02*
X151164228Y-63680952D01*
X148745180Y-65295238D02*
X149221371Y-65628571D01*
X148745180Y-65866666D02*
X149745180Y-65866666D01*
X149745180Y-65866666D02*
X149745180Y-65485714D01*
X149745180Y-65485714D02*
X149697561Y-65390476D01*
X149697561Y-65390476D02*
X149649942Y-65342857D01*
X149649942Y-65342857D02*
X149554704Y-65295238D01*
X149554704Y-65295238D02*
X149411847Y-65295238D01*
X149411847Y-65295238D02*
X149316609Y-65342857D01*
X149316609Y-65342857D02*
X149268990Y-65390476D01*
X149268990Y-65390476D02*
X149221371Y-65485714D01*
X149221371Y-65485714D02*
X149221371Y-65866666D01*
X148745180Y-64961904D02*
X149411847Y-64438095D01*
X149411847Y-64961904D02*
X148745180Y-64438095D01*
X147145180Y-65828570D02*
X147145180Y-65209523D01*
X147145180Y-65209523D02*
X146764228Y-65542856D01*
X146764228Y-65542856D02*
X146764228Y-65399999D01*
X146764228Y-65399999D02*
X146716609Y-65304761D01*
X146716609Y-65304761D02*
X146668990Y-65257142D01*
X146668990Y-65257142D02*
X146573752Y-65209523D01*
X146573752Y-65209523D02*
X146335657Y-65209523D01*
X146335657Y-65209523D02*
X146240419Y-65257142D01*
X146240419Y-65257142D02*
X146192800Y-65304761D01*
X146192800Y-65304761D02*
X146145180Y-65399999D01*
X146145180Y-65399999D02*
X146145180Y-65685713D01*
X146145180Y-65685713D02*
X146192800Y-65780951D01*
X146192800Y-65780951D02*
X146240419Y-65828570D01*
X146240419Y-64780951D02*
X146192800Y-64733332D01*
X146192800Y-64733332D02*
X146145180Y-64780951D01*
X146145180Y-64780951D02*
X146192800Y-64828570D01*
X146192800Y-64828570D02*
X146240419Y-64780951D01*
X146240419Y-64780951D02*
X146145180Y-64780951D01*
X147145180Y-64399999D02*
X147145180Y-63780952D01*
X147145180Y-63780952D02*
X146764228Y-64114285D01*
X146764228Y-64114285D02*
X146764228Y-63971428D01*
X146764228Y-63971428D02*
X146716609Y-63876190D01*
X146716609Y-63876190D02*
X146668990Y-63828571D01*
X146668990Y-63828571D02*
X146573752Y-63780952D01*
X146573752Y-63780952D02*
X146335657Y-63780952D01*
X146335657Y-63780952D02*
X146240419Y-63828571D01*
X146240419Y-63828571D02*
X146192800Y-63876190D01*
X146192800Y-63876190D02*
X146145180Y-63971428D01*
X146145180Y-63971428D02*
X146145180Y-64257142D01*
X146145180Y-64257142D02*
X146192800Y-64352380D01*
X146192800Y-64352380D02*
X146240419Y-64399999D01*
X146811847Y-63447618D02*
X146145180Y-63209523D01*
X146145180Y-63209523D02*
X146811847Y-62971428D01*
X153238094Y-93273866D02*
X152476190Y-93273866D01*
X152857142Y-93654819D02*
X152857142Y-92892914D01*
X151523809Y-92654819D02*
X151999999Y-92654819D01*
X151999999Y-92654819D02*
X152047618Y-93131009D01*
X152047618Y-93131009D02*
X151999999Y-93083390D01*
X151999999Y-93083390D02*
X151904761Y-93035771D01*
X151904761Y-93035771D02*
X151666666Y-93035771D01*
X151666666Y-93035771D02*
X151571428Y-93083390D01*
X151571428Y-93083390D02*
X151523809Y-93131009D01*
X151523809Y-93131009D02*
X151476190Y-93226247D01*
X151476190Y-93226247D02*
X151476190Y-93464342D01*
X151476190Y-93464342D02*
X151523809Y-93559580D01*
X151523809Y-93559580D02*
X151571428Y-93607200D01*
X151571428Y-93607200D02*
X151666666Y-93654819D01*
X151666666Y-93654819D02*
X151904761Y-93654819D01*
X151904761Y-93654819D02*
X151999999Y-93607200D01*
X151999999Y-93607200D02*
X152047618Y-93559580D01*
X151142856Y-92988152D02*
X150904761Y-93654819D01*
X150904761Y-93654819D02*
X150666666Y-92988152D01*
X168014285Y-67007200D02*
X167871428Y-67054819D01*
X167871428Y-67054819D02*
X167633333Y-67054819D01*
X167633333Y-67054819D02*
X167538095Y-67007200D01*
X167538095Y-67007200D02*
X167490476Y-66959580D01*
X167490476Y-66959580D02*
X167442857Y-66864342D01*
X167442857Y-66864342D02*
X167442857Y-66769104D01*
X167442857Y-66769104D02*
X167490476Y-66673866D01*
X167490476Y-66673866D02*
X167538095Y-66626247D01*
X167538095Y-66626247D02*
X167633333Y-66578628D01*
X167633333Y-66578628D02*
X167823809Y-66531009D01*
X167823809Y-66531009D02*
X167919047Y-66483390D01*
X167919047Y-66483390D02*
X167966666Y-66435771D01*
X167966666Y-66435771D02*
X168014285Y-66340533D01*
X168014285Y-66340533D02*
X168014285Y-66245295D01*
X168014285Y-66245295D02*
X167966666Y-66150057D01*
X167966666Y-66150057D02*
X167919047Y-66102438D01*
X167919047Y-66102438D02*
X167823809Y-66054819D01*
X167823809Y-66054819D02*
X167585714Y-66054819D01*
X167585714Y-66054819D02*
X167442857Y-66102438D01*
X167014285Y-67054819D02*
X167014285Y-66054819D01*
X167014285Y-66054819D02*
X166776190Y-66054819D01*
X166776190Y-66054819D02*
X166633333Y-66102438D01*
X166633333Y-66102438D02*
X166538095Y-66197676D01*
X166538095Y-66197676D02*
X166490476Y-66292914D01*
X166490476Y-66292914D02*
X166442857Y-66483390D01*
X166442857Y-66483390D02*
X166442857Y-66626247D01*
X166442857Y-66626247D02*
X166490476Y-66816723D01*
X166490476Y-66816723D02*
X166538095Y-66911961D01*
X166538095Y-66911961D02*
X166633333Y-67007200D01*
X166633333Y-67007200D02*
X166776190Y-67054819D01*
X166776190Y-67054819D02*
X167014285Y-67054819D01*
X166061904Y-66769104D02*
X165585714Y-66769104D01*
X166157142Y-67054819D02*
X165823809Y-66054819D01*
X165823809Y-66054819D02*
X165490476Y-67054819D01*
X148345180Y-65890475D02*
X148345180Y-65319047D01*
X147345180Y-65604761D02*
X148345180Y-65604761D01*
X147345180Y-65080951D02*
X148011847Y-64557142D01*
X148011847Y-65080951D02*
X147345180Y-64557142D01*
X165442857Y-91302438D02*
X165538095Y-91254819D01*
X165538095Y-91254819D02*
X165680952Y-91254819D01*
X165680952Y-91254819D02*
X165823809Y-91302438D01*
X165823809Y-91302438D02*
X165919047Y-91397676D01*
X165919047Y-91397676D02*
X165966666Y-91492914D01*
X165966666Y-91492914D02*
X166014285Y-91683390D01*
X166014285Y-91683390D02*
X166014285Y-91826247D01*
X166014285Y-91826247D02*
X165966666Y-92016723D01*
X165966666Y-92016723D02*
X165919047Y-92111961D01*
X165919047Y-92111961D02*
X165823809Y-92207200D01*
X165823809Y-92207200D02*
X165680952Y-92254819D01*
X165680952Y-92254819D02*
X165585714Y-92254819D01*
X165585714Y-92254819D02*
X165442857Y-92207200D01*
X165442857Y-92207200D02*
X165395238Y-92159580D01*
X165395238Y-92159580D02*
X165395238Y-91826247D01*
X165395238Y-91826247D02*
X165585714Y-91826247D01*
X164966666Y-91588152D02*
X164966666Y-92254819D01*
X164966666Y-91683390D02*
X164919047Y-91635771D01*
X164919047Y-91635771D02*
X164823809Y-91588152D01*
X164823809Y-91588152D02*
X164680952Y-91588152D01*
X164680952Y-91588152D02*
X164585714Y-91635771D01*
X164585714Y-91635771D02*
X164538095Y-91731009D01*
X164538095Y-91731009D02*
X164538095Y-92254819D01*
X163633333Y-92254819D02*
X163633333Y-91254819D01*
X163633333Y-92207200D02*
X163728571Y-92254819D01*
X163728571Y-92254819D02*
X163919047Y-92254819D01*
X163919047Y-92254819D02*
X164014285Y-92207200D01*
X164014285Y-92207200D02*
X164061904Y-92159580D01*
X164061904Y-92159580D02*
X164109523Y-92064342D01*
X164109523Y-92064342D02*
X164109523Y-91778628D01*
X164109523Y-91778628D02*
X164061904Y-91683390D01*
X164061904Y-91683390D02*
X164014285Y-91635771D01*
X164014285Y-91635771D02*
X163919047Y-91588152D01*
X163919047Y-91588152D02*
X163728571Y-91588152D01*
X163728571Y-91588152D02*
X163633333Y-91635771D01*
X171190475Y-67007200D02*
X171047618Y-67054819D01*
X171047618Y-67054819D02*
X170809523Y-67054819D01*
X170809523Y-67054819D02*
X170714285Y-67007200D01*
X170714285Y-67007200D02*
X170666666Y-66959580D01*
X170666666Y-66959580D02*
X170619047Y-66864342D01*
X170619047Y-66864342D02*
X170619047Y-66769104D01*
X170619047Y-66769104D02*
X170666666Y-66673866D01*
X170666666Y-66673866D02*
X170714285Y-66626247D01*
X170714285Y-66626247D02*
X170809523Y-66578628D01*
X170809523Y-66578628D02*
X170999999Y-66531009D01*
X170999999Y-66531009D02*
X171095237Y-66483390D01*
X171095237Y-66483390D02*
X171142856Y-66435771D01*
X171142856Y-66435771D02*
X171190475Y-66340533D01*
X171190475Y-66340533D02*
X171190475Y-66245295D01*
X171190475Y-66245295D02*
X171142856Y-66150057D01*
X171142856Y-66150057D02*
X171095237Y-66102438D01*
X171095237Y-66102438D02*
X170999999Y-66054819D01*
X170999999Y-66054819D02*
X170761904Y-66054819D01*
X170761904Y-66054819D02*
X170619047Y-66102438D01*
X169619047Y-66959580D02*
X169666666Y-67007200D01*
X169666666Y-67007200D02*
X169809523Y-67054819D01*
X169809523Y-67054819D02*
X169904761Y-67054819D01*
X169904761Y-67054819D02*
X170047618Y-67007200D01*
X170047618Y-67007200D02*
X170142856Y-66911961D01*
X170142856Y-66911961D02*
X170190475Y-66816723D01*
X170190475Y-66816723D02*
X170238094Y-66626247D01*
X170238094Y-66626247D02*
X170238094Y-66483390D01*
X170238094Y-66483390D02*
X170190475Y-66292914D01*
X170190475Y-66292914D02*
X170142856Y-66197676D01*
X170142856Y-66197676D02*
X170047618Y-66102438D01*
X170047618Y-66102438D02*
X169904761Y-66054819D01*
X169904761Y-66054819D02*
X169809523Y-66054819D01*
X169809523Y-66054819D02*
X169666666Y-66102438D01*
X169666666Y-66102438D02*
X169619047Y-66150057D01*
X168714285Y-67054819D02*
X169190475Y-67054819D01*
X169190475Y-67054819D02*
X169190475Y-66054819D01*
X149042857Y-92702438D02*
X149138095Y-92654819D01*
X149138095Y-92654819D02*
X149280952Y-92654819D01*
X149280952Y-92654819D02*
X149423809Y-92702438D01*
X149423809Y-92702438D02*
X149519047Y-92797676D01*
X149519047Y-92797676D02*
X149566666Y-92892914D01*
X149566666Y-92892914D02*
X149614285Y-93083390D01*
X149614285Y-93083390D02*
X149614285Y-93226247D01*
X149614285Y-93226247D02*
X149566666Y-93416723D01*
X149566666Y-93416723D02*
X149519047Y-93511961D01*
X149519047Y-93511961D02*
X149423809Y-93607200D01*
X149423809Y-93607200D02*
X149280952Y-93654819D01*
X149280952Y-93654819D02*
X149185714Y-93654819D01*
X149185714Y-93654819D02*
X149042857Y-93607200D01*
X149042857Y-93607200D02*
X148995238Y-93559580D01*
X148995238Y-93559580D02*
X148995238Y-93226247D01*
X148995238Y-93226247D02*
X149185714Y-93226247D01*
X148566666Y-92988152D02*
X148566666Y-93654819D01*
X148566666Y-93083390D02*
X148519047Y-93035771D01*
X148519047Y-93035771D02*
X148423809Y-92988152D01*
X148423809Y-92988152D02*
X148280952Y-92988152D01*
X148280952Y-92988152D02*
X148185714Y-93035771D01*
X148185714Y-93035771D02*
X148138095Y-93131009D01*
X148138095Y-93131009D02*
X148138095Y-93654819D01*
X147233333Y-93654819D02*
X147233333Y-92654819D01*
X147233333Y-93607200D02*
X147328571Y-93654819D01*
X147328571Y-93654819D02*
X147519047Y-93654819D01*
X147519047Y-93654819D02*
X147614285Y-93607200D01*
X147614285Y-93607200D02*
X147661904Y-93559580D01*
X147661904Y-93559580D02*
X147709523Y-93464342D01*
X147709523Y-93464342D02*
X147709523Y-93178628D01*
X147709523Y-93178628D02*
X147661904Y-93083390D01*
X147661904Y-93083390D02*
X147614285Y-93035771D01*
X147614285Y-93035771D02*
X147519047Y-92988152D01*
X147519047Y-92988152D02*
X147328571Y-92988152D01*
X147328571Y-92988152D02*
X147233333Y-93035771D01*
D11*
%TO.C,G\u002A\u002A\u002A*%
G36*
X156906083Y-83493484D02*
G01*
X156916426Y-83494645D01*
X156916426Y-83805657D01*
X156916422Y-83826891D01*
X156916388Y-83870021D01*
X156916321Y-83911128D01*
X156916223Y-83949780D01*
X156916098Y-83985541D01*
X156915947Y-84017976D01*
X156915774Y-84046653D01*
X156915580Y-84071136D01*
X156915368Y-84090991D01*
X156915141Y-84105783D01*
X156914901Y-84115080D01*
X156914650Y-84118445D01*
X156913070Y-84118622D01*
X156905814Y-84118834D01*
X156893268Y-84118989D01*
X156876075Y-84119088D01*
X156854878Y-84119137D01*
X156830323Y-84119138D01*
X156803051Y-84119094D01*
X156773707Y-84119010D01*
X156742935Y-84118890D01*
X156711379Y-84118735D01*
X156679682Y-84118551D01*
X156648488Y-84118340D01*
X156618441Y-84118107D01*
X156590185Y-84117854D01*
X156564363Y-84117586D01*
X156541619Y-84117305D01*
X156522597Y-84117016D01*
X156507940Y-84116721D01*
X156498293Y-84116425D01*
X156494299Y-84116131D01*
X156493231Y-84114938D01*
X156491832Y-84109003D01*
X156491238Y-84100091D01*
X156491451Y-84090386D01*
X156492470Y-84082070D01*
X156494296Y-84077326D01*
X156496322Y-84076963D01*
X156504189Y-84076445D01*
X156517422Y-84075913D01*
X156535445Y-84075382D01*
X156557679Y-84074862D01*
X156583549Y-84074369D01*
X156612477Y-84073914D01*
X156643887Y-84073512D01*
X156677202Y-84073174D01*
X156857549Y-84071583D01*
X156858361Y-83783059D01*
X156859174Y-83494536D01*
X156877457Y-83493429D01*
X156884829Y-83493107D01*
X156896934Y-83493022D01*
X156906083Y-83493484D01*
G37*
G36*
X158423436Y-76347546D02*
G01*
X158462229Y-76353817D01*
X158498707Y-76363263D01*
X158531443Y-76375792D01*
X158566781Y-76394679D01*
X158603096Y-76419879D01*
X158636187Y-76449059D01*
X158665284Y-76481450D01*
X158689620Y-76516284D01*
X158708424Y-76552791D01*
X158719242Y-76581473D01*
X158728759Y-76617204D01*
X158734285Y-76654640D01*
X158735984Y-76694987D01*
X158734024Y-76739449D01*
X158732435Y-76756966D01*
X158727799Y-76791180D01*
X158721056Y-76821475D01*
X158711623Y-76849417D01*
X158698918Y-76876573D01*
X158682358Y-76904508D01*
X158661361Y-76934790D01*
X158653008Y-76945538D01*
X158626390Y-76973621D01*
X158595112Y-76999319D01*
X158560278Y-77022037D01*
X158522991Y-77041184D01*
X158484356Y-77056165D01*
X158445476Y-77066387D01*
X158407455Y-77071258D01*
X158389391Y-77072126D01*
X158365239Y-77072742D01*
X158344883Y-77072302D01*
X158326781Y-77070642D01*
X158309394Y-77067599D01*
X158291182Y-77063009D01*
X158270605Y-77056707D01*
X158243037Y-77047223D01*
X158214517Y-77035623D01*
X158189602Y-77022977D01*
X158166796Y-77008418D01*
X158144606Y-76991077D01*
X158121537Y-76970085D01*
X158107146Y-76955180D01*
X158083630Y-76926418D01*
X158061796Y-76894431D01*
X158042930Y-76861172D01*
X158028320Y-76828595D01*
X158028059Y-76827907D01*
X158019860Y-76799809D01*
X158014451Y-76767470D01*
X158011827Y-76732332D01*
X158011985Y-76695833D01*
X158014918Y-76659413D01*
X158020623Y-76624512D01*
X158029095Y-76592570D01*
X158032906Y-76581557D01*
X158052073Y-76537907D01*
X158076449Y-76497667D01*
X158105715Y-76461153D01*
X158139553Y-76428680D01*
X158177645Y-76400562D01*
X158219672Y-76377115D01*
X158265317Y-76358655D01*
X158273662Y-76356053D01*
X158307441Y-76348704D01*
X158344614Y-76344898D01*
X158383755Y-76344542D01*
X158423436Y-76347546D01*
G37*
G36*
X160921676Y-83594199D02*
G01*
X160921676Y-83651485D01*
X160816652Y-83652163D01*
X160711627Y-83652841D01*
X160711737Y-83803493D01*
X160711846Y-83954146D01*
X160722379Y-83975327D01*
X160731044Y-83991315D01*
X160739830Y-84003264D01*
X160749715Y-84011272D01*
X160761996Y-84016078D01*
X160777971Y-84018425D01*
X160798938Y-84019053D01*
X160799043Y-84019053D01*
X160816554Y-84018301D01*
X160830923Y-84015532D01*
X160843915Y-84009995D01*
X160857294Y-84000940D01*
X160872823Y-83987616D01*
X160873530Y-83986971D01*
X160886692Y-83975345D01*
X160896365Y-83967855D01*
X160903393Y-83964035D01*
X160908622Y-83963419D01*
X160912898Y-83965542D01*
X160918337Y-83970833D01*
X160926405Y-83979977D01*
X160935985Y-83991657D01*
X160946280Y-84004811D01*
X160956491Y-84018379D01*
X160965822Y-84031298D01*
X160973474Y-84042508D01*
X160978651Y-84050948D01*
X160980553Y-84055557D01*
X160979328Y-84060321D01*
X160974230Y-84067512D01*
X160964779Y-84076540D01*
X160950557Y-84087793D01*
X160931145Y-84101665D01*
X160930417Y-84102166D01*
X160907205Y-84116191D01*
X160882644Y-84126982D01*
X160855120Y-84135130D01*
X160823017Y-84141226D01*
X160816901Y-84141669D01*
X160805628Y-84141891D01*
X160791196Y-84141831D01*
X160775278Y-84141479D01*
X160758730Y-84140645D01*
X160723116Y-84136178D01*
X160691894Y-84128026D01*
X160664360Y-84115973D01*
X160639808Y-84099801D01*
X160632143Y-84093519D01*
X160613383Y-84074933D01*
X160598637Y-84054351D01*
X160587015Y-84030366D01*
X160577624Y-84001567D01*
X160577086Y-83999526D01*
X160575984Y-83994802D01*
X160575040Y-83989555D01*
X160574241Y-83983299D01*
X160573575Y-83975547D01*
X160573031Y-83965811D01*
X160572596Y-83953605D01*
X160572258Y-83938442D01*
X160572005Y-83919835D01*
X160571825Y-83897297D01*
X160571706Y-83870341D01*
X160571636Y-83838482D01*
X160571603Y-83801230D01*
X160571595Y-83758101D01*
X160571595Y-83536913D01*
X160746635Y-83536913D01*
X160921676Y-83536913D01*
X160921676Y-83594199D01*
G37*
G36*
X160442701Y-83833952D02*
G01*
X160442700Y-83844834D01*
X160442680Y-83887452D01*
X160442633Y-83928130D01*
X160442563Y-83966426D01*
X160442471Y-84001896D01*
X160442359Y-84034098D01*
X160442229Y-84062590D01*
X160442083Y-84086929D01*
X160441922Y-84106673D01*
X160441750Y-84121379D01*
X160441567Y-84130605D01*
X160441377Y-84133908D01*
X160440042Y-84134061D01*
X160433101Y-84134271D01*
X160420787Y-84134433D01*
X160403716Y-84134551D01*
X160382504Y-84134627D01*
X160357765Y-84134663D01*
X160330114Y-84134661D01*
X160300169Y-84134625D01*
X160268543Y-84134556D01*
X160235852Y-84134457D01*
X160202711Y-84134330D01*
X160169736Y-84134179D01*
X160137542Y-84134004D01*
X160106745Y-84133810D01*
X160077959Y-84133597D01*
X160051801Y-84133369D01*
X160028885Y-84133128D01*
X160009826Y-84132877D01*
X159995241Y-84132618D01*
X159985745Y-84132353D01*
X159981952Y-84132085D01*
X159981392Y-84131720D01*
X159980043Y-84128649D01*
X159979145Y-84122054D01*
X159978660Y-84111227D01*
X159978547Y-84095459D01*
X159978769Y-84074041D01*
X159979639Y-84017479D01*
X160141221Y-84016655D01*
X160302803Y-84015830D01*
X160301940Y-83953688D01*
X160301077Y-83891546D01*
X160164458Y-83890031D01*
X160146730Y-83889828D01*
X160119055Y-83889481D01*
X160093811Y-83889129D01*
X160071654Y-83888784D01*
X160053240Y-83888456D01*
X160039224Y-83888156D01*
X160030262Y-83887897D01*
X160027009Y-83887688D01*
X160026754Y-83885257D01*
X160026430Y-83877375D01*
X160026104Y-83865050D01*
X160025804Y-83849323D01*
X160025557Y-83831232D01*
X160024933Y-83775605D01*
X160163005Y-83774014D01*
X160301077Y-83772422D01*
X160301943Y-83712749D01*
X160302809Y-83653076D01*
X160147255Y-83653076D01*
X159991700Y-83653076D01*
X159989982Y-83596586D01*
X159989554Y-83580436D01*
X159989262Y-83563951D01*
X159989187Y-83550623D01*
X159989335Y-83541519D01*
X159989709Y-83537709D01*
X159991791Y-83537400D01*
X159999739Y-83537021D01*
X160013144Y-83536666D01*
X160031496Y-83536342D01*
X160054285Y-83536053D01*
X160081001Y-83535804D01*
X160111133Y-83535601D01*
X160144172Y-83535449D01*
X160179607Y-83535355D01*
X160216927Y-83535322D01*
X160442701Y-83535322D01*
X160442701Y-83833952D01*
G37*
G36*
X158230173Y-78968466D02*
G01*
X158272725Y-78973025D01*
X158289574Y-78976451D01*
X158313770Y-78983433D01*
X158339739Y-78992723D01*
X158365577Y-79003568D01*
X158389380Y-79015216D01*
X158409243Y-79026917D01*
X158421683Y-79035841D01*
X158435998Y-79047147D01*
X158451010Y-79059790D01*
X158465561Y-79072740D01*
X158478492Y-79084966D01*
X158488645Y-79095437D01*
X158494862Y-79103122D01*
X158499300Y-79109662D01*
X158506591Y-79119936D01*
X158514455Y-79130661D01*
X158517931Y-79135497D01*
X158531459Y-79157587D01*
X158544291Y-79183335D01*
X158555440Y-79210609D01*
X158563915Y-79237276D01*
X158566622Y-79247851D01*
X158568864Y-79258106D01*
X158570446Y-79268172D01*
X158571487Y-79279358D01*
X158572103Y-79292977D01*
X158572415Y-79310338D01*
X158572540Y-79332753D01*
X158572541Y-79333171D01*
X158572543Y-79355419D01*
X158572332Y-79372676D01*
X158571790Y-79386294D01*
X158570800Y-79397625D01*
X158569244Y-79408021D01*
X158567004Y-79418833D01*
X158563964Y-79431413D01*
X158561931Y-79439200D01*
X158553159Y-79466673D01*
X158541825Y-79493360D01*
X158527168Y-79520900D01*
X158508427Y-79550930D01*
X158508204Y-79551267D01*
X158489739Y-79576358D01*
X158468611Y-79600440D01*
X158446407Y-79621847D01*
X158424712Y-79638911D01*
X158404364Y-79651183D01*
X158378431Y-79663960D01*
X158349279Y-79676142D01*
X158318505Y-79687160D01*
X158287705Y-79696443D01*
X158258476Y-79703422D01*
X158232414Y-79707528D01*
X158220362Y-79707808D01*
X158203567Y-79706810D01*
X158183913Y-79704723D01*
X158163081Y-79701757D01*
X158142750Y-79698123D01*
X158124602Y-79694031D01*
X158122301Y-79693415D01*
X158104350Y-79687563D01*
X158083107Y-79679249D01*
X158060381Y-79669298D01*
X158037983Y-79658536D01*
X158017722Y-79647786D01*
X158001408Y-79637876D01*
X157982444Y-79624329D01*
X157956275Y-79601992D01*
X157933168Y-79577011D01*
X157912026Y-79548146D01*
X157891751Y-79514159D01*
X157884687Y-79501116D01*
X157877201Y-79486620D01*
X157871572Y-79474357D01*
X157867026Y-79462433D01*
X157862785Y-79448957D01*
X157858073Y-79432036D01*
X157850745Y-79397863D01*
X157846210Y-79353047D01*
X157846870Y-79307626D01*
X157852686Y-79263080D01*
X157863621Y-79220890D01*
X157865911Y-79214134D01*
X157873852Y-79193000D01*
X157882544Y-79174025D01*
X157893129Y-79154888D01*
X157906749Y-79133269D01*
X157925172Y-79107429D01*
X157950180Y-79078734D01*
X157978098Y-79053548D01*
X158009776Y-79031211D01*
X158046063Y-79011062D01*
X158087806Y-78992442D01*
X158116662Y-78982056D01*
X158153544Y-78972835D01*
X158190913Y-78968354D01*
X158230173Y-78968466D01*
G37*
G36*
X162835985Y-83836445D02*
G01*
X162835985Y-84137568D01*
X162828824Y-84135649D01*
X162828144Y-84135511D01*
X162821577Y-84134942D01*
X162809966Y-84134446D01*
X162794387Y-84134052D01*
X162775915Y-84133789D01*
X162755625Y-84133686D01*
X162689587Y-84133643D01*
X162689587Y-84049305D01*
X162689587Y-83964967D01*
X162598089Y-83964948D01*
X162580176Y-83964926D01*
X162556447Y-83964806D01*
X162537890Y-83964546D01*
X162523771Y-83964111D01*
X162513360Y-83963464D01*
X162505922Y-83962568D01*
X162500728Y-83961386D01*
X162497043Y-83959882D01*
X162490319Y-83956841D01*
X162479103Y-83952558D01*
X162466808Y-83948445D01*
X162465205Y-83947944D01*
X162430441Y-83934082D01*
X162399378Y-83915781D01*
X162372826Y-83893516D01*
X162369918Y-83890554D01*
X162353927Y-83872009D01*
X162340869Y-83852067D01*
X162329790Y-83829072D01*
X162319737Y-83801368D01*
X162319393Y-83800300D01*
X162313408Y-83780513D01*
X162309796Y-83764580D01*
X162309434Y-83760548D01*
X162464485Y-83760548D01*
X162466547Y-83775886D01*
X162466704Y-83776497D01*
X162471770Y-83790158D01*
X162479160Y-83803370D01*
X162487623Y-83814215D01*
X162495903Y-83820777D01*
X162503959Y-83824665D01*
X162518153Y-83831157D01*
X162530180Y-83835784D01*
X162541747Y-83838962D01*
X162554560Y-83841111D01*
X162570323Y-83842646D01*
X162590742Y-83843986D01*
X162596989Y-83844354D01*
X162616768Y-83845504D01*
X162635965Y-83846597D01*
X162652659Y-83847525D01*
X162664923Y-83848179D01*
X162689587Y-83849439D01*
X162689587Y-83751258D01*
X162689587Y-83653076D01*
X162618315Y-83653076D01*
X162615684Y-83653077D01*
X162592409Y-83653146D01*
X162574342Y-83653385D01*
X162560427Y-83653871D01*
X162549611Y-83654680D01*
X162540841Y-83655887D01*
X162533064Y-83657570D01*
X162525225Y-83659804D01*
X162506631Y-83667859D01*
X162490257Y-83679513D01*
X162477664Y-83693533D01*
X162470146Y-83708771D01*
X162466947Y-83722699D01*
X162464666Y-83741941D01*
X162464485Y-83760548D01*
X162309434Y-83760548D01*
X162308537Y-83750548D01*
X162309610Y-83736465D01*
X162312995Y-83720378D01*
X162318670Y-83700338D01*
X162325607Y-83678750D01*
X162333736Y-83657923D01*
X162342614Y-83640519D01*
X162353056Y-83624973D01*
X162365879Y-83609720D01*
X162378235Y-83597256D01*
X162406951Y-83574892D01*
X162439442Y-83557629D01*
X162475651Y-83545494D01*
X162515518Y-83538515D01*
X162521237Y-83538071D01*
X162534443Y-83537454D01*
X162552653Y-83536890D01*
X162575054Y-83536393D01*
X162600839Y-83535979D01*
X162629195Y-83535662D01*
X162659313Y-83535457D01*
X162690383Y-83535377D01*
X162835985Y-83535322D01*
X162835985Y-83751258D01*
X162835985Y-83836445D01*
G37*
G36*
X157594006Y-83488702D02*
G01*
X157609317Y-83491119D01*
X157629617Y-83494654D01*
X157628535Y-83701963D01*
X157627452Y-83909272D01*
X157616968Y-83944281D01*
X157613612Y-83955093D01*
X157600852Y-83989706D01*
X157586479Y-84018864D01*
X157570084Y-84043201D01*
X157551256Y-84063354D01*
X157529587Y-84079959D01*
X157528466Y-84080677D01*
X157510238Y-84090797D01*
X157488923Y-84100373D01*
X157466598Y-84108630D01*
X157445340Y-84114795D01*
X157427227Y-84118094D01*
X157422904Y-84118445D01*
X157409473Y-84119043D01*
X157392233Y-84119367D01*
X157372946Y-84119391D01*
X157353373Y-84119093D01*
X157349685Y-84119001D01*
X157330591Y-84118411D01*
X157316119Y-84117620D01*
X157304775Y-84116426D01*
X157295063Y-84114625D01*
X157285486Y-84112014D01*
X157274550Y-84108391D01*
X157248901Y-84098484D01*
X157222183Y-84084936D01*
X157199662Y-84069077D01*
X157180168Y-84050058D01*
X157162530Y-84027027D01*
X157152967Y-84012202D01*
X157141359Y-83991018D01*
X157132237Y-83969111D01*
X157124308Y-83943660D01*
X157115706Y-83912455D01*
X157114487Y-83703599D01*
X157113267Y-83494743D01*
X157127525Y-83492605D01*
X157128953Y-83492408D01*
X157140408Y-83491724D01*
X157152597Y-83492191D01*
X157163748Y-83493595D01*
X157172087Y-83495727D01*
X157175841Y-83498373D01*
X157175896Y-83498790D01*
X157176126Y-83504179D01*
X157176395Y-83515236D01*
X157176698Y-83531418D01*
X157177025Y-83552178D01*
X157177369Y-83576972D01*
X157177723Y-83605255D01*
X157178079Y-83636482D01*
X157178429Y-83670108D01*
X157178765Y-83705589D01*
X157178835Y-83713091D01*
X157179221Y-83748800D01*
X157179677Y-83782906D01*
X157180189Y-83814815D01*
X157180744Y-83843930D01*
X157181328Y-83869658D01*
X157181929Y-83891401D01*
X157182533Y-83908566D01*
X157183127Y-83920556D01*
X157183697Y-83926777D01*
X157186048Y-83936396D01*
X157192203Y-83953595D01*
X157200694Y-83972432D01*
X157210582Y-83990881D01*
X157220924Y-84006916D01*
X157231094Y-84018713D01*
X157250358Y-84034572D01*
X157273714Y-84048351D01*
X157299885Y-84059530D01*
X157327591Y-84067592D01*
X157355553Y-84072020D01*
X157382490Y-84072295D01*
X157384447Y-84072138D01*
X157418126Y-84066772D01*
X157451062Y-84056779D01*
X157481590Y-84042782D01*
X157508047Y-84025401D01*
X157519234Y-84015654D01*
X157528654Y-84005071D01*
X157536842Y-83992622D01*
X157544418Y-83977214D01*
X157551999Y-83957752D01*
X157560204Y-83933142D01*
X157560642Y-83931739D01*
X157561894Y-83927359D01*
X157562972Y-83922626D01*
X157563894Y-83917039D01*
X157564679Y-83910098D01*
X157565346Y-83901301D01*
X157565911Y-83890148D01*
X157566395Y-83876136D01*
X157566814Y-83858766D01*
X157567189Y-83837536D01*
X157567536Y-83811945D01*
X157567874Y-83781492D01*
X157568222Y-83745677D01*
X157568598Y-83703997D01*
X157568727Y-83690038D01*
X157569105Y-83654763D01*
X157569534Y-83621534D01*
X157570003Y-83590891D01*
X157570500Y-83563373D01*
X157571014Y-83539520D01*
X157571533Y-83519873D01*
X157572048Y-83504971D01*
X157572546Y-83495354D01*
X157573017Y-83491562D01*
X157573728Y-83490622D01*
X157577357Y-83488440D01*
X157583735Y-83487804D01*
X157594006Y-83488702D01*
G37*
G36*
X156136104Y-83490877D02*
G01*
X156181223Y-83493343D01*
X156221212Y-83499192D01*
X156256300Y-83508455D01*
X156271466Y-83513775D01*
X156286323Y-83519799D01*
X156300145Y-83526626D01*
X156314965Y-83535271D01*
X156332817Y-83546754D01*
X156334466Y-83547851D01*
X156358268Y-83565756D01*
X156379210Y-83585971D01*
X156398110Y-83609506D01*
X156415784Y-83637373D01*
X156433052Y-83670581D01*
X156434065Y-83672705D01*
X156450199Y-83709778D01*
X156461641Y-83743728D01*
X156468470Y-83775585D01*
X156470767Y-83806375D01*
X156468614Y-83837127D01*
X156462091Y-83868868D01*
X156451279Y-83902625D01*
X156435351Y-83941004D01*
X156415429Y-83978690D01*
X156393229Y-84011296D01*
X156369004Y-84038456D01*
X156343007Y-84059801D01*
X156322134Y-84072468D01*
X156297159Y-84084980D01*
X156270157Y-84096440D01*
X156242908Y-84106154D01*
X156217189Y-84113430D01*
X156194779Y-84117575D01*
X156173473Y-84119364D01*
X156148853Y-84120278D01*
X156123601Y-84120275D01*
X156100026Y-84119356D01*
X156080439Y-84117522D01*
X156065100Y-84114804D01*
X156041138Y-84108680D01*
X156015979Y-84100443D01*
X155991123Y-84090695D01*
X155968069Y-84080039D01*
X155948316Y-84069078D01*
X155933366Y-84058414D01*
X155928418Y-84053822D01*
X155918805Y-84040957D01*
X155915307Y-84028220D01*
X155917969Y-84015974D01*
X155926835Y-84004582D01*
X155928331Y-84003317D01*
X155931279Y-84001873D01*
X155935179Y-84002136D01*
X155941166Y-84004483D01*
X155950375Y-84009292D01*
X155963939Y-84016942D01*
X155983535Y-84027795D01*
X156018127Y-84045028D01*
X156049814Y-84057957D01*
X156079473Y-84066872D01*
X156107981Y-84072063D01*
X156136215Y-84073819D01*
X156146684Y-84073762D01*
X156159633Y-84073065D01*
X156171349Y-84071268D01*
X156184216Y-84067962D01*
X156200620Y-84062736D01*
X156207926Y-84060247D01*
X156249354Y-84043700D01*
X156285326Y-84024607D01*
X156316349Y-84002492D01*
X156342932Y-83976877D01*
X156365581Y-83947285D01*
X156384805Y-83913240D01*
X156401110Y-83874264D01*
X156404923Y-83863315D01*
X156408372Y-83851427D01*
X156410392Y-83840252D01*
X156411376Y-83827434D01*
X156411717Y-83810613D01*
X156411722Y-83809835D01*
X156411392Y-83792272D01*
X156409937Y-83776453D01*
X156407008Y-83760893D01*
X156402255Y-83744107D01*
X156395328Y-83724611D01*
X156385878Y-83700919D01*
X156375189Y-83677842D01*
X156354574Y-83644101D01*
X156330029Y-83614700D01*
X156301968Y-83590041D01*
X156270803Y-83570523D01*
X156236950Y-83556549D01*
X156231443Y-83554882D01*
X156199264Y-83547499D01*
X156164835Y-83543066D01*
X156130075Y-83541674D01*
X156096906Y-83543417D01*
X156067247Y-83548386D01*
X156043324Y-83555435D01*
X156016040Y-83566399D01*
X155991259Y-83579455D01*
X155970908Y-83593695D01*
X155970891Y-83593709D01*
X155960606Y-83601416D01*
X155950749Y-83607416D01*
X155943451Y-83610412D01*
X155938856Y-83611014D01*
X155934026Y-83609878D01*
X155929013Y-83605580D01*
X155922129Y-83597063D01*
X155917259Y-83589981D01*
X155912749Y-83581337D01*
X155911395Y-83575434D01*
X155913097Y-83572584D01*
X155919506Y-83566455D01*
X155929690Y-83558399D01*
X155942620Y-83549102D01*
X155957264Y-83539252D01*
X155972595Y-83529536D01*
X155987581Y-83520640D01*
X156001193Y-83513251D01*
X156012402Y-83508056D01*
X156019656Y-83505291D01*
X156041812Y-83498600D01*
X156065795Y-83494100D01*
X156093055Y-83491569D01*
X156125045Y-83490785D01*
X156136104Y-83490877D01*
G37*
G36*
X162230449Y-83831300D02*
G01*
X162230466Y-83838161D01*
X162230553Y-83880700D01*
X162230606Y-83921385D01*
X162230627Y-83959764D01*
X162230617Y-83995386D01*
X162230576Y-84027801D01*
X162230506Y-84056556D01*
X162230408Y-84081202D01*
X162230282Y-84101287D01*
X162230130Y-84116359D01*
X162229954Y-84125969D01*
X162229753Y-84129665D01*
X162227785Y-84130985D01*
X162222403Y-84132026D01*
X162213028Y-84132781D01*
X162199067Y-84133281D01*
X162179927Y-84133558D01*
X162155017Y-84133643D01*
X162081719Y-84133643D01*
X162081719Y-84049235D01*
X162081719Y-83964827D01*
X162022046Y-83965693D01*
X161962373Y-83966558D01*
X161913877Y-84039757D01*
X161913683Y-84040050D01*
X161900693Y-84059763D01*
X161888660Y-84078216D01*
X161878100Y-84094602D01*
X161869529Y-84108116D01*
X161863464Y-84117950D01*
X161860420Y-84123300D01*
X161855458Y-84133643D01*
X161777823Y-84133643D01*
X161774591Y-84133641D01*
X161748560Y-84133478D01*
X161727574Y-84133058D01*
X161711963Y-84132395D01*
X161702055Y-84131503D01*
X161698180Y-84130394D01*
X161698022Y-84130114D01*
X161697698Y-84128652D01*
X161698161Y-84126383D01*
X161699723Y-84122812D01*
X161702693Y-84117443D01*
X161707380Y-84109781D01*
X161714096Y-84099332D01*
X161723150Y-84085599D01*
X161734852Y-84068087D01*
X161749513Y-84046302D01*
X161767441Y-84019748D01*
X161772007Y-84012977D01*
X161785063Y-83993456D01*
X161796734Y-83975773D01*
X161806579Y-83960611D01*
X161814157Y-83948655D01*
X161819027Y-83940587D01*
X161820749Y-83937092D01*
X161818551Y-83934279D01*
X161811937Y-83929748D01*
X161802449Y-83924753D01*
X161791435Y-83918440D01*
X161774992Y-83905732D01*
X161758432Y-83889704D01*
X161743205Y-83871796D01*
X161730757Y-83853449D01*
X161725230Y-83843242D01*
X161712994Y-83812408D01*
X161705748Y-83779517D01*
X161703715Y-83748766D01*
X161860584Y-83748766D01*
X161860606Y-83762129D01*
X161860875Y-83774998D01*
X161861623Y-83783972D01*
X161863069Y-83790448D01*
X161865437Y-83795824D01*
X161868947Y-83801498D01*
X161870743Y-83804044D01*
X161878080Y-83811823D01*
X161888640Y-83819420D01*
X161903837Y-83827908D01*
X161904235Y-83828113D01*
X161915263Y-83833678D01*
X161924108Y-83837546D01*
X161932477Y-83840127D01*
X161942077Y-83841832D01*
X161954616Y-83843072D01*
X161971803Y-83844259D01*
X161987417Y-83845150D01*
X162008953Y-83846107D01*
X162029951Y-83846785D01*
X162047506Y-83847075D01*
X162081719Y-83847213D01*
X162081719Y-83749900D01*
X162081719Y-83652587D01*
X162002950Y-83653740D01*
X161982707Y-83654059D01*
X161962310Y-83654485D01*
X161946619Y-83655015D01*
X161934712Y-83655725D01*
X161925667Y-83656696D01*
X161918560Y-83658004D01*
X161912468Y-83659729D01*
X161906469Y-83661950D01*
X161892678Y-83668731D01*
X161877950Y-83680880D01*
X161866517Y-83697632D01*
X161864625Y-83701749D01*
X161862645Y-83708658D01*
X161861415Y-83717903D01*
X161860780Y-83730826D01*
X161860584Y-83748766D01*
X161703715Y-83748766D01*
X161703515Y-83745741D01*
X161706315Y-83712256D01*
X161714169Y-83680235D01*
X161727099Y-83650853D01*
X161737014Y-83635250D01*
X161756615Y-83611353D01*
X161779847Y-83589259D01*
X161805086Y-83570446D01*
X161830708Y-83556396D01*
X161836385Y-83553922D01*
X161845424Y-83550238D01*
X161854289Y-83547132D01*
X161863577Y-83544555D01*
X161873881Y-83542457D01*
X161885796Y-83540788D01*
X161899915Y-83539499D01*
X161916834Y-83538542D01*
X161937146Y-83537866D01*
X161961445Y-83537421D01*
X161990327Y-83537160D01*
X162024386Y-83537031D01*
X162064215Y-83536987D01*
X162229708Y-83536913D01*
X162230244Y-83749900D01*
X162230449Y-83831300D01*
G37*
G36*
X155158933Y-83490663D02*
G01*
X155160487Y-83491107D01*
X155169413Y-83494154D01*
X155175567Y-83497013D01*
X155176231Y-83497786D01*
X155177009Y-83499976D01*
X155177692Y-83503864D01*
X155178290Y-83509839D01*
X155178809Y-83518290D01*
X155179260Y-83529604D01*
X155179649Y-83544173D01*
X155179985Y-83562383D01*
X155180276Y-83584625D01*
X155180530Y-83611287D01*
X155180757Y-83642759D01*
X155180963Y-83679429D01*
X155181157Y-83721685D01*
X155181348Y-83769919D01*
X155181423Y-83792098D01*
X155181524Y-83833550D01*
X155181571Y-83873639D01*
X155181565Y-83911808D01*
X155181510Y-83947503D01*
X155181407Y-83980167D01*
X155181258Y-84009244D01*
X155181065Y-84034180D01*
X155180830Y-84054417D01*
X155180555Y-84069401D01*
X155180242Y-84078576D01*
X155178128Y-84117394D01*
X155164912Y-84118658D01*
X155162475Y-84118865D01*
X155152560Y-84119248D01*
X155145332Y-84118869D01*
X155140297Y-84118259D01*
X155131295Y-84117773D01*
X155123623Y-84117730D01*
X155125544Y-83892052D01*
X155125727Y-83869202D01*
X155125983Y-83831106D01*
X155126172Y-83794317D01*
X155126292Y-83759468D01*
X155126345Y-83727191D01*
X155126329Y-83698117D01*
X155126244Y-83672879D01*
X155126092Y-83652109D01*
X155125870Y-83636440D01*
X155125581Y-83626503D01*
X155123697Y-83586632D01*
X155101511Y-83614285D01*
X155094136Y-83623532D01*
X155082442Y-83638310D01*
X155068919Y-83655492D01*
X155054707Y-83673627D01*
X155040945Y-83691267D01*
X155029927Y-83705409D01*
X155015605Y-83723737D01*
X155001709Y-83741470D01*
X154989396Y-83757131D01*
X154979825Y-83769240D01*
X154976400Y-83773558D01*
X154960948Y-83793090D01*
X154942844Y-83816045D01*
X154922913Y-83841372D01*
X154901979Y-83868018D01*
X154880869Y-83894932D01*
X154860407Y-83921062D01*
X154841419Y-83945356D01*
X154824729Y-83966761D01*
X154811164Y-83984227D01*
X154796033Y-84003677D01*
X154775945Y-84029205D01*
X154757800Y-84051908D01*
X154741970Y-84071330D01*
X154728828Y-84087017D01*
X154718747Y-84098513D01*
X154712099Y-84105362D01*
X154709164Y-84107784D01*
X154699114Y-84113785D01*
X154687703Y-84118228D01*
X154676343Y-84120860D01*
X154666447Y-84121427D01*
X154659428Y-84119672D01*
X154656697Y-84115343D01*
X154656622Y-84110885D01*
X154656468Y-84097511D01*
X154656322Y-84079062D01*
X154656182Y-84056109D01*
X154656050Y-84029225D01*
X154655926Y-83998982D01*
X154655812Y-83965951D01*
X154655709Y-83930705D01*
X154655617Y-83893815D01*
X154655537Y-83855854D01*
X154655470Y-83817394D01*
X154655417Y-83779006D01*
X154655378Y-83741263D01*
X154655355Y-83704737D01*
X154655348Y-83670000D01*
X154655358Y-83637624D01*
X154655387Y-83608181D01*
X154655434Y-83582242D01*
X154655500Y-83560381D01*
X154655588Y-83543168D01*
X154655696Y-83531177D01*
X154655827Y-83524978D01*
X154657246Y-83493949D01*
X154687262Y-83493949D01*
X154717278Y-83493949D01*
X154717278Y-83749149D01*
X154717278Y-84004349D01*
X154727147Y-83995001D01*
X154730079Y-83991861D01*
X154737020Y-83983632D01*
X154746647Y-83971707D01*
X154758305Y-83956911D01*
X154771340Y-83940068D01*
X154785098Y-83922003D01*
X154807247Y-83892833D01*
X154833264Y-83858894D01*
X154859825Y-83824556D01*
X154886065Y-83790923D01*
X154911121Y-83759101D01*
X154934132Y-83730195D01*
X154954234Y-83705311D01*
X154954312Y-83705215D01*
X154964088Y-83693169D01*
X154976962Y-83677211D01*
X154992081Y-83658404D01*
X155008592Y-83637811D01*
X155025643Y-83616493D01*
X155042381Y-83595512D01*
X155050872Y-83584863D01*
X155068716Y-83562579D01*
X155083316Y-83544561D01*
X155095151Y-83530283D01*
X155104699Y-83519216D01*
X155112439Y-83510832D01*
X155118850Y-83504606D01*
X155124411Y-83500008D01*
X155129599Y-83496512D01*
X155134895Y-83493591D01*
X155141612Y-83490544D01*
X155149703Y-83489032D01*
X155158933Y-83490663D01*
G37*
G36*
X157727812Y-83486147D02*
G01*
X157736024Y-83487683D01*
X157737155Y-83487934D01*
X157749596Y-83489860D01*
X157761960Y-83490690D01*
X157762397Y-83490694D01*
X157769712Y-83491374D01*
X157775754Y-83493791D01*
X157781229Y-83498788D01*
X157786844Y-83507206D01*
X157793303Y-83519891D01*
X157801313Y-83537683D01*
X157805218Y-83546574D01*
X157813051Y-83564297D01*
X157822756Y-83586160D01*
X157833886Y-83611161D01*
X157845991Y-83638295D01*
X157858624Y-83666558D01*
X157871335Y-83694948D01*
X157883677Y-83722459D01*
X157895201Y-83748088D01*
X157905459Y-83770831D01*
X157909731Y-83780287D01*
X157918721Y-83800187D01*
X157929230Y-83823457D01*
X157940565Y-83848562D01*
X157952034Y-83873965D01*
X157962942Y-83898133D01*
X157970726Y-83915355D01*
X157980973Y-83937956D01*
X157990765Y-83959477D01*
X157999561Y-83978736D01*
X158006823Y-83994553D01*
X158012014Y-84005746D01*
X158025895Y-84035385D01*
X158034294Y-84018476D01*
X158036183Y-84014610D01*
X158041745Y-84002932D01*
X158049584Y-83986228D01*
X158059464Y-83965010D01*
X158071149Y-83939785D01*
X158084404Y-83911065D01*
X158098992Y-83879358D01*
X158114677Y-83845173D01*
X158131224Y-83809022D01*
X158131499Y-83808421D01*
X158140421Y-83788920D01*
X158149107Y-83769962D01*
X158156954Y-83752857D01*
X158163362Y-83738919D01*
X158167727Y-83729458D01*
X158170481Y-83723443D01*
X158176891Y-83709151D01*
X158184089Y-83692824D01*
X158190976Y-83676946D01*
X158194821Y-83668030D01*
X158201613Y-83652438D01*
X158207883Y-83638219D01*
X158212646Y-83627616D01*
X158215770Y-83620703D01*
X158224259Y-83601354D01*
X158233591Y-83579468D01*
X158242895Y-83557127D01*
X158251300Y-83536413D01*
X158257935Y-83519409D01*
X158262534Y-83507412D01*
X158267154Y-83497118D01*
X158271625Y-83491170D01*
X158277116Y-83488678D01*
X158284796Y-83488749D01*
X158295832Y-83490492D01*
X158306557Y-83492547D01*
X158317520Y-83495041D01*
X158324735Y-83497141D01*
X158325994Y-83497642D01*
X158329126Y-83499516D01*
X158330465Y-83502418D01*
X158329775Y-83507269D01*
X158326825Y-83514991D01*
X158321381Y-83526504D01*
X158313211Y-83542731D01*
X158310701Y-83547811D01*
X158304611Y-83560712D01*
X158296866Y-83577606D01*
X158288003Y-83597305D01*
X158278561Y-83618618D01*
X158269077Y-83640358D01*
X158267844Y-83643202D01*
X158257330Y-83667236D01*
X158244733Y-83695698D01*
X158230585Y-83727409D01*
X158215421Y-83761186D01*
X158199773Y-83795849D01*
X158184174Y-83830217D01*
X158169157Y-83863108D01*
X158155255Y-83893342D01*
X158143001Y-83919737D01*
X158141516Y-83922930D01*
X158136751Y-83933377D01*
X158133418Y-83941011D01*
X158132163Y-83944363D01*
X158132082Y-83944658D01*
X158130258Y-83949192D01*
X158126322Y-83958430D01*
X158120659Y-83971486D01*
X158113653Y-83987473D01*
X158105687Y-84005505D01*
X158105504Y-84005917D01*
X158096730Y-84025944D01*
X158088218Y-84045788D01*
X158080556Y-84064046D01*
X158074334Y-84079313D01*
X158070143Y-84090183D01*
X158065131Y-84102760D01*
X158059510Y-84113139D01*
X158054450Y-84117829D01*
X158051265Y-84118794D01*
X158041430Y-84120186D01*
X158029320Y-84120660D01*
X158017085Y-84120252D01*
X158006871Y-84118998D01*
X158000827Y-84116934D01*
X157998555Y-84113672D01*
X157994014Y-84105206D01*
X157987734Y-84092440D01*
X157980111Y-84076198D01*
X157971535Y-84057302D01*
X157962402Y-84036575D01*
X157956538Y-84023101D01*
X157941534Y-83988855D01*
X157924668Y-83950652D01*
X157905806Y-83908190D01*
X157884812Y-83861164D01*
X157861550Y-83809272D01*
X157835885Y-83752211D01*
X157807683Y-83689676D01*
X157806898Y-83687938D01*
X157796282Y-83664354D01*
X157785877Y-83641124D01*
X157776166Y-83619336D01*
X157767634Y-83600079D01*
X157760765Y-83584442D01*
X157756042Y-83573513D01*
X157752679Y-83565609D01*
X157746613Y-83551413D01*
X157741302Y-83539055D01*
X157737609Y-83530548D01*
X157734243Y-83522695D01*
X157728878Y-83509301D01*
X157724756Y-83497883D01*
X157722327Y-83489722D01*
X157722039Y-83486097D01*
X157722664Y-83485870D01*
X157727812Y-83486147D01*
G37*
G36*
X161647808Y-83855601D02*
G01*
X161642567Y-83892258D01*
X161632952Y-83925910D01*
X161632255Y-83927748D01*
X161625624Y-83943463D01*
X161617084Y-83961581D01*
X161607692Y-83980019D01*
X161598504Y-83996694D01*
X161590575Y-84009523D01*
X161567905Y-84037763D01*
X161539094Y-84064550D01*
X161505126Y-84088744D01*
X161466479Y-84109960D01*
X161452368Y-84116434D01*
X161435422Y-84123127D01*
X161417935Y-84128573D01*
X161397972Y-84133358D01*
X161373599Y-84138067D01*
X161353000Y-84140829D01*
X161320552Y-84142348D01*
X161286372Y-84141146D01*
X161252398Y-84137385D01*
X161220568Y-84131230D01*
X161192819Y-84122842D01*
X161185205Y-84119783D01*
X161163882Y-84109784D01*
X161140803Y-84097312D01*
X161118141Y-84083583D01*
X161098066Y-84069812D01*
X161094591Y-84067179D01*
X161067640Y-84042717D01*
X161043516Y-84013684D01*
X161023090Y-83981431D01*
X161007233Y-83947310D01*
X160996815Y-83912671D01*
X160995381Y-83906013D01*
X160990560Y-83883584D01*
X160986924Y-83866054D01*
X160984403Y-83852357D01*
X160982926Y-83841428D01*
X160982422Y-83832202D01*
X160982685Y-83826536D01*
X161134396Y-83826536D01*
X161134459Y-83851374D01*
X161137527Y-83873489D01*
X161144052Y-83895247D01*
X161154486Y-83919014D01*
X161155347Y-83920754D01*
X161171123Y-83947972D01*
X161189069Y-83970032D01*
X161210200Y-83987983D01*
X161235531Y-84002878D01*
X161242526Y-84006240D01*
X161257933Y-84012592D01*
X161272476Y-84016575D01*
X161289262Y-84019130D01*
X161292908Y-84019532D01*
X161306526Y-84020827D01*
X161318247Y-84021648D01*
X161325861Y-84021832D01*
X161330684Y-84021585D01*
X161361551Y-84016856D01*
X161390017Y-84006601D01*
X161416668Y-83990552D01*
X161442089Y-83968439D01*
X161442420Y-83968104D01*
X161460240Y-83948377D01*
X161473212Y-83929738D01*
X161482248Y-83910625D01*
X161488262Y-83889478D01*
X161489275Y-83884024D01*
X161491446Y-83865279D01*
X161492586Y-83843373D01*
X161492666Y-83820613D01*
X161491661Y-83799306D01*
X161489541Y-83781759D01*
X161485094Y-83764715D01*
X161475345Y-83741583D01*
X161462084Y-83718914D01*
X161446323Y-83698177D01*
X161429076Y-83680843D01*
X161411357Y-83668382D01*
X161408818Y-83667026D01*
X161392747Y-83659493D01*
X161376731Y-83654185D01*
X161359182Y-83650780D01*
X161338511Y-83648953D01*
X161313131Y-83648383D01*
X161298219Y-83648412D01*
X161283768Y-83648733D01*
X161272801Y-83649561D01*
X161263708Y-83651104D01*
X161254879Y-83653568D01*
X161244706Y-83657158D01*
X161233860Y-83661551D01*
X161209893Y-83674724D01*
X161189532Y-83691750D01*
X161171918Y-83713438D01*
X161156193Y-83740597D01*
X161147725Y-83758841D01*
X161141313Y-83776920D01*
X161137327Y-83795363D01*
X161134982Y-83817004D01*
X161134396Y-83826536D01*
X160982685Y-83826536D01*
X160982821Y-83823614D01*
X160984051Y-83814599D01*
X160986042Y-83804091D01*
X160988723Y-83791026D01*
X160994093Y-83767161D01*
X161006352Y-83725768D01*
X161021572Y-83689328D01*
X161040145Y-83657209D01*
X161062462Y-83628784D01*
X161088916Y-83603424D01*
X161119899Y-83580499D01*
X161124797Y-83577314D01*
X161139509Y-83568287D01*
X161153381Y-83560902D01*
X161167828Y-83554581D01*
X161184267Y-83548750D01*
X161204117Y-83542832D01*
X161228793Y-83536252D01*
X161233274Y-83535108D01*
X161254447Y-83530148D01*
X161272780Y-83526863D01*
X161290926Y-83524850D01*
X161311539Y-83523708D01*
X161322054Y-83523349D01*
X161334970Y-83523148D01*
X161345890Y-83523535D01*
X161356447Y-83524713D01*
X161368271Y-83526886D01*
X161382992Y-83530256D01*
X161402242Y-83535029D01*
X161416156Y-83538648D01*
X161444689Y-83547170D01*
X161468975Y-83556373D01*
X161490493Y-83566945D01*
X161510721Y-83579571D01*
X161531136Y-83594940D01*
X161534626Y-83597803D01*
X161566061Y-83628046D01*
X161593427Y-83662806D01*
X161616080Y-83701279D01*
X161619024Y-83707163D01*
X161626923Y-83723228D01*
X161632615Y-83735621D01*
X161636652Y-83745858D01*
X161639589Y-83755455D01*
X161641977Y-83765926D01*
X161644370Y-83778788D01*
X161644625Y-83780245D01*
X161648539Y-83817682D01*
X161648482Y-83820613D01*
X161647808Y-83855601D01*
G37*
G36*
X159620628Y-83523538D02*
G01*
X159647146Y-83527636D01*
X159676727Y-83534380D01*
X159710690Y-83543866D01*
X159730387Y-83550281D01*
X159751570Y-83559148D01*
X159771175Y-83570131D01*
X159791868Y-83584567D01*
X159796558Y-83588135D01*
X159829441Y-83616506D01*
X159856700Y-83646829D01*
X159878921Y-83679963D01*
X159896693Y-83716767D01*
X159910604Y-83758101D01*
X159913354Y-83768507D01*
X159916208Y-83781856D01*
X159917943Y-83795062D01*
X159918815Y-83810291D01*
X159919081Y-83829708D01*
X159919082Y-83836092D01*
X159918826Y-83852897D01*
X159917937Y-83866340D01*
X159916113Y-83878698D01*
X159913047Y-83892250D01*
X159908435Y-83909272D01*
X159904170Y-83923714D01*
X159898681Y-83940766D01*
X159893353Y-83955901D01*
X159888907Y-83966995D01*
X159871664Y-83998733D01*
X159847713Y-84030638D01*
X159818658Y-84059747D01*
X159785019Y-84085545D01*
X159747312Y-84107518D01*
X159738862Y-84111664D01*
X159720959Y-84119587D01*
X159703171Y-84126005D01*
X159683882Y-84131397D01*
X159661474Y-84136244D01*
X159634331Y-84141024D01*
X159615299Y-84142847D01*
X159591040Y-84142987D01*
X159564127Y-84141488D01*
X159536299Y-84138538D01*
X159509292Y-84134323D01*
X159484843Y-84129028D01*
X159464690Y-84122840D01*
X159459507Y-84120704D01*
X159445565Y-84114012D01*
X159428796Y-84105094D01*
X159410833Y-84094892D01*
X159393309Y-84084347D01*
X159377855Y-84074400D01*
X159366105Y-84065993D01*
X159361628Y-84062133D01*
X159353146Y-84052743D01*
X159347053Y-84043235D01*
X159344718Y-84035554D01*
X159345981Y-84033164D01*
X159350879Y-84027458D01*
X159358206Y-84020278D01*
X159363817Y-84015034D01*
X159374059Y-84005225D01*
X159386013Y-83993593D01*
X159398091Y-83981676D01*
X159402160Y-83977676D01*
X159415545Y-83965399D01*
X159425426Y-83957936D01*
X159431635Y-83955420D01*
X159433845Y-83955899D01*
X159441242Y-83959562D01*
X159451293Y-83966085D01*
X159462561Y-83974578D01*
X159470839Y-83981052D01*
X159497883Y-83999113D01*
X159524522Y-84011626D01*
X159552014Y-84018965D01*
X159581618Y-84021502D01*
X159614591Y-84019609D01*
X159640437Y-84014969D01*
X159666804Y-84005535D01*
X159690994Y-83991073D01*
X159714353Y-83970926D01*
X159724840Y-83959620D01*
X159744048Y-83932251D01*
X159757835Y-83901634D01*
X159766139Y-83867930D01*
X159768898Y-83831300D01*
X159767884Y-83810752D01*
X159762548Y-83781471D01*
X159752271Y-83752259D01*
X159736643Y-83721726D01*
X159725604Y-83704977D01*
X159707521Y-83685073D01*
X159686250Y-83669695D01*
X159661234Y-83658546D01*
X159631914Y-83651327D01*
X159597732Y-83647743D01*
X159583313Y-83647301D01*
X159550066Y-83649017D01*
X159520892Y-83654993D01*
X159495114Y-83665473D01*
X159472056Y-83680703D01*
X159451041Y-83700928D01*
X159435421Y-83718546D01*
X159393252Y-83676176D01*
X159393155Y-83676078D01*
X159379869Y-83662549D01*
X159368264Y-83650394D01*
X159359053Y-83640388D01*
X159352949Y-83633304D01*
X159350664Y-83629915D01*
X159350550Y-83629380D01*
X159349634Y-83630928D01*
X159348278Y-83637117D01*
X159348165Y-83637739D01*
X159346105Y-83644776D01*
X159341953Y-83648372D01*
X159333579Y-83650460D01*
X159328041Y-83651006D01*
X159316657Y-83651577D01*
X159300796Y-83652077D01*
X159281459Y-83652479D01*
X159259648Y-83652760D01*
X159236365Y-83652893D01*
X159151881Y-83653076D01*
X159152027Y-83892564D01*
X159152173Y-84132052D01*
X159075792Y-84132052D01*
X158999411Y-84132052D01*
X158999411Y-83891903D01*
X158999411Y-83651754D01*
X158907490Y-83651620D01*
X158815570Y-83651485D01*
X158815196Y-83594199D01*
X158814822Y-83536913D01*
X159078975Y-83536913D01*
X159343127Y-83536913D01*
X159343964Y-83575104D01*
X159344404Y-83589991D01*
X159345016Y-83603204D01*
X159345708Y-83612902D01*
X159346399Y-83617660D01*
X159346548Y-83617957D01*
X159349900Y-83617630D01*
X159357024Y-83612232D01*
X159367937Y-83601747D01*
X159374833Y-83595109D01*
X159395938Y-83578581D01*
X159420916Y-83564110D01*
X159450370Y-83551422D01*
X159484906Y-83540241D01*
X159525130Y-83530291D01*
X159546295Y-83526163D01*
X159571519Y-83522899D01*
X159595858Y-83521992D01*
X159620628Y-83523538D01*
G37*
G36*
X155808255Y-83911912D02*
G01*
X155819200Y-83934733D01*
X155819774Y-83935926D01*
X155835501Y-83968715D01*
X155850033Y-83999237D01*
X155863140Y-84026997D01*
X155874593Y-84051504D01*
X155884164Y-84072264D01*
X155891623Y-84088786D01*
X155896742Y-84100575D01*
X155899292Y-84107141D01*
X155900022Y-84110701D01*
X155898523Y-84113199D01*
X155893294Y-84114748D01*
X155883027Y-84116067D01*
X155875131Y-84116953D01*
X155864844Y-84118181D01*
X155858225Y-84119063D01*
X155854361Y-84119683D01*
X155849967Y-84120479D01*
X155846741Y-84118473D01*
X155841225Y-84111189D01*
X155833870Y-84099174D01*
X155824987Y-84083020D01*
X155814889Y-84063318D01*
X155803889Y-84040659D01*
X155792298Y-84015635D01*
X155780429Y-83988836D01*
X155779430Y-83986540D01*
X155773002Y-83972213D01*
X155767246Y-83960116D01*
X155762760Y-83951461D01*
X155760137Y-83947463D01*
X155759028Y-83947099D01*
X155752010Y-83946420D01*
X155738777Y-83945908D01*
X155719430Y-83945563D01*
X155694070Y-83945385D01*
X155662800Y-83945377D01*
X155625721Y-83945539D01*
X155582934Y-83945872D01*
X155409485Y-83947463D01*
X155403780Y-83964665D01*
X155401330Y-83971379D01*
X155396391Y-83982570D01*
X155391721Y-83990793D01*
X155390559Y-83992640D01*
X155386340Y-84000585D01*
X155380441Y-84012652D01*
X155373415Y-84027620D01*
X155365815Y-84044270D01*
X155358195Y-84061381D01*
X155351107Y-84077734D01*
X155345103Y-84092109D01*
X155340737Y-84103285D01*
X155338305Y-84108937D01*
X155333857Y-84114704D01*
X155327099Y-84118170D01*
X155316688Y-84119921D01*
X155301278Y-84120547D01*
X155296420Y-84120573D01*
X155284606Y-84119888D01*
X155277900Y-84117631D01*
X155275390Y-84113286D01*
X155276165Y-84106338D01*
X155276195Y-84106220D01*
X155279001Y-84097877D01*
X155284600Y-84083831D01*
X155292988Y-84064094D01*
X155304159Y-84038679D01*
X155318106Y-84007599D01*
X155334825Y-83970865D01*
X155354309Y-83928490D01*
X155365981Y-83903301D01*
X155433885Y-83903301D01*
X155434397Y-83904434D01*
X155435396Y-83904827D01*
X155437292Y-83904999D01*
X155446184Y-83905389D01*
X155459917Y-83905664D01*
X155477743Y-83905831D01*
X155498915Y-83905897D01*
X155522686Y-83905871D01*
X155548309Y-83905761D01*
X155575038Y-83905573D01*
X155602124Y-83905315D01*
X155628821Y-83904996D01*
X155654383Y-83904623D01*
X155678061Y-83904204D01*
X155699109Y-83903745D01*
X155716781Y-83903256D01*
X155730328Y-83902743D01*
X155739004Y-83902214D01*
X155742062Y-83901678D01*
X155740702Y-83897042D01*
X155736534Y-83886672D01*
X155729559Y-83870593D01*
X155719775Y-83848804D01*
X155717678Y-83844193D01*
X155712998Y-83833913D01*
X155706450Y-83819536D01*
X155698464Y-83802008D01*
X155689472Y-83782275D01*
X155679905Y-83761283D01*
X155675960Y-83752628D01*
X155664272Y-83726969D01*
X155651923Y-83699840D01*
X155639739Y-83673059D01*
X155628545Y-83648438D01*
X155619167Y-83627794D01*
X155617555Y-83624250D01*
X155609399Y-83606534D01*
X155602049Y-83590911D01*
X155595953Y-83578310D01*
X155591560Y-83569661D01*
X155589318Y-83565893D01*
X155587152Y-83564397D01*
X155584341Y-83565123D01*
X155581026Y-83569555D01*
X155576674Y-83578461D01*
X155570751Y-83592608D01*
X155569945Y-83594583D01*
X155564508Y-83607451D01*
X155557379Y-83623815D01*
X155549390Y-83641777D01*
X155541375Y-83659442D01*
X155522594Y-83700369D01*
X155505078Y-83738586D01*
X155489923Y-83771723D01*
X155476973Y-83800143D01*
X155466072Y-83824207D01*
X155457064Y-83844277D01*
X155449792Y-83860715D01*
X155444101Y-83873881D01*
X155439834Y-83884138D01*
X155436835Y-83891847D01*
X155434948Y-83897369D01*
X155434016Y-83901067D01*
X155433885Y-83903301D01*
X155365981Y-83903301D01*
X155376553Y-83880487D01*
X155401552Y-83826869D01*
X155429298Y-83767649D01*
X155438955Y-83747011D01*
X155449660Y-83723980D01*
X155459773Y-83702072D01*
X155468761Y-83682446D01*
X155476093Y-83666259D01*
X155481237Y-83654668D01*
X155482829Y-83651060D01*
X155489269Y-83637015D01*
X155497727Y-83619124D01*
X155507549Y-83598749D01*
X155518078Y-83577256D01*
X155528659Y-83556008D01*
X155562247Y-83489175D01*
X155587708Y-83490320D01*
X155599532Y-83491014D01*
X155610104Y-83492453D01*
X155616611Y-83495045D01*
X155620347Y-83499371D01*
X155622607Y-83506014D01*
X155623077Y-83507498D01*
X155626024Y-83514837D01*
X155631147Y-83526551D01*
X155638011Y-83541675D01*
X155646179Y-83559242D01*
X155655215Y-83578286D01*
X155658176Y-83584486D01*
X155669391Y-83608259D01*
X155681991Y-83635322D01*
X155695076Y-83663723D01*
X155707744Y-83691509D01*
X155719094Y-83716728D01*
X155725156Y-83730311D01*
X155735250Y-83752928D01*
X155745017Y-83774809D01*
X155753889Y-83794684D01*
X155761300Y-83811286D01*
X155766684Y-83823343D01*
X155771014Y-83832872D01*
X155778240Y-83848454D01*
X155787223Y-83867601D01*
X155797412Y-83889145D01*
X155803381Y-83901678D01*
X155808255Y-83911912D01*
G37*
G36*
X156302741Y-77105019D02*
G01*
X156310305Y-77111327D01*
X156362000Y-77154438D01*
X156406252Y-77193465D01*
X156415729Y-77201823D01*
X156421377Y-77206804D01*
X156423293Y-77208494D01*
X156427763Y-77212639D01*
X156448353Y-77231730D01*
X156455795Y-77238630D01*
X156486274Y-77266891D01*
X156550598Y-77329333D01*
X156551264Y-77329993D01*
X156579358Y-77358383D01*
X156609875Y-77390100D01*
X156642038Y-77424281D01*
X156670438Y-77455044D01*
X156675071Y-77460063D01*
X156708197Y-77496583D01*
X156740642Y-77532979D01*
X156771628Y-77568388D01*
X156800380Y-77601947D01*
X156826122Y-77632792D01*
X156848078Y-77660063D01*
X156857731Y-77672280D01*
X156871656Y-77689778D01*
X156887219Y-77709230D01*
X156903134Y-77729034D01*
X156918119Y-77747583D01*
X156933072Y-77766165D01*
X156962956Y-77804069D01*
X156993806Y-77844226D01*
X157025911Y-77887037D01*
X157059562Y-77932902D01*
X157095046Y-77982222D01*
X157132653Y-78035395D01*
X157172674Y-78092822D01*
X157215396Y-78154904D01*
X157261109Y-78222040D01*
X157269003Y-78233712D01*
X157362477Y-78375799D01*
X157452945Y-78520687D01*
X157541120Y-78669547D01*
X157627712Y-78823544D01*
X157634272Y-78835467D01*
X157645054Y-78854905D01*
X157655615Y-78873774D01*
X157665015Y-78890400D01*
X157672316Y-78903108D01*
X157683067Y-78922004D01*
X157696133Y-78946443D01*
X157706824Y-78968296D01*
X157714836Y-78986897D01*
X157719866Y-79001576D01*
X157721612Y-79011666D01*
X157721285Y-79013990D01*
X157718280Y-79021874D01*
X157713149Y-79030762D01*
X157708666Y-79037946D01*
X157701955Y-79050111D01*
X157695817Y-79062584D01*
X157691030Y-79072198D01*
X157684374Y-79083700D01*
X157678464Y-79092109D01*
X157675590Y-79096140D01*
X157671503Y-79104201D01*
X157667278Y-79115517D01*
X157662737Y-79130695D01*
X157657704Y-79150340D01*
X157652004Y-79175057D01*
X157645460Y-79205451D01*
X157637179Y-79249929D01*
X157631736Y-79293161D01*
X157629662Y-79334227D01*
X157630945Y-79374781D01*
X157635572Y-79416475D01*
X157643530Y-79460962D01*
X157648047Y-79481936D01*
X157654719Y-79509287D01*
X157661740Y-79533050D01*
X157669671Y-79554879D01*
X157679074Y-79576427D01*
X157690508Y-79599345D01*
X157710014Y-79634300D01*
X157741889Y-79682678D01*
X157777042Y-79726154D01*
X157815959Y-79765307D01*
X157859125Y-79800717D01*
X157897683Y-79827193D01*
X157952989Y-79858693D01*
X158011288Y-79884969D01*
X158071695Y-79905583D01*
X158075916Y-79906794D01*
X158087956Y-79910093D01*
X158098533Y-79912573D01*
X158108952Y-79914393D01*
X158120516Y-79915714D01*
X158134531Y-79916696D01*
X158152300Y-79917498D01*
X158175128Y-79918282D01*
X158202448Y-79918932D01*
X158240672Y-79918786D01*
X158274808Y-79917042D01*
X158306167Y-79913489D01*
X158336061Y-79907913D01*
X158365800Y-79900102D01*
X158396695Y-79889843D01*
X158430058Y-79876923D01*
X158469465Y-79859487D01*
X158510306Y-79837735D01*
X158547815Y-79813182D01*
X158583589Y-79784767D01*
X158619222Y-79751434D01*
X158653314Y-79714615D01*
X158691043Y-79665852D01*
X158723032Y-79614347D01*
X158749297Y-79560077D01*
X158769849Y-79503020D01*
X158770693Y-79500203D01*
X158772125Y-79495064D01*
X160041699Y-79495064D01*
X160043290Y-79496655D01*
X160044881Y-79495064D01*
X160043290Y-79493472D01*
X160041699Y-79495064D01*
X158772125Y-79495064D01*
X158776687Y-79478699D01*
X158782822Y-79454431D01*
X158788701Y-79429173D01*
X158793925Y-79404693D01*
X158798097Y-79382762D01*
X158800820Y-79365152D01*
X158801918Y-79346786D01*
X158801096Y-79321783D01*
X158798287Y-79292802D01*
X158793646Y-79260873D01*
X158787322Y-79227028D01*
X158779469Y-79192297D01*
X158770238Y-79157712D01*
X158767626Y-79149013D01*
X158749320Y-79100065D01*
X158725388Y-79051915D01*
X158696454Y-79005400D01*
X158663143Y-78961362D01*
X158626081Y-78920641D01*
X158585892Y-78884076D01*
X158543202Y-78852508D01*
X158526546Y-78841718D01*
X158503105Y-78827384D01*
X158481110Y-78815266D01*
X158458660Y-78804404D01*
X158433855Y-78793837D01*
X158404796Y-78782606D01*
X158393010Y-78778277D01*
X158366931Y-78769439D01*
X158343757Y-78762950D01*
X158321541Y-78758381D01*
X158298337Y-78755300D01*
X158272196Y-78753277D01*
X158258794Y-78752308D01*
X158245807Y-78750946D01*
X158236303Y-78749468D01*
X158231721Y-78748059D01*
X158229797Y-78745640D01*
X158225025Y-78738007D01*
X158218202Y-78726145D01*
X158209790Y-78710898D01*
X158200254Y-78693108D01*
X158190056Y-78673620D01*
X158179661Y-78653277D01*
X158174013Y-78642487D01*
X158165317Y-78626757D01*
X158157124Y-78612752D01*
X158149696Y-78600054D01*
X158141065Y-78584456D01*
X158133451Y-78569928D01*
X158130767Y-78564700D01*
X158122272Y-78548841D01*
X158110998Y-78528454D01*
X158097318Y-78504174D01*
X158081606Y-78476636D01*
X158064236Y-78446476D01*
X158045582Y-78414329D01*
X158026017Y-78380830D01*
X158005917Y-78346616D01*
X157985654Y-78312321D01*
X157965603Y-78278581D01*
X157946138Y-78246032D01*
X157927632Y-78215308D01*
X157910459Y-78187046D01*
X157894994Y-78161880D01*
X157881610Y-78140447D01*
X157870681Y-78123381D01*
X157868393Y-78119874D01*
X157856838Y-78102142D01*
X157844932Y-78083834D01*
X157833954Y-78066920D01*
X157825182Y-78053365D01*
X157824754Y-78052701D01*
X157816952Y-78040614D01*
X157806653Y-78024661D01*
X157794753Y-78006226D01*
X157782145Y-77986693D01*
X157769722Y-77967448D01*
X157766871Y-77963035D01*
X157738808Y-77919990D01*
X157710233Y-77876827D01*
X157681779Y-77834474D01*
X157654079Y-77793862D01*
X157627765Y-77755916D01*
X157603470Y-77721566D01*
X157581827Y-77691741D01*
X157574480Y-77681725D01*
X157561490Y-77663854D01*
X157547012Y-77643785D01*
X157532337Y-77623311D01*
X157518754Y-77604220D01*
X157512112Y-77594935D01*
X157497953Y-77575520D01*
X157481543Y-77553386D01*
X157463966Y-77529980D01*
X157446304Y-77506751D01*
X157429642Y-77485145D01*
X157417536Y-77469581D01*
X157401965Y-77449557D01*
X157387028Y-77430341D01*
X157373543Y-77412986D01*
X157362329Y-77398547D01*
X157354206Y-77388077D01*
X157350933Y-77383870D01*
X157327165Y-77354056D01*
X157299274Y-77320182D01*
X157267590Y-77282627D01*
X157232445Y-77241771D01*
X157194169Y-77197991D01*
X157153093Y-77151667D01*
X157109549Y-77103178D01*
X157063866Y-77052903D01*
X157016375Y-77001220D01*
X156996114Y-76979856D01*
X156971389Y-76954763D01*
X156943249Y-76926964D01*
X156912434Y-76897155D01*
X156879685Y-76866027D01*
X156845745Y-76834274D01*
X156811353Y-76802590D01*
X156777252Y-76771667D01*
X156744181Y-76742199D01*
X156712884Y-76714880D01*
X156684099Y-76690402D01*
X156655873Y-76667224D01*
X156600877Y-76624158D01*
X156542142Y-76580569D01*
X156481127Y-76537475D01*
X156419293Y-76495899D01*
X156358101Y-76456859D01*
X156299010Y-76421376D01*
X156274764Y-76407714D01*
X156229970Y-76384127D01*
X156181531Y-76360410D01*
X156130713Y-76337103D01*
X156078782Y-76314744D01*
X156027007Y-76293870D01*
X155976653Y-76275020D01*
X155928987Y-76258734D01*
X155885277Y-76245548D01*
X155876920Y-76243247D01*
X155812354Y-76226692D01*
X155752101Y-76213595D01*
X155695314Y-76203849D01*
X155641145Y-76197351D01*
X155588746Y-76193997D01*
X155537269Y-76193680D01*
X155485866Y-76196298D01*
X155476441Y-76197100D01*
X155449069Y-76200297D01*
X155422719Y-76204899D01*
X155395721Y-76211285D01*
X155366406Y-76219832D01*
X155333103Y-76230920D01*
X155292100Y-76246100D01*
X155253636Y-76262642D01*
X155218999Y-76280458D01*
X155186888Y-76300360D01*
X155155999Y-76323159D01*
X155125032Y-76349665D01*
X155092685Y-76380689D01*
X155072733Y-76401324D01*
X155049495Y-76427725D01*
X155029645Y-76453770D01*
X155012348Y-76480794D01*
X154996772Y-76510132D01*
X154982081Y-76543118D01*
X154967442Y-76581086D01*
X154962413Y-76595097D01*
X154955260Y-76616279D01*
X154949673Y-76635230D01*
X154945260Y-76653666D01*
X154941632Y-76673304D01*
X154938398Y-76695861D01*
X154935167Y-76723055D01*
X154935035Y-76724228D01*
X154932166Y-76747573D01*
X154929527Y-76764578D01*
X154927122Y-76775261D01*
X154924955Y-76779644D01*
X154923031Y-76777744D01*
X154921353Y-76769583D01*
X154919925Y-76755179D01*
X154918752Y-76734553D01*
X154917838Y-76707724D01*
X154917187Y-76674711D01*
X154916803Y-76635535D01*
X154916673Y-76609896D01*
X154916638Y-76586447D01*
X154916760Y-76567695D01*
X154917084Y-76552762D01*
X154917651Y-76540765D01*
X154918507Y-76530826D01*
X154919693Y-76522063D01*
X154921252Y-76513596D01*
X154923229Y-76504546D01*
X154924589Y-76498735D01*
X154928774Y-76482112D01*
X154933152Y-76466147D01*
X154936972Y-76453625D01*
X154940663Y-76443880D01*
X154948085Y-76427151D01*
X154957684Y-76407474D01*
X154968739Y-76386224D01*
X154980527Y-76364782D01*
X154992326Y-76344523D01*
X155003415Y-76326827D01*
X155009224Y-76318565D01*
X155022946Y-76301351D01*
X155040016Y-76281956D01*
X155059349Y-76261478D01*
X155079864Y-76241015D01*
X155100475Y-76221665D01*
X155120102Y-76204526D01*
X155137660Y-76190698D01*
X155151054Y-76180998D01*
X155171091Y-76166983D01*
X155189376Y-76155052D01*
X155207201Y-76144498D01*
X155225854Y-76134614D01*
X155246626Y-76124693D01*
X155270807Y-76114030D01*
X155299686Y-76101916D01*
X155305260Y-76099611D01*
X155317527Y-76094518D01*
X155327388Y-76090396D01*
X155333103Y-76087972D01*
X155333365Y-76087862D01*
X155339288Y-76085943D01*
X155349852Y-76082950D01*
X155363645Y-76079273D01*
X155379250Y-76075300D01*
X155395022Y-76071344D01*
X155413159Y-76066730D01*
X155429596Y-76062486D01*
X155442092Y-76059188D01*
X155473913Y-76051937D01*
X155513492Y-76045614D01*
X155556399Y-76041143D01*
X155601152Y-76038638D01*
X155646273Y-76038215D01*
X155690280Y-76039986D01*
X155704230Y-76040979D01*
X155733092Y-76043442D01*
X155759821Y-76046430D01*
X155786066Y-76050195D01*
X155813476Y-76054988D01*
X155843699Y-76061059D01*
X155878384Y-76068661D01*
X155893474Y-76072089D01*
X155919289Y-76078132D01*
X155941813Y-76083745D01*
X155962585Y-76089373D01*
X155983148Y-76095464D01*
X156005042Y-76102463D01*
X156029808Y-76110817D01*
X156058989Y-76120973D01*
X156079336Y-76128236D01*
X156120420Y-76143716D01*
X156160374Y-76159998D01*
X156200800Y-76177774D01*
X156243295Y-76197735D01*
X156289462Y-76220572D01*
X156318180Y-76235181D01*
X156359052Y-76256470D01*
X156396494Y-76276713D01*
X156431917Y-76296732D01*
X156466732Y-76317352D01*
X156502350Y-76339396D01*
X156540182Y-76363686D01*
X156581639Y-76391046D01*
X156589075Y-76396017D01*
X156612807Y-76412094D01*
X156635018Y-76427531D01*
X156656616Y-76443011D01*
X156678513Y-76459213D01*
X156701617Y-76476818D01*
X156726838Y-76496507D01*
X156755088Y-76518959D01*
X156787274Y-76544857D01*
X156808805Y-76562446D01*
X156851856Y-76598703D01*
X156894315Y-76635848D01*
X156935234Y-76673011D01*
X156973662Y-76709319D01*
X157008650Y-76743903D01*
X157039248Y-76775892D01*
X157045197Y-76782463D01*
X157056419Y-76795289D01*
X157069256Y-76810347D01*
X157082885Y-76826630D01*
X157096476Y-76843132D01*
X157109206Y-76858848D01*
X157120247Y-76872770D01*
X157128773Y-76883893D01*
X157133958Y-76891211D01*
X157137932Y-76897060D01*
X157140539Y-76899683D01*
X157140552Y-76897351D01*
X157138094Y-76890489D01*
X157133287Y-76879516D01*
X157126256Y-76864856D01*
X157112152Y-76837700D01*
X157091747Y-76801436D01*
X157068147Y-76762094D01*
X157041942Y-76720566D01*
X157013724Y-76677747D01*
X156984083Y-76634529D01*
X156953609Y-76591805D01*
X156922894Y-76550470D01*
X156892528Y-76511415D01*
X156886291Y-76503651D01*
X156861280Y-76473521D01*
X156834691Y-76442898D01*
X156807289Y-76412584D01*
X156779839Y-76383382D01*
X156753106Y-76356095D01*
X156727856Y-76331523D01*
X156704853Y-76310469D01*
X156684864Y-76293736D01*
X156682511Y-76291860D01*
X156673606Y-76284157D01*
X156667360Y-76277783D01*
X156665004Y-76273963D01*
X156665424Y-76272974D01*
X156669564Y-76268129D01*
X156677423Y-76260463D01*
X156688129Y-76250804D01*
X156700808Y-76239979D01*
X156707343Y-76234576D01*
X156754753Y-76197246D01*
X156807124Y-76158918D01*
X156863441Y-76120233D01*
X156922691Y-76081832D01*
X156983860Y-76044356D01*
X157045935Y-76008448D01*
X157107902Y-75974748D01*
X157168748Y-75943898D01*
X157172737Y-75941958D01*
X157292842Y-75886912D01*
X157413716Y-75838069D01*
X157535821Y-75795280D01*
X157659622Y-75758392D01*
X157785580Y-75727256D01*
X157914158Y-75701722D01*
X157934193Y-75698274D01*
X157980715Y-75690702D01*
X158028195Y-75683523D01*
X158075197Y-75676935D01*
X158120288Y-75671133D01*
X158162032Y-75666315D01*
X158198997Y-75662676D01*
X158205679Y-75662119D01*
X158238817Y-75659978D01*
X158276724Y-75658385D01*
X158318388Y-75657325D01*
X158362798Y-75656786D01*
X158408943Y-75656751D01*
X158455813Y-75657209D01*
X158502397Y-75658145D01*
X158547682Y-75659544D01*
X158590659Y-75661394D01*
X158630316Y-75663680D01*
X158665642Y-75666388D01*
X158695627Y-75669505D01*
X158731469Y-75674180D01*
X158770651Y-75679808D01*
X158810988Y-75686066D01*
X158851544Y-75692784D01*
X158891386Y-75699792D01*
X158929577Y-75706923D01*
X158965184Y-75714004D01*
X158997271Y-75720868D01*
X159024904Y-75727344D01*
X159047149Y-75733264D01*
X159050042Y-75734101D01*
X159062482Y-75737677D01*
X159079287Y-75742482D01*
X159099131Y-75748139D01*
X159120686Y-75754268D01*
X159142626Y-75760493D01*
X159179440Y-75771368D01*
X159240862Y-75791233D01*
X159304353Y-75813685D01*
X159368232Y-75838075D01*
X159430819Y-75863752D01*
X159490436Y-75890066D01*
X159545401Y-75916368D01*
X159551299Y-75919356D01*
X159567793Y-75927959D01*
X159587181Y-75938331D01*
X159608516Y-75949943D01*
X159630854Y-75962264D01*
X159653249Y-75974766D01*
X159674756Y-75986918D01*
X159694428Y-75998192D01*
X159711322Y-76008057D01*
X159724491Y-76015984D01*
X159732990Y-76021444D01*
X159739345Y-76025724D01*
X159749165Y-76032186D01*
X159760042Y-76039239D01*
X159774883Y-76048949D01*
X159807682Y-76071321D01*
X159842835Y-76096349D01*
X159879039Y-76123049D01*
X159914989Y-76150433D01*
X159949383Y-76177518D01*
X159980915Y-76203318D01*
X160008282Y-76226846D01*
X160008359Y-76226915D01*
X160019651Y-76236918D01*
X160033895Y-76249504D01*
X160049276Y-76263070D01*
X160063977Y-76276011D01*
X160098646Y-76307310D01*
X160153052Y-76359458D01*
X160208233Y-76415813D01*
X160263242Y-76475338D01*
X160317131Y-76537000D01*
X160368951Y-76599761D01*
X160417756Y-76662587D01*
X160420820Y-76666730D01*
X160429933Y-76679458D01*
X160441648Y-76696201D01*
X160455352Y-76716053D01*
X160470432Y-76738108D01*
X160486274Y-76761461D01*
X160502265Y-76785206D01*
X160517792Y-76808437D01*
X160532243Y-76830249D01*
X160545004Y-76849737D01*
X160555461Y-76865994D01*
X160559054Y-76871911D01*
X160566550Y-76885018D01*
X160576151Y-76902411D01*
X160587408Y-76923243D01*
X160599872Y-76946670D01*
X160613095Y-76971847D01*
X160626627Y-76997928D01*
X160640021Y-77024069D01*
X160652828Y-77049424D01*
X160660229Y-77064462D01*
X160673197Y-77091913D01*
X160686664Y-77121635D01*
X160700366Y-77152958D01*
X160714041Y-77185209D01*
X160727426Y-77217717D01*
X160740258Y-77249811D01*
X160752275Y-77280820D01*
X160763215Y-77310072D01*
X160772813Y-77336896D01*
X160780808Y-77360620D01*
X160786937Y-77380573D01*
X160790937Y-77396083D01*
X160792546Y-77406479D01*
X160793598Y-77408210D01*
X160798352Y-77411945D01*
X160807237Y-77417453D01*
X160820580Y-77424916D01*
X160838710Y-77434514D01*
X160861956Y-77446430D01*
X160890646Y-77460847D01*
X160906300Y-77468668D01*
X160929928Y-77480516D01*
X160952095Y-77491679D01*
X160971954Y-77501728D01*
X160988655Y-77510233D01*
X161001352Y-77516766D01*
X161009196Y-77520896D01*
X161012448Y-77522650D01*
X161024483Y-77529067D01*
X161039922Y-77537224D01*
X161057122Y-77546255D01*
X161074439Y-77555294D01*
X161136198Y-77588296D01*
X161221332Y-77636429D01*
X161308160Y-77688385D01*
X161395498Y-77743413D01*
X161482163Y-77800761D01*
X161566971Y-77859680D01*
X161648737Y-77919419D01*
X161661644Y-77929170D01*
X161684314Y-77946726D01*
X161706006Y-77964183D01*
X161727813Y-77982464D01*
X161750825Y-78002494D01*
X161776136Y-78025196D01*
X161804836Y-78051494D01*
X161845285Y-78089422D01*
X161913567Y-78156446D01*
X161976079Y-78221970D01*
X162033022Y-78286244D01*
X162084594Y-78349516D01*
X162130995Y-78412037D01*
X162172423Y-78474055D01*
X162209079Y-78535821D01*
X162241160Y-78597582D01*
X162254502Y-78626190D01*
X162271586Y-78667146D01*
X162285140Y-78706314D01*
X162295670Y-78745414D01*
X162303682Y-78786164D01*
X162309681Y-78830282D01*
X162309897Y-78832230D01*
X162311980Y-78852904D01*
X162313112Y-78869798D01*
X162313330Y-78885228D01*
X162312673Y-78901511D01*
X162311178Y-78920963D01*
X162305496Y-78967405D01*
X162295311Y-79015723D01*
X162284834Y-79047894D01*
X162280755Y-79060419D01*
X162261434Y-79102334D01*
X162236954Y-79142305D01*
X162206923Y-79181172D01*
X162170946Y-79219772D01*
X162151193Y-79238197D01*
X162109190Y-79270989D01*
X162062208Y-79299977D01*
X162010174Y-79325204D01*
X161953017Y-79346710D01*
X161932003Y-79353559D01*
X161905949Y-79361708D01*
X161883678Y-79368040D01*
X161863898Y-79372775D01*
X161845316Y-79376135D01*
X161826637Y-79378342D01*
X161806571Y-79379617D01*
X161783822Y-79380182D01*
X161757098Y-79380257D01*
X161736129Y-79380136D01*
X161715440Y-79379806D01*
X161698458Y-79379175D01*
X161683729Y-79378134D01*
X161669799Y-79376577D01*
X161655213Y-79374395D01*
X161638519Y-79371481D01*
X161580915Y-79359785D01*
X161513908Y-79343065D01*
X161445210Y-79322562D01*
X161373441Y-79297893D01*
X161358929Y-79292573D01*
X161333313Y-79282966D01*
X161309867Y-79273802D01*
X161287477Y-79264590D01*
X161265029Y-79254840D01*
X161241412Y-79244065D01*
X161215512Y-79231773D01*
X161186216Y-79217476D01*
X161152412Y-79200683D01*
X161142288Y-79195613D01*
X161100985Y-79174625D01*
X161062603Y-79154553D01*
X161026135Y-79134809D01*
X160990577Y-79114810D01*
X160954920Y-79093969D01*
X160918159Y-79071701D01*
X160879289Y-79047420D01*
X160837301Y-79020541D01*
X160791191Y-78990478D01*
X160783773Y-78985600D01*
X160708569Y-78935282D01*
X160672338Y-78910174D01*
X160881691Y-78910174D01*
X160881903Y-78912191D01*
X160882934Y-78914311D01*
X160885251Y-78916846D01*
X160889320Y-78920112D01*
X160895606Y-78924420D01*
X160904578Y-78930084D01*
X160916699Y-78937418D01*
X160932438Y-78946734D01*
X160952259Y-78958346D01*
X160976629Y-78972568D01*
X161006014Y-78989712D01*
X161048578Y-79014205D01*
X161126743Y-79057258D01*
X161202285Y-79096316D01*
X161274933Y-79131255D01*
X161344414Y-79161953D01*
X161410456Y-79188286D01*
X161472787Y-79210132D01*
X161531136Y-79227366D01*
X161533723Y-79228044D01*
X161554750Y-79233184D01*
X161579325Y-79238679D01*
X161606058Y-79244261D01*
X161633560Y-79249666D01*
X161660439Y-79254627D01*
X161685305Y-79258878D01*
X161706768Y-79262152D01*
X161723438Y-79264184D01*
X161731901Y-79264946D01*
X161759731Y-79266683D01*
X161783300Y-79266891D01*
X161801654Y-79265552D01*
X161804204Y-79265213D01*
X161813208Y-79264064D01*
X161825718Y-79262501D01*
X161839844Y-79260761D01*
X161846910Y-79259851D01*
X161860262Y-79257879D01*
X161870946Y-79255975D01*
X161877133Y-79254450D01*
X161881531Y-79251417D01*
X161888461Y-79242300D01*
X161895865Y-79228305D01*
X161903436Y-79210263D01*
X161910865Y-79189002D01*
X161917843Y-79165351D01*
X161924064Y-79140141D01*
X161929219Y-79114201D01*
X161931959Y-79095917D01*
X161935068Y-79047894D01*
X161932326Y-78999009D01*
X161923690Y-78948968D01*
X161909115Y-78897473D01*
X161888556Y-78844230D01*
X161880526Y-78826086D01*
X161868517Y-78800515D01*
X161856401Y-78776993D01*
X161843210Y-78753763D01*
X161827978Y-78729071D01*
X161809738Y-78701162D01*
X161792122Y-78675389D01*
X161765620Y-78638974D01*
X161737454Y-78603084D01*
X161707159Y-78567226D01*
X161674271Y-78530910D01*
X161638327Y-78493644D01*
X161598862Y-78454936D01*
X161555413Y-78414297D01*
X161507515Y-78371233D01*
X161454704Y-78325254D01*
X161450628Y-78321780D01*
X161423130Y-78299398D01*
X161391119Y-78274868D01*
X161355568Y-78248864D01*
X161317450Y-78222060D01*
X161277739Y-78195131D01*
X161237407Y-78168749D01*
X161197429Y-78143589D01*
X161158777Y-78120325D01*
X161134071Y-78105900D01*
X161109775Y-78091905D01*
X161089941Y-78080735D01*
X161074059Y-78072107D01*
X161061617Y-78065739D01*
X161052102Y-78061348D01*
X161045305Y-78058286D01*
X161033346Y-78052638D01*
X161018069Y-78045258D01*
X161000728Y-78036753D01*
X160982578Y-78027728D01*
X160982491Y-78027685D01*
X160965346Y-78019226D01*
X160949943Y-78011863D01*
X160937265Y-78006046D01*
X160928292Y-78002226D01*
X160924006Y-78000852D01*
X160923031Y-78000976D01*
X160921397Y-78002481D01*
X160920467Y-78006472D01*
X160920177Y-78013916D01*
X160920464Y-78025777D01*
X160921265Y-78043021D01*
X160923944Y-78103015D01*
X160926007Y-78166999D01*
X160927303Y-78230911D01*
X160927809Y-78293193D01*
X160927505Y-78352285D01*
X160926367Y-78406629D01*
X160925357Y-78438040D01*
X160923612Y-78483874D01*
X160921594Y-78526169D01*
X160919200Y-78566152D01*
X160916328Y-78605047D01*
X160912875Y-78644082D01*
X160908738Y-78684482D01*
X160903813Y-78727474D01*
X160897999Y-78774284D01*
X160891192Y-78826137D01*
X160890180Y-78833759D01*
X160887536Y-78854311D01*
X160885258Y-78872935D01*
X160883474Y-78888536D01*
X160882310Y-78900022D01*
X160881894Y-78906297D01*
X160881833Y-78907947D01*
X160881691Y-78910174D01*
X160672338Y-78910174D01*
X160637600Y-78886101D01*
X160569330Y-78836952D01*
X160502224Y-78786731D01*
X160434745Y-78734335D01*
X160426751Y-78728035D01*
X160407957Y-78713306D01*
X160388513Y-78698163D01*
X160370295Y-78684064D01*
X160355181Y-78672469D01*
X160343701Y-78663649D01*
X160309150Y-78636362D01*
X160271943Y-78606024D01*
X160233394Y-78573745D01*
X160194820Y-78540635D01*
X160157535Y-78507805D01*
X160122854Y-78476364D01*
X160122243Y-78475801D01*
X160105801Y-78460724D01*
X160086969Y-78443577D01*
X160068026Y-78426428D01*
X160051246Y-78411344D01*
X160044240Y-78405065D01*
X160032319Y-78394322D01*
X160022575Y-78385466D01*
X160015868Y-78379278D01*
X160013056Y-78376541D01*
X160011361Y-78374842D01*
X160005573Y-78369383D01*
X159996491Y-78360959D01*
X159984924Y-78350320D01*
X159971682Y-78338215D01*
X159959026Y-78326638D01*
X159908477Y-78279639D01*
X159856727Y-78230389D01*
X159804660Y-78179775D01*
X159753163Y-78128681D01*
X159703121Y-78077991D01*
X159655418Y-78028591D01*
X159610940Y-77981366D01*
X159570572Y-77937201D01*
X159566914Y-77933137D01*
X159553591Y-77918431D01*
X159537518Y-77900798D01*
X159519883Y-77881536D01*
X159501873Y-77861943D01*
X159484674Y-77843316D01*
X159478974Y-77837159D01*
X159460070Y-77816702D01*
X159444358Y-77799601D01*
X159430936Y-77784826D01*
X159418902Y-77771347D01*
X159407353Y-77758136D01*
X159395387Y-77744162D01*
X159382101Y-77728396D01*
X159366592Y-77709809D01*
X159347958Y-77687370D01*
X159291944Y-77619045D01*
X159223395Y-77532912D01*
X159159371Y-77449400D01*
X159099467Y-77367952D01*
X159043273Y-77288010D01*
X158990384Y-77209019D01*
X158940392Y-77130423D01*
X158934332Y-77120677D01*
X158923884Y-77104000D01*
X158913698Y-77087871D01*
X158905309Y-77074728D01*
X158901465Y-77068651D01*
X158891586Y-77051909D01*
X158883858Y-77037074D01*
X158878813Y-77025226D01*
X158876985Y-77017442D01*
X158877191Y-77016340D01*
X158879535Y-77010032D01*
X158884079Y-76999658D01*
X158890309Y-76986365D01*
X158897707Y-76971304D01*
X158900176Y-76966343D01*
X158910723Y-76943822D01*
X158919644Y-76922018D01*
X158927388Y-76899519D01*
X158934408Y-76874916D01*
X158941152Y-76846799D01*
X158948073Y-76813758D01*
X158954550Y-76778630D01*
X158959014Y-76747339D01*
X158961394Y-76718611D01*
X158961648Y-76691031D01*
X158959734Y-76663187D01*
X158955608Y-76633664D01*
X158949228Y-76601049D01*
X158940552Y-76563927D01*
X158936325Y-76547070D01*
X158930399Y-76524766D01*
X158924985Y-76506478D01*
X158919639Y-76490843D01*
X158913917Y-76476500D01*
X158907375Y-76462085D01*
X158895692Y-76438726D01*
X158863959Y-76384728D01*
X158827893Y-76335297D01*
X158787676Y-76290570D01*
X158743493Y-76250690D01*
X158695528Y-76215795D01*
X158643964Y-76186024D01*
X158588984Y-76161519D01*
X158530773Y-76142419D01*
X158469515Y-76128863D01*
X158455105Y-76127151D01*
X158435612Y-76125940D01*
X158412489Y-76125232D01*
X158387097Y-76125014D01*
X158360800Y-76125272D01*
X158334958Y-76125992D01*
X158310934Y-76127162D01*
X158290090Y-76128768D01*
X158273787Y-76130796D01*
X158270568Y-76131336D01*
X158213307Y-76144337D01*
X158157352Y-76163536D01*
X158102817Y-76188879D01*
X158049820Y-76220313D01*
X157998476Y-76257783D01*
X157984401Y-76269511D01*
X157945695Y-76306973D01*
X157910607Y-76349261D01*
X157878935Y-76396635D01*
X157850481Y-76449355D01*
X157846064Y-76458540D01*
X157835326Y-76481924D01*
X157826628Y-76503043D01*
X157819400Y-76523613D01*
X157813075Y-76545350D01*
X157807085Y-76569969D01*
X157800861Y-76599188D01*
X157798771Y-76609579D01*
X157795573Y-76626584D01*
X157793312Y-76641158D01*
X157791821Y-76655060D01*
X157790933Y-76670049D01*
X157790479Y-76687884D01*
X157790294Y-76710325D01*
X157790279Y-76714572D01*
X157790402Y-76738927D01*
X157791054Y-76759383D01*
X157792451Y-76777606D01*
X157794807Y-76795262D01*
X157798337Y-76814018D01*
X157803257Y-76835541D01*
X157809780Y-76861496D01*
X157818033Y-76890898D01*
X157834017Y-76936251D01*
X157853297Y-76978135D01*
X157876538Y-77018108D01*
X157890669Y-77039242D01*
X157926865Y-77086548D01*
X157966448Y-77128989D01*
X158010015Y-77167107D01*
X158058160Y-77201446D01*
X158111477Y-77232549D01*
X158128031Y-77240723D01*
X158157888Y-77253370D01*
X158190841Y-77265245D01*
X158225454Y-77275950D01*
X158260289Y-77285087D01*
X158293910Y-77292257D01*
X158324879Y-77297064D01*
X158351760Y-77299108D01*
X158381994Y-77299766D01*
X158387884Y-77312162D01*
X158388943Y-77314288D01*
X158393721Y-77323158D01*
X158400740Y-77335621D01*
X158409232Y-77350328D01*
X158418432Y-77365932D01*
X158421152Y-77370499D01*
X158430970Y-77387015D01*
X158440395Y-77402915D01*
X158448469Y-77416582D01*
X158454236Y-77426401D01*
X158463959Y-77442871D01*
X158482600Y-77473701D01*
X158503535Y-77507562D01*
X158526151Y-77543507D01*
X158549832Y-77580591D01*
X158573966Y-77617867D01*
X158597939Y-77654390D01*
X158621134Y-77689214D01*
X158642940Y-77721393D01*
X158662741Y-77749981D01*
X158679924Y-77774031D01*
X158684757Y-77780664D01*
X158699202Y-77800589D01*
X158714529Y-77821851D01*
X158729186Y-77842294D01*
X158741623Y-77859764D01*
X158742832Y-77861470D01*
X158768480Y-77897391D01*
X158795165Y-77934274D01*
X158822227Y-77971231D01*
X158849002Y-78007373D01*
X158874831Y-78041813D01*
X158899051Y-78073662D01*
X158921001Y-78102034D01*
X158940019Y-78126039D01*
X158942352Y-78128936D01*
X158974513Y-78168575D01*
X159007548Y-78208791D01*
X159040925Y-78248963D01*
X159074112Y-78288468D01*
X159106578Y-78326683D01*
X159137792Y-78362988D01*
X159167222Y-78396758D01*
X159194336Y-78427373D01*
X159218603Y-78454209D01*
X159239492Y-78476645D01*
X159261379Y-78499678D01*
X159292291Y-78532162D01*
X159319643Y-78560830D01*
X159343920Y-78586185D01*
X159365608Y-78608729D01*
X159385195Y-78628962D01*
X159403166Y-78647387D01*
X159420008Y-78664507D01*
X159436208Y-78680821D01*
X159452251Y-78696833D01*
X159468625Y-78713045D01*
X159486798Y-78730865D01*
X159508302Y-78751722D01*
X159530063Y-78772620D01*
X159550893Y-78792423D01*
X159569602Y-78809996D01*
X159585001Y-78824201D01*
X159599202Y-78837132D01*
X159617412Y-78853737D01*
X159635366Y-78870132D01*
X159651579Y-78884961D01*
X159664565Y-78896867D01*
X159669490Y-78901356D01*
X159685543Y-78915686D01*
X159705418Y-78933105D01*
X159728313Y-78952935D01*
X159753426Y-78974494D01*
X159779956Y-78997102D01*
X159807098Y-79020081D01*
X159834053Y-79042749D01*
X159860017Y-79064428D01*
X159884188Y-79084436D01*
X159905765Y-79102095D01*
X159923944Y-79116724D01*
X159926569Y-79118809D01*
X159952519Y-79139302D01*
X159978993Y-79160006D01*
X160005304Y-79180398D01*
X160030765Y-79199955D01*
X160054688Y-79218154D01*
X160076386Y-79234473D01*
X160095173Y-79248388D01*
X160110361Y-79259376D01*
X160121263Y-79266915D01*
X160129797Y-79272680D01*
X160142597Y-79281528D01*
X160157161Y-79291743D01*
X160171702Y-79302079D01*
X160184195Y-79310972D01*
X160210854Y-79329645D01*
X160239421Y-79349315D01*
X160268885Y-79369306D01*
X160298237Y-79388945D01*
X160326464Y-79407558D01*
X160352558Y-79424472D01*
X160375508Y-79439013D01*
X160394304Y-79450508D01*
X160406668Y-79458056D01*
X160421731Y-79467600D01*
X160434770Y-79476195D01*
X160443437Y-79481722D01*
X160456601Y-79489633D01*
X160465932Y-79495064D01*
X160472854Y-79499093D01*
X160490923Y-79509363D01*
X160509535Y-79519701D01*
X160525793Y-79528625D01*
X160546802Y-79540172D01*
X160567351Y-79551481D01*
X160585732Y-79561612D01*
X160600238Y-79569625D01*
X160619375Y-79580093D01*
X160664329Y-79603871D01*
X160712639Y-79628440D01*
X160763421Y-79653400D01*
X160815789Y-79678350D01*
X160868858Y-79702890D01*
X160921743Y-79726621D01*
X160973558Y-79749142D01*
X161023417Y-79770053D01*
X161070436Y-79788955D01*
X161113729Y-79805447D01*
X161152412Y-79819129D01*
X161170295Y-79825053D01*
X161196083Y-79833355D01*
X161223913Y-79842100D01*
X161252437Y-79850877D01*
X161280309Y-79859277D01*
X161306182Y-79866892D01*
X161328711Y-79873311D01*
X161346548Y-79878126D01*
X161356494Y-79880699D01*
X161377930Y-79886284D01*
X161400174Y-79892121D01*
X161419746Y-79897299D01*
X161426707Y-79899111D01*
X161453425Y-79905547D01*
X161484173Y-79912311D01*
X161517193Y-79919054D01*
X161550725Y-79925425D01*
X161583011Y-79931073D01*
X161612291Y-79935649D01*
X161618705Y-79936581D01*
X161639941Y-79939720D01*
X161664063Y-79943350D01*
X161688568Y-79947090D01*
X161710951Y-79950563D01*
X161719017Y-79951808D01*
X161740662Y-79954843D01*
X161759959Y-79956921D01*
X161779084Y-79958201D01*
X161800213Y-79958845D01*
X161825523Y-79959013D01*
X161825912Y-79959013D01*
X161851379Y-79958815D01*
X161873382Y-79958151D01*
X161893529Y-79956850D01*
X161913430Y-79954742D01*
X161934693Y-79951658D01*
X161958927Y-79947427D01*
X161987742Y-79941880D01*
X162011223Y-79937001D01*
X162044364Y-79928983D01*
X162073646Y-79920117D01*
X162100607Y-79909789D01*
X162126784Y-79897384D01*
X162153716Y-79882287D01*
X162182939Y-79863885D01*
X162211993Y-79842717D01*
X162244116Y-79814684D01*
X162274928Y-79783177D01*
X162303232Y-79749526D01*
X162327834Y-79715057D01*
X162347536Y-79681097D01*
X162352579Y-79671680D01*
X162357054Y-79665238D01*
X162359655Y-79664781D01*
X162360579Y-79670321D01*
X162360019Y-79681870D01*
X162356755Y-79708597D01*
X162348639Y-79748342D01*
X162336955Y-79788389D01*
X162322218Y-79827420D01*
X162304944Y-79864118D01*
X162285648Y-79897163D01*
X162264844Y-79925239D01*
X162262715Y-79927702D01*
X162252858Y-79938505D01*
X162240514Y-79951392D01*
X162226820Y-79965240D01*
X162212914Y-79978925D01*
X162199934Y-79991323D01*
X162189017Y-80001311D01*
X162181300Y-80007764D01*
X162136537Y-80038489D01*
X162082508Y-80068506D01*
X162025997Y-80092686D01*
X161967147Y-80110961D01*
X161944090Y-80116770D01*
X161924082Y-80121554D01*
X161906299Y-80125373D01*
X161889667Y-80128350D01*
X161873112Y-80130607D01*
X161855561Y-80132268D01*
X161835939Y-80133457D01*
X161813173Y-80134295D01*
X161786190Y-80134907D01*
X161753915Y-80135415D01*
X161714838Y-80135801D01*
X161676269Y-80135692D01*
X161641398Y-80134903D01*
X161608993Y-80133312D01*
X161577825Y-80130796D01*
X161546663Y-80127234D01*
X161514277Y-80122504D01*
X161479436Y-80116484D01*
X161440910Y-80109051D01*
X161397469Y-80100085D01*
X161372859Y-80094840D01*
X161339185Y-80087454D01*
X161311259Y-80081043D01*
X161289256Y-80075645D01*
X161273349Y-80071302D01*
X161272316Y-80070997D01*
X161261552Y-80067881D01*
X161247728Y-80063960D01*
X161233567Y-80060005D01*
X161193975Y-80048751D01*
X161086426Y-80015165D01*
X160980649Y-79977776D01*
X160878712Y-79937297D01*
X160874062Y-79935343D01*
X160857470Y-79928399D01*
X160842131Y-79922019D01*
X160829582Y-79916842D01*
X160821359Y-79913504D01*
X160820387Y-79913117D01*
X160799163Y-79904321D01*
X160773304Y-79893082D01*
X160743780Y-79879855D01*
X160711560Y-79865097D01*
X160677613Y-79849263D01*
X160642909Y-79832808D01*
X160608417Y-79816188D01*
X160575105Y-79799859D01*
X160543943Y-79784277D01*
X160515900Y-79769897D01*
X160492173Y-79757505D01*
X160435537Y-79727617D01*
X160383795Y-79699814D01*
X160336294Y-79673719D01*
X160292382Y-79648953D01*
X160251403Y-79625141D01*
X160212705Y-79601903D01*
X160175634Y-79578864D01*
X160139536Y-79555644D01*
X160103759Y-79531868D01*
X160095964Y-79526659D01*
X160081655Y-79517362D01*
X160069214Y-79509611D01*
X160059765Y-79504099D01*
X160054429Y-79501516D01*
X160050926Y-79500493D01*
X160048693Y-79500497D01*
X160050327Y-79503252D01*
X160056020Y-79509752D01*
X160058704Y-79512731D01*
X160064366Y-79518865D01*
X160067526Y-79522065D01*
X160069559Y-79523949D01*
X160075767Y-79529790D01*
X160085593Y-79539065D01*
X160098496Y-79551265D01*
X160113936Y-79565879D01*
X160131375Y-79582397D01*
X160150273Y-79600310D01*
X160162593Y-79611969D01*
X160182983Y-79631170D01*
X160202753Y-79649680D01*
X160221108Y-79666759D01*
X160237249Y-79681665D01*
X160250380Y-79693658D01*
X160259704Y-79701997D01*
X160268053Y-79709359D01*
X160284025Y-79723635D01*
X160300097Y-79738198D01*
X160313807Y-79750826D01*
X160316737Y-79753543D01*
X160332779Y-79768023D01*
X160352179Y-79785033D01*
X160374123Y-79803898D01*
X160397797Y-79823945D01*
X160422387Y-79844501D01*
X160447080Y-79864894D01*
X160471061Y-79884450D01*
X160493516Y-79902497D01*
X160513633Y-79918360D01*
X160530596Y-79931368D01*
X160543591Y-79940846D01*
X160548184Y-79944389D01*
X160554872Y-79951110D01*
X160557913Y-79956535D01*
X160557981Y-79957165D01*
X160558122Y-79963720D01*
X160557955Y-79974953D01*
X160557512Y-79989467D01*
X160556823Y-80005864D01*
X160556396Y-80015510D01*
X160555439Y-80043972D01*
X160554805Y-80074239D01*
X160554487Y-80105291D01*
X160554477Y-80136106D01*
X160554765Y-80165665D01*
X160555345Y-80192947D01*
X160556208Y-80216930D01*
X160557346Y-80236596D01*
X160558752Y-80250921D01*
X160562812Y-80277518D01*
X160572042Y-80325649D01*
X160583778Y-80375926D01*
X160597484Y-80426299D01*
X160612625Y-80474717D01*
X160628667Y-80519128D01*
X160634804Y-80534568D01*
X160654660Y-80581882D01*
X160677421Y-80632795D01*
X160702509Y-80686124D01*
X160729347Y-80740690D01*
X160757360Y-80795310D01*
X160785970Y-80848803D01*
X160814600Y-80899988D01*
X160819599Y-80908745D01*
X160829347Y-80926046D01*
X160837706Y-80941178D01*
X160844225Y-80953310D01*
X160848450Y-80961605D01*
X160849932Y-80965230D01*
X160849807Y-80965731D01*
X160848123Y-80967946D01*
X160844141Y-80971554D01*
X160837437Y-80976866D01*
X160827585Y-80984192D01*
X160814163Y-80993845D01*
X160796745Y-81006136D01*
X160774908Y-81021375D01*
X160748227Y-81039876D01*
X160744060Y-81042762D01*
X160727384Y-81054354D01*
X160707004Y-81068570D01*
X160684067Y-81084606D01*
X160659718Y-81101661D01*
X160635106Y-81118932D01*
X160611377Y-81135617D01*
X160603185Y-81141383D01*
X160579267Y-81158220D01*
X160559446Y-81172171D01*
X160542872Y-81183830D01*
X160528696Y-81193795D01*
X160516067Y-81202661D01*
X160504136Y-81211024D01*
X160492053Y-81219480D01*
X160478967Y-81228625D01*
X160464030Y-81239055D01*
X160446389Y-81251366D01*
X160425197Y-81266153D01*
X160416153Y-81272470D01*
X160390939Y-81290131D01*
X160363190Y-81309627D01*
X160334790Y-81329630D01*
X160307623Y-81348814D01*
X160283573Y-81365853D01*
X160257780Y-81384167D01*
X160233745Y-81401231D01*
X160213776Y-81415405D01*
X160197283Y-81427107D01*
X160183678Y-81436754D01*
X160172371Y-81444763D01*
X160162773Y-81451553D01*
X160154294Y-81457539D01*
X160146346Y-81463141D01*
X160138338Y-81468775D01*
X160129682Y-81474858D01*
X160119355Y-81482106D01*
X160103278Y-81493364D01*
X160087875Y-81504126D01*
X160075412Y-81512806D01*
X160065654Y-81519588D01*
X160038424Y-81538545D01*
X160009366Y-81558816D01*
X159979023Y-81580019D01*
X159947937Y-81601774D01*
X159916650Y-81623698D01*
X159885705Y-81645412D01*
X159855642Y-81666534D01*
X159827006Y-81686683D01*
X159800337Y-81705477D01*
X159776178Y-81722537D01*
X159755071Y-81737479D01*
X159737559Y-81749925D01*
X159724183Y-81759491D01*
X159715486Y-81765798D01*
X159714431Y-81766572D01*
X159706065Y-81772592D01*
X159693751Y-81781340D01*
X159678565Y-81792055D01*
X159661582Y-81803980D01*
X159643879Y-81816353D01*
X159639887Y-81819137D01*
X159622589Y-81831217D01*
X159606490Y-81842483D01*
X159592597Y-81852230D01*
X159581917Y-81859751D01*
X159575454Y-81864341D01*
X159573100Y-81866025D01*
X159564700Y-81871996D01*
X159552475Y-81880656D01*
X159537365Y-81891338D01*
X159520312Y-81903379D01*
X159502255Y-81916113D01*
X159501337Y-81916760D01*
X159479741Y-81932023D01*
X159456076Y-81948817D01*
X159432161Y-81965844D01*
X159409818Y-81981808D01*
X159390865Y-81995415D01*
X159384127Y-82000266D01*
X159349878Y-82024804D01*
X159318803Y-82046829D01*
X159289295Y-82067466D01*
X159259748Y-82087841D01*
X159228555Y-82109078D01*
X159224357Y-82111937D01*
X159204278Y-82125944D01*
X159182421Y-82141621D01*
X159161156Y-82157254D01*
X159142853Y-82171127D01*
X159114167Y-82192822D01*
X159064906Y-82227693D01*
X159016091Y-82259321D01*
X158968530Y-82287217D01*
X158923030Y-82310893D01*
X158880399Y-82329861D01*
X158869797Y-82334106D01*
X158840800Y-82345451D01*
X158815838Y-82354648D01*
X158793582Y-82362054D01*
X158772704Y-82368025D01*
X158751873Y-82372919D01*
X158729762Y-82377094D01*
X158705041Y-82380906D01*
X158676381Y-82384713D01*
X158661637Y-82386261D01*
X158642109Y-82387525D01*
X158619059Y-82388245D01*
X158591546Y-82388451D01*
X158558626Y-82388169D01*
X158533893Y-82387674D01*
X158493717Y-82386049D01*
X158457829Y-82383249D01*
X158424923Y-82379005D01*
X158393695Y-82373051D01*
X158362841Y-82365117D01*
X158331054Y-82354937D01*
X158297031Y-82342243D01*
X158259466Y-82326766D01*
X158248733Y-82322159D01*
X158230158Y-82313929D01*
X158214365Y-82306408D01*
X158199321Y-82298561D01*
X158182991Y-82289349D01*
X158163340Y-82277734D01*
X158130749Y-82257055D01*
X158075296Y-82216102D01*
X158023019Y-82169889D01*
X157974314Y-82118780D01*
X157929578Y-82063139D01*
X157918516Y-82048168D01*
X157894337Y-82015643D01*
X157871920Y-81985766D01*
X157851510Y-81958852D01*
X157833350Y-81935216D01*
X157817688Y-81915172D01*
X157804766Y-81899035D01*
X157794830Y-81887119D01*
X157788124Y-81879739D01*
X157784894Y-81877209D01*
X157784231Y-81877119D01*
X157782082Y-81874026D01*
X157782082Y-81874008D01*
X157784882Y-81871772D01*
X157791552Y-81870844D01*
X157794108Y-81870662D01*
X157803255Y-81869345D01*
X157817039Y-81866934D01*
X157834423Y-81863644D01*
X157854371Y-81859689D01*
X157875847Y-81855283D01*
X157897813Y-81850640D01*
X157919233Y-81845975D01*
X157939071Y-81841503D01*
X157956290Y-81837436D01*
X157969853Y-81833990D01*
X157984673Y-81829797D01*
X158011460Y-81821520D01*
X158041545Y-81811565D01*
X158073397Y-81800480D01*
X158105485Y-81788813D01*
X158136279Y-81777115D01*
X158164247Y-81765933D01*
X158187858Y-81755818D01*
X158209247Y-81746144D01*
X158234433Y-81734515D01*
X158253870Y-81725205D01*
X158267646Y-81718171D01*
X158275847Y-81713368D01*
X158278561Y-81710755D01*
X158278560Y-81710717D01*
X158277073Y-81709578D01*
X158272400Y-81709105D01*
X158264022Y-81709338D01*
X158251421Y-81710318D01*
X158234077Y-81712084D01*
X158211471Y-81714677D01*
X158183084Y-81718136D01*
X158172538Y-81719428D01*
X158157154Y-81721236D01*
X158141140Y-81723017D01*
X158123861Y-81724829D01*
X158104682Y-81726733D01*
X158082969Y-81728787D01*
X158058086Y-81731052D01*
X158029399Y-81733587D01*
X157996272Y-81736452D01*
X157958070Y-81739707D01*
X157914158Y-81743412D01*
X157898596Y-81744727D01*
X157867814Y-81747367D01*
X157836583Y-81750090D01*
X157806262Y-81752774D01*
X157778209Y-81755299D01*
X157753784Y-81757545D01*
X157734344Y-81759390D01*
X157691942Y-81763446D01*
X157620114Y-81769930D01*
X157552521Y-81775468D01*
X157487850Y-81780129D01*
X157424791Y-81783982D01*
X157362033Y-81787096D01*
X157298263Y-81789541D01*
X157232171Y-81791386D01*
X157162446Y-81792699D01*
X157087775Y-81793551D01*
X157075055Y-81793653D01*
X157014204Y-81793981D01*
X156959074Y-81793973D01*
X156909131Y-81793589D01*
X156863843Y-81792788D01*
X156822677Y-81791530D01*
X156785100Y-81789775D01*
X156750579Y-81787483D01*
X156718581Y-81784614D01*
X156688573Y-81781127D01*
X156660024Y-81776983D01*
X156632398Y-81772141D01*
X156605164Y-81766562D01*
X156577789Y-81760204D01*
X156549740Y-81753029D01*
X156542641Y-81751135D01*
X156515558Y-81743753D01*
X156493263Y-81737327D01*
X156474613Y-81731458D01*
X156458464Y-81725746D01*
X156443672Y-81719794D01*
X156429093Y-81713202D01*
X156413582Y-81705572D01*
X156386222Y-81691283D01*
X156360360Y-81676527D01*
X156338159Y-81662152D01*
X156318372Y-81647282D01*
X156299753Y-81631041D01*
X156281052Y-81612555D01*
X156254477Y-81580870D01*
X156230944Y-81543259D01*
X156212217Y-81501612D01*
X156198341Y-81456051D01*
X156189360Y-81406699D01*
X156185321Y-81353678D01*
X156185104Y-81345313D01*
X156184859Y-81327003D01*
X156185127Y-81310521D01*
X156186058Y-81294870D01*
X156187798Y-81279057D01*
X156190499Y-81262087D01*
X156194307Y-81242963D01*
X156199372Y-81220691D01*
X156205843Y-81194277D01*
X156213869Y-81162724D01*
X156216422Y-81152779D01*
X156221949Y-81131020D01*
X156226136Y-81113843D01*
X156229170Y-81100112D01*
X156231239Y-81088691D01*
X156232532Y-81078443D01*
X156233236Y-81068232D01*
X156233539Y-81056923D01*
X156233631Y-81043378D01*
X156233616Y-81028109D01*
X156233270Y-81014091D01*
X156232324Y-81003085D01*
X156230520Y-80993262D01*
X156227603Y-80982792D01*
X156223315Y-80969846D01*
X156217807Y-80954496D01*
X156210551Y-80936785D01*
X156202249Y-80919553D01*
X156192180Y-80901429D01*
X156179620Y-80881044D01*
X156163847Y-80857027D01*
X156160931Y-80852653D01*
X156140612Y-80820559D01*
X156124658Y-80791933D01*
X156112769Y-80766046D01*
X156104647Y-80742168D01*
X156099993Y-80719570D01*
X156098509Y-80697522D01*
X156098838Y-80687554D01*
X156103055Y-80663310D01*
X156112186Y-80642975D01*
X156126305Y-80626476D01*
X156145486Y-80613741D01*
X156169805Y-80604697D01*
X156199334Y-80599273D01*
X156208167Y-80598877D01*
X156222379Y-80599057D01*
X156240454Y-80599791D01*
X156261133Y-80601029D01*
X156283155Y-80602718D01*
X156301086Y-80604156D01*
X156321901Y-80605520D01*
X156342316Y-80606438D01*
X156363681Y-80606941D01*
X156387348Y-80607057D01*
X156414670Y-80606816D01*
X156446999Y-80606246D01*
X156448198Y-80606222D01*
X156476240Y-80605690D01*
X156505296Y-80605211D01*
X156533890Y-80604803D01*
X156560548Y-80604486D01*
X156583792Y-80604280D01*
X156602148Y-80604203D01*
X156608587Y-80604185D01*
X156628532Y-80603870D01*
X156643604Y-80603206D01*
X156653554Y-80602247D01*
X156658132Y-80601049D01*
X156657091Y-80599664D01*
X156650182Y-80598148D01*
X156637157Y-80596555D01*
X156624752Y-80595145D01*
X156607058Y-80592890D01*
X156585346Y-80589969D01*
X156560758Y-80586548D01*
X156534435Y-80582794D01*
X156507521Y-80578872D01*
X156481156Y-80574950D01*
X156456483Y-80571194D01*
X156434644Y-80567770D01*
X156416780Y-80564845D01*
X156404034Y-80562585D01*
X156370916Y-80555584D01*
X156316920Y-80541182D01*
X156265373Y-80523703D01*
X156217023Y-80503474D01*
X156172622Y-80480822D01*
X156132920Y-80456073D01*
X156098667Y-80429554D01*
X156096921Y-80428028D01*
X156077904Y-80410713D01*
X156063455Y-80395865D01*
X156052898Y-80382507D01*
X156045556Y-80369660D01*
X156040751Y-80356345D01*
X156037807Y-80341584D01*
X156037076Y-80318721D01*
X156042239Y-80293584D01*
X156053726Y-80268768D01*
X156071554Y-80244218D01*
X156076305Y-80238573D01*
X156085235Y-80226723D01*
X156091846Y-80215226D01*
X156096853Y-80202408D01*
X156100972Y-80186594D01*
X156104917Y-80166113D01*
X156106874Y-80154973D01*
X156110624Y-80133719D01*
X156114442Y-80112176D01*
X156117748Y-80093624D01*
X156119483Y-80084181D01*
X156122353Y-80068458D01*
X156123551Y-80057523D01*
X156122337Y-80050327D01*
X156117975Y-80045818D01*
X156109727Y-80042946D01*
X156096853Y-80040661D01*
X156078618Y-80037911D01*
X156051809Y-80033495D01*
X155990136Y-80021864D01*
X155930030Y-80008513D01*
X155872449Y-79993699D01*
X155818347Y-79977677D01*
X155768683Y-79960703D01*
X155724412Y-79943035D01*
X155717195Y-79939846D01*
X155683201Y-79923079D01*
X155655227Y-79905971D01*
X155632984Y-79888297D01*
X155616183Y-79869836D01*
X155604535Y-79850362D01*
X155601173Y-79842721D01*
X155597013Y-79831433D01*
X155594536Y-79820679D01*
X155593857Y-79809547D01*
X155595092Y-79797124D01*
X155598357Y-79782496D01*
X155603767Y-79764750D01*
X155611436Y-79742973D01*
X155621482Y-79716252D01*
X155626369Y-79704121D01*
X155639356Y-79675608D01*
X155656049Y-79642761D01*
X155676219Y-79605969D01*
X155699635Y-79565623D01*
X155726069Y-79522113D01*
X155755292Y-79475829D01*
X155787073Y-79427162D01*
X155821185Y-79376500D01*
X155845300Y-79341186D01*
X155876962Y-79294761D01*
X155905381Y-79253003D01*
X155930776Y-79215573D01*
X155953366Y-79182133D01*
X155973371Y-79152347D01*
X155991010Y-79125876D01*
X156006500Y-79102382D01*
X156020063Y-79081529D01*
X156031915Y-79062977D01*
X156042278Y-79046391D01*
X156051369Y-79031432D01*
X156059409Y-79017761D01*
X156066615Y-79005043D01*
X156073207Y-78992939D01*
X156079404Y-78981111D01*
X156085426Y-78969221D01*
X156099546Y-78938996D01*
X156113092Y-78903527D01*
X156121982Y-78870248D01*
X156126402Y-78838176D01*
X156126541Y-78806327D01*
X156122584Y-78773718D01*
X156117602Y-78750200D01*
X156109554Y-78722594D01*
X156098870Y-78694781D01*
X156085198Y-78666091D01*
X156068182Y-78635854D01*
X156047471Y-78603400D01*
X156022709Y-78568058D01*
X155993543Y-78529157D01*
X155985968Y-78519333D01*
X155974812Y-78504984D01*
X155964655Y-78492172D01*
X155954948Y-78480292D01*
X155945142Y-78468738D01*
X155934690Y-78456904D01*
X155923042Y-78444187D01*
X155909651Y-78429981D01*
X155893967Y-78413680D01*
X155875442Y-78394680D01*
X155853528Y-78372375D01*
X155827676Y-78346160D01*
X155807952Y-78326130D01*
X155777688Y-78295214D01*
X155748773Y-78265456D01*
X155721659Y-78237331D01*
X155696799Y-78211313D01*
X155674647Y-78187877D01*
X155655654Y-78167499D01*
X155640275Y-78150653D01*
X155628962Y-78137815D01*
X155625949Y-78134349D01*
X155617909Y-78125310D01*
X155607847Y-78114168D01*
X155597256Y-78102581D01*
X155573304Y-78076309D01*
X155548971Y-78048938D01*
X155528175Y-78024680D01*
X155510325Y-78002858D01*
X155506000Y-77997454D01*
X155494420Y-77983210D01*
X155482844Y-77969230D01*
X155473230Y-77957888D01*
X155458824Y-77940928D01*
X155433824Y-77910364D01*
X155407906Y-77877466D01*
X155382403Y-77843964D01*
X155358646Y-77811589D01*
X155337967Y-77782073D01*
X155329849Y-77770116D01*
X155306997Y-77736286D01*
X155287209Y-77706651D01*
X155270022Y-77680456D01*
X155254974Y-77656942D01*
X155241603Y-77635355D01*
X155229444Y-77614937D01*
X155218037Y-77594933D01*
X155206918Y-77574585D01*
X155195625Y-77553137D01*
X155183695Y-77529834D01*
X155181140Y-77524767D01*
X155151083Y-77460998D01*
X155126463Y-77400201D01*
X155107222Y-77342153D01*
X155093306Y-77286635D01*
X155084658Y-77233426D01*
X155081222Y-77182303D01*
X155082942Y-77133048D01*
X155086444Y-77102008D01*
X155088659Y-77089779D01*
X155397179Y-77089779D01*
X155397425Y-77117906D01*
X155399293Y-77145337D01*
X155402802Y-77170205D01*
X155406042Y-77186961D01*
X155410333Y-77207321D01*
X155414759Y-77225455D01*
X155419747Y-77242693D01*
X155425725Y-77260368D01*
X155433120Y-77279812D01*
X155442360Y-77302356D01*
X155453872Y-77329333D01*
X155473822Y-77371988D01*
X155500344Y-77421495D01*
X155530866Y-77472369D01*
X155564688Y-77523503D01*
X155601107Y-77573791D01*
X155639424Y-77622128D01*
X155640471Y-77623384D01*
X155652696Y-77637542D01*
X155667768Y-77654294D01*
X155684897Y-77672825D01*
X155703296Y-77692322D01*
X155722175Y-77711969D01*
X155740746Y-77730952D01*
X155758219Y-77748458D01*
X155773806Y-77763670D01*
X155786717Y-77775776D01*
X155796165Y-77783960D01*
X155801524Y-77788409D01*
X155812094Y-77797635D01*
X155824376Y-77808723D01*
X155836668Y-77820152D01*
X155846763Y-77829472D01*
X155857646Y-77838600D01*
X155865365Y-77843559D01*
X155870520Y-77844711D01*
X155873711Y-77842416D01*
X155873760Y-77842326D01*
X155874967Y-77837803D01*
X155876955Y-77827951D01*
X155879567Y-77813670D01*
X155882647Y-77795866D01*
X155886037Y-77775439D01*
X155889583Y-77753295D01*
X155893126Y-77730335D01*
X155893720Y-77726570D01*
X155897240Y-77707263D01*
X155902269Y-77682909D01*
X155908612Y-77654259D01*
X155916075Y-77622063D01*
X155924464Y-77587071D01*
X155933584Y-77550034D01*
X155943240Y-77511702D01*
X155953238Y-77472825D01*
X155957903Y-77455044D01*
X156512241Y-77455044D01*
X156513832Y-77456635D01*
X156515424Y-77455044D01*
X156513832Y-77453452D01*
X156512241Y-77455044D01*
X155957903Y-77455044D01*
X155963385Y-77434153D01*
X155973484Y-77396437D01*
X155983343Y-77360428D01*
X155992766Y-77326874D01*
X156001559Y-77296526D01*
X156009528Y-77270136D01*
X156016478Y-77248452D01*
X156019950Y-77238630D01*
X156283097Y-77238630D01*
X156284688Y-77240221D01*
X156286279Y-77238630D01*
X156284688Y-77237038D01*
X156283097Y-77238630D01*
X156019950Y-77238630D01*
X156022214Y-77232226D01*
X156025085Y-77224517D01*
X156270391Y-77224517D01*
X156273143Y-77228286D01*
X156276056Y-77231681D01*
X156278713Y-77233856D01*
X156279271Y-77233804D01*
X156279293Y-77231730D01*
X156274345Y-77227085D01*
X156272039Y-77225307D01*
X156270391Y-77224517D01*
X156025085Y-77224517D01*
X156026095Y-77221806D01*
X156029036Y-77213596D01*
X156255017Y-77213596D01*
X156257636Y-77214760D01*
X156259321Y-77214531D01*
X156259758Y-77212639D01*
X156259292Y-77212258D01*
X156255515Y-77212639D01*
X156255017Y-77213596D01*
X156029036Y-77213596D01*
X156031469Y-77206804D01*
X156248089Y-77206804D01*
X156249680Y-77208395D01*
X156251271Y-77206804D01*
X156249680Y-77205213D01*
X156248089Y-77206804D01*
X156031469Y-77206804D01*
X156032611Y-77203615D01*
X156035305Y-77195872D01*
X156239321Y-77195872D01*
X156240132Y-77198848D01*
X156240786Y-77199790D01*
X156243691Y-77202030D01*
X156244126Y-77201823D01*
X156243315Y-77198848D01*
X156242661Y-77197906D01*
X156239757Y-77195665D01*
X156239321Y-77195872D01*
X156035305Y-77195872D01*
X156039940Y-77182549D01*
X156047442Y-77160454D01*
X156054478Y-77139175D01*
X156054997Y-77137582D01*
X156060914Y-77119720D01*
X156066226Y-77104212D01*
X156068703Y-77097292D01*
X156105176Y-77097292D01*
X156105633Y-77098320D01*
X156108131Y-77100595D01*
X156113295Y-77104612D01*
X156121749Y-77110868D01*
X156134116Y-77119858D01*
X156151021Y-77132076D01*
X156156755Y-77136232D01*
X156173320Y-77148364D01*
X156189522Y-77160398D01*
X156203755Y-77171135D01*
X156214412Y-77179374D01*
X156219397Y-77183272D01*
X156227712Y-77189520D01*
X156233031Y-77193148D01*
X156234375Y-77193465D01*
X156233291Y-77192212D01*
X156227990Y-77187288D01*
X156219539Y-77180037D01*
X156209174Y-77171535D01*
X156204190Y-77167514D01*
X156193812Y-77159053D01*
X156185507Y-77152162D01*
X156180726Y-77148042D01*
X156176856Y-77144853D01*
X156168759Y-77138798D01*
X156159130Y-77132014D01*
X156152196Y-77127224D01*
X156138756Y-77117767D01*
X156129787Y-77111327D01*
X156136699Y-77111327D01*
X156138291Y-77112919D01*
X156139882Y-77111327D01*
X156138291Y-77109736D01*
X156136699Y-77111327D01*
X156129787Y-77111327D01*
X156126463Y-77108940D01*
X156118397Y-77103339D01*
X156110944Y-77098762D01*
X156106845Y-77097006D01*
X156106137Y-77097017D01*
X156105176Y-77097292D01*
X156068703Y-77097292D01*
X156070602Y-77091987D01*
X156073711Y-77083971D01*
X156075221Y-77081093D01*
X156075797Y-77081223D01*
X156080541Y-77083501D01*
X156087790Y-77087718D01*
X156090212Y-77089175D01*
X156096137Y-77092296D01*
X156098509Y-77092790D01*
X156096909Y-77090752D01*
X156091111Y-77086007D01*
X156082431Y-77079752D01*
X156072303Y-77072974D01*
X156062162Y-77066660D01*
X156053442Y-77061796D01*
X156052259Y-77061190D01*
X156042122Y-77055698D01*
X156029419Y-77048469D01*
X156016612Y-77040899D01*
X156012596Y-77038485D01*
X156002629Y-77032611D01*
X155995395Y-77028523D01*
X155992243Y-77026990D01*
X155989179Y-77025480D01*
X155981761Y-77021331D01*
X155971112Y-77015180D01*
X155958349Y-77007665D01*
X155932573Y-76992785D01*
X155865924Y-76958334D01*
X155799709Y-76930013D01*
X155733580Y-76907697D01*
X155667191Y-76891265D01*
X155600196Y-76880592D01*
X155597353Y-76880268D01*
X155579779Y-76878740D01*
X155565690Y-76878887D01*
X155552826Y-76881067D01*
X155538926Y-76885636D01*
X155521728Y-76892948D01*
X155502639Y-76902253D01*
X155473260Y-76920476D01*
X155449227Y-76941353D01*
X155430055Y-76965434D01*
X155415256Y-76993266D01*
X155404345Y-77025398D01*
X155401470Y-77038912D01*
X155398534Y-77062825D01*
X155397179Y-77089779D01*
X155088659Y-77089779D01*
X155092801Y-77066913D01*
X155101944Y-77033551D01*
X155114458Y-76999859D01*
X155130928Y-76963771D01*
X155147619Y-76932950D01*
X155167881Y-76903194D01*
X155190880Y-76877194D01*
X155217524Y-76854067D01*
X155248717Y-76832927D01*
X155285365Y-76812889D01*
X155288695Y-76811243D01*
X155326782Y-76794490D01*
X155365113Y-76781694D01*
X155405072Y-76772530D01*
X155448044Y-76766674D01*
X155495414Y-76763804D01*
X155531675Y-76763334D01*
X155571789Y-76764498D01*
X155610661Y-76767683D01*
X155649240Y-76773081D01*
X155688476Y-76780885D01*
X155729316Y-76791288D01*
X155772710Y-76804482D01*
X155819607Y-76820660D01*
X155870956Y-76840014D01*
X155878305Y-76842934D01*
X155892167Y-76848717D01*
X155908328Y-76855798D01*
X155927638Y-76864559D01*
X155950949Y-76875383D01*
X155979111Y-76888652D01*
X155982323Y-76890195D01*
X156002315Y-76900489D01*
X156025729Y-76913470D01*
X156051097Y-76928267D01*
X156076951Y-76944007D01*
X156101820Y-76959818D01*
X156124237Y-76974829D01*
X156129593Y-76978526D01*
X156140287Y-76985894D01*
X156154102Y-76995402D01*
X156169839Y-77006225D01*
X156186297Y-77017537D01*
X156191710Y-77021275D01*
X156245863Y-77060532D01*
X156287106Y-77092790D01*
X156302741Y-77105019D01*
G37*
%TD*%
M02*
