%TF.GenerationSoftware,KiCad,Pcbnew,8.0.4-8.0.4-0~ubuntu22.04.1*%
%TF.CreationDate,2024-09-04T03:05:11+05:30*%
%TF.ProjectId,microphone_smd.step,6d696372-6f70-4686-9f6e-655f736d642e,v01*%
%TF.SameCoordinates,Original*%
%TF.FileFunction,Copper,L1,Top*%
%TF.FilePolarity,Positive*%
%FSLAX46Y46*%
G04 Gerber Fmt 4.6, Leading zero omitted, Abs format (unit mm)*
G04 Created by KiCad (PCBNEW 8.0.4-8.0.4-0~ubuntu22.04.1) date 2024-09-04 03:05:11*
%MOMM*%
%LPD*%
G01*
G04 APERTURE LIST*
G04 Aperture macros list*
%AMRoundRect*
0 Rectangle with rounded corners*
0 $1 Rounding radius*
0 $2 $3 $4 $5 $6 $7 $8 $9 X,Y pos of 4 corners*
0 Add a 4 corners polygon primitive as box body*
4,1,4,$2,$3,$4,$5,$6,$7,$8,$9,$2,$3,0*
0 Add four circle primitives for the rounded corners*
1,1,$1+$1,$2,$3*
1,1,$1+$1,$4,$5*
1,1,$1+$1,$6,$7*
1,1,$1+$1,$8,$9*
0 Add four rect primitives between the rounded corners*
20,1,$1+$1,$2,$3,$4,$5,0*
20,1,$1+$1,$4,$5,$6,$7,0*
20,1,$1+$1,$6,$7,$8,$9,0*
20,1,$1+$1,$8,$9,$2,$3,0*%
G04 Aperture macros list end*
%TA.AperFunction,ComponentPad*%
%ADD10R,1.560000X1.560000*%
%TD*%
%TA.AperFunction,ComponentPad*%
%ADD11C,1.560000*%
%TD*%
%TA.AperFunction,ComponentPad*%
%ADD12RoundRect,0.250000X-0.750000X0.600000X-0.750000X-0.600000X0.750000X-0.600000X0.750000X0.600000X0*%
%TD*%
%TA.AperFunction,ComponentPad*%
%ADD13O,2.000000X1.700000*%
%TD*%
%TA.AperFunction,ComponentPad*%
%ADD14RoundRect,0.250000X0.750000X-0.600000X0.750000X0.600000X-0.750000X0.600000X-0.750000X-0.600000X0*%
%TD*%
%TA.AperFunction,ViaPad*%
%ADD15C,0.800000*%
%TD*%
%TA.AperFunction,Conductor*%
%ADD16C,0.250000*%
%TD*%
%TA.AperFunction,Profile*%
%ADD17C,0.100000*%
%TD*%
G04 APERTURE END LIST*
D10*
%TO.P,R4,1*%
%TO.N,Net-(C3-Pad2)*%
X175600000Y-55900000D03*
D11*
%TO.P,R4,2*%
%TO.N,Net-(R4-Pad2)*%
X170600000Y-58400000D03*
%TO.P,R4,3*%
%TO.N,N/C*%
X175600000Y-60900000D03*
%TD*%
D10*
%TO.P,R5,1*%
%TO.N,Net-(C2-Pad2)*%
X167000000Y-56000000D03*
D11*
%TO.P,R5,2*%
%TO.N,Net-(R4-Pad2)*%
X162000000Y-58500000D03*
%TO.P,R5,3*%
%TO.N,N/C*%
X167000000Y-61000000D03*
%TD*%
D12*
%TO.P,MK1,1,-*%
%TO.N,GND*%
X158000000Y-58000000D03*
D13*
%TO.P,MK1,2,+*%
%TO.N,Net-(MK1-+)*%
X158000000Y-60500000D03*
%TD*%
D12*
%TO.P,J2,1,Pin_1*%
%TO.N,GND*%
X158000000Y-66400000D03*
D13*
%TO.P,J2,2,Pin_2*%
%TO.N,+5V*%
X158000000Y-68900000D03*
%TD*%
D14*
%TO.P,J1,1,Pin_1*%
%TO.N,GND*%
X173200000Y-69000000D03*
D13*
%TO.P,J1,2,Pin_2*%
%TO.N,Net-(J1-Pin_2)*%
X173200000Y-66500000D03*
%TD*%
D15*
%TO.N,Net-(R4-Pad2)*%
X170000000Y-65400000D03*
%TO.N,+5V*%
X169200000Y-61400000D03*
X157000000Y-63400000D03*
X170800000Y-69600000D03*
X161000000Y-56000000D03*
%TD*%
D16*
%TO.N,Net-(R4-Pad2)*%
X170500000Y-58500000D02*
X170600000Y-58400000D01*
X170600000Y-64800000D02*
X170600000Y-58400000D01*
X170000000Y-65400000D02*
X170600000Y-64800000D01*
X162000000Y-58500000D02*
X170500000Y-58500000D01*
%TD*%
%TA.AperFunction,Conductor*%
%TO.N,+5V*%
G36*
X165666945Y-55020185D02*
G01*
X165712700Y-55072989D01*
X165723195Y-55137752D01*
X165719500Y-55172127D01*
X165719500Y-55172128D01*
X165719500Y-55172132D01*
X165719500Y-56827870D01*
X165719501Y-56827876D01*
X165725908Y-56887483D01*
X165776202Y-57022328D01*
X165776206Y-57022335D01*
X165862452Y-57137544D01*
X165862455Y-57137547D01*
X165977664Y-57223793D01*
X165977671Y-57223797D01*
X166112517Y-57274091D01*
X166112516Y-57274091D01*
X166119444Y-57274835D01*
X166172127Y-57280500D01*
X167827872Y-57280499D01*
X167887483Y-57274091D01*
X168022331Y-57223796D01*
X168137546Y-57137546D01*
X168223796Y-57022331D01*
X168274091Y-56887483D01*
X168280500Y-56827873D01*
X168280499Y-55172128D01*
X168276804Y-55137753D01*
X168289211Y-55068994D01*
X168336822Y-55017857D01*
X168400094Y-55000500D01*
X174195500Y-55000500D01*
X174262539Y-55020185D01*
X174308294Y-55072989D01*
X174319500Y-55124500D01*
X174319500Y-56727870D01*
X174319501Y-56727876D01*
X174325908Y-56787483D01*
X174376202Y-56922328D01*
X174376206Y-56922335D01*
X174462452Y-57037544D01*
X174462455Y-57037547D01*
X174577664Y-57123793D01*
X174577671Y-57123797D01*
X174712517Y-57174091D01*
X174712516Y-57174091D01*
X174719444Y-57174835D01*
X174772127Y-57180500D01*
X176427872Y-57180499D01*
X176487483Y-57174091D01*
X176622331Y-57123796D01*
X176737546Y-57037546D01*
X176776234Y-56985864D01*
X176832167Y-56943995D01*
X176901859Y-56939011D01*
X176963182Y-56972496D01*
X176996666Y-57033820D01*
X176999500Y-57060177D01*
X176999500Y-60311990D01*
X176979815Y-60379029D01*
X176927011Y-60424784D01*
X176857853Y-60434728D01*
X176794297Y-60405703D01*
X176763118Y-60364395D01*
X176713181Y-60257306D01*
X176713180Y-60257304D01*
X176661684Y-60183760D01*
X176584667Y-60073767D01*
X176426233Y-59915333D01*
X176426229Y-59915330D01*
X176426228Y-59915329D01*
X176242700Y-59786821D01*
X176242696Y-59786819D01*
X176239634Y-59785391D01*
X176039630Y-59692128D01*
X176039627Y-59692127D01*
X176039625Y-59692126D01*
X175823208Y-59634137D01*
X175823200Y-59634136D01*
X175600002Y-59614609D01*
X175599998Y-59614609D01*
X175376799Y-59634136D01*
X175376791Y-59634137D01*
X175160374Y-59692126D01*
X175160368Y-59692129D01*
X174957306Y-59786818D01*
X174957304Y-59786819D01*
X174773764Y-59915334D01*
X174615334Y-60073764D01*
X174486819Y-60257304D01*
X174486818Y-60257306D01*
X174392129Y-60460368D01*
X174392126Y-60460374D01*
X174334137Y-60676791D01*
X174334136Y-60676799D01*
X174314609Y-60899998D01*
X174314609Y-60900001D01*
X174334136Y-61123200D01*
X174334137Y-61123208D01*
X174392126Y-61339625D01*
X174392127Y-61339627D01*
X174392128Y-61339630D01*
X174438759Y-61439630D01*
X174486819Y-61542696D01*
X174486821Y-61542700D01*
X174615329Y-61726228D01*
X174615334Y-61726234D01*
X174773765Y-61884665D01*
X174773771Y-61884670D01*
X174957299Y-62013178D01*
X174957301Y-62013179D01*
X174957304Y-62013181D01*
X175160370Y-62107872D01*
X175376794Y-62165863D01*
X175536226Y-62179811D01*
X175599998Y-62185391D01*
X175600000Y-62185391D01*
X175600002Y-62185391D01*
X175655801Y-62180509D01*
X175823206Y-62165863D01*
X176039630Y-62107872D01*
X176242696Y-62013181D01*
X176426233Y-61884667D01*
X176584667Y-61726233D01*
X176713181Y-61542696D01*
X176763118Y-61435604D01*
X176809290Y-61383166D01*
X176876484Y-61364014D01*
X176943365Y-61384230D01*
X176988699Y-61437395D01*
X176999500Y-61488010D01*
X176999500Y-71675500D01*
X176979815Y-71742539D01*
X176927011Y-71788294D01*
X176875500Y-71799500D01*
X163543926Y-71799500D01*
X163476887Y-71779815D01*
X163431132Y-71727011D01*
X163421188Y-71657853D01*
X163450213Y-71594297D01*
X163484499Y-71566668D01*
X163618935Y-71493259D01*
X163707213Y-71445056D01*
X163930568Y-71277855D01*
X164127855Y-71080568D01*
X164295056Y-70857213D01*
X164428769Y-70612337D01*
X164526271Y-70350923D01*
X164585578Y-70078294D01*
X164605482Y-69800000D01*
X164585578Y-69521706D01*
X164526271Y-69249077D01*
X164428769Y-68987663D01*
X164295056Y-68742787D01*
X164258820Y-68694381D01*
X164127861Y-68519439D01*
X164127845Y-68519421D01*
X163930578Y-68322154D01*
X163930560Y-68322138D01*
X163707215Y-68154945D01*
X163707207Y-68154940D01*
X163462342Y-68021233D01*
X163462338Y-68021231D01*
X163363230Y-67984266D01*
X163200923Y-67923729D01*
X163200919Y-67923728D01*
X163200916Y-67923727D01*
X162928299Y-67864422D01*
X162650001Y-67844518D01*
X162649999Y-67844518D01*
X162371700Y-67864422D01*
X162099083Y-67923727D01*
X162099078Y-67923728D01*
X162099077Y-67923729D01*
X162035875Y-67947301D01*
X161837661Y-68021231D01*
X161837657Y-68021233D01*
X161592792Y-68154940D01*
X161592784Y-68154945D01*
X161369439Y-68322138D01*
X161369421Y-68322154D01*
X161172154Y-68519421D01*
X161172138Y-68519439D01*
X161004945Y-68742784D01*
X161004940Y-68742792D01*
X160871233Y-68987657D01*
X160871231Y-68987661D01*
X160773727Y-69249083D01*
X160714422Y-69521700D01*
X160694518Y-69799998D01*
X160694518Y-69800001D01*
X160714422Y-70078299D01*
X160773637Y-70350500D01*
X160773729Y-70350923D01*
X160793949Y-70405134D01*
X160871231Y-70612338D01*
X160871233Y-70612342D01*
X161004940Y-70857207D01*
X161004945Y-70857215D01*
X161172138Y-71080560D01*
X161172154Y-71080578D01*
X161369421Y-71277845D01*
X161369439Y-71277861D01*
X161592784Y-71445054D01*
X161592792Y-71445059D01*
X161815501Y-71566668D01*
X161864906Y-71616073D01*
X161879758Y-71684346D01*
X161855341Y-71749811D01*
X161799407Y-71791682D01*
X161756074Y-71799500D01*
X154324500Y-71799500D01*
X154257461Y-71779815D01*
X154211706Y-71727011D01*
X154200500Y-71675500D01*
X154200500Y-65749983D01*
X156499500Y-65749983D01*
X156499500Y-67050001D01*
X156499501Y-67050018D01*
X156510000Y-67152796D01*
X156510001Y-67152799D01*
X156565185Y-67319331D01*
X156565186Y-67319334D01*
X156657288Y-67468656D01*
X156781344Y-67592712D01*
X156930666Y-67684814D01*
X157097203Y-67739999D01*
X157199991Y-67750500D01*
X158800008Y-67750499D01*
X158902797Y-67739999D01*
X159069334Y-67684814D01*
X159218656Y-67592712D01*
X159342712Y-67468656D01*
X159434814Y-67319334D01*
X159489999Y-67152797D01*
X159500500Y-67050009D01*
X159500499Y-66393713D01*
X171699500Y-66393713D01*
X171699500Y-66606286D01*
X171732753Y-66816239D01*
X171798444Y-67018414D01*
X171894951Y-67207820D01*
X172019890Y-67379786D01*
X172158705Y-67518601D01*
X172192190Y-67579924D01*
X172187206Y-67649616D01*
X172145334Y-67705549D01*
X172136121Y-67711821D01*
X171981342Y-67807289D01*
X171857289Y-67931342D01*
X171765187Y-68080663D01*
X171765186Y-68080666D01*
X171710001Y-68247203D01*
X171710001Y-68247204D01*
X171710000Y-68247204D01*
X171699500Y-68349983D01*
X171699500Y-69650001D01*
X171699501Y-69650018D01*
X171710000Y-69752796D01*
X171710001Y-69752799D01*
X171765185Y-69919331D01*
X171765186Y-69919334D01*
X171857288Y-70068656D01*
X171981344Y-70192712D01*
X172130666Y-70284814D01*
X172297203Y-70339999D01*
X172399991Y-70350500D01*
X174000008Y-70350499D01*
X174102797Y-70339999D01*
X174269334Y-70284814D01*
X174418656Y-70192712D01*
X174542712Y-70068656D01*
X174634814Y-69919334D01*
X174689999Y-69752797D01*
X174700500Y-69650009D01*
X174700499Y-68349992D01*
X174689999Y-68247203D01*
X174634814Y-68080666D01*
X174542712Y-67931344D01*
X174418656Y-67807288D01*
X174269334Y-67715186D01*
X174269333Y-67715185D01*
X174263878Y-67711821D01*
X174217154Y-67659873D01*
X174205931Y-67590910D01*
X174233775Y-67526828D01*
X174241272Y-67518623D01*
X174380104Y-67379792D01*
X174505051Y-67207816D01*
X174601557Y-67018412D01*
X174667246Y-66816243D01*
X174700500Y-66606287D01*
X174700500Y-66393713D01*
X174667246Y-66183757D01*
X174601557Y-65981588D01*
X174505051Y-65792184D01*
X174505049Y-65792181D01*
X174505048Y-65792179D01*
X174380109Y-65620213D01*
X174229786Y-65469890D01*
X174057820Y-65344951D01*
X173868414Y-65248444D01*
X173868413Y-65248443D01*
X173868412Y-65248443D01*
X173666243Y-65182754D01*
X173666241Y-65182753D01*
X173666240Y-65182753D01*
X173504957Y-65157208D01*
X173456287Y-65149500D01*
X172943713Y-65149500D01*
X172895042Y-65157208D01*
X172733760Y-65182753D01*
X172531585Y-65248444D01*
X172342179Y-65344951D01*
X172170213Y-65469890D01*
X172019890Y-65620213D01*
X171894951Y-65792179D01*
X171798444Y-65981585D01*
X171732753Y-66183760D01*
X171699500Y-66393713D01*
X159500499Y-66393713D01*
X159500499Y-65749992D01*
X159489999Y-65647203D01*
X159434814Y-65480666D01*
X159342712Y-65331344D01*
X159218656Y-65207288D01*
X159124966Y-65149500D01*
X159069336Y-65115187D01*
X159069331Y-65115185D01*
X159067862Y-65114698D01*
X158902797Y-65060001D01*
X158902795Y-65060000D01*
X158800010Y-65049500D01*
X157199998Y-65049500D01*
X157199981Y-65049501D01*
X157097203Y-65060000D01*
X157097200Y-65060001D01*
X156930668Y-65115185D01*
X156930663Y-65115187D01*
X156781342Y-65207289D01*
X156657289Y-65331342D01*
X156565187Y-65480663D01*
X156565186Y-65480666D01*
X156510001Y-65647203D01*
X156510001Y-65647204D01*
X156510000Y-65647204D01*
X156499500Y-65749983D01*
X154200500Y-65749983D01*
X154200500Y-57349983D01*
X156499500Y-57349983D01*
X156499500Y-58650001D01*
X156499501Y-58650018D01*
X156510000Y-58752796D01*
X156510001Y-58752799D01*
X156565185Y-58919331D01*
X156565187Y-58919336D01*
X156577705Y-58939631D01*
X156641278Y-59042700D01*
X156657289Y-59068657D01*
X156781344Y-59192712D01*
X156936120Y-59288178D01*
X156982845Y-59340126D01*
X156994068Y-59409088D01*
X156966224Y-59473171D01*
X156958706Y-59481398D01*
X156819889Y-59620215D01*
X156694951Y-59792179D01*
X156598444Y-59981585D01*
X156532753Y-60183760D01*
X156499500Y-60393713D01*
X156499500Y-60606286D01*
X156526506Y-60776799D01*
X156532754Y-60816243D01*
X156559968Y-60900000D01*
X156598444Y-61018414D01*
X156694951Y-61207820D01*
X156819890Y-61379786D01*
X156970213Y-61530109D01*
X157142179Y-61655048D01*
X157142181Y-61655049D01*
X157142184Y-61655051D01*
X157331588Y-61751557D01*
X157533757Y-61817246D01*
X157743713Y-61850500D01*
X157743714Y-61850500D01*
X158256286Y-61850500D01*
X158256287Y-61850500D01*
X158466243Y-61817246D01*
X158668412Y-61751557D01*
X158857816Y-61655051D01*
X158879789Y-61639086D01*
X159029786Y-61530109D01*
X159029788Y-61530106D01*
X159029792Y-61530104D01*
X159180104Y-61379792D01*
X159180106Y-61379788D01*
X159180109Y-61379786D01*
X159305048Y-61207820D01*
X159305047Y-61207820D01*
X159305051Y-61207816D01*
X159401557Y-61018412D01*
X159407540Y-60999998D01*
X165714609Y-60999998D01*
X165714609Y-61000001D01*
X165734136Y-61223200D01*
X165734137Y-61223208D01*
X165792126Y-61439625D01*
X165792127Y-61439627D01*
X165792128Y-61439630D01*
X165840190Y-61542700D01*
X165886819Y-61642696D01*
X165886821Y-61642700D01*
X166015329Y-61826228D01*
X166015334Y-61826234D01*
X166173765Y-61984665D01*
X166173771Y-61984670D01*
X166357299Y-62113178D01*
X166357301Y-62113179D01*
X166357304Y-62113181D01*
X166560370Y-62207872D01*
X166776794Y-62265863D01*
X166936226Y-62279811D01*
X166999998Y-62285391D01*
X167000000Y-62285391D01*
X167000002Y-62285391D01*
X167055801Y-62280509D01*
X167223206Y-62265863D01*
X167439630Y-62207872D01*
X167642696Y-62113181D01*
X167826233Y-61984667D01*
X167984667Y-61826233D01*
X168113181Y-61642696D01*
X168207872Y-61439630D01*
X168265863Y-61223206D01*
X168285391Y-61000000D01*
X168265863Y-60776794D01*
X168207872Y-60560370D01*
X168113181Y-60357305D01*
X167984667Y-60173767D01*
X167826233Y-60015333D01*
X167826229Y-60015330D01*
X167826228Y-60015329D01*
X167642700Y-59886821D01*
X167642696Y-59886819D01*
X167642694Y-59886818D01*
X167439630Y-59792128D01*
X167439627Y-59792127D01*
X167439625Y-59792126D01*
X167223208Y-59734137D01*
X167223200Y-59734136D01*
X167000002Y-59714609D01*
X166999998Y-59714609D01*
X166776799Y-59734136D01*
X166776791Y-59734137D01*
X166560374Y-59792126D01*
X166560368Y-59792129D01*
X166357306Y-59886818D01*
X166357304Y-59886819D01*
X166173764Y-60015334D01*
X166015334Y-60173764D01*
X165886819Y-60357304D01*
X165886818Y-60357306D01*
X165792129Y-60560368D01*
X165792126Y-60560374D01*
X165734137Y-60776791D01*
X165734136Y-60776799D01*
X165714609Y-60999998D01*
X159407540Y-60999998D01*
X159467246Y-60816243D01*
X159500500Y-60606287D01*
X159500500Y-60393713D01*
X159467246Y-60183757D01*
X159401557Y-59981588D01*
X159305051Y-59792184D01*
X159305049Y-59792181D01*
X159305048Y-59792179D01*
X159180109Y-59620213D01*
X159041294Y-59481398D01*
X159007809Y-59420075D01*
X159012793Y-59350383D01*
X159054665Y-59294450D01*
X159063879Y-59288178D01*
X159069331Y-59284814D01*
X159069334Y-59284814D01*
X159218656Y-59192712D01*
X159342712Y-59068656D01*
X159434814Y-58919334D01*
X159489999Y-58752797D01*
X159500500Y-58650009D01*
X159500500Y-58499998D01*
X160714609Y-58499998D01*
X160714609Y-58500001D01*
X160734136Y-58723200D01*
X160734137Y-58723208D01*
X160792126Y-58939625D01*
X160792127Y-58939627D01*
X160792128Y-58939630D01*
X160840190Y-59042700D01*
X160886819Y-59142696D01*
X160886821Y-59142700D01*
X161015329Y-59326228D01*
X161015334Y-59326234D01*
X161173765Y-59484665D01*
X161173771Y-59484670D01*
X161357299Y-59613178D01*
X161357301Y-59613179D01*
X161357304Y-59613181D01*
X161560370Y-59707872D01*
X161776794Y-59765863D01*
X161936226Y-59779811D01*
X161999998Y-59785391D01*
X162000000Y-59785391D01*
X162000002Y-59785391D01*
X162055801Y-59780509D01*
X162223206Y-59765863D01*
X162439630Y-59707872D01*
X162642696Y-59613181D01*
X162826233Y-59484667D01*
X162984667Y-59326233D01*
X163088197Y-59178377D01*
X163142774Y-59134752D01*
X163189772Y-59125500D01*
X169480249Y-59125500D01*
X169547288Y-59145185D01*
X169581824Y-59178377D01*
X169615329Y-59226228D01*
X169615334Y-59226234D01*
X169773765Y-59384665D01*
X169773771Y-59384670D01*
X169921623Y-59488197D01*
X169965248Y-59542774D01*
X169974500Y-59589772D01*
X169974500Y-64384389D01*
X169954815Y-64451428D01*
X169902011Y-64497183D01*
X169876281Y-64505679D01*
X169720197Y-64538855D01*
X169720192Y-64538857D01*
X169547270Y-64615848D01*
X169547265Y-64615851D01*
X169394129Y-64727111D01*
X169267466Y-64867785D01*
X169172821Y-65031715D01*
X169172818Y-65031722D01*
X169114327Y-65211740D01*
X169114326Y-65211744D01*
X169094540Y-65400000D01*
X169114326Y-65588256D01*
X169114327Y-65588259D01*
X169172818Y-65768277D01*
X169172821Y-65768284D01*
X169267467Y-65932216D01*
X169311922Y-65981588D01*
X169394129Y-66072888D01*
X169547265Y-66184148D01*
X169547270Y-66184151D01*
X169720192Y-66261142D01*
X169720197Y-66261144D01*
X169905354Y-66300500D01*
X169905355Y-66300500D01*
X170094644Y-66300500D01*
X170094646Y-66300500D01*
X170279803Y-66261144D01*
X170452730Y-66184151D01*
X170605871Y-66072888D01*
X170732533Y-65932216D01*
X170827179Y-65768284D01*
X170885674Y-65588256D01*
X170903321Y-65420345D01*
X170929905Y-65355732D01*
X170938952Y-65345636D01*
X170998729Y-65285860D01*
X170998733Y-65285858D01*
X171085858Y-65198733D01*
X171120084Y-65147509D01*
X171154312Y-65096286D01*
X171187652Y-65015792D01*
X171201463Y-64982452D01*
X171225500Y-64861606D01*
X171225500Y-59589772D01*
X171245185Y-59522733D01*
X171278377Y-59488197D01*
X171391356Y-59409088D01*
X171426233Y-59384667D01*
X171584667Y-59226233D01*
X171713181Y-59042696D01*
X171807872Y-58839630D01*
X171865863Y-58623206D01*
X171885391Y-58400000D01*
X171865863Y-58176794D01*
X171807872Y-57960370D01*
X171713181Y-57757305D01*
X171584667Y-57573767D01*
X171426233Y-57415333D01*
X171426229Y-57415330D01*
X171426228Y-57415329D01*
X171242700Y-57286821D01*
X171242696Y-57286819D01*
X171229143Y-57280499D01*
X171039630Y-57192128D01*
X171039627Y-57192127D01*
X171039625Y-57192126D01*
X170823208Y-57134137D01*
X170823200Y-57134136D01*
X170600002Y-57114609D01*
X170599998Y-57114609D01*
X170376799Y-57134136D01*
X170376791Y-57134137D01*
X170160374Y-57192126D01*
X170160368Y-57192129D01*
X169957306Y-57286818D01*
X169957304Y-57286819D01*
X169773764Y-57415334D01*
X169615334Y-57573764D01*
X169486819Y-57757304D01*
X169486816Y-57757310D01*
X169465556Y-57802904D01*
X169419384Y-57855344D01*
X169353174Y-57874500D01*
X163189771Y-57874500D01*
X163122732Y-57854815D01*
X163088196Y-57821623D01*
X162984668Y-57673768D01*
X162984664Y-57673764D01*
X162826233Y-57515333D01*
X162826229Y-57515330D01*
X162826228Y-57515329D01*
X162642700Y-57386821D01*
X162642696Y-57386819D01*
X162642694Y-57386818D01*
X162439630Y-57292128D01*
X162439627Y-57292127D01*
X162439625Y-57292126D01*
X162223208Y-57234137D01*
X162223200Y-57234136D01*
X162000002Y-57214609D01*
X161999998Y-57214609D01*
X161776799Y-57234136D01*
X161776791Y-57234137D01*
X161560374Y-57292126D01*
X161560368Y-57292129D01*
X161357306Y-57386818D01*
X161357304Y-57386819D01*
X161173764Y-57515334D01*
X161015334Y-57673764D01*
X160886819Y-57857304D01*
X160886818Y-57857306D01*
X160792129Y-58060368D01*
X160792126Y-58060374D01*
X160734137Y-58276791D01*
X160734136Y-58276799D01*
X160714609Y-58499998D01*
X159500500Y-58499998D01*
X159500499Y-57349992D01*
X159489999Y-57247203D01*
X159434814Y-57080666D01*
X159342712Y-56931344D01*
X159218656Y-56807288D01*
X159089903Y-56727873D01*
X159069336Y-56715187D01*
X159069331Y-56715185D01*
X159067862Y-56714698D01*
X158902797Y-56660001D01*
X158902795Y-56660000D01*
X158800010Y-56649500D01*
X157199998Y-56649500D01*
X157199981Y-56649501D01*
X157097203Y-56660000D01*
X157097200Y-56660001D01*
X156930668Y-56715185D01*
X156930663Y-56715187D01*
X156781342Y-56807289D01*
X156657289Y-56931342D01*
X156565187Y-57080663D01*
X156565186Y-57080666D01*
X156510001Y-57247203D01*
X156510001Y-57247204D01*
X156510000Y-57247204D01*
X156499500Y-57349983D01*
X154200500Y-57349983D01*
X154200500Y-55124500D01*
X154220185Y-55057461D01*
X154272989Y-55011706D01*
X154324500Y-55000500D01*
X165599906Y-55000500D01*
X165666945Y-55020185D01*
G37*
%TD.AperFunction*%
%TD*%
D17*
X153800000Y-54600000D02*
X177400000Y-54600000D01*
X177400000Y-72200000D01*
X153800000Y-72200000D01*
X153800000Y-54600000D01*
X164200000Y-69800000D02*
G75*
G02*
X161100000Y-69800000I-1550000J0D01*
G01*
X161100000Y-69800000D02*
G75*
G02*
X164200000Y-69800000I1550000J0D01*
G01*
M02*
