%TF.GenerationSoftware,KiCad,Pcbnew,8.0.4-8.0.4-0~ubuntu22.04.1*%
%TF.CreationDate,2024-09-04T03:05:11+05:30*%
%TF.ProjectId,microphone_smd.step,6d696372-6f70-4686-9f6e-655f736d642e,v01*%
%TF.SameCoordinates,Original*%
%TF.FileFunction,Legend,Top*%
%TF.FilePolarity,Positive*%
%FSLAX46Y46*%
G04 Gerber Fmt 4.6, Leading zero omitted, Abs format (unit mm)*
G04 Created by KiCad (PCBNEW 8.0.4-8.0.4-0~ubuntu22.04.1) date 2024-09-04 03:05:11*
%MOMM*%
%LPD*%
G01*
G04 APERTURE LIST*
%ADD10C,0.150000*%
%ADD11C,0.120000*%
%ADD12C,0.000000*%
%TA.AperFunction,Profile*%
%ADD13C,0.100000*%
%TD*%
G04 APERTURE END LIST*
D10*
X161105704Y-62089160D02*
X161905704Y-62089160D01*
X161905704Y-62089160D02*
X161334276Y-62355826D01*
X161334276Y-62355826D02*
X161905704Y-62622493D01*
X161905704Y-62622493D02*
X161105704Y-62622493D01*
X161105704Y-63003446D02*
X161905704Y-63003446D01*
X161181895Y-63841541D02*
X161143800Y-63803445D01*
X161143800Y-63803445D02*
X161105704Y-63689160D01*
X161105704Y-63689160D02*
X161105704Y-63612969D01*
X161105704Y-63612969D02*
X161143800Y-63498683D01*
X161143800Y-63498683D02*
X161219990Y-63422493D01*
X161219990Y-63422493D02*
X161296180Y-63384398D01*
X161296180Y-63384398D02*
X161448561Y-63346302D01*
X161448561Y-63346302D02*
X161562847Y-63346302D01*
X161562847Y-63346302D02*
X161715228Y-63384398D01*
X161715228Y-63384398D02*
X161791419Y-63422493D01*
X161791419Y-63422493D02*
X161867609Y-63498683D01*
X161867609Y-63498683D02*
X161905704Y-63612969D01*
X161905704Y-63612969D02*
X161905704Y-63689160D01*
X161905704Y-63689160D02*
X161867609Y-63803445D01*
X161867609Y-63803445D02*
X161829514Y-63841541D01*
X161705704Y-64917731D02*
X161134276Y-64917731D01*
X161134276Y-64917731D02*
X161019990Y-64879636D01*
X161019990Y-64879636D02*
X160943800Y-64803445D01*
X160943800Y-64803445D02*
X160905704Y-64689160D01*
X160905704Y-64689160D02*
X160905704Y-64612969D01*
X161629514Y-65260588D02*
X161667609Y-65298684D01*
X161667609Y-65298684D02*
X161705704Y-65374874D01*
X161705704Y-65374874D02*
X161705704Y-65565350D01*
X161705704Y-65565350D02*
X161667609Y-65641541D01*
X161667609Y-65641541D02*
X161629514Y-65679636D01*
X161629514Y-65679636D02*
X161553323Y-65717731D01*
X161553323Y-65717731D02*
X161477133Y-65717731D01*
X161477133Y-65717731D02*
X161362847Y-65679636D01*
X161362847Y-65679636D02*
X160905704Y-65222493D01*
X160905704Y-65222493D02*
X160905704Y-65717731D01*
X173854819Y-58566666D02*
X173378628Y-58899999D01*
X173854819Y-59138094D02*
X172854819Y-59138094D01*
X172854819Y-59138094D02*
X172854819Y-58757142D01*
X172854819Y-58757142D02*
X172902438Y-58661904D01*
X172902438Y-58661904D02*
X172950057Y-58614285D01*
X172950057Y-58614285D02*
X173045295Y-58566666D01*
X173045295Y-58566666D02*
X173188152Y-58566666D01*
X173188152Y-58566666D02*
X173283390Y-58614285D01*
X173283390Y-58614285D02*
X173331009Y-58661904D01*
X173331009Y-58661904D02*
X173378628Y-58757142D01*
X173378628Y-58757142D02*
X173378628Y-59138094D01*
X173188152Y-57709523D02*
X173854819Y-57709523D01*
X172807200Y-57947618D02*
X173521485Y-58185713D01*
X173521485Y-58185713D02*
X173521485Y-57566666D01*
X165254819Y-59166666D02*
X164778628Y-59499999D01*
X165254819Y-59738094D02*
X164254819Y-59738094D01*
X164254819Y-59738094D02*
X164254819Y-59357142D01*
X164254819Y-59357142D02*
X164302438Y-59261904D01*
X164302438Y-59261904D02*
X164350057Y-59214285D01*
X164350057Y-59214285D02*
X164445295Y-59166666D01*
X164445295Y-59166666D02*
X164588152Y-59166666D01*
X164588152Y-59166666D02*
X164683390Y-59214285D01*
X164683390Y-59214285D02*
X164731009Y-59261904D01*
X164731009Y-59261904D02*
X164778628Y-59357142D01*
X164778628Y-59357142D02*
X164778628Y-59738094D01*
X164254819Y-58261904D02*
X164254819Y-58738094D01*
X164254819Y-58738094D02*
X164731009Y-58785713D01*
X164731009Y-58785713D02*
X164683390Y-58738094D01*
X164683390Y-58738094D02*
X164635771Y-58642856D01*
X164635771Y-58642856D02*
X164635771Y-58404761D01*
X164635771Y-58404761D02*
X164683390Y-58309523D01*
X164683390Y-58309523D02*
X164731009Y-58261904D01*
X164731009Y-58261904D02*
X164826247Y-58214285D01*
X164826247Y-58214285D02*
X165064342Y-58214285D01*
X165064342Y-58214285D02*
X165159580Y-58261904D01*
X165159580Y-58261904D02*
X165207200Y-58309523D01*
X165207200Y-58309523D02*
X165254819Y-58404761D01*
X165254819Y-58404761D02*
X165254819Y-58642856D01*
X165254819Y-58642856D02*
X165207200Y-58738094D01*
X165207200Y-58738094D02*
X165159580Y-58785713D01*
X174654819Y-68133333D02*
X175369104Y-68133333D01*
X175369104Y-68133333D02*
X175511961Y-68180952D01*
X175511961Y-68180952D02*
X175607200Y-68276190D01*
X175607200Y-68276190D02*
X175654819Y-68419047D01*
X175654819Y-68419047D02*
X175654819Y-68514285D01*
X175654819Y-67133333D02*
X175654819Y-67704761D01*
X175654819Y-67419047D02*
X174654819Y-67419047D01*
X174654819Y-67419047D02*
X174797676Y-67514285D01*
X174797676Y-67514285D02*
X174892914Y-67609523D01*
X174892914Y-67609523D02*
X174940533Y-67704761D01*
D11*
%TO.C,R4*%
X169790000Y-57890000D02*
X169790000Y-56400000D01*
X169790000Y-60400000D02*
X169790000Y-58910000D01*
X171100000Y-55090000D02*
X174640000Y-55090000D01*
X175080000Y-61710000D02*
X171100000Y-61710000D01*
X176810000Y-55090000D02*
X176560000Y-55090000D01*
X176810000Y-55190000D02*
X176810000Y-55090000D01*
X176810000Y-56610000D02*
X176810000Y-60190000D01*
X176810000Y-56610000D02*
X177010000Y-56610000D01*
X176810000Y-60190000D02*
X177010000Y-60190000D01*
X176810000Y-61610000D02*
X176810000Y-61710000D01*
X176810000Y-61710000D02*
X176120000Y-61710000D01*
X177010000Y-55190000D02*
X176810000Y-55190000D01*
X177010000Y-55190000D02*
X177010000Y-56610000D01*
X177010000Y-60190000D02*
X177010000Y-61610000D01*
X177010000Y-61610000D02*
X176810000Y-61610000D01*
X169790000Y-56400000D02*
G75*
G02*
X171100000Y-55090000I1310000J0D01*
G01*
X171100000Y-61710000D02*
G75*
G02*
X169790000Y-60400000I0J1310000D01*
G01*
%TO.C,R5*%
X161190000Y-57990000D02*
X161190000Y-56500000D01*
X161190000Y-60500000D02*
X161190000Y-59010000D01*
X162500000Y-55190000D02*
X166040000Y-55190000D01*
X166480000Y-61810000D02*
X162500000Y-61810000D01*
X168210000Y-55190000D02*
X167960000Y-55190000D01*
X168210000Y-55290000D02*
X168210000Y-55190000D01*
X168210000Y-56710000D02*
X168210000Y-60290000D01*
X168210000Y-56710000D02*
X168410000Y-56710000D01*
X168210000Y-60290000D02*
X168410000Y-60290000D01*
X168210000Y-61710000D02*
X168210000Y-61810000D01*
X168210000Y-61810000D02*
X167520000Y-61810000D01*
X168410000Y-55290000D02*
X168210000Y-55290000D01*
X168410000Y-55290000D02*
X168410000Y-56710000D01*
X168410000Y-60290000D02*
X168410000Y-61710000D01*
X168410000Y-61710000D02*
X168210000Y-61710000D01*
X161190000Y-56500000D02*
G75*
G02*
X162500000Y-55190000I1310000J0D01*
G01*
X162500000Y-61810000D02*
G75*
G02*
X161190000Y-60500000I0J1310000D01*
G01*
D12*
%TO.C,G\u002A\u002A\u002A*%
G36*
X167915171Y-71393238D02*
G01*
X167922543Y-71393560D01*
X167940826Y-71394667D01*
X167941639Y-71683190D01*
X167942451Y-71971714D01*
X168122798Y-71973305D01*
X168156113Y-71973643D01*
X168187523Y-71974045D01*
X168216451Y-71974500D01*
X168242321Y-71974993D01*
X168264555Y-71975513D01*
X168282578Y-71976044D01*
X168295811Y-71976576D01*
X168303678Y-71977094D01*
X168305704Y-71977457D01*
X168307530Y-71982201D01*
X168308549Y-71990517D01*
X168308762Y-72000222D01*
X168308168Y-72009134D01*
X168306769Y-72015069D01*
X168305701Y-72016262D01*
X168301707Y-72016556D01*
X168292060Y-72016852D01*
X168277403Y-72017147D01*
X168258381Y-72017436D01*
X168235637Y-72017717D01*
X168209815Y-72017985D01*
X168181559Y-72018238D01*
X168151512Y-72018471D01*
X168120318Y-72018682D01*
X168088621Y-72018866D01*
X168057065Y-72019021D01*
X168026293Y-72019141D01*
X167996949Y-72019225D01*
X167969677Y-72019269D01*
X167945122Y-72019268D01*
X167923925Y-72019219D01*
X167906732Y-72019120D01*
X167894186Y-72018965D01*
X167886930Y-72018753D01*
X167885350Y-72018576D01*
X167885099Y-72015211D01*
X167884859Y-72005914D01*
X167884632Y-71991122D01*
X167884420Y-71971267D01*
X167884226Y-71946784D01*
X167884053Y-71918107D01*
X167883902Y-71885672D01*
X167883777Y-71849911D01*
X167883679Y-71811259D01*
X167883612Y-71770152D01*
X167883578Y-71727022D01*
X167883574Y-71705788D01*
X167883574Y-71394776D01*
X167893917Y-71393615D01*
X167903066Y-71393153D01*
X167915171Y-71393238D01*
G37*
G36*
X166455386Y-64245029D02*
G01*
X166492559Y-64248835D01*
X166526338Y-64256184D01*
X166534683Y-64258786D01*
X166580328Y-64277246D01*
X166622355Y-64300693D01*
X166660447Y-64328811D01*
X166694285Y-64361284D01*
X166723551Y-64397798D01*
X166747927Y-64438038D01*
X166767094Y-64481688D01*
X166770905Y-64492701D01*
X166779377Y-64524643D01*
X166785082Y-64559544D01*
X166788015Y-64595964D01*
X166788173Y-64632463D01*
X166785549Y-64667601D01*
X166780140Y-64699940D01*
X166771941Y-64728038D01*
X166771680Y-64728726D01*
X166757070Y-64761303D01*
X166738204Y-64794562D01*
X166716370Y-64826549D01*
X166692854Y-64855311D01*
X166678463Y-64870216D01*
X166655394Y-64891208D01*
X166633204Y-64908549D01*
X166610398Y-64923108D01*
X166585483Y-64935754D01*
X166556963Y-64947354D01*
X166529395Y-64956838D01*
X166508818Y-64963140D01*
X166490606Y-64967730D01*
X166473219Y-64970773D01*
X166455117Y-64972433D01*
X166434761Y-64972873D01*
X166410609Y-64972257D01*
X166392545Y-64971389D01*
X166354524Y-64966518D01*
X166315644Y-64956296D01*
X166277009Y-64941315D01*
X166239722Y-64922168D01*
X166204888Y-64899450D01*
X166173610Y-64873752D01*
X166146992Y-64845669D01*
X166138639Y-64834921D01*
X166117642Y-64804639D01*
X166101082Y-64776704D01*
X166088377Y-64749548D01*
X166078944Y-64721606D01*
X166072201Y-64691311D01*
X166067565Y-64657097D01*
X166065976Y-64639580D01*
X166064016Y-64595118D01*
X166065715Y-64554771D01*
X166071241Y-64517335D01*
X166080758Y-64481604D01*
X166091576Y-64452922D01*
X166110380Y-64416415D01*
X166134716Y-64381581D01*
X166163813Y-64349190D01*
X166196904Y-64320010D01*
X166233219Y-64294810D01*
X166268557Y-64275923D01*
X166301293Y-64263394D01*
X166337771Y-64253948D01*
X166376564Y-64247677D01*
X166416245Y-64244673D01*
X166455386Y-64245029D01*
G37*
G36*
X164228405Y-71658232D02*
G01*
X164228397Y-71701361D01*
X164228364Y-71738613D01*
X164228294Y-71770472D01*
X164228175Y-71797428D01*
X164227995Y-71819966D01*
X164227742Y-71838573D01*
X164227404Y-71853736D01*
X164226969Y-71865942D01*
X164226425Y-71875678D01*
X164225759Y-71883430D01*
X164224960Y-71889686D01*
X164224016Y-71894933D01*
X164222914Y-71899657D01*
X164222376Y-71901698D01*
X164212985Y-71930497D01*
X164201363Y-71954482D01*
X164186617Y-71975064D01*
X164167857Y-71993650D01*
X164160192Y-71999932D01*
X164135640Y-72016104D01*
X164108106Y-72028157D01*
X164076884Y-72036309D01*
X164041270Y-72040776D01*
X164024722Y-72041610D01*
X164008804Y-72041962D01*
X163994372Y-72042022D01*
X163983099Y-72041800D01*
X163976983Y-72041357D01*
X163944880Y-72035261D01*
X163917356Y-72027113D01*
X163892795Y-72016322D01*
X163869583Y-72002297D01*
X163868855Y-72001796D01*
X163849443Y-71987924D01*
X163835221Y-71976671D01*
X163825770Y-71967643D01*
X163820672Y-71960452D01*
X163819447Y-71955688D01*
X163821349Y-71951079D01*
X163826526Y-71942639D01*
X163834178Y-71931429D01*
X163843509Y-71918510D01*
X163853720Y-71904942D01*
X163864015Y-71891788D01*
X163873595Y-71880108D01*
X163881663Y-71870964D01*
X163887102Y-71865673D01*
X163891378Y-71863550D01*
X163896607Y-71864166D01*
X163903635Y-71867986D01*
X163913308Y-71875476D01*
X163926470Y-71887102D01*
X163927177Y-71887747D01*
X163942706Y-71901071D01*
X163956085Y-71910126D01*
X163969077Y-71915663D01*
X163983446Y-71918432D01*
X164000957Y-71919184D01*
X164001062Y-71919184D01*
X164022029Y-71918556D01*
X164038004Y-71916209D01*
X164050285Y-71911403D01*
X164060170Y-71903395D01*
X164068956Y-71891446D01*
X164077621Y-71875458D01*
X164088154Y-71854277D01*
X164088263Y-71703624D01*
X164088373Y-71552972D01*
X163983348Y-71552294D01*
X163878324Y-71551616D01*
X163878324Y-71494330D01*
X163878324Y-71437044D01*
X164053365Y-71437044D01*
X164228405Y-71437044D01*
X164228405Y-71658232D01*
G37*
G36*
X164620393Y-71435486D02*
G01*
X164655828Y-71435580D01*
X164688867Y-71435732D01*
X164718999Y-71435935D01*
X164745715Y-71436184D01*
X164768504Y-71436473D01*
X164786856Y-71436797D01*
X164800261Y-71437152D01*
X164808209Y-71437531D01*
X164810291Y-71437840D01*
X164810665Y-71441650D01*
X164810813Y-71450754D01*
X164810738Y-71464082D01*
X164810446Y-71480567D01*
X164810018Y-71496717D01*
X164808300Y-71553207D01*
X164652745Y-71553207D01*
X164497191Y-71553207D01*
X164498057Y-71612880D01*
X164498923Y-71672553D01*
X164636995Y-71674145D01*
X164775067Y-71675736D01*
X164774443Y-71731363D01*
X164774196Y-71749454D01*
X164773896Y-71765181D01*
X164773570Y-71777506D01*
X164773246Y-71785388D01*
X164772991Y-71787819D01*
X164769738Y-71788028D01*
X164760776Y-71788287D01*
X164746760Y-71788587D01*
X164728346Y-71788915D01*
X164706189Y-71789260D01*
X164680945Y-71789612D01*
X164653270Y-71789959D01*
X164635542Y-71790162D01*
X164498923Y-71791677D01*
X164498060Y-71853819D01*
X164497197Y-71915961D01*
X164658779Y-71916786D01*
X164820361Y-71917610D01*
X164821231Y-71974172D01*
X164821453Y-71995590D01*
X164821340Y-72011358D01*
X164820855Y-72022185D01*
X164819957Y-72028780D01*
X164818608Y-72031851D01*
X164818048Y-72032216D01*
X164814255Y-72032484D01*
X164804759Y-72032749D01*
X164790174Y-72033008D01*
X164771115Y-72033259D01*
X164748199Y-72033500D01*
X164722041Y-72033728D01*
X164693255Y-72033941D01*
X164662458Y-72034135D01*
X164630264Y-72034310D01*
X164597289Y-72034461D01*
X164564148Y-72034588D01*
X164531457Y-72034687D01*
X164499831Y-72034756D01*
X164469886Y-72034792D01*
X164442235Y-72034794D01*
X164417496Y-72034758D01*
X164396284Y-72034682D01*
X164379213Y-72034564D01*
X164366899Y-72034402D01*
X164359958Y-72034192D01*
X164358623Y-72034039D01*
X164358433Y-72030736D01*
X164358250Y-72021510D01*
X164358078Y-72006804D01*
X164357917Y-71987060D01*
X164357771Y-71962721D01*
X164357641Y-71934229D01*
X164357529Y-71902027D01*
X164357437Y-71866557D01*
X164357367Y-71828261D01*
X164357320Y-71787583D01*
X164357300Y-71744965D01*
X164357299Y-71734083D01*
X164357299Y-71435453D01*
X164583073Y-71435453D01*
X164620393Y-71435486D01*
G37*
G36*
X166646456Y-66872966D02*
G01*
X166683338Y-66882187D01*
X166712194Y-66892573D01*
X166753937Y-66911193D01*
X166790224Y-66931342D01*
X166821902Y-66953679D01*
X166849820Y-66978865D01*
X166874828Y-67007560D01*
X166893251Y-67033400D01*
X166906871Y-67055019D01*
X166917456Y-67074156D01*
X166926148Y-67093131D01*
X166934089Y-67114265D01*
X166936379Y-67121021D01*
X166947314Y-67163211D01*
X166953130Y-67207757D01*
X166953790Y-67253178D01*
X166949255Y-67297994D01*
X166941927Y-67332167D01*
X166937215Y-67349088D01*
X166932974Y-67362564D01*
X166928428Y-67374488D01*
X166922799Y-67386751D01*
X166915313Y-67401247D01*
X166908249Y-67414290D01*
X166887974Y-67448277D01*
X166866832Y-67477142D01*
X166843725Y-67502123D01*
X166817556Y-67524460D01*
X166798592Y-67538007D01*
X166782278Y-67547917D01*
X166762017Y-67558667D01*
X166739619Y-67569429D01*
X166716893Y-67579380D01*
X166695650Y-67587694D01*
X166677699Y-67593546D01*
X166675398Y-67594162D01*
X166657250Y-67598254D01*
X166636919Y-67601888D01*
X166616087Y-67604854D01*
X166596433Y-67606941D01*
X166579638Y-67607939D01*
X166567586Y-67607659D01*
X166541524Y-67603553D01*
X166512295Y-67596574D01*
X166481495Y-67587291D01*
X166450721Y-67576273D01*
X166421569Y-67564091D01*
X166395636Y-67551314D01*
X166375288Y-67539042D01*
X166353593Y-67521978D01*
X166331389Y-67500571D01*
X166310261Y-67476489D01*
X166291796Y-67451398D01*
X166291573Y-67451061D01*
X166272832Y-67421031D01*
X166258175Y-67393491D01*
X166246841Y-67366804D01*
X166238069Y-67339331D01*
X166236036Y-67331544D01*
X166232996Y-67318964D01*
X166230756Y-67308152D01*
X166229200Y-67297756D01*
X166228210Y-67286425D01*
X166227668Y-67272807D01*
X166227457Y-67255550D01*
X166227459Y-67233302D01*
X166227460Y-67232884D01*
X166227585Y-67210469D01*
X166227897Y-67193108D01*
X166228513Y-67179489D01*
X166229554Y-67168303D01*
X166231136Y-67158237D01*
X166233378Y-67147982D01*
X166236085Y-67137407D01*
X166244560Y-67110740D01*
X166255709Y-67083466D01*
X166268541Y-67057718D01*
X166282069Y-67035628D01*
X166285545Y-67030792D01*
X166293409Y-67020067D01*
X166300700Y-67009793D01*
X166305138Y-67003253D01*
X166311355Y-66995568D01*
X166321508Y-66985097D01*
X166334439Y-66972871D01*
X166348990Y-66959921D01*
X166364002Y-66947278D01*
X166378317Y-66935972D01*
X166390757Y-66927048D01*
X166410620Y-66915347D01*
X166434423Y-66903699D01*
X166460261Y-66892854D01*
X166486230Y-66883564D01*
X166510426Y-66876582D01*
X166527275Y-66873156D01*
X166569827Y-66868597D01*
X166609087Y-66868485D01*
X166646456Y-66872966D01*
G37*
G36*
X162109617Y-71435508D02*
G01*
X162140687Y-71435588D01*
X162170805Y-71435793D01*
X162199161Y-71436110D01*
X162224946Y-71436524D01*
X162247347Y-71437021D01*
X162265557Y-71437585D01*
X162278763Y-71438202D01*
X162284482Y-71438646D01*
X162324349Y-71445625D01*
X162360558Y-71457760D01*
X162393049Y-71475023D01*
X162421765Y-71497387D01*
X162434121Y-71509851D01*
X162446944Y-71525104D01*
X162457386Y-71540650D01*
X162466264Y-71558054D01*
X162474393Y-71578881D01*
X162481330Y-71600469D01*
X162487005Y-71620509D01*
X162490390Y-71636596D01*
X162491463Y-71650679D01*
X162490204Y-71664711D01*
X162486592Y-71680644D01*
X162480607Y-71700431D01*
X162480263Y-71701499D01*
X162470210Y-71729203D01*
X162459131Y-71752198D01*
X162446073Y-71772140D01*
X162430082Y-71790685D01*
X162427174Y-71793647D01*
X162400622Y-71815912D01*
X162369559Y-71834213D01*
X162334795Y-71848075D01*
X162333192Y-71848576D01*
X162320897Y-71852689D01*
X162309681Y-71856972D01*
X162302957Y-71860013D01*
X162299272Y-71861517D01*
X162294078Y-71862699D01*
X162286640Y-71863595D01*
X162276229Y-71864242D01*
X162262110Y-71864677D01*
X162243553Y-71864937D01*
X162219824Y-71865057D01*
X162201911Y-71865079D01*
X162110413Y-71865098D01*
X162110413Y-71949436D01*
X162110413Y-72033774D01*
X162044375Y-72033817D01*
X162024085Y-72033920D01*
X162005613Y-72034183D01*
X161990034Y-72034577D01*
X161978423Y-72035073D01*
X161971856Y-72035642D01*
X161971176Y-72035780D01*
X161964015Y-72037699D01*
X161964015Y-71749570D01*
X162110413Y-71749570D01*
X162135077Y-71748310D01*
X162147341Y-71747656D01*
X162164035Y-71746728D01*
X162183232Y-71745635D01*
X162203011Y-71744485D01*
X162209258Y-71744117D01*
X162229677Y-71742777D01*
X162245440Y-71741242D01*
X162258253Y-71739093D01*
X162269820Y-71735915D01*
X162281847Y-71731288D01*
X162296041Y-71724796D01*
X162304097Y-71720908D01*
X162312377Y-71714346D01*
X162320840Y-71703501D01*
X162328230Y-71690289D01*
X162333296Y-71676628D01*
X162333453Y-71676017D01*
X162335515Y-71660679D01*
X162335334Y-71642072D01*
X162333053Y-71622830D01*
X162329854Y-71608902D01*
X162322336Y-71593664D01*
X162309743Y-71579644D01*
X162293369Y-71567990D01*
X162274775Y-71559935D01*
X162266936Y-71557701D01*
X162259159Y-71556018D01*
X162250389Y-71554811D01*
X162239573Y-71554002D01*
X162225658Y-71553516D01*
X162207591Y-71553277D01*
X162184316Y-71553208D01*
X162181685Y-71553207D01*
X162110413Y-71553207D01*
X162110413Y-71651389D01*
X162110413Y-71749570D01*
X161964015Y-71749570D01*
X161964015Y-71736576D01*
X161964015Y-71651389D01*
X161964015Y-71435453D01*
X162109617Y-71435508D01*
G37*
G36*
X167222643Y-71388571D02*
G01*
X167226272Y-71390753D01*
X167226983Y-71391693D01*
X167227454Y-71395485D01*
X167227952Y-71405102D01*
X167228467Y-71420004D01*
X167228986Y-71439651D01*
X167229500Y-71463504D01*
X167229997Y-71491022D01*
X167230466Y-71521665D01*
X167230895Y-71554894D01*
X167231273Y-71590169D01*
X167231402Y-71604128D01*
X167231778Y-71645808D01*
X167232126Y-71681623D01*
X167232464Y-71712076D01*
X167232811Y-71737667D01*
X167233186Y-71758897D01*
X167233605Y-71776267D01*
X167234089Y-71790279D01*
X167234654Y-71801432D01*
X167235321Y-71810229D01*
X167236106Y-71817170D01*
X167237028Y-71822757D01*
X167238106Y-71827490D01*
X167239358Y-71831870D01*
X167239796Y-71833273D01*
X167248001Y-71857883D01*
X167255582Y-71877345D01*
X167263158Y-71892753D01*
X167271346Y-71905202D01*
X167280766Y-71915785D01*
X167291953Y-71925532D01*
X167318410Y-71942913D01*
X167348938Y-71956910D01*
X167381874Y-71966903D01*
X167415553Y-71972269D01*
X167417510Y-71972426D01*
X167444447Y-71972151D01*
X167472409Y-71967723D01*
X167500115Y-71959661D01*
X167526286Y-71948482D01*
X167549642Y-71934703D01*
X167568906Y-71918844D01*
X167579076Y-71907047D01*
X167589418Y-71891012D01*
X167599306Y-71872563D01*
X167607797Y-71853726D01*
X167613952Y-71836527D01*
X167616303Y-71826908D01*
X167616873Y-71820687D01*
X167617467Y-71808697D01*
X167618071Y-71791532D01*
X167618672Y-71769789D01*
X167619256Y-71744061D01*
X167619811Y-71714946D01*
X167620323Y-71683037D01*
X167620779Y-71648931D01*
X167621165Y-71613222D01*
X167621235Y-71605720D01*
X167621571Y-71570239D01*
X167621921Y-71536613D01*
X167622277Y-71505386D01*
X167622631Y-71477103D01*
X167622975Y-71452309D01*
X167623302Y-71431549D01*
X167623605Y-71415367D01*
X167623874Y-71404310D01*
X167624104Y-71398921D01*
X167624159Y-71398504D01*
X167627913Y-71395858D01*
X167636252Y-71393726D01*
X167647403Y-71392322D01*
X167659592Y-71391855D01*
X167671047Y-71392539D01*
X167672475Y-71392736D01*
X167686733Y-71394874D01*
X167685513Y-71603730D01*
X167684294Y-71812586D01*
X167675692Y-71843791D01*
X167667763Y-71869242D01*
X167658641Y-71891149D01*
X167647033Y-71912333D01*
X167637470Y-71927158D01*
X167619832Y-71950189D01*
X167600338Y-71969208D01*
X167577817Y-71985067D01*
X167551099Y-71998615D01*
X167525450Y-72008522D01*
X167514514Y-72012145D01*
X167504937Y-72014756D01*
X167495225Y-72016557D01*
X167483881Y-72017751D01*
X167469409Y-72018542D01*
X167450315Y-72019132D01*
X167446627Y-72019224D01*
X167427054Y-72019522D01*
X167407767Y-72019498D01*
X167390527Y-72019174D01*
X167377096Y-72018576D01*
X167372773Y-72018225D01*
X167354660Y-72014926D01*
X167333402Y-72008761D01*
X167311077Y-72000504D01*
X167289762Y-71990928D01*
X167271534Y-71980808D01*
X167270413Y-71980090D01*
X167248744Y-71963485D01*
X167229916Y-71943332D01*
X167213521Y-71918995D01*
X167199148Y-71889837D01*
X167186388Y-71855224D01*
X167183032Y-71844412D01*
X167172548Y-71809403D01*
X167171465Y-71602094D01*
X167170383Y-71394785D01*
X167190683Y-71391250D01*
X167205994Y-71388833D01*
X167216265Y-71387935D01*
X167222643Y-71388571D01*
G37*
G36*
X168706945Y-71391700D02*
G01*
X168734205Y-71394231D01*
X168758188Y-71398731D01*
X168780344Y-71405422D01*
X168787598Y-71408187D01*
X168798807Y-71413382D01*
X168812419Y-71420771D01*
X168827405Y-71429667D01*
X168842736Y-71439383D01*
X168857380Y-71449233D01*
X168870310Y-71458530D01*
X168880494Y-71466586D01*
X168886903Y-71472715D01*
X168888605Y-71475565D01*
X168887251Y-71481468D01*
X168882741Y-71490112D01*
X168877871Y-71497194D01*
X168870987Y-71505711D01*
X168865974Y-71510009D01*
X168861144Y-71511145D01*
X168856549Y-71510543D01*
X168849251Y-71507547D01*
X168839394Y-71501547D01*
X168829109Y-71493840D01*
X168829092Y-71493826D01*
X168808741Y-71479586D01*
X168783960Y-71466530D01*
X168756676Y-71455566D01*
X168732753Y-71448517D01*
X168703094Y-71443548D01*
X168669925Y-71441805D01*
X168635165Y-71443197D01*
X168600736Y-71447630D01*
X168568557Y-71455013D01*
X168563050Y-71456680D01*
X168529197Y-71470654D01*
X168498032Y-71490172D01*
X168469971Y-71514831D01*
X168445426Y-71544232D01*
X168424811Y-71577973D01*
X168414122Y-71601050D01*
X168404672Y-71624742D01*
X168397745Y-71644238D01*
X168392992Y-71661024D01*
X168390063Y-71676584D01*
X168388608Y-71692403D01*
X168388278Y-71709966D01*
X168388283Y-71710744D01*
X168388624Y-71727565D01*
X168389608Y-71740383D01*
X168391628Y-71751558D01*
X168395077Y-71763446D01*
X168398890Y-71774395D01*
X168415195Y-71813371D01*
X168434419Y-71847416D01*
X168457068Y-71877008D01*
X168483651Y-71902623D01*
X168514674Y-71924738D01*
X168550646Y-71943831D01*
X168592074Y-71960378D01*
X168599380Y-71962867D01*
X168615784Y-71968093D01*
X168628651Y-71971399D01*
X168640367Y-71973196D01*
X168653316Y-71973893D01*
X168663785Y-71973950D01*
X168692019Y-71972194D01*
X168720527Y-71967003D01*
X168750186Y-71958088D01*
X168781873Y-71945159D01*
X168816465Y-71927926D01*
X168836061Y-71917073D01*
X168849625Y-71909423D01*
X168858834Y-71904614D01*
X168864821Y-71902267D01*
X168868721Y-71902004D01*
X168871669Y-71903448D01*
X168873165Y-71904713D01*
X168882031Y-71916105D01*
X168884693Y-71928351D01*
X168881195Y-71941088D01*
X168871582Y-71953953D01*
X168866634Y-71958545D01*
X168851684Y-71969209D01*
X168831931Y-71980170D01*
X168808877Y-71990826D01*
X168784021Y-72000574D01*
X168758862Y-72008811D01*
X168734900Y-72014935D01*
X168719561Y-72017653D01*
X168699974Y-72019487D01*
X168676399Y-72020406D01*
X168651147Y-72020409D01*
X168626527Y-72019495D01*
X168605221Y-72017706D01*
X168582811Y-72013561D01*
X168557092Y-72006285D01*
X168529843Y-71996571D01*
X168502841Y-71985111D01*
X168477866Y-71972599D01*
X168456993Y-71959932D01*
X168430996Y-71938587D01*
X168406771Y-71911427D01*
X168384571Y-71878821D01*
X168364649Y-71841135D01*
X168348721Y-71802756D01*
X168337909Y-71768999D01*
X168331386Y-71737258D01*
X168329233Y-71706506D01*
X168331530Y-71675716D01*
X168338359Y-71643859D01*
X168349801Y-71609909D01*
X168365935Y-71572836D01*
X168366948Y-71570712D01*
X168384216Y-71537504D01*
X168401890Y-71509637D01*
X168420790Y-71486102D01*
X168441732Y-71465887D01*
X168465534Y-71447982D01*
X168467183Y-71446885D01*
X168485035Y-71435402D01*
X168499855Y-71426757D01*
X168513677Y-71419930D01*
X168528534Y-71413906D01*
X168543700Y-71408586D01*
X168578788Y-71399323D01*
X168618777Y-71393474D01*
X168663896Y-71391008D01*
X168674955Y-71390916D01*
X168706945Y-71391700D01*
G37*
G36*
X162735785Y-71437118D02*
G01*
X162775614Y-71437162D01*
X162809673Y-71437291D01*
X162838555Y-71437552D01*
X162862854Y-71437997D01*
X162883166Y-71438673D01*
X162900085Y-71439630D01*
X162914204Y-71440919D01*
X162926119Y-71442588D01*
X162936423Y-71444686D01*
X162945711Y-71447263D01*
X162954576Y-71450369D01*
X162963615Y-71454053D01*
X162969292Y-71456527D01*
X162994914Y-71470577D01*
X163020153Y-71489390D01*
X163043385Y-71511484D01*
X163062986Y-71535381D01*
X163072901Y-71550984D01*
X163085831Y-71580366D01*
X163093685Y-71612387D01*
X163096485Y-71645872D01*
X163094252Y-71679648D01*
X163087006Y-71712539D01*
X163074770Y-71743373D01*
X163069243Y-71753580D01*
X163056795Y-71771927D01*
X163041568Y-71789835D01*
X163025008Y-71805863D01*
X163008565Y-71818571D01*
X162997551Y-71824884D01*
X162988063Y-71829879D01*
X162981449Y-71834410D01*
X162979251Y-71837223D01*
X162980973Y-71840718D01*
X162985843Y-71848786D01*
X162993421Y-71860742D01*
X163003266Y-71875904D01*
X163014937Y-71893587D01*
X163027993Y-71913108D01*
X163032559Y-71919879D01*
X163050487Y-71946433D01*
X163065148Y-71968218D01*
X163076850Y-71985730D01*
X163085904Y-71999463D01*
X163092620Y-72009912D01*
X163097307Y-72017574D01*
X163100277Y-72022943D01*
X163101839Y-72026514D01*
X163102302Y-72028783D01*
X163101978Y-72030245D01*
X163101820Y-72030525D01*
X163097945Y-72031634D01*
X163088037Y-72032526D01*
X163072426Y-72033189D01*
X163051440Y-72033609D01*
X163025409Y-72033772D01*
X163022177Y-72033774D01*
X162944542Y-72033774D01*
X162939580Y-72023431D01*
X162936536Y-72018081D01*
X162930471Y-72008247D01*
X162921900Y-71994733D01*
X162911340Y-71978347D01*
X162899307Y-71959894D01*
X162886317Y-71940181D01*
X162886123Y-71939888D01*
X162837627Y-71866689D01*
X162777954Y-71865824D01*
X162718281Y-71864958D01*
X162718281Y-71949366D01*
X162718281Y-72033774D01*
X162644983Y-72033774D01*
X162620073Y-72033689D01*
X162600933Y-72033412D01*
X162586972Y-72032912D01*
X162577597Y-72032157D01*
X162572215Y-72031116D01*
X162570247Y-72029796D01*
X162570046Y-72026100D01*
X162569870Y-72016490D01*
X162569718Y-72001418D01*
X162569592Y-71981333D01*
X162569494Y-71956687D01*
X162569424Y-71927932D01*
X162569383Y-71895517D01*
X162569373Y-71859895D01*
X162569394Y-71821516D01*
X162569447Y-71780831D01*
X162569515Y-71747344D01*
X162718281Y-71747344D01*
X162752494Y-71747206D01*
X162770049Y-71746916D01*
X162791047Y-71746238D01*
X162812583Y-71745281D01*
X162828197Y-71744390D01*
X162845384Y-71743203D01*
X162857923Y-71741963D01*
X162867523Y-71740258D01*
X162875892Y-71737677D01*
X162884737Y-71733809D01*
X162895765Y-71728244D01*
X162896163Y-71728039D01*
X162911360Y-71719551D01*
X162921920Y-71711954D01*
X162929257Y-71704175D01*
X162931053Y-71701629D01*
X162934563Y-71695955D01*
X162936931Y-71690579D01*
X162938377Y-71684103D01*
X162939125Y-71675129D01*
X162939394Y-71662260D01*
X162939416Y-71648897D01*
X162939220Y-71630957D01*
X162938585Y-71618034D01*
X162937355Y-71608789D01*
X162935375Y-71601880D01*
X162933483Y-71597763D01*
X162922050Y-71581011D01*
X162907322Y-71568862D01*
X162893531Y-71562081D01*
X162887532Y-71559860D01*
X162881440Y-71558135D01*
X162874333Y-71556827D01*
X162865288Y-71555856D01*
X162853381Y-71555146D01*
X162837690Y-71554616D01*
X162817293Y-71554190D01*
X162797050Y-71553871D01*
X162718281Y-71552718D01*
X162718281Y-71650031D01*
X162718281Y-71747344D01*
X162569515Y-71747344D01*
X162569534Y-71738292D01*
X162569551Y-71731431D01*
X162569756Y-71650031D01*
X162570292Y-71437044D01*
X162735785Y-71437118D01*
G37*
G36*
X169658388Y-71390675D02*
G01*
X169665105Y-71393722D01*
X169670401Y-71396643D01*
X169675589Y-71400139D01*
X169681150Y-71404737D01*
X169687561Y-71410963D01*
X169695301Y-71419347D01*
X169704849Y-71430414D01*
X169716684Y-71444692D01*
X169731284Y-71462710D01*
X169749128Y-71484994D01*
X169757619Y-71495643D01*
X169774357Y-71516624D01*
X169791408Y-71537942D01*
X169807919Y-71558535D01*
X169823038Y-71577342D01*
X169835912Y-71593300D01*
X169845688Y-71605346D01*
X169845766Y-71605442D01*
X169865868Y-71630326D01*
X169888879Y-71659232D01*
X169913935Y-71691054D01*
X169940175Y-71724687D01*
X169966736Y-71759025D01*
X169992753Y-71792964D01*
X170014902Y-71822134D01*
X170028660Y-71840199D01*
X170041695Y-71857042D01*
X170053353Y-71871838D01*
X170062980Y-71883763D01*
X170069921Y-71891992D01*
X170072853Y-71895132D01*
X170082722Y-71904480D01*
X170082722Y-71649280D01*
X170082722Y-71394080D01*
X170112738Y-71394080D01*
X170142754Y-71394080D01*
X170144173Y-71425109D01*
X170144304Y-71431308D01*
X170144412Y-71443299D01*
X170144500Y-71460512D01*
X170144566Y-71482373D01*
X170144613Y-71508312D01*
X170144642Y-71537755D01*
X170144652Y-71570131D01*
X170144645Y-71604868D01*
X170144622Y-71641394D01*
X170144583Y-71679137D01*
X170144530Y-71717525D01*
X170144463Y-71755985D01*
X170144383Y-71793946D01*
X170144291Y-71830836D01*
X170144188Y-71866082D01*
X170144074Y-71899113D01*
X170143950Y-71929356D01*
X170143818Y-71956240D01*
X170143678Y-71979193D01*
X170143532Y-71997642D01*
X170143378Y-72011016D01*
X170143303Y-72015474D01*
X170140572Y-72019803D01*
X170133553Y-72021558D01*
X170123657Y-72020991D01*
X170112297Y-72018359D01*
X170100886Y-72013916D01*
X170090836Y-72007915D01*
X170087901Y-72005493D01*
X170081253Y-71998644D01*
X170071172Y-71987148D01*
X170058030Y-71971461D01*
X170042200Y-71952039D01*
X170024055Y-71929336D01*
X170003967Y-71903808D01*
X169988836Y-71884358D01*
X169975271Y-71866892D01*
X169958581Y-71845487D01*
X169939593Y-71821193D01*
X169919131Y-71795063D01*
X169898021Y-71768149D01*
X169877087Y-71741503D01*
X169857156Y-71716176D01*
X169839052Y-71693221D01*
X169823600Y-71673689D01*
X169820175Y-71669371D01*
X169810604Y-71657262D01*
X169798291Y-71641601D01*
X169784395Y-71623868D01*
X169770073Y-71605540D01*
X169759055Y-71591398D01*
X169745293Y-71573758D01*
X169731081Y-71555623D01*
X169717558Y-71538441D01*
X169705864Y-71523663D01*
X169698489Y-71514416D01*
X169676303Y-71486763D01*
X169674419Y-71526634D01*
X169674130Y-71536571D01*
X169673908Y-71552240D01*
X169673756Y-71573010D01*
X169673671Y-71598248D01*
X169673655Y-71627322D01*
X169673708Y-71659599D01*
X169673828Y-71694448D01*
X169674017Y-71731237D01*
X169674273Y-71769333D01*
X169674456Y-71792183D01*
X169676377Y-72017861D01*
X169668705Y-72017904D01*
X169659703Y-72018390D01*
X169654668Y-72019000D01*
X169647440Y-72019379D01*
X169637525Y-72018996D01*
X169635088Y-72018789D01*
X169621872Y-72017525D01*
X169619758Y-71978707D01*
X169619445Y-71969532D01*
X169619170Y-71954548D01*
X169618935Y-71934311D01*
X169618742Y-71909375D01*
X169618593Y-71880298D01*
X169618490Y-71847634D01*
X169618435Y-71811939D01*
X169618429Y-71773770D01*
X169618476Y-71733681D01*
X169618577Y-71692229D01*
X169618652Y-71670050D01*
X169618843Y-71621816D01*
X169619037Y-71579560D01*
X169619243Y-71542890D01*
X169619470Y-71511418D01*
X169619724Y-71484756D01*
X169620015Y-71462514D01*
X169620351Y-71444304D01*
X169620740Y-71429735D01*
X169621191Y-71418421D01*
X169621710Y-71409970D01*
X169622308Y-71403995D01*
X169622991Y-71400107D01*
X169623769Y-71397917D01*
X169624433Y-71397144D01*
X169630587Y-71394285D01*
X169639513Y-71391238D01*
X169641067Y-71390794D01*
X169650297Y-71389163D01*
X169658388Y-71390675D01*
G37*
G36*
X167077961Y-71386228D02*
G01*
X167077673Y-71389853D01*
X167075244Y-71398014D01*
X167071122Y-71409432D01*
X167065757Y-71422826D01*
X167062391Y-71430679D01*
X167058698Y-71439186D01*
X167053387Y-71451544D01*
X167047321Y-71465740D01*
X167043958Y-71473644D01*
X167039235Y-71484573D01*
X167032366Y-71500210D01*
X167023834Y-71519467D01*
X167014123Y-71541255D01*
X167003718Y-71564485D01*
X166993102Y-71588069D01*
X166992317Y-71589807D01*
X166964115Y-71652342D01*
X166938450Y-71709403D01*
X166915188Y-71761295D01*
X166894194Y-71808321D01*
X166875332Y-71850783D01*
X166858466Y-71888986D01*
X166843462Y-71923232D01*
X166837598Y-71936706D01*
X166828465Y-71957433D01*
X166819889Y-71976329D01*
X166812266Y-71992571D01*
X166805986Y-72005337D01*
X166801445Y-72013803D01*
X166799173Y-72017065D01*
X166793129Y-72019129D01*
X166782915Y-72020383D01*
X166770680Y-72020791D01*
X166758570Y-72020317D01*
X166748735Y-72018925D01*
X166745550Y-72017960D01*
X166740490Y-72013270D01*
X166734869Y-72002891D01*
X166729857Y-71990314D01*
X166725666Y-71979444D01*
X166719444Y-71964177D01*
X166711782Y-71945919D01*
X166703270Y-71926075D01*
X166694496Y-71906048D01*
X166694313Y-71905636D01*
X166686347Y-71887604D01*
X166679341Y-71871617D01*
X166673678Y-71858561D01*
X166669742Y-71849323D01*
X166667918Y-71844789D01*
X166667837Y-71844494D01*
X166666582Y-71841142D01*
X166663249Y-71833508D01*
X166658484Y-71823061D01*
X166656999Y-71819868D01*
X166644745Y-71793473D01*
X166630843Y-71763239D01*
X166615826Y-71730348D01*
X166600227Y-71695980D01*
X166584579Y-71661317D01*
X166569415Y-71627540D01*
X166555267Y-71595829D01*
X166542670Y-71567367D01*
X166532156Y-71543333D01*
X166530923Y-71540489D01*
X166521439Y-71518749D01*
X166511997Y-71497436D01*
X166503134Y-71477737D01*
X166495389Y-71460843D01*
X166489299Y-71447942D01*
X166486789Y-71442862D01*
X166478619Y-71426635D01*
X166473175Y-71415122D01*
X166470225Y-71407400D01*
X166469535Y-71402549D01*
X166470874Y-71399647D01*
X166474006Y-71397773D01*
X166475265Y-71397272D01*
X166482480Y-71395172D01*
X166493443Y-71392678D01*
X166504168Y-71390623D01*
X166515204Y-71388880D01*
X166522884Y-71388809D01*
X166528375Y-71391301D01*
X166532846Y-71397249D01*
X166537466Y-71407543D01*
X166542065Y-71419540D01*
X166548700Y-71436544D01*
X166557105Y-71457258D01*
X166566409Y-71479599D01*
X166575741Y-71501485D01*
X166584230Y-71520834D01*
X166587354Y-71527747D01*
X166592117Y-71538350D01*
X166598387Y-71552569D01*
X166605179Y-71568161D01*
X166609024Y-71577077D01*
X166615911Y-71592955D01*
X166623109Y-71609282D01*
X166629519Y-71623574D01*
X166632273Y-71629589D01*
X166636638Y-71639050D01*
X166643046Y-71652988D01*
X166650893Y-71670093D01*
X166659579Y-71689051D01*
X166668501Y-71708552D01*
X166668776Y-71709153D01*
X166685323Y-71745304D01*
X166701008Y-71779489D01*
X166715596Y-71811196D01*
X166728851Y-71839916D01*
X166740536Y-71865141D01*
X166750416Y-71886359D01*
X166758255Y-71903063D01*
X166763817Y-71914741D01*
X166765706Y-71918607D01*
X166774105Y-71935516D01*
X166787986Y-71905877D01*
X166793177Y-71894684D01*
X166800439Y-71878867D01*
X166809235Y-71859608D01*
X166819027Y-71838087D01*
X166829274Y-71815486D01*
X166837058Y-71798264D01*
X166847966Y-71774096D01*
X166859435Y-71748693D01*
X166870770Y-71723588D01*
X166881279Y-71700318D01*
X166890269Y-71680418D01*
X166894541Y-71670962D01*
X166904799Y-71648219D01*
X166916323Y-71622590D01*
X166928665Y-71595079D01*
X166941376Y-71566689D01*
X166954009Y-71538426D01*
X166966114Y-71511292D01*
X166977244Y-71486291D01*
X166986949Y-71464428D01*
X166994782Y-71446705D01*
X166998687Y-71437814D01*
X167006697Y-71420022D01*
X167013156Y-71407337D01*
X167018771Y-71398919D01*
X167024246Y-71393922D01*
X167030288Y-71391505D01*
X167037603Y-71390825D01*
X167038040Y-71390821D01*
X167050404Y-71389991D01*
X167062845Y-71388065D01*
X167063976Y-71387814D01*
X167072188Y-71386278D01*
X167077336Y-71386001D01*
X167077961Y-71386228D01*
G37*
G36*
X163477946Y-71423480D02*
G01*
X163488461Y-71423839D01*
X163509074Y-71424981D01*
X163527220Y-71426994D01*
X163545553Y-71430279D01*
X163566726Y-71435239D01*
X163571207Y-71436383D01*
X163595883Y-71442963D01*
X163615733Y-71448881D01*
X163632172Y-71454712D01*
X163646619Y-71461033D01*
X163660491Y-71468418D01*
X163675203Y-71477445D01*
X163680101Y-71480630D01*
X163711084Y-71503555D01*
X163737538Y-71528915D01*
X163759855Y-71557340D01*
X163778428Y-71589459D01*
X163793648Y-71625899D01*
X163805907Y-71667292D01*
X163811277Y-71691157D01*
X163813958Y-71704222D01*
X163815949Y-71714730D01*
X163817179Y-71723745D01*
X163817578Y-71732333D01*
X163817074Y-71741559D01*
X163815597Y-71752488D01*
X163813076Y-71766185D01*
X163809440Y-71783715D01*
X163804619Y-71806144D01*
X163803185Y-71812802D01*
X163792767Y-71847441D01*
X163776910Y-71881562D01*
X163756484Y-71913815D01*
X163732360Y-71942848D01*
X163705409Y-71967310D01*
X163701934Y-71969943D01*
X163681859Y-71983714D01*
X163659197Y-71997443D01*
X163636118Y-72009915D01*
X163614795Y-72019914D01*
X163607181Y-72022973D01*
X163579432Y-72031361D01*
X163547602Y-72037516D01*
X163513628Y-72041277D01*
X163479448Y-72042479D01*
X163447000Y-72040960D01*
X163426401Y-72038198D01*
X163402028Y-72033489D01*
X163382065Y-72028704D01*
X163364578Y-72023258D01*
X163347632Y-72016565D01*
X163333521Y-72010091D01*
X163294874Y-71988875D01*
X163260906Y-71964681D01*
X163232095Y-71937894D01*
X163209425Y-71909654D01*
X163201496Y-71896825D01*
X163192308Y-71880150D01*
X163182916Y-71861712D01*
X163174376Y-71843594D01*
X163167745Y-71827879D01*
X163167048Y-71826041D01*
X163157433Y-71792389D01*
X163152192Y-71755732D01*
X163151518Y-71720744D01*
X163307334Y-71720744D01*
X163307414Y-71743504D01*
X163308554Y-71765410D01*
X163310725Y-71784155D01*
X163311738Y-71789609D01*
X163317752Y-71810756D01*
X163326788Y-71829869D01*
X163339760Y-71848508D01*
X163357580Y-71868235D01*
X163357911Y-71868570D01*
X163383332Y-71890683D01*
X163409983Y-71906732D01*
X163438449Y-71916987D01*
X163469316Y-71921716D01*
X163474139Y-71921963D01*
X163481753Y-71921779D01*
X163493474Y-71920958D01*
X163507092Y-71919663D01*
X163510738Y-71919261D01*
X163527524Y-71916706D01*
X163542067Y-71912723D01*
X163557474Y-71906371D01*
X163564469Y-71903009D01*
X163589800Y-71888114D01*
X163610931Y-71870163D01*
X163628877Y-71848103D01*
X163644653Y-71820885D01*
X163645514Y-71819145D01*
X163655948Y-71795378D01*
X163662473Y-71773620D01*
X163665541Y-71751505D01*
X163665604Y-71726667D01*
X163665018Y-71717135D01*
X163662673Y-71695494D01*
X163658687Y-71677051D01*
X163652275Y-71658972D01*
X163643807Y-71640728D01*
X163628082Y-71613569D01*
X163610468Y-71591881D01*
X163590107Y-71574855D01*
X163566140Y-71561682D01*
X163555294Y-71557289D01*
X163545121Y-71553699D01*
X163536292Y-71551235D01*
X163527199Y-71549692D01*
X163516232Y-71548864D01*
X163501781Y-71548543D01*
X163486869Y-71548514D01*
X163461489Y-71549084D01*
X163440818Y-71550911D01*
X163423269Y-71554316D01*
X163407253Y-71559624D01*
X163391182Y-71567157D01*
X163388643Y-71568513D01*
X163370924Y-71580974D01*
X163353677Y-71598308D01*
X163337916Y-71619045D01*
X163324655Y-71641714D01*
X163314906Y-71664846D01*
X163310459Y-71681890D01*
X163308339Y-71699437D01*
X163307334Y-71720744D01*
X163151518Y-71720744D01*
X163151461Y-71717813D01*
X163155375Y-71680376D01*
X163155630Y-71678919D01*
X163158023Y-71666057D01*
X163160411Y-71655586D01*
X163163348Y-71645989D01*
X163167385Y-71635752D01*
X163173077Y-71623359D01*
X163180976Y-71607294D01*
X163183920Y-71601410D01*
X163206573Y-71562937D01*
X163233939Y-71528177D01*
X163265374Y-71497934D01*
X163268864Y-71495071D01*
X163289279Y-71479702D01*
X163309507Y-71467076D01*
X163331025Y-71456504D01*
X163355311Y-71447301D01*
X163383844Y-71438779D01*
X163397758Y-71435160D01*
X163417008Y-71430387D01*
X163431729Y-71427017D01*
X163443553Y-71424844D01*
X163454110Y-71423666D01*
X163465030Y-71423279D01*
X163477946Y-71423480D01*
G37*
G36*
X165228481Y-71423030D02*
G01*
X165253705Y-71426294D01*
X165274870Y-71430422D01*
X165315094Y-71440372D01*
X165349630Y-71451553D01*
X165379084Y-71464241D01*
X165404062Y-71478712D01*
X165425167Y-71495240D01*
X165432063Y-71501878D01*
X165442976Y-71512363D01*
X165450100Y-71517761D01*
X165453452Y-71518088D01*
X165453601Y-71517791D01*
X165454292Y-71513033D01*
X165454984Y-71503335D01*
X165455596Y-71490122D01*
X165456036Y-71475235D01*
X165456873Y-71437044D01*
X165721025Y-71437044D01*
X165985178Y-71437044D01*
X165984804Y-71494330D01*
X165984430Y-71551616D01*
X165892510Y-71551751D01*
X165800589Y-71551885D01*
X165800589Y-71792034D01*
X165800589Y-72032183D01*
X165724208Y-72032183D01*
X165647827Y-72032183D01*
X165647973Y-71792695D01*
X165648119Y-71553207D01*
X165563635Y-71553024D01*
X165540352Y-71552891D01*
X165518541Y-71552610D01*
X165499204Y-71552208D01*
X165483343Y-71551708D01*
X165471959Y-71551137D01*
X165466421Y-71550591D01*
X165458047Y-71548503D01*
X165453895Y-71544907D01*
X165451835Y-71537870D01*
X165451722Y-71537248D01*
X165450366Y-71531059D01*
X165449450Y-71529511D01*
X165449336Y-71530046D01*
X165447051Y-71533435D01*
X165440947Y-71540519D01*
X165431736Y-71550525D01*
X165420131Y-71562680D01*
X165406845Y-71576209D01*
X165406748Y-71576307D01*
X165364579Y-71618677D01*
X165348959Y-71601059D01*
X165327944Y-71580834D01*
X165304886Y-71565604D01*
X165279108Y-71555124D01*
X165249934Y-71549148D01*
X165216687Y-71547432D01*
X165202268Y-71547874D01*
X165168086Y-71551458D01*
X165138766Y-71558677D01*
X165113750Y-71569826D01*
X165092479Y-71585204D01*
X165074396Y-71605108D01*
X165063357Y-71621857D01*
X165047729Y-71652390D01*
X165037452Y-71681602D01*
X165032116Y-71710883D01*
X165031102Y-71731431D01*
X165033861Y-71768061D01*
X165042165Y-71801765D01*
X165055952Y-71832382D01*
X165075160Y-71859751D01*
X165085647Y-71871057D01*
X165109006Y-71891204D01*
X165133196Y-71905666D01*
X165159563Y-71915100D01*
X165185409Y-71919740D01*
X165218382Y-71921633D01*
X165247986Y-71919096D01*
X165275478Y-71911757D01*
X165302117Y-71899244D01*
X165329161Y-71881183D01*
X165337439Y-71874709D01*
X165348707Y-71866216D01*
X165358758Y-71859693D01*
X165366155Y-71856030D01*
X165368365Y-71855551D01*
X165374574Y-71858067D01*
X165384455Y-71865530D01*
X165397840Y-71877807D01*
X165401909Y-71881807D01*
X165413987Y-71893724D01*
X165425941Y-71905356D01*
X165436183Y-71915165D01*
X165441794Y-71920409D01*
X165449121Y-71927589D01*
X165454019Y-71933295D01*
X165455282Y-71935685D01*
X165452947Y-71943366D01*
X165446854Y-71952874D01*
X165438372Y-71962264D01*
X165433895Y-71966124D01*
X165422145Y-71974531D01*
X165406691Y-71984478D01*
X165389167Y-71995023D01*
X165371204Y-72005225D01*
X165354435Y-72014143D01*
X165340493Y-72020835D01*
X165335310Y-72022971D01*
X165315157Y-72029159D01*
X165290708Y-72034454D01*
X165263701Y-72038669D01*
X165235873Y-72041619D01*
X165208960Y-72043118D01*
X165184701Y-72042978D01*
X165165669Y-72041155D01*
X165138526Y-72036375D01*
X165116118Y-72031528D01*
X165096829Y-72026136D01*
X165079041Y-72019718D01*
X165061138Y-72011795D01*
X165052688Y-72007649D01*
X165014981Y-71985676D01*
X164981342Y-71959878D01*
X164952287Y-71930769D01*
X164928336Y-71898864D01*
X164911093Y-71867126D01*
X164906647Y-71856032D01*
X164901319Y-71840897D01*
X164895830Y-71823845D01*
X164891565Y-71809403D01*
X164886953Y-71792381D01*
X164883887Y-71778829D01*
X164882063Y-71766471D01*
X164881174Y-71753028D01*
X164880918Y-71736223D01*
X164880919Y-71729839D01*
X164881185Y-71710422D01*
X164882057Y-71695193D01*
X164883792Y-71681987D01*
X164886646Y-71668638D01*
X164889396Y-71658232D01*
X164903307Y-71616898D01*
X164921079Y-71580094D01*
X164943300Y-71546960D01*
X164970559Y-71516637D01*
X165003442Y-71488266D01*
X165008132Y-71484698D01*
X165028825Y-71470262D01*
X165048430Y-71459279D01*
X165069613Y-71450412D01*
X165089310Y-71443997D01*
X165123273Y-71434511D01*
X165152854Y-71427767D01*
X165179372Y-71423669D01*
X165204142Y-71422123D01*
X165228481Y-71423030D01*
G37*
G36*
X169271341Y-71456139D02*
G01*
X169281922Y-71477387D01*
X169292451Y-71498880D01*
X169302273Y-71519255D01*
X169310731Y-71537146D01*
X169317171Y-71551191D01*
X169318763Y-71554799D01*
X169323907Y-71566390D01*
X169331239Y-71582577D01*
X169340227Y-71602203D01*
X169350340Y-71624111D01*
X169361045Y-71647142D01*
X169370702Y-71667780D01*
X169398448Y-71727000D01*
X169423447Y-71780618D01*
X169445691Y-71828621D01*
X169465175Y-71870996D01*
X169481894Y-71907730D01*
X169495841Y-71938810D01*
X169507012Y-71964225D01*
X169515400Y-71983962D01*
X169520999Y-71998008D01*
X169523805Y-72006351D01*
X169523835Y-72006469D01*
X169524610Y-72013417D01*
X169522100Y-72017762D01*
X169515394Y-72020019D01*
X169503580Y-72020704D01*
X169498722Y-72020678D01*
X169483312Y-72020052D01*
X169472901Y-72018301D01*
X169466143Y-72014835D01*
X169461695Y-72009068D01*
X169459263Y-72003416D01*
X169454897Y-71992240D01*
X169448893Y-71977865D01*
X169441805Y-71961512D01*
X169434185Y-71944401D01*
X169426585Y-71927751D01*
X169419559Y-71912783D01*
X169413660Y-71900716D01*
X169409441Y-71892771D01*
X169408279Y-71890924D01*
X169403609Y-71882701D01*
X169398670Y-71871510D01*
X169396220Y-71864796D01*
X169390515Y-71847594D01*
X169217066Y-71846003D01*
X169174279Y-71845670D01*
X169137200Y-71845508D01*
X169105930Y-71845516D01*
X169080570Y-71845694D01*
X169061223Y-71846039D01*
X169047990Y-71846551D01*
X169040972Y-71847230D01*
X169039863Y-71847594D01*
X169037240Y-71851592D01*
X169032754Y-71860247D01*
X169026998Y-71872344D01*
X169020570Y-71886671D01*
X169019571Y-71888967D01*
X169007702Y-71915766D01*
X168996111Y-71940790D01*
X168985111Y-71963449D01*
X168975013Y-71983151D01*
X168966130Y-71999305D01*
X168958775Y-72011320D01*
X168953259Y-72018604D01*
X168950033Y-72020610D01*
X168945639Y-72019814D01*
X168941775Y-72019194D01*
X168935156Y-72018312D01*
X168924869Y-72017084D01*
X168916973Y-72016198D01*
X168906706Y-72014879D01*
X168901477Y-72013330D01*
X168899978Y-72010832D01*
X168900708Y-72007272D01*
X168903258Y-72000706D01*
X168908377Y-71988917D01*
X168915836Y-71972395D01*
X168925407Y-71951635D01*
X168936860Y-71927128D01*
X168949967Y-71899368D01*
X168964499Y-71868846D01*
X168980226Y-71836057D01*
X168980800Y-71834864D01*
X168991745Y-71812043D01*
X168996619Y-71801809D01*
X169057938Y-71801809D01*
X169060996Y-71802345D01*
X169069672Y-71802874D01*
X169083219Y-71803387D01*
X169100891Y-71803876D01*
X169121939Y-71804335D01*
X169145617Y-71804754D01*
X169171179Y-71805127D01*
X169197876Y-71805446D01*
X169224962Y-71805704D01*
X169251691Y-71805892D01*
X169277314Y-71806002D01*
X169301085Y-71806028D01*
X169322257Y-71805962D01*
X169340083Y-71805795D01*
X169353816Y-71805520D01*
X169362708Y-71805130D01*
X169364604Y-71804958D01*
X169365603Y-71804565D01*
X169366115Y-71803432D01*
X169365984Y-71801198D01*
X169365052Y-71797500D01*
X169363165Y-71791978D01*
X169360166Y-71784269D01*
X169355899Y-71774012D01*
X169350208Y-71760846D01*
X169342936Y-71744408D01*
X169333928Y-71724338D01*
X169323027Y-71700274D01*
X169310077Y-71671854D01*
X169294922Y-71638717D01*
X169277406Y-71600500D01*
X169258625Y-71559573D01*
X169250610Y-71541908D01*
X169242621Y-71523946D01*
X169235492Y-71507582D01*
X169230055Y-71494714D01*
X169229249Y-71492739D01*
X169223326Y-71478592D01*
X169218974Y-71469686D01*
X169215659Y-71465254D01*
X169212848Y-71464528D01*
X169210682Y-71466024D01*
X169208440Y-71469792D01*
X169204047Y-71478441D01*
X169197951Y-71491042D01*
X169190601Y-71506665D01*
X169182445Y-71524381D01*
X169180833Y-71527925D01*
X169171455Y-71548569D01*
X169160261Y-71573190D01*
X169148077Y-71599971D01*
X169135728Y-71627100D01*
X169124040Y-71652759D01*
X169120095Y-71661414D01*
X169110528Y-71682406D01*
X169101536Y-71702139D01*
X169093550Y-71719667D01*
X169087002Y-71734044D01*
X169082322Y-71744324D01*
X169080225Y-71748935D01*
X169070441Y-71770724D01*
X169063466Y-71786803D01*
X169059298Y-71797173D01*
X169057938Y-71801809D01*
X168996619Y-71801809D01*
X169002588Y-71789276D01*
X169012777Y-71767732D01*
X169021760Y-71748585D01*
X169028986Y-71733003D01*
X169033316Y-71723474D01*
X169038700Y-71711417D01*
X169046111Y-71694815D01*
X169054983Y-71674940D01*
X169064750Y-71653059D01*
X169074844Y-71630442D01*
X169080906Y-71616859D01*
X169092256Y-71591640D01*
X169104924Y-71563854D01*
X169118009Y-71535453D01*
X169130609Y-71508390D01*
X169141824Y-71484617D01*
X169144785Y-71478417D01*
X169153821Y-71459373D01*
X169161989Y-71441806D01*
X169168853Y-71426682D01*
X169173976Y-71414968D01*
X169176923Y-71407629D01*
X169177393Y-71406145D01*
X169179653Y-71399502D01*
X169183389Y-71395176D01*
X169189896Y-71392584D01*
X169200468Y-71391145D01*
X169212292Y-71390451D01*
X169237753Y-71389306D01*
X169271341Y-71456139D01*
G37*
G36*
X166437202Y-63556917D02*
G01*
X166481612Y-63557456D01*
X166523276Y-63558516D01*
X166561183Y-63560109D01*
X166594321Y-63562250D01*
X166601003Y-63562807D01*
X166637968Y-63566446D01*
X166679712Y-63571264D01*
X166724803Y-63577066D01*
X166771805Y-63583654D01*
X166819285Y-63590833D01*
X166865807Y-63598405D01*
X166885842Y-63601853D01*
X167014420Y-63627387D01*
X167140378Y-63658523D01*
X167264179Y-63695411D01*
X167386284Y-63738200D01*
X167507158Y-63787043D01*
X167627263Y-63842089D01*
X167631252Y-63844029D01*
X167692098Y-63874879D01*
X167754065Y-63908579D01*
X167816140Y-63944487D01*
X167877309Y-63981963D01*
X167936559Y-64020364D01*
X167992876Y-64059049D01*
X168045247Y-64097377D01*
X168092657Y-64134707D01*
X168099192Y-64140110D01*
X168111871Y-64150935D01*
X168122577Y-64160594D01*
X168130436Y-64168260D01*
X168134576Y-64173105D01*
X168134996Y-64174094D01*
X168132640Y-64177914D01*
X168126394Y-64184288D01*
X168117489Y-64191991D01*
X168115136Y-64193867D01*
X168095147Y-64210600D01*
X168072144Y-64231654D01*
X168046894Y-64256226D01*
X168020161Y-64283513D01*
X167992711Y-64312715D01*
X167965309Y-64343029D01*
X167938720Y-64373652D01*
X167913709Y-64403782D01*
X167907472Y-64411546D01*
X167877106Y-64450601D01*
X167846391Y-64491936D01*
X167815917Y-64534660D01*
X167786276Y-64577878D01*
X167758058Y-64620697D01*
X167731853Y-64662225D01*
X167708253Y-64701567D01*
X167687848Y-64737831D01*
X167673744Y-64764987D01*
X167666713Y-64779647D01*
X167661906Y-64790620D01*
X167659448Y-64797482D01*
X167659461Y-64799814D01*
X167662068Y-64797191D01*
X167666042Y-64791342D01*
X167671227Y-64784024D01*
X167679753Y-64772901D01*
X167690794Y-64758979D01*
X167703524Y-64743263D01*
X167717115Y-64726761D01*
X167730744Y-64710478D01*
X167743581Y-64695420D01*
X167754803Y-64682594D01*
X167760752Y-64676023D01*
X167791350Y-64644034D01*
X167826338Y-64609450D01*
X167864766Y-64573142D01*
X167905685Y-64535979D01*
X167948144Y-64498834D01*
X167991195Y-64462577D01*
X168012726Y-64444988D01*
X168044912Y-64419090D01*
X168073162Y-64396638D01*
X168098383Y-64376949D01*
X168121487Y-64359344D01*
X168143384Y-64343142D01*
X168164982Y-64327662D01*
X168187193Y-64312225D01*
X168210925Y-64296148D01*
X168218361Y-64291177D01*
X168259818Y-64263817D01*
X168297650Y-64239527D01*
X168333268Y-64217483D01*
X168368083Y-64196863D01*
X168403506Y-64176844D01*
X168440948Y-64156601D01*
X168481820Y-64135312D01*
X168510538Y-64120703D01*
X168556705Y-64097866D01*
X168599200Y-64077905D01*
X168639626Y-64060129D01*
X168679580Y-64043847D01*
X168720664Y-64028367D01*
X168741011Y-64021104D01*
X168770192Y-64010948D01*
X168794958Y-64002594D01*
X168816852Y-63995595D01*
X168837415Y-63989504D01*
X168858187Y-63983876D01*
X168880711Y-63978263D01*
X168906526Y-63972220D01*
X168921616Y-63968792D01*
X168956301Y-63961190D01*
X168986524Y-63955119D01*
X169013934Y-63950326D01*
X169040179Y-63946561D01*
X169066908Y-63943573D01*
X169095770Y-63941110D01*
X169109720Y-63940117D01*
X169153727Y-63938346D01*
X169198848Y-63938769D01*
X169243601Y-63941274D01*
X169286508Y-63945745D01*
X169326087Y-63952068D01*
X169357908Y-63959319D01*
X169370404Y-63962617D01*
X169386841Y-63966861D01*
X169404978Y-63971475D01*
X169420750Y-63975431D01*
X169436355Y-63979404D01*
X169450148Y-63983081D01*
X169460712Y-63986074D01*
X169466635Y-63987993D01*
X169466897Y-63988103D01*
X169472612Y-63990527D01*
X169482473Y-63994649D01*
X169494740Y-63999742D01*
X169500314Y-64002047D01*
X169529193Y-64014161D01*
X169553374Y-64024824D01*
X169574146Y-64034745D01*
X169592799Y-64044629D01*
X169610624Y-64055183D01*
X169628909Y-64067114D01*
X169648946Y-64081129D01*
X169662340Y-64090829D01*
X169679898Y-64104657D01*
X169699525Y-64121796D01*
X169720136Y-64141146D01*
X169740651Y-64161609D01*
X169759984Y-64182087D01*
X169777054Y-64201482D01*
X169790776Y-64218696D01*
X169796585Y-64226958D01*
X169807674Y-64244654D01*
X169819473Y-64264913D01*
X169831261Y-64286355D01*
X169842316Y-64307605D01*
X169851915Y-64327282D01*
X169859337Y-64344011D01*
X169863028Y-64353756D01*
X169866848Y-64366278D01*
X169871226Y-64382243D01*
X169875411Y-64398866D01*
X169876771Y-64404677D01*
X169878748Y-64413727D01*
X169880307Y-64422194D01*
X169881493Y-64430957D01*
X169882349Y-64440896D01*
X169882916Y-64452893D01*
X169883240Y-64467826D01*
X169883362Y-64486578D01*
X169883327Y-64510027D01*
X169883197Y-64535666D01*
X169882813Y-64574842D01*
X169882162Y-64607855D01*
X169881248Y-64634684D01*
X169880075Y-64655310D01*
X169878647Y-64669714D01*
X169876969Y-64677875D01*
X169875045Y-64679775D01*
X169872878Y-64675392D01*
X169870473Y-64664709D01*
X169867834Y-64647704D01*
X169864965Y-64624359D01*
X169864833Y-64623186D01*
X169861602Y-64595992D01*
X169858368Y-64573435D01*
X169854740Y-64553797D01*
X169850327Y-64535361D01*
X169844740Y-64516410D01*
X169837587Y-64495228D01*
X169832558Y-64481217D01*
X169817919Y-64443249D01*
X169803228Y-64410263D01*
X169787652Y-64380925D01*
X169770355Y-64353901D01*
X169750505Y-64327856D01*
X169727267Y-64301455D01*
X169707315Y-64280820D01*
X169674968Y-64249796D01*
X169644001Y-64223290D01*
X169613112Y-64200491D01*
X169581001Y-64180589D01*
X169546364Y-64162773D01*
X169507900Y-64146231D01*
X169466897Y-64131051D01*
X169433594Y-64119963D01*
X169404279Y-64111416D01*
X169377281Y-64105030D01*
X169350931Y-64100428D01*
X169323559Y-64097231D01*
X169314134Y-64096429D01*
X169262731Y-64093811D01*
X169211254Y-64094128D01*
X169158855Y-64097482D01*
X169104686Y-64103980D01*
X169047899Y-64113726D01*
X168987646Y-64126823D01*
X168923080Y-64143378D01*
X168914723Y-64145679D01*
X168871013Y-64158865D01*
X168823347Y-64175151D01*
X168772993Y-64194001D01*
X168721218Y-64214875D01*
X168669287Y-64237234D01*
X168618469Y-64260541D01*
X168570030Y-64284258D01*
X168525236Y-64307845D01*
X168500990Y-64321507D01*
X168441899Y-64356990D01*
X168380707Y-64396030D01*
X168318873Y-64437606D01*
X168257858Y-64480700D01*
X168199123Y-64524289D01*
X168144127Y-64567355D01*
X168115901Y-64590533D01*
X168087116Y-64615011D01*
X168055819Y-64642330D01*
X168022748Y-64671798D01*
X167988647Y-64702721D01*
X167954255Y-64734405D01*
X167920315Y-64766158D01*
X167887566Y-64797286D01*
X167856751Y-64827095D01*
X167828611Y-64854894D01*
X167803886Y-64879987D01*
X167783625Y-64901351D01*
X167736134Y-64953034D01*
X167690451Y-65003309D01*
X167646907Y-65051798D01*
X167605831Y-65098122D01*
X167567555Y-65141902D01*
X167532410Y-65182758D01*
X167500726Y-65220313D01*
X167472835Y-65254187D01*
X167449067Y-65284001D01*
X167445794Y-65288208D01*
X167437671Y-65298678D01*
X167426457Y-65313117D01*
X167412972Y-65330472D01*
X167398035Y-65349688D01*
X167382464Y-65369712D01*
X167370358Y-65385276D01*
X167353696Y-65406882D01*
X167336034Y-65430111D01*
X167318457Y-65453517D01*
X167302047Y-65475651D01*
X167287888Y-65495066D01*
X167281246Y-65504351D01*
X167267663Y-65523442D01*
X167252988Y-65543916D01*
X167238510Y-65563985D01*
X167225520Y-65581856D01*
X167218173Y-65591872D01*
X167196530Y-65621697D01*
X167172235Y-65656047D01*
X167145921Y-65693993D01*
X167118221Y-65734605D01*
X167089767Y-65776958D01*
X167061192Y-65820121D01*
X167033129Y-65863166D01*
X167030278Y-65867579D01*
X167017855Y-65886824D01*
X167005247Y-65906357D01*
X166993347Y-65924792D01*
X166983048Y-65940745D01*
X166975246Y-65952832D01*
X166974818Y-65953496D01*
X166966046Y-65967051D01*
X166955068Y-65983965D01*
X166943162Y-66002273D01*
X166931607Y-66020005D01*
X166929319Y-66023512D01*
X166918390Y-66040578D01*
X166905006Y-66062011D01*
X166889541Y-66087177D01*
X166872368Y-66115439D01*
X166853862Y-66146163D01*
X166834397Y-66178712D01*
X166814346Y-66212452D01*
X166794083Y-66246747D01*
X166773983Y-66280961D01*
X166754418Y-66314460D01*
X166735764Y-66346607D01*
X166718394Y-66376767D01*
X166702682Y-66404305D01*
X166689002Y-66428585D01*
X166677728Y-66448972D01*
X166669233Y-66464831D01*
X166666549Y-66470059D01*
X166658935Y-66484587D01*
X166650304Y-66500185D01*
X166642876Y-66512883D01*
X166634683Y-66526888D01*
X166625987Y-66542618D01*
X166620339Y-66553408D01*
X166609944Y-66573751D01*
X166599746Y-66593239D01*
X166590210Y-66611029D01*
X166581798Y-66626276D01*
X166574975Y-66638138D01*
X166570203Y-66645771D01*
X166568279Y-66648190D01*
X166563697Y-66649599D01*
X166554193Y-66651077D01*
X166541206Y-66652439D01*
X166527804Y-66653408D01*
X166501663Y-66655431D01*
X166478459Y-66658512D01*
X166456243Y-66663081D01*
X166433069Y-66669570D01*
X166406990Y-66678408D01*
X166395204Y-66682737D01*
X166366145Y-66693968D01*
X166341340Y-66704535D01*
X166318890Y-66715397D01*
X166296895Y-66727515D01*
X166273454Y-66741849D01*
X166256798Y-66752639D01*
X166214108Y-66784207D01*
X166173919Y-66820772D01*
X166136857Y-66861493D01*
X166103546Y-66905531D01*
X166074612Y-66952046D01*
X166050680Y-67000196D01*
X166032374Y-67049144D01*
X166029762Y-67057843D01*
X166020531Y-67092428D01*
X166012678Y-67127159D01*
X166006354Y-67161004D01*
X166001713Y-67192933D01*
X165998904Y-67221914D01*
X165998082Y-67246917D01*
X165999180Y-67265283D01*
X166001903Y-67282893D01*
X166006075Y-67304824D01*
X166011299Y-67329304D01*
X166017178Y-67354562D01*
X166023313Y-67378830D01*
X166029307Y-67400334D01*
X166030151Y-67403151D01*
X166050703Y-67460208D01*
X166076968Y-67514478D01*
X166108957Y-67565983D01*
X166146686Y-67614746D01*
X166180778Y-67651565D01*
X166216411Y-67684898D01*
X166252185Y-67713313D01*
X166289694Y-67737866D01*
X166330535Y-67759618D01*
X166369942Y-67777054D01*
X166403305Y-67789974D01*
X166434200Y-67800233D01*
X166463939Y-67808044D01*
X166493833Y-67813620D01*
X166525192Y-67817173D01*
X166559328Y-67818917D01*
X166597552Y-67819063D01*
X166624872Y-67818413D01*
X166647700Y-67817629D01*
X166665469Y-67816827D01*
X166679484Y-67815845D01*
X166691048Y-67814524D01*
X166701467Y-67812704D01*
X166712044Y-67810224D01*
X166724084Y-67806925D01*
X166728305Y-67805714D01*
X166788712Y-67785100D01*
X166847011Y-67758824D01*
X166902317Y-67727324D01*
X166940875Y-67700848D01*
X166984041Y-67665438D01*
X167022958Y-67626285D01*
X167058111Y-67582809D01*
X167089986Y-67534431D01*
X167109492Y-67499476D01*
X167120926Y-67476558D01*
X167130329Y-67455010D01*
X167138260Y-67433181D01*
X167145281Y-67409418D01*
X167151953Y-67382067D01*
X167156470Y-67361093D01*
X167164428Y-67316606D01*
X167169055Y-67274912D01*
X167170338Y-67234358D01*
X167168264Y-67193292D01*
X167162821Y-67150060D01*
X167154540Y-67105582D01*
X167147996Y-67075188D01*
X167142296Y-67050471D01*
X167137263Y-67030826D01*
X167132722Y-67015648D01*
X167128497Y-67004332D01*
X167124410Y-66996271D01*
X167121536Y-66992240D01*
X167115626Y-66983831D01*
X167108970Y-66972329D01*
X167104183Y-66962715D01*
X167098045Y-66950242D01*
X167091334Y-66938077D01*
X167086851Y-66930893D01*
X167081720Y-66922005D01*
X167078715Y-66914121D01*
X167078388Y-66911797D01*
X167080134Y-66901707D01*
X167085164Y-66887028D01*
X167093176Y-66868427D01*
X167103867Y-66846574D01*
X167116933Y-66822135D01*
X167127684Y-66803239D01*
X167134985Y-66790531D01*
X167144385Y-66773905D01*
X167154946Y-66755036D01*
X167165728Y-66735598D01*
X167172288Y-66723675D01*
X167258880Y-66569678D01*
X167347055Y-66420818D01*
X167437523Y-66275930D01*
X167530997Y-66133843D01*
X167538891Y-66122171D01*
X167584604Y-66055035D01*
X167627326Y-65992953D01*
X167667347Y-65935526D01*
X167704954Y-65882353D01*
X167740438Y-65833033D01*
X167774089Y-65787168D01*
X167806194Y-65744357D01*
X167837044Y-65704200D01*
X167866928Y-65666296D01*
X167881881Y-65647714D01*
X167896866Y-65629165D01*
X167912781Y-65609361D01*
X167928344Y-65589909D01*
X167942269Y-65572411D01*
X167951922Y-65560194D01*
X167973878Y-65532923D01*
X167999620Y-65502078D01*
X168028372Y-65468519D01*
X168059358Y-65433110D01*
X168091803Y-65396714D01*
X168124929Y-65360194D01*
X168129562Y-65355175D01*
X168284576Y-65355175D01*
X168286168Y-65356766D01*
X168287759Y-65355175D01*
X168286168Y-65353583D01*
X168284576Y-65355175D01*
X168129562Y-65355175D01*
X168157962Y-65324412D01*
X168190125Y-65290231D01*
X168220642Y-65258514D01*
X168248736Y-65230124D01*
X168249402Y-65229464D01*
X168313726Y-65167022D01*
X168344205Y-65138761D01*
X168513721Y-65138761D01*
X168515312Y-65140352D01*
X168516903Y-65138761D01*
X168515312Y-65137169D01*
X168513721Y-65138761D01*
X168344205Y-65138761D01*
X168351647Y-65131861D01*
X168520707Y-65131861D01*
X168520729Y-65133935D01*
X168521287Y-65133987D01*
X168523944Y-65131812D01*
X168526857Y-65128417D01*
X168529609Y-65124648D01*
X168527961Y-65125438D01*
X168525655Y-65127216D01*
X168520707Y-65131861D01*
X168351647Y-65131861D01*
X168372237Y-65112770D01*
X168540242Y-65112770D01*
X168540679Y-65114662D01*
X168542364Y-65114891D01*
X168544983Y-65113727D01*
X168544485Y-65112770D01*
X168540708Y-65112389D01*
X168540242Y-65112770D01*
X168372237Y-65112770D01*
X168376707Y-65108625D01*
X168378623Y-65106935D01*
X168548729Y-65106935D01*
X168550320Y-65108526D01*
X168551911Y-65106935D01*
X168550320Y-65105344D01*
X168548729Y-65106935D01*
X168378623Y-65106935D01*
X168384271Y-65101954D01*
X168555874Y-65101954D01*
X168556309Y-65102161D01*
X168559214Y-65099921D01*
X168559868Y-65098979D01*
X168560679Y-65096003D01*
X168560243Y-65095796D01*
X168557339Y-65098037D01*
X168556685Y-65098979D01*
X168555874Y-65101954D01*
X168384271Y-65101954D01*
X168393748Y-65093596D01*
X168565625Y-65093596D01*
X168566969Y-65093279D01*
X168572288Y-65089651D01*
X168580603Y-65083403D01*
X168585588Y-65079505D01*
X168596245Y-65071266D01*
X168610478Y-65060529D01*
X168626680Y-65048495D01*
X168643245Y-65036363D01*
X168648979Y-65032207D01*
X168665884Y-65019989D01*
X168678251Y-65010999D01*
X168686705Y-65004743D01*
X168691869Y-65000726D01*
X168694367Y-64998451D01*
X168694824Y-64997423D01*
X168693863Y-64997148D01*
X168693155Y-64997137D01*
X168689056Y-64998893D01*
X168681603Y-65003470D01*
X168673537Y-65009071D01*
X168661244Y-65017898D01*
X168647804Y-65027355D01*
X168640870Y-65032145D01*
X168631241Y-65038929D01*
X168623144Y-65044984D01*
X168619274Y-65048173D01*
X168614493Y-65052293D01*
X168606188Y-65059184D01*
X168595810Y-65067645D01*
X168590826Y-65071666D01*
X168580461Y-65080168D01*
X168572010Y-65087419D01*
X168566709Y-65092343D01*
X168565625Y-65093596D01*
X168393748Y-65093596D01*
X168438000Y-65054569D01*
X168489695Y-65011458D01*
X168660118Y-65011458D01*
X168661709Y-65013050D01*
X168663301Y-65011458D01*
X168661709Y-65009867D01*
X168660118Y-65011458D01*
X168489695Y-65011458D01*
X168497259Y-65005150D01*
X168512894Y-64992921D01*
X168701491Y-64992921D01*
X168703863Y-64992427D01*
X168709788Y-64989306D01*
X168712210Y-64987849D01*
X168719459Y-64983632D01*
X168724203Y-64981354D01*
X168724779Y-64981224D01*
X168726289Y-64984102D01*
X168729398Y-64992118D01*
X168733774Y-65004343D01*
X168739086Y-65019851D01*
X168745003Y-65037713D01*
X168745522Y-65039306D01*
X168752558Y-65060585D01*
X168760060Y-65082680D01*
X168767389Y-65103746D01*
X168773905Y-65121937D01*
X168777786Y-65132357D01*
X168783522Y-65148583D01*
X168790472Y-65170267D01*
X168798441Y-65196657D01*
X168807234Y-65227005D01*
X168816657Y-65260559D01*
X168826516Y-65296568D01*
X168836615Y-65334284D01*
X168846762Y-65372956D01*
X168856760Y-65411833D01*
X168866416Y-65450165D01*
X168875536Y-65487202D01*
X168883925Y-65522194D01*
X168891388Y-65554390D01*
X168897731Y-65583040D01*
X168902760Y-65607394D01*
X168906280Y-65626701D01*
X168906874Y-65630466D01*
X168910417Y-65653426D01*
X168913963Y-65675570D01*
X168917353Y-65695997D01*
X168920433Y-65713801D01*
X168923045Y-65728082D01*
X168925033Y-65737934D01*
X168926240Y-65742457D01*
X168926289Y-65742547D01*
X168929480Y-65744842D01*
X168934635Y-65743690D01*
X168942354Y-65738731D01*
X168953237Y-65729603D01*
X168963332Y-65720283D01*
X168975624Y-65708854D01*
X168987906Y-65697766D01*
X168998476Y-65688540D01*
X169003835Y-65684091D01*
X169013283Y-65675907D01*
X169026194Y-65663801D01*
X169041781Y-65648589D01*
X169059254Y-65631083D01*
X169077825Y-65612100D01*
X169096704Y-65592453D01*
X169115103Y-65572956D01*
X169132232Y-65554425D01*
X169147304Y-65537673D01*
X169159529Y-65523515D01*
X169160576Y-65522259D01*
X169198893Y-65473922D01*
X169235312Y-65423634D01*
X169269134Y-65372500D01*
X169299656Y-65321626D01*
X169326178Y-65272119D01*
X169346128Y-65229464D01*
X169357640Y-65202487D01*
X169366880Y-65179943D01*
X169374275Y-65160499D01*
X169380253Y-65142824D01*
X169385241Y-65125586D01*
X169389667Y-65107452D01*
X169393958Y-65087092D01*
X169397198Y-65070336D01*
X169400707Y-65045468D01*
X169402575Y-65018037D01*
X169402821Y-64989910D01*
X169401466Y-64962956D01*
X169398530Y-64939043D01*
X169395655Y-64925529D01*
X169384744Y-64893397D01*
X169369945Y-64865565D01*
X169350773Y-64841484D01*
X169326740Y-64820607D01*
X169297361Y-64802384D01*
X169278272Y-64793079D01*
X169261074Y-64785767D01*
X169247174Y-64781198D01*
X169234310Y-64779018D01*
X169220221Y-64778871D01*
X169202647Y-64780399D01*
X169199804Y-64780723D01*
X169132809Y-64791396D01*
X169066420Y-64807828D01*
X169000291Y-64830144D01*
X168934076Y-64858465D01*
X168867427Y-64892916D01*
X168841651Y-64907796D01*
X168828888Y-64915311D01*
X168818239Y-64921462D01*
X168810821Y-64925611D01*
X168807757Y-64927121D01*
X168804605Y-64928654D01*
X168797371Y-64932742D01*
X168787404Y-64938616D01*
X168783388Y-64941030D01*
X168770581Y-64948600D01*
X168757878Y-64955829D01*
X168747741Y-64961321D01*
X168746558Y-64961927D01*
X168737838Y-64966791D01*
X168727697Y-64973105D01*
X168717569Y-64979883D01*
X168708889Y-64986138D01*
X168703091Y-64990883D01*
X168701491Y-64992921D01*
X168512894Y-64992921D01*
X168554137Y-64960663D01*
X168608290Y-64921406D01*
X168613703Y-64917668D01*
X168630161Y-64906356D01*
X168645898Y-64895533D01*
X168659713Y-64886025D01*
X168670407Y-64878657D01*
X168675763Y-64874960D01*
X168698180Y-64859949D01*
X168723049Y-64844138D01*
X168748903Y-64828398D01*
X168774271Y-64813601D01*
X168797685Y-64800620D01*
X168817677Y-64790326D01*
X168820889Y-64788783D01*
X168849051Y-64775514D01*
X168872362Y-64764690D01*
X168891672Y-64755929D01*
X168907833Y-64748848D01*
X168921695Y-64743065D01*
X168929044Y-64740145D01*
X168980393Y-64720791D01*
X169027290Y-64704613D01*
X169070684Y-64691419D01*
X169111524Y-64681016D01*
X169150760Y-64673212D01*
X169189339Y-64667814D01*
X169228211Y-64664629D01*
X169268325Y-64663465D01*
X169304586Y-64663935D01*
X169351956Y-64666805D01*
X169394928Y-64672661D01*
X169434887Y-64681825D01*
X169473218Y-64694621D01*
X169511305Y-64711374D01*
X169514635Y-64713020D01*
X169551283Y-64733058D01*
X169582476Y-64754198D01*
X169609120Y-64777325D01*
X169632119Y-64803325D01*
X169652381Y-64833081D01*
X169669072Y-64863902D01*
X169685542Y-64899990D01*
X169698056Y-64933682D01*
X169707199Y-64967044D01*
X169713556Y-65002139D01*
X169717058Y-65033179D01*
X169718778Y-65082434D01*
X169715342Y-65133557D01*
X169706694Y-65186766D01*
X169692778Y-65242284D01*
X169673537Y-65300332D01*
X169648917Y-65361129D01*
X169618860Y-65424898D01*
X169616305Y-65429965D01*
X169604375Y-65453268D01*
X169593082Y-65474716D01*
X169581963Y-65495064D01*
X169570556Y-65515068D01*
X169558397Y-65535486D01*
X169545026Y-65557073D01*
X169529978Y-65580587D01*
X169512791Y-65606782D01*
X169493003Y-65636417D01*
X169470151Y-65670247D01*
X169462033Y-65682204D01*
X169441354Y-65711720D01*
X169417597Y-65744095D01*
X169392094Y-65777597D01*
X169366176Y-65810495D01*
X169341176Y-65841059D01*
X169326770Y-65858019D01*
X169317156Y-65869361D01*
X169305580Y-65883341D01*
X169294000Y-65897585D01*
X169289675Y-65902989D01*
X169271825Y-65924811D01*
X169251029Y-65949069D01*
X169226696Y-65976440D01*
X169202744Y-66002712D01*
X169192153Y-66014299D01*
X169182091Y-66025441D01*
X169174051Y-66034480D01*
X169171038Y-66037946D01*
X169159725Y-66050784D01*
X169144346Y-66067630D01*
X169125353Y-66088008D01*
X169103201Y-66111444D01*
X169078341Y-66137462D01*
X169051227Y-66165587D01*
X169022312Y-66195345D01*
X168992048Y-66226261D01*
X168972324Y-66246291D01*
X168946472Y-66272506D01*
X168924558Y-66294811D01*
X168906033Y-66313811D01*
X168890349Y-66330112D01*
X168876958Y-66344318D01*
X168865310Y-66357035D01*
X168854858Y-66368869D01*
X168845052Y-66380423D01*
X168835345Y-66392303D01*
X168825188Y-66405115D01*
X168814032Y-66419464D01*
X168806457Y-66429288D01*
X168777291Y-66468189D01*
X168752529Y-66503531D01*
X168731818Y-66535985D01*
X168714802Y-66566222D01*
X168701130Y-66594912D01*
X168690446Y-66622725D01*
X168682398Y-66650331D01*
X168677416Y-66673849D01*
X168673459Y-66706458D01*
X168673598Y-66738307D01*
X168678018Y-66770379D01*
X168686908Y-66803658D01*
X168700454Y-66839127D01*
X168714574Y-66869352D01*
X168720596Y-66881242D01*
X168726793Y-66893070D01*
X168733385Y-66905174D01*
X168740591Y-66917892D01*
X168748631Y-66931563D01*
X168757722Y-66946522D01*
X168768085Y-66963108D01*
X168779937Y-66981660D01*
X168793500Y-67002513D01*
X168808990Y-67026007D01*
X168826629Y-67052478D01*
X168846634Y-67082264D01*
X168869224Y-67115704D01*
X168894619Y-67153134D01*
X168923038Y-67194892D01*
X168954700Y-67241317D01*
X168978815Y-67276631D01*
X169012927Y-67327293D01*
X169044708Y-67375960D01*
X169073931Y-67422244D01*
X169100365Y-67465754D01*
X169123781Y-67506100D01*
X169143951Y-67542892D01*
X169160644Y-67575739D01*
X169173631Y-67604252D01*
X169178518Y-67616383D01*
X169188564Y-67643104D01*
X169196233Y-67664881D01*
X169201643Y-67682627D01*
X169204908Y-67697255D01*
X169206143Y-67709678D01*
X169205464Y-67720810D01*
X169202987Y-67731564D01*
X169198827Y-67742852D01*
X169195465Y-67750493D01*
X169183817Y-67769967D01*
X169167016Y-67788428D01*
X169144773Y-67806102D01*
X169116799Y-67823210D01*
X169082805Y-67839977D01*
X169075588Y-67843166D01*
X169031317Y-67860834D01*
X168981653Y-67877808D01*
X168927551Y-67893830D01*
X168869970Y-67908644D01*
X168809864Y-67921995D01*
X168748191Y-67933626D01*
X168721382Y-67938042D01*
X168703147Y-67940792D01*
X168690273Y-67943077D01*
X168682025Y-67945949D01*
X168677663Y-67950458D01*
X168676449Y-67957654D01*
X168677647Y-67968589D01*
X168680517Y-67984312D01*
X168682252Y-67993755D01*
X168685558Y-68012307D01*
X168689376Y-68033850D01*
X168693126Y-68055104D01*
X168695083Y-68066244D01*
X168699028Y-68086725D01*
X168703147Y-68102539D01*
X168708154Y-68115357D01*
X168714765Y-68126854D01*
X168723695Y-68138704D01*
X168728446Y-68144349D01*
X168746274Y-68168899D01*
X168757761Y-68193715D01*
X168762924Y-68218852D01*
X168762193Y-68241715D01*
X168759249Y-68256476D01*
X168754444Y-68269791D01*
X168747102Y-68282638D01*
X168736545Y-68295996D01*
X168722096Y-68310844D01*
X168703079Y-68328159D01*
X168701333Y-68329685D01*
X168667080Y-68356204D01*
X168627378Y-68380953D01*
X168582977Y-68403605D01*
X168534627Y-68423834D01*
X168483080Y-68441313D01*
X168429084Y-68455715D01*
X168395966Y-68462716D01*
X168383220Y-68464976D01*
X168365356Y-68467901D01*
X168343517Y-68471325D01*
X168318844Y-68475081D01*
X168292479Y-68479003D01*
X168265565Y-68482925D01*
X168239242Y-68486679D01*
X168214654Y-68490100D01*
X168192942Y-68493021D01*
X168175248Y-68495276D01*
X168162843Y-68496686D01*
X168149818Y-68498279D01*
X168142909Y-68499795D01*
X168141868Y-68501180D01*
X168146446Y-68502378D01*
X168156396Y-68503337D01*
X168171468Y-68504001D01*
X168191413Y-68504316D01*
X168197852Y-68504334D01*
X168216208Y-68504411D01*
X168239452Y-68504617D01*
X168266110Y-68504934D01*
X168294704Y-68505342D01*
X168323760Y-68505821D01*
X168351802Y-68506353D01*
X168353001Y-68506377D01*
X168385330Y-68506947D01*
X168412652Y-68507188D01*
X168436319Y-68507072D01*
X168457684Y-68506569D01*
X168478099Y-68505651D01*
X168498914Y-68504287D01*
X168516845Y-68502849D01*
X168538867Y-68501160D01*
X168559546Y-68499922D01*
X168577621Y-68499188D01*
X168591833Y-68499008D01*
X168600666Y-68499404D01*
X168630195Y-68504828D01*
X168654514Y-68513872D01*
X168673695Y-68526607D01*
X168687814Y-68543106D01*
X168696945Y-68563441D01*
X168701162Y-68587685D01*
X168701491Y-68597653D01*
X168700007Y-68619701D01*
X168695353Y-68642299D01*
X168687231Y-68666177D01*
X168675342Y-68692064D01*
X168659388Y-68720690D01*
X168639069Y-68752784D01*
X168636153Y-68757158D01*
X168620380Y-68781175D01*
X168607820Y-68801560D01*
X168597751Y-68819684D01*
X168589449Y-68836916D01*
X168582193Y-68854627D01*
X168576685Y-68869977D01*
X168572397Y-68882923D01*
X168569480Y-68893393D01*
X168567676Y-68903216D01*
X168566730Y-68914222D01*
X168566384Y-68928240D01*
X168566369Y-68943509D01*
X168566461Y-68957054D01*
X168566764Y-68968363D01*
X168567468Y-68978574D01*
X168568761Y-68988822D01*
X168570830Y-69000243D01*
X168573864Y-69013974D01*
X168578051Y-69031151D01*
X168583578Y-69052910D01*
X168586131Y-69062855D01*
X168594157Y-69094408D01*
X168600628Y-69120822D01*
X168605693Y-69143094D01*
X168609501Y-69162218D01*
X168612202Y-69179188D01*
X168613942Y-69195001D01*
X168614873Y-69210652D01*
X168615141Y-69227134D01*
X168614896Y-69245444D01*
X168614679Y-69253809D01*
X168610640Y-69306830D01*
X168601659Y-69356182D01*
X168587783Y-69401743D01*
X168569056Y-69443390D01*
X168545523Y-69481001D01*
X168518948Y-69512686D01*
X168500247Y-69531172D01*
X168481628Y-69547413D01*
X168461841Y-69562283D01*
X168439640Y-69576658D01*
X168413778Y-69591414D01*
X168386418Y-69605703D01*
X168370907Y-69613333D01*
X168356328Y-69619925D01*
X168341536Y-69625877D01*
X168325387Y-69631589D01*
X168306737Y-69637458D01*
X168284442Y-69643884D01*
X168257359Y-69651266D01*
X168250260Y-69653160D01*
X168222211Y-69660335D01*
X168194836Y-69666693D01*
X168167602Y-69672272D01*
X168139976Y-69677114D01*
X168111427Y-69681258D01*
X168081419Y-69684745D01*
X168049421Y-69687614D01*
X168014900Y-69689906D01*
X167977323Y-69691661D01*
X167936157Y-69692919D01*
X167890869Y-69693720D01*
X167840926Y-69694104D01*
X167785796Y-69694112D01*
X167724945Y-69693784D01*
X167712225Y-69693682D01*
X167637554Y-69692830D01*
X167567829Y-69691517D01*
X167501737Y-69689672D01*
X167437967Y-69687227D01*
X167375209Y-69684113D01*
X167312150Y-69680260D01*
X167247479Y-69675599D01*
X167179886Y-69670061D01*
X167108058Y-69663577D01*
X167065656Y-69659521D01*
X167046216Y-69657676D01*
X167021791Y-69655430D01*
X166993738Y-69652905D01*
X166963417Y-69650221D01*
X166932186Y-69647498D01*
X166901404Y-69644858D01*
X166885842Y-69643543D01*
X166841930Y-69639838D01*
X166803728Y-69636583D01*
X166770601Y-69633718D01*
X166741914Y-69631183D01*
X166717031Y-69628918D01*
X166695318Y-69626864D01*
X166676139Y-69624960D01*
X166658860Y-69623148D01*
X166642846Y-69621367D01*
X166627462Y-69619559D01*
X166616916Y-69618267D01*
X166588529Y-69614808D01*
X166565923Y-69612215D01*
X166548579Y-69610449D01*
X166535978Y-69609469D01*
X166527600Y-69609236D01*
X166522927Y-69609709D01*
X166521440Y-69610848D01*
X166521439Y-69610886D01*
X166524153Y-69613499D01*
X166532354Y-69618302D01*
X166546130Y-69625336D01*
X166565567Y-69634646D01*
X166590753Y-69646275D01*
X166612142Y-69655949D01*
X166635753Y-69666064D01*
X166663721Y-69677246D01*
X166694515Y-69688944D01*
X166726603Y-69700611D01*
X166758455Y-69711696D01*
X166788540Y-69721651D01*
X166815327Y-69729928D01*
X166830147Y-69734121D01*
X166843710Y-69737567D01*
X166860929Y-69741634D01*
X166880767Y-69746106D01*
X166902187Y-69750771D01*
X166924153Y-69755414D01*
X166945629Y-69759820D01*
X166965577Y-69763775D01*
X166982961Y-69767065D01*
X166996745Y-69769476D01*
X167005892Y-69770793D01*
X167008448Y-69770975D01*
X167015118Y-69771903D01*
X167017918Y-69774139D01*
X167017918Y-69774157D01*
X167015769Y-69777250D01*
X167015106Y-69777340D01*
X167011876Y-69779870D01*
X167005170Y-69787250D01*
X166995234Y-69799166D01*
X166982312Y-69815303D01*
X166966650Y-69835347D01*
X166948490Y-69858983D01*
X166928080Y-69885897D01*
X166905663Y-69915774D01*
X166881484Y-69948299D01*
X166870422Y-69963270D01*
X166825686Y-70018911D01*
X166776981Y-70070020D01*
X166724704Y-70116233D01*
X166669251Y-70157186D01*
X166636660Y-70177865D01*
X166617009Y-70189480D01*
X166600679Y-70198692D01*
X166585635Y-70206539D01*
X166569842Y-70214060D01*
X166551267Y-70222290D01*
X166540534Y-70226897D01*
X166502969Y-70242374D01*
X166468946Y-70255068D01*
X166437159Y-70265248D01*
X166406305Y-70273182D01*
X166375077Y-70279136D01*
X166342171Y-70283380D01*
X166306283Y-70286180D01*
X166266107Y-70287805D01*
X166241374Y-70288300D01*
X166208454Y-70288582D01*
X166180941Y-70288376D01*
X166157891Y-70287656D01*
X166138363Y-70286392D01*
X166123619Y-70284844D01*
X166094959Y-70281037D01*
X166070238Y-70277225D01*
X166048127Y-70273050D01*
X166027296Y-70268156D01*
X166006418Y-70262185D01*
X165984162Y-70254779D01*
X165959200Y-70245582D01*
X165930203Y-70234237D01*
X165919601Y-70229992D01*
X165876970Y-70211024D01*
X165831470Y-70187348D01*
X165783909Y-70159452D01*
X165735094Y-70127824D01*
X165685833Y-70092953D01*
X165657147Y-70071258D01*
X165638844Y-70057385D01*
X165617579Y-70041752D01*
X165595722Y-70026075D01*
X165575643Y-70012068D01*
X165571445Y-70009209D01*
X165540252Y-69987972D01*
X165510705Y-69967597D01*
X165481197Y-69946960D01*
X165450122Y-69924935D01*
X165415873Y-69900397D01*
X165409135Y-69895546D01*
X165390182Y-69881939D01*
X165367839Y-69865975D01*
X165343924Y-69848948D01*
X165320259Y-69832154D01*
X165298663Y-69816891D01*
X165297745Y-69816244D01*
X165279688Y-69803510D01*
X165262635Y-69791469D01*
X165247525Y-69780787D01*
X165235300Y-69772127D01*
X165226900Y-69766156D01*
X165224546Y-69764472D01*
X165218083Y-69759882D01*
X165207403Y-69752361D01*
X165193510Y-69742614D01*
X165177411Y-69731348D01*
X165160113Y-69719268D01*
X165156121Y-69716484D01*
X165138418Y-69704111D01*
X165121435Y-69692186D01*
X165106249Y-69681471D01*
X165093935Y-69672723D01*
X165085569Y-69666703D01*
X165084514Y-69665929D01*
X165075817Y-69659622D01*
X165062441Y-69650056D01*
X165044929Y-69637610D01*
X165023822Y-69622668D01*
X164999663Y-69605608D01*
X164972994Y-69586814D01*
X164944358Y-69566665D01*
X164914295Y-69545543D01*
X164883350Y-69523829D01*
X164852063Y-69501905D01*
X164820977Y-69480150D01*
X164790634Y-69458947D01*
X164761576Y-69438676D01*
X164734346Y-69419719D01*
X164724588Y-69412937D01*
X164712125Y-69404257D01*
X164696722Y-69393495D01*
X164680645Y-69382237D01*
X164670318Y-69374989D01*
X164661662Y-69368906D01*
X164653654Y-69363272D01*
X164645706Y-69357670D01*
X164637227Y-69351684D01*
X164627629Y-69344894D01*
X164616322Y-69336885D01*
X164602717Y-69327238D01*
X164586224Y-69315536D01*
X164566255Y-69301362D01*
X164542220Y-69284298D01*
X164516427Y-69265984D01*
X164492377Y-69248945D01*
X164465210Y-69229761D01*
X164436810Y-69209758D01*
X164409061Y-69190262D01*
X164383847Y-69172601D01*
X164374803Y-69166284D01*
X164353611Y-69151497D01*
X164335970Y-69139186D01*
X164321033Y-69128756D01*
X164307947Y-69119611D01*
X164295864Y-69111155D01*
X164283933Y-69102792D01*
X164271304Y-69093926D01*
X164257128Y-69083961D01*
X164240554Y-69072302D01*
X164220733Y-69058351D01*
X164196815Y-69041514D01*
X164188623Y-69035748D01*
X164164894Y-69019063D01*
X164140282Y-69001792D01*
X164115933Y-68984737D01*
X164092996Y-68968701D01*
X164072616Y-68954485D01*
X164055940Y-68942893D01*
X164051773Y-68940007D01*
X164025092Y-68921506D01*
X164003255Y-68906267D01*
X163985837Y-68893976D01*
X163972415Y-68884323D01*
X163962563Y-68876997D01*
X163955859Y-68871685D01*
X163951877Y-68868077D01*
X163950193Y-68865862D01*
X163950068Y-68865361D01*
X163951550Y-68861736D01*
X163955775Y-68853441D01*
X163962294Y-68841309D01*
X163970653Y-68826177D01*
X163980401Y-68808876D01*
X163985400Y-68800119D01*
X164014030Y-68748934D01*
X164042640Y-68695441D01*
X164070653Y-68640821D01*
X164097491Y-68586255D01*
X164122579Y-68532926D01*
X164145340Y-68482013D01*
X164165196Y-68434699D01*
X164171333Y-68419259D01*
X164187375Y-68374848D01*
X164202516Y-68326430D01*
X164216222Y-68276057D01*
X164227958Y-68225780D01*
X164237188Y-68177649D01*
X164241248Y-68151052D01*
X164242654Y-68136727D01*
X164243792Y-68117061D01*
X164244655Y-68093078D01*
X164245235Y-68065796D01*
X164245523Y-68036237D01*
X164245513Y-68005422D01*
X164245195Y-67974370D01*
X164244561Y-67944103D01*
X164243604Y-67915641D01*
X164243177Y-67905995D01*
X164242488Y-67889598D01*
X164242045Y-67875084D01*
X164241878Y-67863851D01*
X164242019Y-67857296D01*
X164242087Y-67856666D01*
X164245128Y-67851241D01*
X164251816Y-67844520D01*
X164256409Y-67840977D01*
X164269404Y-67831499D01*
X164286367Y-67818491D01*
X164306484Y-67802628D01*
X164328939Y-67784581D01*
X164352920Y-67765025D01*
X164377613Y-67744632D01*
X164402203Y-67724076D01*
X164425877Y-67704029D01*
X164447821Y-67685164D01*
X164467221Y-67668154D01*
X164483263Y-67653674D01*
X164486193Y-67650957D01*
X164499903Y-67638329D01*
X164515975Y-67623766D01*
X164531947Y-67609490D01*
X164540296Y-67602128D01*
X164549620Y-67593789D01*
X164562751Y-67581796D01*
X164578892Y-67566890D01*
X164597247Y-67549811D01*
X164617017Y-67531301D01*
X164637407Y-67512100D01*
X164649727Y-67500441D01*
X164668625Y-67482528D01*
X164686064Y-67466010D01*
X164701504Y-67451396D01*
X164714407Y-67439196D01*
X164724233Y-67429921D01*
X164730441Y-67424080D01*
X164732474Y-67422196D01*
X164735634Y-67418996D01*
X164741296Y-67412862D01*
X164743980Y-67409883D01*
X164749673Y-67403383D01*
X164751307Y-67400628D01*
X164749074Y-67400624D01*
X164745571Y-67401647D01*
X164740235Y-67404230D01*
X164730786Y-67409742D01*
X164718345Y-67417493D01*
X164704036Y-67426790D01*
X164696241Y-67431999D01*
X164660464Y-67455775D01*
X164624366Y-67478995D01*
X164587295Y-67502034D01*
X164548597Y-67525272D01*
X164507618Y-67549084D01*
X164463706Y-67573850D01*
X164416205Y-67599945D01*
X164364463Y-67627748D01*
X164307827Y-67657636D01*
X164284100Y-67670028D01*
X164256057Y-67684408D01*
X164224895Y-67699990D01*
X164191583Y-67716319D01*
X164157091Y-67732939D01*
X164122387Y-67749394D01*
X164088440Y-67765228D01*
X164056220Y-67779986D01*
X164026696Y-67793213D01*
X164000837Y-67804452D01*
X163979613Y-67813248D01*
X163978641Y-67813635D01*
X163970418Y-67816973D01*
X163957869Y-67822150D01*
X163942530Y-67828530D01*
X163925938Y-67835474D01*
X163921288Y-67837428D01*
X163819351Y-67877907D01*
X163713574Y-67915296D01*
X163606025Y-67948882D01*
X163566433Y-67960136D01*
X163552272Y-67964091D01*
X163538448Y-67968012D01*
X163527684Y-67971128D01*
X163526651Y-67971433D01*
X163510744Y-67975776D01*
X163488741Y-67981174D01*
X163460815Y-67987585D01*
X163427141Y-67994971D01*
X163402531Y-68000216D01*
X163359090Y-68009182D01*
X163320564Y-68016615D01*
X163285723Y-68022635D01*
X163253337Y-68027365D01*
X163222175Y-68030927D01*
X163191007Y-68033443D01*
X163158602Y-68035034D01*
X163123731Y-68035823D01*
X163085162Y-68035932D01*
X163046085Y-68035546D01*
X163013810Y-68035038D01*
X162986827Y-68034426D01*
X162964061Y-68033588D01*
X162944439Y-68032399D01*
X162926888Y-68030738D01*
X162910333Y-68028481D01*
X162893701Y-68025504D01*
X162875918Y-68021685D01*
X162855910Y-68016901D01*
X162832853Y-68011092D01*
X162774003Y-67992817D01*
X162717492Y-67968637D01*
X162663463Y-67938620D01*
X162618700Y-67907895D01*
X162610983Y-67901442D01*
X162600066Y-67891454D01*
X162587086Y-67879056D01*
X162573180Y-67865371D01*
X162559486Y-67851523D01*
X162547142Y-67838636D01*
X162537285Y-67827833D01*
X162535156Y-67825370D01*
X162514352Y-67797294D01*
X162495056Y-67764249D01*
X162477782Y-67727551D01*
X162463045Y-67688520D01*
X162451361Y-67648473D01*
X162443245Y-67608728D01*
X162439981Y-67582001D01*
X162439421Y-67570452D01*
X162440345Y-67564912D01*
X162442946Y-67565369D01*
X162447421Y-67571811D01*
X162452464Y-67581228D01*
X162472166Y-67615188D01*
X162496768Y-67649657D01*
X162525072Y-67683308D01*
X162555884Y-67714815D01*
X162588007Y-67742848D01*
X162617061Y-67764016D01*
X162646284Y-67782418D01*
X162673216Y-67797515D01*
X162699393Y-67809920D01*
X162726354Y-67820248D01*
X162755636Y-67829114D01*
X162788777Y-67837132D01*
X162812258Y-67842011D01*
X162841073Y-67847558D01*
X162865307Y-67851789D01*
X162886570Y-67854873D01*
X162906471Y-67856981D01*
X162926618Y-67858282D01*
X162948621Y-67858946D01*
X162974088Y-67859144D01*
X162974477Y-67859144D01*
X162999787Y-67858976D01*
X163020916Y-67858332D01*
X163040041Y-67857052D01*
X163059338Y-67854974D01*
X163080983Y-67851939D01*
X163089049Y-67850694D01*
X163111432Y-67847221D01*
X163135937Y-67843481D01*
X163160059Y-67839851D01*
X163181295Y-67836712D01*
X163187709Y-67835780D01*
X163216989Y-67831204D01*
X163249275Y-67825556D01*
X163282807Y-67819185D01*
X163315827Y-67812442D01*
X163346575Y-67805678D01*
X163373293Y-67799242D01*
X163380254Y-67797430D01*
X163399826Y-67792252D01*
X163422070Y-67786415D01*
X163443506Y-67780830D01*
X163453452Y-67778257D01*
X163471289Y-67773442D01*
X163493818Y-67767023D01*
X163519691Y-67759408D01*
X163547563Y-67751008D01*
X163576087Y-67742231D01*
X163603917Y-67733486D01*
X163629705Y-67725184D01*
X163647588Y-67719260D01*
X163686271Y-67705578D01*
X163729564Y-67689086D01*
X163776583Y-67670184D01*
X163826442Y-67649273D01*
X163878257Y-67626752D01*
X163931142Y-67603021D01*
X163984211Y-67578481D01*
X164036579Y-67553531D01*
X164087361Y-67528571D01*
X164135671Y-67504002D01*
X164180625Y-67480224D01*
X164199762Y-67469756D01*
X164214268Y-67461743D01*
X164232649Y-67451612D01*
X164253198Y-67440303D01*
X164274207Y-67428756D01*
X164290465Y-67419832D01*
X164309077Y-67409494D01*
X164327146Y-67399224D01*
X164334068Y-67395195D01*
X164755119Y-67395195D01*
X164756710Y-67396786D01*
X164758301Y-67395195D01*
X164756710Y-67393603D01*
X164755119Y-67395195D01*
X164334068Y-67395195D01*
X164343399Y-67389764D01*
X164356563Y-67381853D01*
X164365230Y-67376326D01*
X164378269Y-67367731D01*
X164393332Y-67358187D01*
X164405696Y-67350639D01*
X164424492Y-67339144D01*
X164447442Y-67324603D01*
X164473536Y-67307689D01*
X164501763Y-67289076D01*
X164531115Y-67269437D01*
X164560579Y-67249446D01*
X164589146Y-67229776D01*
X164615805Y-67211103D01*
X164628298Y-67202210D01*
X164642839Y-67191874D01*
X164657403Y-67181659D01*
X164670203Y-67172811D01*
X164678737Y-67167046D01*
X164689639Y-67159507D01*
X164704827Y-67148519D01*
X164723614Y-67134604D01*
X164745312Y-67118285D01*
X164769235Y-67100086D01*
X164794696Y-67080529D01*
X164821007Y-67060137D01*
X164847481Y-67039433D01*
X164873431Y-67018940D01*
X164876056Y-67016855D01*
X164894235Y-67002226D01*
X164915812Y-66984567D01*
X164939983Y-66964559D01*
X164965947Y-66942880D01*
X164992902Y-66920212D01*
X165020044Y-66897233D01*
X165046574Y-66874625D01*
X165071687Y-66853066D01*
X165094582Y-66833236D01*
X165114457Y-66815817D01*
X165130510Y-66801487D01*
X165135435Y-66796998D01*
X165148421Y-66785092D01*
X165164634Y-66770263D01*
X165182588Y-66753868D01*
X165200798Y-66737263D01*
X165214999Y-66724332D01*
X165230398Y-66710127D01*
X165249107Y-66692554D01*
X165269937Y-66672751D01*
X165291698Y-66651853D01*
X165313202Y-66630996D01*
X165331375Y-66613176D01*
X165347749Y-66596964D01*
X165363792Y-66580952D01*
X165379992Y-66564638D01*
X165396834Y-66547518D01*
X165414805Y-66529093D01*
X165434392Y-66508860D01*
X165456080Y-66486316D01*
X165480357Y-66460961D01*
X165507709Y-66432293D01*
X165538621Y-66399809D01*
X165560508Y-66376776D01*
X165581397Y-66354340D01*
X165605664Y-66327504D01*
X165632778Y-66296889D01*
X165662208Y-66263119D01*
X165693422Y-66226814D01*
X165725888Y-66188599D01*
X165759075Y-66149094D01*
X165792452Y-66108922D01*
X165825487Y-66068706D01*
X165857648Y-66029067D01*
X165859981Y-66026170D01*
X165878999Y-66002165D01*
X165900949Y-65973793D01*
X165925169Y-65941944D01*
X165950998Y-65907504D01*
X165977773Y-65871362D01*
X166004835Y-65834405D01*
X166031520Y-65797522D01*
X166057168Y-65761601D01*
X166058377Y-65759895D01*
X166070814Y-65742425D01*
X166085471Y-65721982D01*
X166100798Y-65700720D01*
X166115243Y-65680795D01*
X166120076Y-65674162D01*
X166137259Y-65650112D01*
X166157060Y-65621524D01*
X166178866Y-65589345D01*
X166202061Y-65554521D01*
X166226034Y-65517998D01*
X166250168Y-65480722D01*
X166273849Y-65443638D01*
X166296465Y-65407693D01*
X166317400Y-65373832D01*
X166336041Y-65343002D01*
X166345764Y-65326532D01*
X166351531Y-65316713D01*
X166359605Y-65303046D01*
X166369030Y-65287146D01*
X166378848Y-65270630D01*
X166381568Y-65266063D01*
X166390768Y-65250459D01*
X166399260Y-65235752D01*
X166406279Y-65223289D01*
X166411057Y-65214419D01*
X166412116Y-65212293D01*
X166418006Y-65199897D01*
X166448240Y-65199239D01*
X166475121Y-65197195D01*
X166506090Y-65192388D01*
X166539711Y-65185218D01*
X166574546Y-65176081D01*
X166609159Y-65165376D01*
X166642112Y-65153501D01*
X166671969Y-65140854D01*
X166688523Y-65132680D01*
X166741840Y-65101577D01*
X166789985Y-65067238D01*
X166833552Y-65029120D01*
X166873135Y-64986679D01*
X166909331Y-64939373D01*
X166923462Y-64918239D01*
X166946703Y-64878266D01*
X166965983Y-64836382D01*
X166981967Y-64791029D01*
X166990220Y-64761627D01*
X166996743Y-64735672D01*
X167001663Y-64714149D01*
X167005193Y-64695393D01*
X167007549Y-64677737D01*
X167008946Y-64659514D01*
X167009598Y-64639058D01*
X167009721Y-64614703D01*
X167009706Y-64610456D01*
X167009521Y-64588015D01*
X167009067Y-64570180D01*
X167008179Y-64555191D01*
X167006688Y-64541289D01*
X167004427Y-64526715D01*
X167001229Y-64509710D01*
X166999139Y-64499319D01*
X166992915Y-64470100D01*
X166986925Y-64445481D01*
X166980600Y-64423744D01*
X166973372Y-64403174D01*
X166964674Y-64382055D01*
X166953936Y-64358671D01*
X166949519Y-64349486D01*
X166921065Y-64296766D01*
X166889393Y-64249392D01*
X166854305Y-64207104D01*
X166815599Y-64169642D01*
X166801524Y-64157914D01*
X166750180Y-64120444D01*
X166697183Y-64089010D01*
X166642648Y-64063667D01*
X166586693Y-64044468D01*
X166529432Y-64031467D01*
X166526213Y-64030927D01*
X166509910Y-64028899D01*
X166489066Y-64027293D01*
X166465042Y-64026123D01*
X166439200Y-64025403D01*
X166412903Y-64025145D01*
X166387511Y-64025363D01*
X166364388Y-64026071D01*
X166344895Y-64027282D01*
X166330485Y-64028994D01*
X166269227Y-64042550D01*
X166211016Y-64061650D01*
X166156036Y-64086155D01*
X166104472Y-64115926D01*
X166056507Y-64150821D01*
X166012324Y-64190701D01*
X165972107Y-64235428D01*
X165936041Y-64284859D01*
X165904308Y-64338857D01*
X165892625Y-64362216D01*
X165886083Y-64376631D01*
X165880361Y-64390974D01*
X165875015Y-64406609D01*
X165869601Y-64424897D01*
X165863675Y-64447201D01*
X165859448Y-64464058D01*
X165850772Y-64501180D01*
X165844392Y-64533795D01*
X165840266Y-64563318D01*
X165838352Y-64591162D01*
X165838606Y-64618742D01*
X165840986Y-64647470D01*
X165845450Y-64678761D01*
X165851927Y-64713889D01*
X165858848Y-64746930D01*
X165865592Y-64775047D01*
X165872612Y-64799650D01*
X165880356Y-64822149D01*
X165889277Y-64843953D01*
X165899824Y-64866474D01*
X165902293Y-64871435D01*
X165909691Y-64886496D01*
X165915921Y-64899789D01*
X165920465Y-64910163D01*
X165922809Y-64916471D01*
X165923015Y-64917573D01*
X165921187Y-64925357D01*
X165916142Y-64937205D01*
X165908414Y-64952040D01*
X165898535Y-64968782D01*
X165894691Y-64974859D01*
X165886302Y-64988002D01*
X165876116Y-65004131D01*
X165865668Y-65020808D01*
X165859608Y-65030554D01*
X165809616Y-65109150D01*
X165756727Y-65188141D01*
X165700533Y-65268083D01*
X165640629Y-65349531D01*
X165576605Y-65433043D01*
X165508056Y-65519176D01*
X165452042Y-65587501D01*
X165433408Y-65609940D01*
X165417899Y-65628527D01*
X165404613Y-65644293D01*
X165392647Y-65658267D01*
X165381098Y-65671478D01*
X165369064Y-65684957D01*
X165355642Y-65699732D01*
X165339930Y-65716833D01*
X165321026Y-65737290D01*
X165315326Y-65743447D01*
X165298127Y-65762074D01*
X165280117Y-65781667D01*
X165262482Y-65800929D01*
X165246409Y-65818562D01*
X165233086Y-65833268D01*
X165229428Y-65837332D01*
X165189060Y-65881497D01*
X165144582Y-65928722D01*
X165096879Y-65978122D01*
X165046837Y-66028812D01*
X164995340Y-66079906D01*
X164943273Y-66130520D01*
X164891523Y-66179770D01*
X164840974Y-66226769D01*
X164828318Y-66238346D01*
X164815076Y-66250451D01*
X164803509Y-66261090D01*
X164794427Y-66269514D01*
X164788639Y-66274973D01*
X164786944Y-66276672D01*
X164784132Y-66279409D01*
X164777425Y-66285597D01*
X164767681Y-66294453D01*
X164755760Y-66305196D01*
X164748754Y-66311475D01*
X164731974Y-66326559D01*
X164713031Y-66343708D01*
X164694199Y-66360855D01*
X164677757Y-66375932D01*
X164677146Y-66376495D01*
X164642465Y-66407936D01*
X164605180Y-66440766D01*
X164566606Y-66473876D01*
X164528057Y-66506155D01*
X164490850Y-66536493D01*
X164456299Y-66563780D01*
X164444819Y-66572600D01*
X164429705Y-66584195D01*
X164411487Y-66598294D01*
X164392043Y-66613437D01*
X164373249Y-66628166D01*
X164365255Y-66634466D01*
X164297776Y-66686862D01*
X164230670Y-66737083D01*
X164162400Y-66786232D01*
X164091431Y-66835413D01*
X164016227Y-66885731D01*
X164008809Y-66890609D01*
X163962699Y-66920672D01*
X163920711Y-66947551D01*
X163881841Y-66971832D01*
X163845080Y-66994100D01*
X163809423Y-67014941D01*
X163773865Y-67034940D01*
X163737397Y-67054684D01*
X163699015Y-67074756D01*
X163657712Y-67095744D01*
X163647588Y-67100814D01*
X163613784Y-67117607D01*
X163584488Y-67131904D01*
X163558588Y-67144196D01*
X163534971Y-67154971D01*
X163512523Y-67164721D01*
X163490133Y-67173933D01*
X163466687Y-67183097D01*
X163441071Y-67192704D01*
X163426559Y-67198024D01*
X163354790Y-67222693D01*
X163286092Y-67243196D01*
X163219085Y-67259916D01*
X163161481Y-67271612D01*
X163144787Y-67274526D01*
X163130201Y-67276708D01*
X163116271Y-67278265D01*
X163101542Y-67279306D01*
X163084560Y-67279937D01*
X163063871Y-67280267D01*
X163042902Y-67280388D01*
X163016178Y-67280313D01*
X162993429Y-67279748D01*
X162973363Y-67278473D01*
X162954684Y-67276266D01*
X162936102Y-67272906D01*
X162916322Y-67268171D01*
X162894051Y-67261839D01*
X162867997Y-67253690D01*
X162846983Y-67246841D01*
X162789826Y-67225335D01*
X162737792Y-67200108D01*
X162690810Y-67171120D01*
X162648807Y-67138328D01*
X162629054Y-67119903D01*
X162593077Y-67081303D01*
X162563046Y-67042436D01*
X162538566Y-67002465D01*
X162519245Y-66960550D01*
X162515166Y-66948025D01*
X162864932Y-66948025D01*
X162868041Y-66996048D01*
X162870781Y-67014332D01*
X162875936Y-67040272D01*
X162882157Y-67065482D01*
X162889135Y-67089133D01*
X162896564Y-67110394D01*
X162904135Y-67128436D01*
X162911539Y-67142431D01*
X162918469Y-67151548D01*
X162922867Y-67154581D01*
X162929054Y-67156106D01*
X162939738Y-67158010D01*
X162953090Y-67159982D01*
X162960156Y-67160892D01*
X162974282Y-67162632D01*
X162986792Y-67164195D01*
X162995796Y-67165344D01*
X162998346Y-67165683D01*
X163016700Y-67167022D01*
X163040269Y-67166814D01*
X163068099Y-67165077D01*
X163076562Y-67164315D01*
X163093232Y-67162283D01*
X163114695Y-67159009D01*
X163139561Y-67154758D01*
X163166440Y-67149797D01*
X163193942Y-67144392D01*
X163220675Y-67138810D01*
X163245250Y-67133315D01*
X163266277Y-67128175D01*
X163268864Y-67127497D01*
X163327213Y-67110263D01*
X163389544Y-67088417D01*
X163455586Y-67062084D01*
X163525067Y-67031386D01*
X163597715Y-66996447D01*
X163673257Y-66957389D01*
X163751422Y-66914336D01*
X163793986Y-66889843D01*
X163823371Y-66872699D01*
X163847741Y-66858477D01*
X163867562Y-66846865D01*
X163883301Y-66837549D01*
X163895422Y-66830215D01*
X163904394Y-66824551D01*
X163910680Y-66820243D01*
X163914749Y-66816977D01*
X163917066Y-66814442D01*
X163918097Y-66812322D01*
X163918309Y-66810305D01*
X163918167Y-66808078D01*
X163918106Y-66806428D01*
X163917690Y-66800153D01*
X163916526Y-66788667D01*
X163914742Y-66773066D01*
X163912464Y-66754442D01*
X163909820Y-66733890D01*
X163908808Y-66726268D01*
X163902001Y-66674415D01*
X163896187Y-66627605D01*
X163891262Y-66584613D01*
X163887125Y-66544213D01*
X163883672Y-66505178D01*
X163880800Y-66466283D01*
X163878406Y-66426300D01*
X163876388Y-66384005D01*
X163874643Y-66338171D01*
X163873633Y-66306760D01*
X163872495Y-66252416D01*
X163872191Y-66193324D01*
X163872697Y-66131042D01*
X163873993Y-66067130D01*
X163876056Y-66003146D01*
X163878735Y-65943152D01*
X163879536Y-65925908D01*
X163879823Y-65914047D01*
X163879533Y-65906603D01*
X163878603Y-65902612D01*
X163876969Y-65901107D01*
X163875994Y-65900983D01*
X163871708Y-65902357D01*
X163862735Y-65906177D01*
X163850057Y-65911994D01*
X163834654Y-65919357D01*
X163817509Y-65927816D01*
X163817422Y-65927859D01*
X163799272Y-65936884D01*
X163781931Y-65945389D01*
X163766654Y-65952769D01*
X163754695Y-65958417D01*
X163747898Y-65961479D01*
X163738383Y-65965870D01*
X163725941Y-65972238D01*
X163710059Y-65980866D01*
X163690225Y-65992036D01*
X163665929Y-66006031D01*
X163641223Y-66020456D01*
X163602571Y-66043720D01*
X163562593Y-66068880D01*
X163522261Y-66095262D01*
X163482550Y-66122191D01*
X163444432Y-66148995D01*
X163408881Y-66174999D01*
X163376870Y-66199529D01*
X163349372Y-66221911D01*
X163345296Y-66225385D01*
X163292485Y-66271364D01*
X163244587Y-66314428D01*
X163201138Y-66355067D01*
X163161673Y-66393775D01*
X163125729Y-66431041D01*
X163092841Y-66467357D01*
X163062546Y-66503215D01*
X163034380Y-66539105D01*
X163007878Y-66575520D01*
X162990262Y-66601293D01*
X162972022Y-66629202D01*
X162956790Y-66653894D01*
X162943599Y-66677124D01*
X162931483Y-66700646D01*
X162919474Y-66726217D01*
X162911444Y-66744361D01*
X162890885Y-66797604D01*
X162876310Y-66849099D01*
X162867674Y-66899140D01*
X162864932Y-66948025D01*
X162515166Y-66948025D01*
X162504689Y-66915854D01*
X162494504Y-66867536D01*
X162488822Y-66821094D01*
X162487327Y-66801642D01*
X162486670Y-66785359D01*
X162486888Y-66769929D01*
X162488020Y-66753035D01*
X162490103Y-66732361D01*
X162490319Y-66730413D01*
X162496318Y-66686295D01*
X162504330Y-66645545D01*
X162514860Y-66606445D01*
X162528414Y-66567277D01*
X162545498Y-66526321D01*
X162558840Y-66497713D01*
X162590921Y-66435952D01*
X162627577Y-66374186D01*
X162669005Y-66312168D01*
X162715406Y-66249647D01*
X162766978Y-66186375D01*
X162823921Y-66122101D01*
X162886433Y-66056577D01*
X162954715Y-65989553D01*
X162995164Y-65951625D01*
X163023864Y-65925327D01*
X163049175Y-65902625D01*
X163072187Y-65882595D01*
X163093994Y-65864314D01*
X163115686Y-65846857D01*
X163138356Y-65829301D01*
X163151263Y-65819550D01*
X163233029Y-65759811D01*
X163317837Y-65700892D01*
X163404502Y-65643544D01*
X163491840Y-65588516D01*
X163578668Y-65536560D01*
X163663802Y-65488427D01*
X163725561Y-65455425D01*
X163742878Y-65446386D01*
X163760078Y-65437355D01*
X163775517Y-65429198D01*
X163787552Y-65422781D01*
X163790804Y-65421027D01*
X163798648Y-65416897D01*
X163811345Y-65410364D01*
X163828046Y-65401859D01*
X163847905Y-65391810D01*
X163870072Y-65380647D01*
X163893700Y-65368799D01*
X163909354Y-65360978D01*
X163938044Y-65346561D01*
X163961290Y-65334645D01*
X163979420Y-65325047D01*
X163992763Y-65317584D01*
X164001648Y-65312076D01*
X164006402Y-65308341D01*
X164007454Y-65306610D01*
X164009063Y-65296214D01*
X164013063Y-65280704D01*
X164019192Y-65260751D01*
X164027187Y-65237027D01*
X164036785Y-65210203D01*
X164047725Y-65180951D01*
X164059742Y-65149942D01*
X164072574Y-65117848D01*
X164085959Y-65085340D01*
X164099634Y-65053089D01*
X164113336Y-65021766D01*
X164126803Y-64992044D01*
X164139771Y-64964593D01*
X164147172Y-64949555D01*
X164159979Y-64924200D01*
X164173373Y-64898059D01*
X164186905Y-64871978D01*
X164200128Y-64846801D01*
X164212592Y-64823374D01*
X164223849Y-64802542D01*
X164233450Y-64785149D01*
X164240946Y-64772042D01*
X164244539Y-64766125D01*
X164254996Y-64749868D01*
X164267757Y-64730380D01*
X164282208Y-64708568D01*
X164297735Y-64685337D01*
X164313726Y-64661592D01*
X164329568Y-64638239D01*
X164344648Y-64616184D01*
X164358352Y-64596332D01*
X164370067Y-64579589D01*
X164379180Y-64566861D01*
X164382244Y-64562718D01*
X164431049Y-64499892D01*
X164482869Y-64437131D01*
X164536758Y-64375469D01*
X164591767Y-64315944D01*
X164646948Y-64259589D01*
X164701354Y-64207441D01*
X164736023Y-64176142D01*
X164750724Y-64163201D01*
X164766105Y-64149635D01*
X164780349Y-64137049D01*
X164791641Y-64127046D01*
X164791718Y-64126977D01*
X164819085Y-64103449D01*
X164850617Y-64077649D01*
X164885011Y-64050564D01*
X164920961Y-64023180D01*
X164957165Y-63996480D01*
X164992318Y-63971452D01*
X165025117Y-63949080D01*
X165039958Y-63939370D01*
X165050835Y-63932317D01*
X165060655Y-63925855D01*
X165067010Y-63921575D01*
X165075509Y-63916115D01*
X165088678Y-63908188D01*
X165105572Y-63898323D01*
X165125244Y-63887049D01*
X165146751Y-63874897D01*
X165169146Y-63862395D01*
X165191484Y-63850074D01*
X165212819Y-63838462D01*
X165232207Y-63828090D01*
X165248701Y-63819487D01*
X165254599Y-63816499D01*
X165309564Y-63790197D01*
X165369181Y-63763883D01*
X165431768Y-63738206D01*
X165495647Y-63713816D01*
X165559138Y-63691364D01*
X165620560Y-63671499D01*
X165657374Y-63660624D01*
X165679314Y-63654399D01*
X165700869Y-63648270D01*
X165720713Y-63642613D01*
X165737518Y-63637808D01*
X165749958Y-63634232D01*
X165752851Y-63633395D01*
X165775096Y-63627475D01*
X165802729Y-63620999D01*
X165834816Y-63614135D01*
X165870423Y-63607054D01*
X165908614Y-63599923D01*
X165948456Y-63592915D01*
X165989012Y-63586197D01*
X166029349Y-63579939D01*
X166068531Y-63574311D01*
X166104373Y-63569636D01*
X166134358Y-63566519D01*
X166169684Y-63563811D01*
X166209341Y-63561525D01*
X166252318Y-63559675D01*
X166297603Y-63558276D01*
X166344187Y-63557340D01*
X166391057Y-63556882D01*
X166437202Y-63556917D01*
G37*
D11*
%TO.C,MK1*%
X154490000Y-55440000D02*
X154490000Y-63060000D01*
X154490000Y-63060000D02*
X160460000Y-63060000D01*
X155250000Y-56200000D02*
X155250000Y-59250000D01*
X155250000Y-62300000D02*
X155250000Y-59250000D01*
X158200000Y-55450000D02*
X158200000Y-56200000D01*
X158200000Y-56200000D02*
X155250000Y-56200000D01*
X158200000Y-62300000D02*
X155250000Y-62300000D01*
X158200000Y-63050000D02*
X158200000Y-62300000D01*
X159700000Y-55450000D02*
X159700000Y-57250000D01*
X159700000Y-57250000D02*
X160450000Y-57250000D01*
X159700000Y-58750000D02*
X159700000Y-59750000D01*
X159700000Y-59750000D02*
X160450000Y-59750000D01*
X159700000Y-61250000D02*
X159700000Y-63050000D01*
X159700000Y-63050000D02*
X160450000Y-63050000D01*
X160450000Y-55450000D02*
X159700000Y-55450000D01*
X160450000Y-57250000D02*
X160450000Y-55450000D01*
X160450000Y-58750000D02*
X159700000Y-58750000D01*
X160450000Y-59750000D02*
X160450000Y-58750000D01*
X160450000Y-61250000D02*
X159700000Y-61250000D01*
X160450000Y-63050000D02*
X160450000Y-61250000D01*
X160460000Y-55440000D02*
X154490000Y-55440000D01*
X160460000Y-63060000D02*
X160460000Y-55440000D01*
X160750000Y-55150000D02*
X159500000Y-55150000D01*
X160750000Y-56400000D02*
X160750000Y-55150000D01*
%TO.C,J2*%
X154490000Y-63840000D02*
X154490000Y-71460000D01*
X154490000Y-71460000D02*
X160460000Y-71460000D01*
X155250000Y-64600000D02*
X155250000Y-67650000D01*
X155250000Y-70700000D02*
X155250000Y-67650000D01*
X158200000Y-63850000D02*
X158200000Y-64600000D01*
X158200000Y-64600000D02*
X155250000Y-64600000D01*
X158200000Y-70700000D02*
X155250000Y-70700000D01*
X158200000Y-71450000D02*
X158200000Y-70700000D01*
X159700000Y-63850000D02*
X159700000Y-65650000D01*
X159700000Y-65650000D02*
X160450000Y-65650000D01*
X159700000Y-67150000D02*
X159700000Y-68150000D01*
X159700000Y-68150000D02*
X160450000Y-68150000D01*
X159700000Y-69650000D02*
X159700000Y-71450000D01*
X159700000Y-71450000D02*
X160450000Y-71450000D01*
X160450000Y-63850000D02*
X159700000Y-63850000D01*
X160450000Y-65650000D02*
X160450000Y-63850000D01*
X160450000Y-67150000D02*
X159700000Y-67150000D01*
X160450000Y-68150000D02*
X160450000Y-67150000D01*
X160450000Y-69650000D02*
X159700000Y-69650000D01*
X160450000Y-71450000D02*
X160450000Y-69650000D01*
X160460000Y-63840000D02*
X154490000Y-63840000D01*
X160460000Y-71460000D02*
X160460000Y-63840000D01*
X160750000Y-63550000D02*
X159500000Y-63550000D01*
X160750000Y-64800000D02*
X160750000Y-63550000D01*
%TO.C,J1*%
X170450000Y-70600000D02*
X170450000Y-71850000D01*
X170450000Y-71850000D02*
X171700000Y-71850000D01*
X170740000Y-63940000D02*
X170740000Y-71560000D01*
X170740000Y-71560000D02*
X176710000Y-71560000D01*
X170750000Y-63950000D02*
X170750000Y-65750000D01*
X170750000Y-65750000D02*
X171500000Y-65750000D01*
X170750000Y-67250000D02*
X170750000Y-68250000D01*
X170750000Y-68250000D02*
X171500000Y-68250000D01*
X170750000Y-69750000D02*
X170750000Y-71550000D01*
X170750000Y-71550000D02*
X171500000Y-71550000D01*
X171500000Y-63950000D02*
X170750000Y-63950000D01*
X171500000Y-65750000D02*
X171500000Y-63950000D01*
X171500000Y-67250000D02*
X170750000Y-67250000D01*
X171500000Y-68250000D02*
X171500000Y-67250000D01*
X171500000Y-69750000D02*
X170750000Y-69750000D01*
X171500000Y-71550000D02*
X171500000Y-69750000D01*
X173000000Y-63950000D02*
X173000000Y-64700000D01*
X173000000Y-64700000D02*
X175950000Y-64700000D01*
X173000000Y-70800000D02*
X175950000Y-70800000D01*
X173000000Y-71550000D02*
X173000000Y-70800000D01*
X175950000Y-64700000D02*
X175950000Y-67750000D01*
X175950000Y-70800000D02*
X175950000Y-67750000D01*
X176710000Y-63940000D02*
X170740000Y-63940000D01*
X176710000Y-71560000D02*
X176710000Y-63940000D01*
%TD*%
D13*
X153800000Y-54600000D02*
X177400000Y-54600000D01*
X177400000Y-72200000D01*
X153800000Y-72200000D01*
X153800000Y-54600000D01*
X164200000Y-69800000D02*
G75*
G02*
X161100000Y-69800000I-1550000J0D01*
G01*
X161100000Y-69800000D02*
G75*
G02*
X164200000Y-69800000I1550000J0D01*
G01*
M02*
