<?xml version="1.0" standalone="no"?>
 <!DOCTYPE svg PUBLIC "-//W3C//DTD SVG 1.1//EN" 
 "http://www.w3.org/Graphics/SVG/1.1/DTD/svg11.dtd"> 
<svg
  xmlns:svg="http://www.w3.org/2000/svg"
  xmlns="http://www.w3.org/2000/svg"
  xmlns:xlink="http://www.w3.org/1999/xlink"
  version="1.1"
  width="56.0832mm" height="34.0868mm" viewBox="0.0000 0.0000 56.0832 34.0868">
<title>SVG Image created as Microphone-F_Cu.svg date 2024/04/27 05:26:53 </title>
  <desc>Image generated by PCBNEW </desc>
<g style="fill:#000000; fill-opacity:1.0000;stroke:#000000; stroke-opacity:1.0000;
stroke-linecap:round; stroke-linejoin:round;"
 transform="translate(0 0) scale(1 1)">
<path style="fill:#C83434; fill-opacity:1.0000; stroke:none;fill-rule:evenodd;"
d="M 24.6500,17.0500
24.6500,15.4500
26.2500,15.4500
26.2500,17.0500
Z" /> 
</g>
<g style="fill:#C83434; fill-opacity:1.0000; stroke:none;">
<circle cx="25.4500" cy="18.7900" r="0.8000" /> 
<circle cx="25.4500" cy="21.3300" r="0.8000" /> 
<circle cx="25.4500" cy="23.8700" r="0.8000" /> 
<circle cx="35.6100" cy="23.8700" r="0.8000" /> 
<circle cx="35.6100" cy="21.3300" r="0.8000" /> 
<circle cx="35.6100" cy="18.7900" r="0.8000" /> 
<circle cx="35.6100" cy="16.2500" r="0.8000" /> 
<circle cx="21.5500" cy="8.4700" r="0.8000" /> 
</g>
<g style="fill:#C83434; fill-opacity:1.0000; stroke:none;">
<circle cx="21.5500" cy="18.6300" r="0.8000" /> 
<circle cx="43.6300" cy="28.0500" r="0.8000" /> 
</g>
<g style="fill:#C83434; fill-opacity:1.0000; stroke:none;">
<circle cx="33.4700" cy="28.0500" r="0.8000" /> 
<circle cx="21.5500" cy="21.4700" r="0.8000" /> 
</g>
<g style="fill:#C83434; fill-opacity:1.0000; stroke:none;">
<circle cx="21.5500" cy="31.6300" r="0.8000" /> 
<circle cx="5.5500" cy="10.4700" r="0.8000" /> 
<circle cx="5.5500" cy="20.6300" r="0.8000" /> 
</g>
<g style="fill:#C83434; fill-opacity:1.0000; stroke:none;">
<circle cx="8.4700" cy="23.0500" r="0.8000" /> 
</g>
<g style="fill:#C83434; fill-opacity:1.0000; stroke:none;">
<circle cx="18.6300" cy="23.0500" r="0.8000" /> 
<path style="fill:#C83434; fill-opacity:1.0000; stroke:none;fill-rule:evenodd;"
d="M 15.4750,26.7000
17.1750,26.7000
17.1750,28.4000
15.4750,28.4000
Z" /> 
<circle cx="13.7850" cy="27.5500" r="0.8500" /> 
<path style="fill:#C83434; fill-opacity:1.0000; stroke:none;fill-rule:evenodd;"
d="M 31.1250,5.9000
29.4250,5.9000
29.4250,4.2000
31.1250,4.2000
Z" /> 
<circle cx="32.8150" cy="5.0500" r="0.8500" /> 
<path style="fill:#C83434; fill-opacity:1.0000; stroke:none;fill-rule:evenodd;"
d="M 39.6600,11.8600
39.6600,10.1600
41.3600,10.1600
41.3600,11.8600
Z" /> 
<circle cx="40.5100" cy="13.5500" r="0.8500" /> 
<path style="fill:#C83434; fill-opacity:1.0000; stroke:none;fill-rule:evenodd;"
d="M 43.2500,17.8473
44.8500,17.8473
44.8500,19.4473
43.2500,19.4473
Z" /> 
<circle cx="44.0500" cy="23.6473" r="0.8000" /> 
<path style="fill:#C83434; fill-opacity:1.0000; stroke:none;fill-rule:evenodd;"
d="M 15.3500,15.8500
13.7500,15.8500
13.7500,14.2500
15.3500,14.2500
Z" /> 
</g>
<g style="fill:#C83434; fill-opacity:1.0000; stroke:none;">
<circle cx="14.5500" cy="10.0500" r="0.8000" /> 
</g>
<g style="fill:#C83434; fill-opacity:1.0000; stroke:none;">
<circle cx="30.0500" cy="10.0500" r="0.8000" /> 
</g>
<g style="fill:#C83434; fill-opacity:1.0000; stroke:none;">
<circle cx="32.5500" cy="10.0500" r="0.8000" /> 
</g>
<g style="fill:none; 
stroke:#C83434; stroke-width:1.0000; stroke-opacity:1; 
stroke-linecap:round; stroke-linejoin:round;">
<path d="M25.4500 27.5500
L25.4500 23.8700
" />
<path d="M25.4500 27.7300
L25.4500 27.5500
" />
<path d="M21.5500 31.6300
L25.4500 27.7300
" />
<path d="M21.5500 31.6300
L46.4700 31.6300
" />
<path d="M46.4700 31.6300
L51.5500 26.5500
" />
<path d="M51.5500 26.5500
L51.5500 18.5500
" />
<path d="M51.5500 18.5500
L44.0100 11.0100
" />
<path d="M44.0100 11.0100
L40.5100 11.0100
" />
<path d="M5.5500 10.4700
L5.5500 13.5500
" />
<path d="M5.5500 13.5500
L2.0500 17.0500
" />
<path d="M2.0500 17.0500
L2.0500 24.0500
" />
<path d="M2.0500 24.0500
L5.5500 27.5500
" />
<path d="M5.5500 27.5500
L13.7850 27.5500
" />
<path d="M32.5500 10.0500
L29.5500 13.0500
" />
<path d="M29.5500 13.0500
L22.0500 13.0500
" />
<path d="M12.0500 23.0500
L8.4700 23.0500
" />
<path d="M22.0500 13.0500
L12.0500 23.0500
" />
<path d="M44.0500 18.6473
L44.0500 17.0900
" />
<path d="M44.0500 17.0900
L40.5100 13.5500
" />
<path d="M25.4500 18.7900
L21.7100 18.7900
" />
<path d="M21.7100 18.7900
L21.5500 18.6300
" />
<path d="M21.5500 21.4700
L25.3100 21.4700
" />
<path d="M25.3100 21.4700
L25.4500 21.3300
" />
<path d="M18.6300 23.0500
L19.9700 23.0500
" />
<path d="M19.9700 23.0500
L21.5500 21.4700
" />
<path d="M33.4700 28.0500
L32.5500 28.0500
" />
<path d="M30.5500 26.0500
L30.5500 21.0500
" />
<path d="M32.5500 28.0500
L30.5500 26.0500
" />
<path d="M30.5500 21.0500
L28.2900 18.7900
" />
<path d="M28.2900 18.7900
L25.4500 18.7900
" />
<path d="M44.0500 23.6473
L44.0500 27.6300
" />
<path d="M44.0500 27.6300
L43.6300 28.0500
" />
<path d="M35.6100 21.3300
L41.7327 21.3300
" />
<path d="M41.7327 21.3300
L44.0500 23.6473
" />
<path d="M16.3250 27.5500
L20.4050 31.6300
" />
<path d="M20.4050 31.6300
L21.5500 31.6300
" />
<path d="M5.5500 20.6300
L6.0500 20.6300
" />
<path d="M6.0500 20.6300
L8.4700 23.0500
" />
<path d="M5.5500 10.4700
L9.9700 10.4700
" />
<path d="M9.9700 10.4700
L14.5500 15.0500
" />
<path d="M14.5500 10.0500
L19.9700 10.0500
" />
<path d="M19.9700 10.0500
L21.5500 8.4700
" />
<path d="M30.2750 5.0500
L30.2750 5.3250
" />
<path d="M30.0500 5.5500
L30.0500 10.0500
" />
<path d="M30.2750 5.3250
L30.0500 5.5500
" />
<path d="M38.0500 2.5500
L31.0500 2.5500
" />
<path d="M40.5100 11.0100
L40.5100 5.0100
" />
<path d="M40.5100 5.0100
L38.0500 2.5500
" />
<path d="M31.0500 2.5500
L30.2750 3.3250
" />
<path d="M30.2750 3.3250
L30.2750 5.0500
" />
<path d="M32.5500 10.0500
L38.0500 15.5500
" />
<path d="M38.0500 15.5500
L38.0500 17.5500
" />
<path d="M38.0500 17.5500
L36.8100 18.7900
" />
<path d="M36.8100 18.7900
L35.6100 18.7900
" />
<path d="M32.8150 5.0500
L32.8150 9.7850
" />
<path d="M32.8150 9.7850
L32.5500 10.0500
" />
</g>
<g style="fill:#FFFFFF; fill-opacity:1.0000; stroke:none;">
<circle cx="25.4500" cy="16.2500" r="0.4000" /> 
</g>
<g style="fill:#FFFFFF; fill-opacity:1.0000; stroke:none;">
<circle cx="25.4500" cy="18.7900" r="0.4000" /> 
</g>
<g style="fill:#FFFFFF; fill-opacity:1.0000; stroke:none;">
<circle cx="25.4500" cy="21.3300" r="0.4000" /> 
</g>
<g style="fill:#FFFFFF; fill-opacity:1.0000; stroke:none;">
<circle cx="25.4500" cy="23.8700" r="0.4000" /> 
</g>
<g style="fill:#FFFFFF; fill-opacity:1.0000; stroke:none;">
<circle cx="35.6100" cy="23.8700" r="0.4000" /> 
</g>
<g style="fill:#FFFFFF; fill-opacity:1.0000; stroke:none;">
<circle cx="35.6100" cy="21.3300" r="0.4000" /> 
</g>
<g style="fill:#FFFFFF; fill-opacity:1.0000; stroke:none;">
<circle cx="35.6100" cy="18.7900" r="0.4000" /> 
</g>
<g style="fill:#FFFFFF; fill-opacity:1.0000; stroke:none;">
<circle cx="35.6100" cy="16.2500" r="0.4000" /> 
</g>
<g style="fill:#FFFFFF; fill-opacity:1.0000; stroke:none;">
<circle cx="21.5500" cy="8.4700" r="0.4000" /> 
</g>
<g style="fill:#FFFFFF; fill-opacity:1.0000; stroke:none;">
<circle cx="21.5500" cy="18.6300" r="0.4000" /> 
</g>
<g style="fill:#FFFFFF; fill-opacity:1.0000; stroke:none;">
<circle cx="43.6300" cy="28.0500" r="0.4000" /> 
</g>
<g style="fill:#FFFFFF; fill-opacity:1.0000; stroke:none;">
<circle cx="33.4700" cy="28.0500" r="0.4000" /> 
</g>
<g style="fill:#FFFFFF; fill-opacity:1.0000; stroke:none;">
<circle cx="21.5500" cy="21.4700" r="0.4000" /> 
</g>
<g style="fill:#FFFFFF; fill-opacity:1.0000; stroke:none;">
<circle cx="21.5500" cy="31.6300" r="0.4000" /> 
</g>
<g style="fill:#FFFFFF; fill-opacity:1.0000; stroke:none;">
<circle cx="5.5500" cy="10.4700" r="0.4000" /> 
</g>
<g style="fill:#FFFFFF; fill-opacity:1.0000; stroke:none;">
<circle cx="5.5500" cy="20.6300" r="0.4000" /> 
</g>
<g style="fill:#FFFFFF; fill-opacity:1.0000; stroke:none;">
<circle cx="8.4700" cy="23.0500" r="0.4000" /> 
</g>
<g style="fill:#FFFFFF; fill-opacity:1.0000; stroke:none;">
<circle cx="18.6300" cy="23.0500" r="0.4000" /> 
</g>
<g style="fill:#FFFFFF; fill-opacity:1.0000; stroke:none;">
<circle cx="16.3250" cy="27.5500" r="0.5000" /> 
</g>
<g style="fill:#FFFFFF; fill-opacity:1.0000; stroke:none;">
<circle cx="13.7850" cy="27.5500" r="0.5000" /> 
</g>
<g style="fill:#FFFFFF; fill-opacity:1.0000; stroke:none;">
<circle cx="30.2750" cy="5.0500" r="0.5000" /> 
</g>
<g style="fill:#FFFFFF; fill-opacity:1.0000; stroke:none;">
<circle cx="32.8150" cy="5.0500" r="0.5000" /> 
</g>
<g style="fill:#FFFFFF; fill-opacity:1.0000; stroke:none;">
<circle cx="40.5100" cy="11.0100" r="0.5000" /> 
</g>
<g style="fill:#FFFFFF; fill-opacity:1.0000; stroke:none;">
<circle cx="40.5100" cy="13.5500" r="0.5000" /> 
</g>
<g style="fill:#FFFFFF; fill-opacity:1.0000; stroke:none;">
<circle cx="44.0500" cy="18.6473" r="0.4000" /> 
</g>
<g style="fill:#FFFFFF; fill-opacity:1.0000; stroke:none;">
<circle cx="44.0500" cy="23.6473" r="0.4000" /> 
</g>
<g style="fill:#FFFFFF; fill-opacity:1.0000; stroke:none;">
<circle cx="14.5500" cy="15.0500" r="0.4000" /> 
</g>
<g style="fill:#FFFFFF; fill-opacity:1.0000; stroke:none;">
<circle cx="14.5500" cy="10.0500" r="0.4000" /> 
</g>
<g style="fill:#FFFFFF; fill-opacity:1.0000; stroke:none;">
<circle cx="30.0500" cy="10.0500" r="0.4000" /> 
</g>
<g style="fill:#FFFFFF; fill-opacity:1.0000; stroke:none;">
<circle cx="32.5500" cy="10.0500" r="0.4000" /> 
</g> 
</svg>
