%TF.GenerationSoftware,KiCad,Pcbnew,8.0.4-8.0.4-0~ubuntu22.04.1*%
%TF.CreationDate,2024-08-01T19:41:56+05:30*%
%TF.ProjectId,Microphone,4d696372-6f70-4686-9f6e-652e6b696361,v01*%
%TF.SameCoordinates,Original*%
%TF.FileFunction,Soldermask,Bot*%
%TF.FilePolarity,Negative*%
%FSLAX46Y46*%
G04 Gerber Fmt 4.6, Leading zero omitted, Abs format (unit mm)*
G04 Created by KiCad (PCBNEW 8.0.4-8.0.4-0~ubuntu22.04.1) date 2024-08-01 19:41:56*
%MOMM*%
%LPD*%
G01*
G04 APERTURE LIST*
G04 Aperture macros list*
%AMRoundRect*
0 Rectangle with rounded corners*
0 $1 Rounding radius*
0 $2 $3 $4 $5 $6 $7 $8 $9 X,Y pos of 4 corners*
0 Add a 4 corners polygon primitive as box body*
4,1,4,$2,$3,$4,$5,$6,$7,$8,$9,$2,$3,0*
0 Add four circle primitives for the rounded corners*
1,1,$1+$1,$2,$3*
1,1,$1+$1,$4,$5*
1,1,$1+$1,$6,$7*
1,1,$1+$1,$8,$9*
0 Add four rect primitives between the rounded corners*
20,1,$1+$1,$2,$3,$4,$5,0*
20,1,$1+$1,$4,$5,$6,$7,0*
20,1,$1+$1,$6,$7,$8,$9,0*
20,1,$1+$1,$8,$9,$2,$3,0*%
G04 Aperture macros list end*
%ADD10RoundRect,0.038000X-0.780000X0.780000X-0.780000X-0.780000X0.780000X-0.780000X0.780000X0.780000X0*%
%ADD11C,1.636000*%
%ADD12RoundRect,0.261177X-0.776823X0.626823X-0.776823X-0.626823X0.776823X-0.626823X0.776823X0.626823X0*%
%ADD13O,2.076000X1.776000*%
%ADD14RoundRect,0.261177X0.776823X-0.626823X0.776823X0.626823X-0.776823X0.626823X-0.776823X-0.626823X0*%
%ADD15RoundRect,0.102000X0.266700X-0.711200X0.266700X0.711200X-0.266700X0.711200X-0.266700X-0.711200X0*%
%ADD16RoundRect,0.219000X0.219000X0.294000X-0.219000X0.294000X-0.219000X-0.294000X0.219000X-0.294000X0*%
%ADD17RoundRect,0.159000X0.159000X0.189000X-0.159000X0.189000X-0.159000X-0.189000X0.159000X-0.189000X0*%
%ADD18RoundRect,0.269000X0.494000X-0.269000X0.494000X0.269000X-0.494000X0.269000X-0.494000X-0.269000X0*%
%ADD19RoundRect,0.219000X-0.219000X-0.294000X0.219000X-0.294000X0.219000X0.294000X-0.219000X0.294000X0*%
%ADD20RoundRect,0.269000X0.269000X0.494000X-0.269000X0.494000X-0.269000X-0.494000X0.269000X-0.494000X0*%
%TA.AperFunction,Profile*%
%ADD21C,0.100000*%
%TD*%
G04 APERTURE END LIST*
D10*
%TO.C,R4*%
X175600000Y-55900000D03*
D11*
X170600000Y-58400000D03*
X175600000Y-60900000D03*
%TD*%
D10*
%TO.C,R5*%
X167000000Y-56000000D03*
D11*
X162000000Y-58500000D03*
X167000000Y-61000000D03*
%TD*%
D12*
%TO.C,MK1*%
X158000000Y-58000000D03*
D13*
X158000000Y-60500000D03*
%TD*%
D12*
%TO.C,J2*%
X158000000Y-66400000D03*
D13*
X158000000Y-68900000D03*
%TD*%
D14*
%TO.C,J1*%
X173200000Y-69000000D03*
D13*
X173200000Y-66500000D03*
%TD*%
D15*
%TO.C,U2*%
X169400000Y-68594000D03*
X168130000Y-68594000D03*
X166860000Y-68594000D03*
X165590000Y-68594000D03*
X165590000Y-63006000D03*
X166860000Y-63006000D03*
X168130000Y-63006000D03*
X169400000Y-63006000D03*
%TD*%
D16*
%TO.C,R3*%
X166800000Y-71000000D03*
X165150000Y-71000000D03*
%TD*%
%TO.C,R1*%
X170200000Y-71000000D03*
X168550000Y-71000000D03*
%TD*%
D17*
%TO.C,C1*%
X158800000Y-63400000D03*
X157840000Y-63400000D03*
%TD*%
D18*
%TO.C,C2*%
X165000000Y-58200000D03*
X165000000Y-56300000D03*
%TD*%
%TO.C,C3*%
X174400000Y-59300000D03*
X174400000Y-57400000D03*
%TD*%
%TO.C,C4*%
X172400000Y-59300000D03*
X172400000Y-57400000D03*
%TD*%
D19*
%TO.C,R2*%
X161550000Y-56800000D03*
X163200000Y-56800000D03*
%TD*%
D20*
%TO.C,C5*%
X173900000Y-61200000D03*
X172000000Y-61200000D03*
%TD*%
D21*
X153800000Y-54600000D02*
X177400000Y-54600000D01*
X177400000Y-72200000D01*
X153800000Y-72200000D01*
X153800000Y-54600000D01*
X164200000Y-69800000D02*
G75*
G02*
X161100000Y-69800000I-1550000J0D01*
G01*
X161100000Y-69800000D02*
G75*
G02*
X164200000Y-69800000I1550000J0D01*
G01*
M02*
