%TF.GenerationSoftware,KiCad,Pcbnew,8.0.4-8.0.4-0~ubuntu22.04.1*%
%TF.CreationDate,2024-08-07T00:11:23+05:30*%
%TF.ProjectId,esp32Shield,65737033-3253-4686-9965-6c642e6b6963,rev?*%
%TF.SameCoordinates,Original*%
%TF.FileFunction,Legend,Top*%
%TF.FilePolarity,Positive*%
%FSLAX46Y46*%
G04 Gerber Fmt 4.6, Leading zero omitted, Abs format (unit mm)*
G04 Created by KiCad (PCBNEW 8.0.4-8.0.4-0~ubuntu22.04.1) date 2024-08-07 00:11:23*
%MOMM*%
%LPD*%
G01*
G04 APERTURE LIST*
%ADD10C,0.150000*%
%ADD11C,0.100000*%
%ADD12C,0.120000*%
%ADD13C,0.127000*%
%ADD14C,0.200000*%
%ADD15C,0.000000*%
G04 APERTURE END LIST*
D10*
X173454819Y-75685713D02*
X172454819Y-75685713D01*
X172454819Y-75685713D02*
X173169104Y-75352380D01*
X173169104Y-75352380D02*
X172454819Y-75019047D01*
X172454819Y-75019047D02*
X173454819Y-75019047D01*
X173454819Y-74019047D02*
X173454819Y-74590475D01*
X173454819Y-74304761D02*
X172454819Y-74304761D01*
X172454819Y-74304761D02*
X172597676Y-74399999D01*
X172597676Y-74399999D02*
X172692914Y-74495237D01*
X172692914Y-74495237D02*
X172740533Y-74590475D01*
X173454819Y-73066666D02*
X173454819Y-73638094D01*
X173454819Y-73352380D02*
X172454819Y-73352380D01*
X172454819Y-73352380D02*
X172597676Y-73447618D01*
X172597676Y-73447618D02*
X172692914Y-73542856D01*
X172692914Y-73542856D02*
X172740533Y-73638094D01*
X173454819Y-86609523D02*
X172454819Y-86609523D01*
X172454819Y-86609523D02*
X173169104Y-86276190D01*
X173169104Y-86276190D02*
X172454819Y-85942857D01*
X172454819Y-85942857D02*
X173454819Y-85942857D01*
X172883390Y-85323809D02*
X172835771Y-85419047D01*
X172835771Y-85419047D02*
X172788152Y-85466666D01*
X172788152Y-85466666D02*
X172692914Y-85514285D01*
X172692914Y-85514285D02*
X172645295Y-85514285D01*
X172645295Y-85514285D02*
X172550057Y-85466666D01*
X172550057Y-85466666D02*
X172502438Y-85419047D01*
X172502438Y-85419047D02*
X172454819Y-85323809D01*
X172454819Y-85323809D02*
X172454819Y-85133333D01*
X172454819Y-85133333D02*
X172502438Y-85038095D01*
X172502438Y-85038095D02*
X172550057Y-84990476D01*
X172550057Y-84990476D02*
X172645295Y-84942857D01*
X172645295Y-84942857D02*
X172692914Y-84942857D01*
X172692914Y-84942857D02*
X172788152Y-84990476D01*
X172788152Y-84990476D02*
X172835771Y-85038095D01*
X172835771Y-85038095D02*
X172883390Y-85133333D01*
X172883390Y-85133333D02*
X172883390Y-85323809D01*
X172883390Y-85323809D02*
X172931009Y-85419047D01*
X172931009Y-85419047D02*
X172978628Y-85466666D01*
X172978628Y-85466666D02*
X173073866Y-85514285D01*
X173073866Y-85514285D02*
X173264342Y-85514285D01*
X173264342Y-85514285D02*
X173359580Y-85466666D01*
X173359580Y-85466666D02*
X173407200Y-85419047D01*
X173407200Y-85419047D02*
X173454819Y-85323809D01*
X173454819Y-85323809D02*
X173454819Y-85133333D01*
X173454819Y-85133333D02*
X173407200Y-85038095D01*
X173407200Y-85038095D02*
X173359580Y-84990476D01*
X173359580Y-84990476D02*
X173264342Y-84942857D01*
X173264342Y-84942857D02*
X173073866Y-84942857D01*
X173073866Y-84942857D02*
X172978628Y-84990476D01*
X172978628Y-84990476D02*
X172931009Y-85038095D01*
X172931009Y-85038095D02*
X172883390Y-85133333D01*
X144945180Y-81190476D02*
X145945180Y-81190476D01*
X145945180Y-81190476D02*
X145230895Y-81523809D01*
X145230895Y-81523809D02*
X145945180Y-81857142D01*
X145945180Y-81857142D02*
X144945180Y-81857142D01*
X145611847Y-82761904D02*
X144945180Y-82761904D01*
X145992800Y-82523809D02*
X145278514Y-82285714D01*
X145278514Y-82285714D02*
X145278514Y-82904761D01*
X173454819Y-79485713D02*
X172454819Y-79485713D01*
X172454819Y-79485713D02*
X173169104Y-79152380D01*
X173169104Y-79152380D02*
X172454819Y-78819047D01*
X172454819Y-78819047D02*
X173454819Y-78819047D01*
X173454819Y-77819047D02*
X173454819Y-78390475D01*
X173454819Y-78104761D02*
X172454819Y-78104761D01*
X172454819Y-78104761D02*
X172597676Y-78199999D01*
X172597676Y-78199999D02*
X172692914Y-78295237D01*
X172692914Y-78295237D02*
X172740533Y-78390475D01*
X172454819Y-77199999D02*
X172454819Y-77104761D01*
X172454819Y-77104761D02*
X172502438Y-77009523D01*
X172502438Y-77009523D02*
X172550057Y-76961904D01*
X172550057Y-76961904D02*
X172645295Y-76914285D01*
X172645295Y-76914285D02*
X172835771Y-76866666D01*
X172835771Y-76866666D02*
X173073866Y-76866666D01*
X173073866Y-76866666D02*
X173264342Y-76914285D01*
X173264342Y-76914285D02*
X173359580Y-76961904D01*
X173359580Y-76961904D02*
X173407200Y-77009523D01*
X173407200Y-77009523D02*
X173454819Y-77104761D01*
X173454819Y-77104761D02*
X173454819Y-77199999D01*
X173454819Y-77199999D02*
X173407200Y-77295237D01*
X173407200Y-77295237D02*
X173359580Y-77342856D01*
X173359580Y-77342856D02*
X173264342Y-77390475D01*
X173264342Y-77390475D02*
X173073866Y-77438094D01*
X173073866Y-77438094D02*
X172835771Y-77438094D01*
X172835771Y-77438094D02*
X172645295Y-77390475D01*
X172645295Y-77390475D02*
X172550057Y-77342856D01*
X172550057Y-77342856D02*
X172502438Y-77295237D01*
X172502438Y-77295237D02*
X172454819Y-77199999D01*
X144945180Y-88590476D02*
X145945180Y-88590476D01*
X145945180Y-88590476D02*
X145230895Y-88923809D01*
X145230895Y-88923809D02*
X145945180Y-89257142D01*
X145945180Y-89257142D02*
X144945180Y-89257142D01*
X145945180Y-90161904D02*
X145945180Y-89971428D01*
X145945180Y-89971428D02*
X145897561Y-89876190D01*
X145897561Y-89876190D02*
X145849942Y-89828571D01*
X145849942Y-89828571D02*
X145707085Y-89733333D01*
X145707085Y-89733333D02*
X145516609Y-89685714D01*
X145516609Y-89685714D02*
X145135657Y-89685714D01*
X145135657Y-89685714D02*
X145040419Y-89733333D01*
X145040419Y-89733333D02*
X144992800Y-89780952D01*
X144992800Y-89780952D02*
X144945180Y-89876190D01*
X144945180Y-89876190D02*
X144945180Y-90066666D01*
X144945180Y-90066666D02*
X144992800Y-90161904D01*
X144992800Y-90161904D02*
X145040419Y-90209523D01*
X145040419Y-90209523D02*
X145135657Y-90257142D01*
X145135657Y-90257142D02*
X145373752Y-90257142D01*
X145373752Y-90257142D02*
X145468990Y-90209523D01*
X145468990Y-90209523D02*
X145516609Y-90161904D01*
X145516609Y-90161904D02*
X145564228Y-90066666D01*
X145564228Y-90066666D02*
X145564228Y-89876190D01*
X145564228Y-89876190D02*
X145516609Y-89780952D01*
X145516609Y-89780952D02*
X145468990Y-89733333D01*
X145468990Y-89733333D02*
X145373752Y-89685714D01*
X144945180Y-73590476D02*
X145945180Y-73590476D01*
X145945180Y-73590476D02*
X145230895Y-73923809D01*
X145230895Y-73923809D02*
X145945180Y-74257142D01*
X145945180Y-74257142D02*
X144945180Y-74257142D01*
X145849942Y-74685714D02*
X145897561Y-74733333D01*
X145897561Y-74733333D02*
X145945180Y-74828571D01*
X145945180Y-74828571D02*
X145945180Y-75066666D01*
X145945180Y-75066666D02*
X145897561Y-75161904D01*
X145897561Y-75161904D02*
X145849942Y-75209523D01*
X145849942Y-75209523D02*
X145754704Y-75257142D01*
X145754704Y-75257142D02*
X145659466Y-75257142D01*
X145659466Y-75257142D02*
X145516609Y-75209523D01*
X145516609Y-75209523D02*
X144945180Y-74638095D01*
X144945180Y-74638095D02*
X144945180Y-75257142D01*
X144945180Y-69590476D02*
X145945180Y-69590476D01*
X145945180Y-69590476D02*
X145230895Y-69923809D01*
X145230895Y-69923809D02*
X145945180Y-70257142D01*
X145945180Y-70257142D02*
X144945180Y-70257142D01*
X144945180Y-71257142D02*
X144945180Y-70685714D01*
X144945180Y-70971428D02*
X145945180Y-70971428D01*
X145945180Y-70971428D02*
X145802323Y-70876190D01*
X145802323Y-70876190D02*
X145707085Y-70780952D01*
X145707085Y-70780952D02*
X145659466Y-70685714D01*
X144945180Y-77190476D02*
X145945180Y-77190476D01*
X145945180Y-77190476D02*
X145230895Y-77523809D01*
X145230895Y-77523809D02*
X145945180Y-77857142D01*
X145945180Y-77857142D02*
X144945180Y-77857142D01*
X145945180Y-78238095D02*
X145945180Y-78857142D01*
X145945180Y-78857142D02*
X145564228Y-78523809D01*
X145564228Y-78523809D02*
X145564228Y-78666666D01*
X145564228Y-78666666D02*
X145516609Y-78761904D01*
X145516609Y-78761904D02*
X145468990Y-78809523D01*
X145468990Y-78809523D02*
X145373752Y-78857142D01*
X145373752Y-78857142D02*
X145135657Y-78857142D01*
X145135657Y-78857142D02*
X145040419Y-78809523D01*
X145040419Y-78809523D02*
X144992800Y-78761904D01*
X144992800Y-78761904D02*
X144945180Y-78666666D01*
X144945180Y-78666666D02*
X144945180Y-78380952D01*
X144945180Y-78380952D02*
X144992800Y-78285714D01*
X144992800Y-78285714D02*
X145040419Y-78238095D01*
X173454819Y-83009523D02*
X172454819Y-83009523D01*
X172454819Y-83009523D02*
X173169104Y-82676190D01*
X173169104Y-82676190D02*
X172454819Y-82342857D01*
X172454819Y-82342857D02*
X173454819Y-82342857D01*
X173454819Y-81819047D02*
X173454819Y-81628571D01*
X173454819Y-81628571D02*
X173407200Y-81533333D01*
X173407200Y-81533333D02*
X173359580Y-81485714D01*
X173359580Y-81485714D02*
X173216723Y-81390476D01*
X173216723Y-81390476D02*
X173026247Y-81342857D01*
X173026247Y-81342857D02*
X172645295Y-81342857D01*
X172645295Y-81342857D02*
X172550057Y-81390476D01*
X172550057Y-81390476D02*
X172502438Y-81438095D01*
X172502438Y-81438095D02*
X172454819Y-81533333D01*
X172454819Y-81533333D02*
X172454819Y-81723809D01*
X172454819Y-81723809D02*
X172502438Y-81819047D01*
X172502438Y-81819047D02*
X172550057Y-81866666D01*
X172550057Y-81866666D02*
X172645295Y-81914285D01*
X172645295Y-81914285D02*
X172883390Y-81914285D01*
X172883390Y-81914285D02*
X172978628Y-81866666D01*
X172978628Y-81866666D02*
X173026247Y-81819047D01*
X173026247Y-81819047D02*
X173073866Y-81723809D01*
X173073866Y-81723809D02*
X173073866Y-81533333D01*
X173073866Y-81533333D02*
X173026247Y-81438095D01*
X173026247Y-81438095D02*
X172978628Y-81390476D01*
X172978628Y-81390476D02*
X172883390Y-81342857D01*
X144945180Y-84790476D02*
X145945180Y-84790476D01*
X145945180Y-84790476D02*
X145230895Y-85123809D01*
X145230895Y-85123809D02*
X145945180Y-85457142D01*
X145945180Y-85457142D02*
X144945180Y-85457142D01*
X145945180Y-86409523D02*
X145945180Y-85933333D01*
X145945180Y-85933333D02*
X145468990Y-85885714D01*
X145468990Y-85885714D02*
X145516609Y-85933333D01*
X145516609Y-85933333D02*
X145564228Y-86028571D01*
X145564228Y-86028571D02*
X145564228Y-86266666D01*
X145564228Y-86266666D02*
X145516609Y-86361904D01*
X145516609Y-86361904D02*
X145468990Y-86409523D01*
X145468990Y-86409523D02*
X145373752Y-86457142D01*
X145373752Y-86457142D02*
X145135657Y-86457142D01*
X145135657Y-86457142D02*
X145040419Y-86409523D01*
X145040419Y-86409523D02*
X144992800Y-86361904D01*
X144992800Y-86361904D02*
X144945180Y-86266666D01*
X144945180Y-86266666D02*
X144945180Y-86028571D01*
X144945180Y-86028571D02*
X144992800Y-85933333D01*
X144992800Y-85933333D02*
X145040419Y-85885714D01*
X173454819Y-71885713D02*
X172454819Y-71885713D01*
X172454819Y-71885713D02*
X173169104Y-71552380D01*
X173169104Y-71552380D02*
X172454819Y-71219047D01*
X172454819Y-71219047D02*
X173454819Y-71219047D01*
X173454819Y-70219047D02*
X173454819Y-70790475D01*
X173454819Y-70504761D02*
X172454819Y-70504761D01*
X172454819Y-70504761D02*
X172597676Y-70599999D01*
X172597676Y-70599999D02*
X172692914Y-70695237D01*
X172692914Y-70695237D02*
X172740533Y-70790475D01*
X172550057Y-69838094D02*
X172502438Y-69790475D01*
X172502438Y-69790475D02*
X172454819Y-69695237D01*
X172454819Y-69695237D02*
X172454819Y-69457142D01*
X172454819Y-69457142D02*
X172502438Y-69361904D01*
X172502438Y-69361904D02*
X172550057Y-69314285D01*
X172550057Y-69314285D02*
X172645295Y-69266666D01*
X172645295Y-69266666D02*
X172740533Y-69266666D01*
X172740533Y-69266666D02*
X172883390Y-69314285D01*
X172883390Y-69314285D02*
X173454819Y-69885713D01*
X173454819Y-69885713D02*
X173454819Y-69266666D01*
D11*
X155927692Y-96666732D02*
X156094359Y-96666732D01*
X156165787Y-96928637D02*
X155927692Y-96928637D01*
X155927692Y-96928637D02*
X155927692Y-96428637D01*
X155927692Y-96428637D02*
X156165787Y-96428637D01*
X156665787Y-96928637D02*
X156499121Y-96690542D01*
X156380073Y-96928637D02*
X156380073Y-96428637D01*
X156380073Y-96428637D02*
X156570549Y-96428637D01*
X156570549Y-96428637D02*
X156618168Y-96452447D01*
X156618168Y-96452447D02*
X156641978Y-96476256D01*
X156641978Y-96476256D02*
X156665787Y-96523875D01*
X156665787Y-96523875D02*
X156665787Y-96595304D01*
X156665787Y-96595304D02*
X156641978Y-96642923D01*
X156641978Y-96642923D02*
X156618168Y-96666732D01*
X156618168Y-96666732D02*
X156570549Y-96690542D01*
X156570549Y-96690542D02*
X156380073Y-96690542D01*
X157165787Y-96881018D02*
X157141978Y-96904828D01*
X157141978Y-96904828D02*
X157070549Y-96928637D01*
X157070549Y-96928637D02*
X157022930Y-96928637D01*
X157022930Y-96928637D02*
X156951502Y-96904828D01*
X156951502Y-96904828D02*
X156903883Y-96857208D01*
X156903883Y-96857208D02*
X156880073Y-96809589D01*
X156880073Y-96809589D02*
X156856264Y-96714351D01*
X156856264Y-96714351D02*
X156856264Y-96642923D01*
X156856264Y-96642923D02*
X156880073Y-96547685D01*
X156880073Y-96547685D02*
X156903883Y-96500066D01*
X156903883Y-96500066D02*
X156951502Y-96452447D01*
X156951502Y-96452447D02*
X157022930Y-96428637D01*
X157022930Y-96428637D02*
X157070549Y-96428637D01*
X157070549Y-96428637D02*
X157141978Y-96452447D01*
X157141978Y-96452447D02*
X157165787Y-96476256D01*
X154951503Y-97471704D02*
X155022931Y-97495514D01*
X155022931Y-97495514D02*
X155046741Y-97519323D01*
X155046741Y-97519323D02*
X155070550Y-97566942D01*
X155070550Y-97566942D02*
X155070550Y-97638371D01*
X155070550Y-97638371D02*
X155046741Y-97685990D01*
X155046741Y-97685990D02*
X155022931Y-97709800D01*
X155022931Y-97709800D02*
X154975312Y-97733609D01*
X154975312Y-97733609D02*
X154784836Y-97733609D01*
X154784836Y-97733609D02*
X154784836Y-97233609D01*
X154784836Y-97233609D02*
X154951503Y-97233609D01*
X154951503Y-97233609D02*
X154999122Y-97257419D01*
X154999122Y-97257419D02*
X155022931Y-97281228D01*
X155022931Y-97281228D02*
X155046741Y-97328847D01*
X155046741Y-97328847D02*
X155046741Y-97376466D01*
X155046741Y-97376466D02*
X155022931Y-97424085D01*
X155022931Y-97424085D02*
X154999122Y-97447895D01*
X154999122Y-97447895D02*
X154951503Y-97471704D01*
X154951503Y-97471704D02*
X154784836Y-97471704D01*
X155284836Y-97733609D02*
X155284836Y-97233609D01*
X155451503Y-97233609D02*
X155737217Y-97233609D01*
X155594360Y-97733609D02*
X155594360Y-97233609D01*
X155880074Y-97709800D02*
X155951502Y-97733609D01*
X155951502Y-97733609D02*
X156070550Y-97733609D01*
X156070550Y-97733609D02*
X156118169Y-97709800D01*
X156118169Y-97709800D02*
X156141978Y-97685990D01*
X156141978Y-97685990D02*
X156165788Y-97638371D01*
X156165788Y-97638371D02*
X156165788Y-97590752D01*
X156165788Y-97590752D02*
X156141978Y-97543133D01*
X156141978Y-97543133D02*
X156118169Y-97519323D01*
X156118169Y-97519323D02*
X156070550Y-97495514D01*
X156070550Y-97495514D02*
X155975312Y-97471704D01*
X155975312Y-97471704D02*
X155927693Y-97447895D01*
X155927693Y-97447895D02*
X155903883Y-97424085D01*
X155903883Y-97424085D02*
X155880074Y-97376466D01*
X155880074Y-97376466D02*
X155880074Y-97328847D01*
X155880074Y-97328847D02*
X155903883Y-97281228D01*
X155903883Y-97281228D02*
X155927693Y-97257419D01*
X155927693Y-97257419D02*
X155975312Y-97233609D01*
X155975312Y-97233609D02*
X156094359Y-97233609D01*
X156094359Y-97233609D02*
X156165788Y-97257419D01*
X156380073Y-97543133D02*
X156761026Y-97543133D01*
X157261026Y-97257419D02*
X157213407Y-97233609D01*
X157213407Y-97233609D02*
X157141978Y-97233609D01*
X157141978Y-97233609D02*
X157070550Y-97257419D01*
X157070550Y-97257419D02*
X157022931Y-97305038D01*
X157022931Y-97305038D02*
X156999121Y-97352657D01*
X156999121Y-97352657D02*
X156975312Y-97447895D01*
X156975312Y-97447895D02*
X156975312Y-97519323D01*
X156975312Y-97519323D02*
X156999121Y-97614561D01*
X156999121Y-97614561D02*
X157022931Y-97662180D01*
X157022931Y-97662180D02*
X157070550Y-97709800D01*
X157070550Y-97709800D02*
X157141978Y-97733609D01*
X157141978Y-97733609D02*
X157189597Y-97733609D01*
X157189597Y-97733609D02*
X157261026Y-97709800D01*
X157261026Y-97709800D02*
X157284835Y-97685990D01*
X157284835Y-97685990D02*
X157284835Y-97519323D01*
X157284835Y-97519323D02*
X157189597Y-97519323D01*
X157570550Y-97733609D02*
X157522931Y-97709800D01*
X157522931Y-97709800D02*
X157499121Y-97685990D01*
X157499121Y-97685990D02*
X157475312Y-97638371D01*
X157475312Y-97638371D02*
X157475312Y-97495514D01*
X157475312Y-97495514D02*
X157499121Y-97447895D01*
X157499121Y-97447895D02*
X157522931Y-97424085D01*
X157522931Y-97424085D02*
X157570550Y-97400276D01*
X157570550Y-97400276D02*
X157641978Y-97400276D01*
X157641978Y-97400276D02*
X157689597Y-97424085D01*
X157689597Y-97424085D02*
X157713407Y-97447895D01*
X157713407Y-97447895D02*
X157737216Y-97495514D01*
X157737216Y-97495514D02*
X157737216Y-97638371D01*
X157737216Y-97638371D02*
X157713407Y-97685990D01*
X157713407Y-97685990D02*
X157689597Y-97709800D01*
X157689597Y-97709800D02*
X157641978Y-97733609D01*
X157641978Y-97733609D02*
X157570550Y-97733609D01*
X158165788Y-97733609D02*
X158165788Y-97471704D01*
X158165788Y-97471704D02*
X158141978Y-97424085D01*
X158141978Y-97424085D02*
X158094359Y-97400276D01*
X158094359Y-97400276D02*
X157999121Y-97400276D01*
X157999121Y-97400276D02*
X157951502Y-97424085D01*
X158165788Y-97709800D02*
X158118169Y-97733609D01*
X158118169Y-97733609D02*
X157999121Y-97733609D01*
X157999121Y-97733609D02*
X157951502Y-97709800D01*
X157951502Y-97709800D02*
X157927693Y-97662180D01*
X157927693Y-97662180D02*
X157927693Y-97614561D01*
X157927693Y-97614561D02*
X157951502Y-97566942D01*
X157951502Y-97566942D02*
X157999121Y-97543133D01*
X157999121Y-97543133D02*
X158118169Y-97543133D01*
X158118169Y-97543133D02*
X158165788Y-97519323D01*
D10*
X167266666Y-92454819D02*
X167266666Y-93169104D01*
X167266666Y-93169104D02*
X167219047Y-93311961D01*
X167219047Y-93311961D02*
X167123809Y-93407200D01*
X167123809Y-93407200D02*
X166980952Y-93454819D01*
X166980952Y-93454819D02*
X166885714Y-93454819D01*
X168266666Y-93454819D02*
X167695238Y-93454819D01*
X167980952Y-93454819D02*
X167980952Y-92454819D01*
X167980952Y-92454819D02*
X167885714Y-92597676D01*
X167885714Y-92597676D02*
X167790476Y-92692914D01*
X167790476Y-92692914D02*
X167695238Y-92740533D01*
X164228571Y-92514700D02*
X165371429Y-92514700D01*
X170628571Y-92914700D02*
X171771429Y-92914700D01*
X171200000Y-93486128D02*
X171200000Y-92343271D01*
X152233333Y-63359580D02*
X152185714Y-63407200D01*
X152185714Y-63407200D02*
X152042857Y-63454819D01*
X152042857Y-63454819D02*
X151947619Y-63454819D01*
X151947619Y-63454819D02*
X151804762Y-63407200D01*
X151804762Y-63407200D02*
X151709524Y-63311961D01*
X151709524Y-63311961D02*
X151661905Y-63216723D01*
X151661905Y-63216723D02*
X151614286Y-63026247D01*
X151614286Y-63026247D02*
X151614286Y-62883390D01*
X151614286Y-62883390D02*
X151661905Y-62692914D01*
X151661905Y-62692914D02*
X151709524Y-62597676D01*
X151709524Y-62597676D02*
X151804762Y-62502438D01*
X151804762Y-62502438D02*
X151947619Y-62454819D01*
X151947619Y-62454819D02*
X152042857Y-62454819D01*
X152042857Y-62454819D02*
X152185714Y-62502438D01*
X152185714Y-62502438D02*
X152233333Y-62550057D01*
X153090476Y-62454819D02*
X152900000Y-62454819D01*
X152900000Y-62454819D02*
X152804762Y-62502438D01*
X152804762Y-62502438D02*
X152757143Y-62550057D01*
X152757143Y-62550057D02*
X152661905Y-62692914D01*
X152661905Y-62692914D02*
X152614286Y-62883390D01*
X152614286Y-62883390D02*
X152614286Y-63264342D01*
X152614286Y-63264342D02*
X152661905Y-63359580D01*
X152661905Y-63359580D02*
X152709524Y-63407200D01*
X152709524Y-63407200D02*
X152804762Y-63454819D01*
X152804762Y-63454819D02*
X152995238Y-63454819D01*
X152995238Y-63454819D02*
X153090476Y-63407200D01*
X153090476Y-63407200D02*
X153138095Y-63359580D01*
X153138095Y-63359580D02*
X153185714Y-63264342D01*
X153185714Y-63264342D02*
X153185714Y-63026247D01*
X153185714Y-63026247D02*
X153138095Y-62931009D01*
X153138095Y-62931009D02*
X153090476Y-62883390D01*
X153090476Y-62883390D02*
X152995238Y-62835771D01*
X152995238Y-62835771D02*
X152804762Y-62835771D01*
X152804762Y-62835771D02*
X152709524Y-62883390D01*
X152709524Y-62883390D02*
X152661905Y-62931009D01*
X152661905Y-62931009D02*
X152614286Y-63026247D01*
X157854819Y-72361904D02*
X158664342Y-72361904D01*
X158664342Y-72361904D02*
X158759580Y-72314285D01*
X158759580Y-72314285D02*
X158807200Y-72266666D01*
X158807200Y-72266666D02*
X158854819Y-72171428D01*
X158854819Y-72171428D02*
X158854819Y-71980952D01*
X158854819Y-71980952D02*
X158807200Y-71885714D01*
X158807200Y-71885714D02*
X158759580Y-71838095D01*
X158759580Y-71838095D02*
X158664342Y-71790476D01*
X158664342Y-71790476D02*
X157854819Y-71790476D01*
X157950057Y-71361904D02*
X157902438Y-71314285D01*
X157902438Y-71314285D02*
X157854819Y-71219047D01*
X157854819Y-71219047D02*
X157854819Y-70980952D01*
X157854819Y-70980952D02*
X157902438Y-70885714D01*
X157902438Y-70885714D02*
X157950057Y-70838095D01*
X157950057Y-70838095D02*
X158045295Y-70790476D01*
X158045295Y-70790476D02*
X158140533Y-70790476D01*
X158140533Y-70790476D02*
X158283390Y-70838095D01*
X158283390Y-70838095D02*
X158854819Y-71409523D01*
X158854819Y-71409523D02*
X158854819Y-70790476D01*
X169466666Y-66054819D02*
X169466666Y-66769104D01*
X169466666Y-66769104D02*
X169419047Y-66911961D01*
X169419047Y-66911961D02*
X169323809Y-67007200D01*
X169323809Y-67007200D02*
X169180952Y-67054819D01*
X169180952Y-67054819D02*
X169085714Y-67054819D01*
X170371428Y-66388152D02*
X170371428Y-67054819D01*
X170133333Y-66007200D02*
X169895238Y-66721485D01*
X169895238Y-66721485D02*
X170514285Y-66721485D01*
X159803333Y-85304819D02*
X159470000Y-84828628D01*
X159231905Y-85304819D02*
X159231905Y-84304819D01*
X159231905Y-84304819D02*
X159612857Y-84304819D01*
X159612857Y-84304819D02*
X159708095Y-84352438D01*
X159708095Y-84352438D02*
X159755714Y-84400057D01*
X159755714Y-84400057D02*
X159803333Y-84495295D01*
X159803333Y-84495295D02*
X159803333Y-84638152D01*
X159803333Y-84638152D02*
X159755714Y-84733390D01*
X159755714Y-84733390D02*
X159708095Y-84781009D01*
X159708095Y-84781009D02*
X159612857Y-84828628D01*
X159612857Y-84828628D02*
X159231905Y-84828628D01*
X160755714Y-85304819D02*
X160184286Y-85304819D01*
X160470000Y-85304819D02*
X160470000Y-84304819D01*
X160470000Y-84304819D02*
X160374762Y-84447676D01*
X160374762Y-84447676D02*
X160279524Y-84542914D01*
X160279524Y-84542914D02*
X160184286Y-84590533D01*
X157833333Y-94159580D02*
X157785714Y-94207200D01*
X157785714Y-94207200D02*
X157642857Y-94254819D01*
X157642857Y-94254819D02*
X157547619Y-94254819D01*
X157547619Y-94254819D02*
X157404762Y-94207200D01*
X157404762Y-94207200D02*
X157309524Y-94111961D01*
X157309524Y-94111961D02*
X157261905Y-94016723D01*
X157261905Y-94016723D02*
X157214286Y-93826247D01*
X157214286Y-93826247D02*
X157214286Y-93683390D01*
X157214286Y-93683390D02*
X157261905Y-93492914D01*
X157261905Y-93492914D02*
X157309524Y-93397676D01*
X157309524Y-93397676D02*
X157404762Y-93302438D01*
X157404762Y-93302438D02*
X157547619Y-93254819D01*
X157547619Y-93254819D02*
X157642857Y-93254819D01*
X157642857Y-93254819D02*
X157785714Y-93302438D01*
X157785714Y-93302438D02*
X157833333Y-93350057D01*
X158690476Y-93588152D02*
X158690476Y-94254819D01*
X158452381Y-93207200D02*
X158214286Y-93921485D01*
X158214286Y-93921485D02*
X158833333Y-93921485D01*
X148633333Y-62854819D02*
X148300000Y-62378628D01*
X148061905Y-62854819D02*
X148061905Y-61854819D01*
X148061905Y-61854819D02*
X148442857Y-61854819D01*
X148442857Y-61854819D02*
X148538095Y-61902438D01*
X148538095Y-61902438D02*
X148585714Y-61950057D01*
X148585714Y-61950057D02*
X148633333Y-62045295D01*
X148633333Y-62045295D02*
X148633333Y-62188152D01*
X148633333Y-62188152D02*
X148585714Y-62283390D01*
X148585714Y-62283390D02*
X148538095Y-62331009D01*
X148538095Y-62331009D02*
X148442857Y-62378628D01*
X148442857Y-62378628D02*
X148061905Y-62378628D01*
X149014286Y-61950057D02*
X149061905Y-61902438D01*
X149061905Y-61902438D02*
X149157143Y-61854819D01*
X149157143Y-61854819D02*
X149395238Y-61854819D01*
X149395238Y-61854819D02*
X149490476Y-61902438D01*
X149490476Y-61902438D02*
X149538095Y-61950057D01*
X149538095Y-61950057D02*
X149585714Y-62045295D01*
X149585714Y-62045295D02*
X149585714Y-62140533D01*
X149585714Y-62140533D02*
X149538095Y-62283390D01*
X149538095Y-62283390D02*
X148966667Y-62854819D01*
X148966667Y-62854819D02*
X149585714Y-62854819D01*
X161838095Y-84054819D02*
X161838095Y-84864342D01*
X161838095Y-84864342D02*
X161885714Y-84959580D01*
X161885714Y-84959580D02*
X161933333Y-85007200D01*
X161933333Y-85007200D02*
X162028571Y-85054819D01*
X162028571Y-85054819D02*
X162219047Y-85054819D01*
X162219047Y-85054819D02*
X162314285Y-85007200D01*
X162314285Y-85007200D02*
X162361904Y-84959580D01*
X162361904Y-84959580D02*
X162409523Y-84864342D01*
X162409523Y-84864342D02*
X162409523Y-84054819D01*
X163409523Y-85054819D02*
X162838095Y-85054819D01*
X163123809Y-85054819D02*
X163123809Y-84054819D01*
X163123809Y-84054819D02*
X163028571Y-84197676D01*
X163028571Y-84197676D02*
X162933333Y-84292914D01*
X162933333Y-84292914D02*
X162838095Y-84340533D01*
X154795833Y-91509580D02*
X154748214Y-91557200D01*
X154748214Y-91557200D02*
X154605357Y-91604819D01*
X154605357Y-91604819D02*
X154510119Y-91604819D01*
X154510119Y-91604819D02*
X154367262Y-91557200D01*
X154367262Y-91557200D02*
X154272024Y-91461961D01*
X154272024Y-91461961D02*
X154224405Y-91366723D01*
X154224405Y-91366723D02*
X154176786Y-91176247D01*
X154176786Y-91176247D02*
X154176786Y-91033390D01*
X154176786Y-91033390D02*
X154224405Y-90842914D01*
X154224405Y-90842914D02*
X154272024Y-90747676D01*
X154272024Y-90747676D02*
X154367262Y-90652438D01*
X154367262Y-90652438D02*
X154510119Y-90604819D01*
X154510119Y-90604819D02*
X154605357Y-90604819D01*
X154605357Y-90604819D02*
X154748214Y-90652438D01*
X154748214Y-90652438D02*
X154795833Y-90700057D01*
X155176786Y-90700057D02*
X155224405Y-90652438D01*
X155224405Y-90652438D02*
X155319643Y-90604819D01*
X155319643Y-90604819D02*
X155557738Y-90604819D01*
X155557738Y-90604819D02*
X155652976Y-90652438D01*
X155652976Y-90652438D02*
X155700595Y-90700057D01*
X155700595Y-90700057D02*
X155748214Y-90795295D01*
X155748214Y-90795295D02*
X155748214Y-90890533D01*
X155748214Y-90890533D02*
X155700595Y-91033390D01*
X155700595Y-91033390D02*
X155129167Y-91604819D01*
X155129167Y-91604819D02*
X155748214Y-91604819D01*
X173454819Y-90409523D02*
X172454819Y-90409523D01*
X172454819Y-90409523D02*
X173169104Y-90076190D01*
X173169104Y-90076190D02*
X172454819Y-89742857D01*
X172454819Y-89742857D02*
X173454819Y-89742857D01*
X172454819Y-89361904D02*
X172454819Y-88695238D01*
X172454819Y-88695238D02*
X173454819Y-89123809D01*
X152433333Y-64759580D02*
X152385714Y-64807200D01*
X152385714Y-64807200D02*
X152242857Y-64854819D01*
X152242857Y-64854819D02*
X152147619Y-64854819D01*
X152147619Y-64854819D02*
X152004762Y-64807200D01*
X152004762Y-64807200D02*
X151909524Y-64711961D01*
X151909524Y-64711961D02*
X151861905Y-64616723D01*
X151861905Y-64616723D02*
X151814286Y-64426247D01*
X151814286Y-64426247D02*
X151814286Y-64283390D01*
X151814286Y-64283390D02*
X151861905Y-64092914D01*
X151861905Y-64092914D02*
X151909524Y-63997676D01*
X151909524Y-63997676D02*
X152004762Y-63902438D01*
X152004762Y-63902438D02*
X152147619Y-63854819D01*
X152147619Y-63854819D02*
X152242857Y-63854819D01*
X152242857Y-63854819D02*
X152385714Y-63902438D01*
X152385714Y-63902438D02*
X152433333Y-63950057D01*
X153338095Y-63854819D02*
X152861905Y-63854819D01*
X152861905Y-63854819D02*
X152814286Y-64331009D01*
X152814286Y-64331009D02*
X152861905Y-64283390D01*
X152861905Y-64283390D02*
X152957143Y-64235771D01*
X152957143Y-64235771D02*
X153195238Y-64235771D01*
X153195238Y-64235771D02*
X153290476Y-64283390D01*
X153290476Y-64283390D02*
X153338095Y-64331009D01*
X153338095Y-64331009D02*
X153385714Y-64426247D01*
X153385714Y-64426247D02*
X153385714Y-64664342D01*
X153385714Y-64664342D02*
X153338095Y-64759580D01*
X153338095Y-64759580D02*
X153290476Y-64807200D01*
X153290476Y-64807200D02*
X153195238Y-64854819D01*
X153195238Y-64854819D02*
X152957143Y-64854819D01*
X152957143Y-64854819D02*
X152861905Y-64807200D01*
X152861905Y-64807200D02*
X152814286Y-64759580D01*
X163159580Y-72566666D02*
X163207200Y-72614285D01*
X163207200Y-72614285D02*
X163254819Y-72757142D01*
X163254819Y-72757142D02*
X163254819Y-72852380D01*
X163254819Y-72852380D02*
X163207200Y-72995237D01*
X163207200Y-72995237D02*
X163111961Y-73090475D01*
X163111961Y-73090475D02*
X163016723Y-73138094D01*
X163016723Y-73138094D02*
X162826247Y-73185713D01*
X162826247Y-73185713D02*
X162683390Y-73185713D01*
X162683390Y-73185713D02*
X162492914Y-73138094D01*
X162492914Y-73138094D02*
X162397676Y-73090475D01*
X162397676Y-73090475D02*
X162302438Y-72995237D01*
X162302438Y-72995237D02*
X162254819Y-72852380D01*
X162254819Y-72852380D02*
X162254819Y-72757142D01*
X162254819Y-72757142D02*
X162302438Y-72614285D01*
X162302438Y-72614285D02*
X162350057Y-72566666D01*
X163254819Y-71614285D02*
X163254819Y-72185713D01*
X163254819Y-71899999D02*
X162254819Y-71899999D01*
X162254819Y-71899999D02*
X162397676Y-71995237D01*
X162397676Y-71995237D02*
X162492914Y-72090475D01*
X162492914Y-72090475D02*
X162540533Y-72185713D01*
X160333332Y-88792800D02*
X160190475Y-88745180D01*
X160190475Y-88745180D02*
X159952380Y-88745180D01*
X159952380Y-88745180D02*
X159857142Y-88792800D01*
X159857142Y-88792800D02*
X159809523Y-88840419D01*
X159809523Y-88840419D02*
X159761904Y-88935657D01*
X159761904Y-88935657D02*
X159761904Y-89030895D01*
X159761904Y-89030895D02*
X159809523Y-89126133D01*
X159809523Y-89126133D02*
X159857142Y-89173752D01*
X159857142Y-89173752D02*
X159952380Y-89221371D01*
X159952380Y-89221371D02*
X160142856Y-89268990D01*
X160142856Y-89268990D02*
X160238094Y-89316609D01*
X160238094Y-89316609D02*
X160285713Y-89364228D01*
X160285713Y-89364228D02*
X160333332Y-89459466D01*
X160333332Y-89459466D02*
X160333332Y-89554704D01*
X160333332Y-89554704D02*
X160285713Y-89649942D01*
X160285713Y-89649942D02*
X160238094Y-89697561D01*
X160238094Y-89697561D02*
X160142856Y-89745180D01*
X160142856Y-89745180D02*
X159904761Y-89745180D01*
X159904761Y-89745180D02*
X159761904Y-89697561D01*
X159428570Y-89745180D02*
X159190475Y-88745180D01*
X159190475Y-88745180D02*
X158999999Y-89459466D01*
X158999999Y-89459466D02*
X158809523Y-88745180D01*
X158809523Y-88745180D02*
X158571428Y-89745180D01*
X157666666Y-88745180D02*
X158238094Y-88745180D01*
X157952380Y-88745180D02*
X157952380Y-89745180D01*
X157952380Y-89745180D02*
X158047618Y-89602323D01*
X158047618Y-89602323D02*
X158142856Y-89507085D01*
X158142856Y-89507085D02*
X158238094Y-89459466D01*
X162399580Y-68999166D02*
X162447200Y-69046785D01*
X162447200Y-69046785D02*
X162494819Y-69189642D01*
X162494819Y-69189642D02*
X162494819Y-69284880D01*
X162494819Y-69284880D02*
X162447200Y-69427737D01*
X162447200Y-69427737D02*
X162351961Y-69522975D01*
X162351961Y-69522975D02*
X162256723Y-69570594D01*
X162256723Y-69570594D02*
X162066247Y-69618213D01*
X162066247Y-69618213D02*
X161923390Y-69618213D01*
X161923390Y-69618213D02*
X161732914Y-69570594D01*
X161732914Y-69570594D02*
X161637676Y-69522975D01*
X161637676Y-69522975D02*
X161542438Y-69427737D01*
X161542438Y-69427737D02*
X161494819Y-69284880D01*
X161494819Y-69284880D02*
X161494819Y-69189642D01*
X161494819Y-69189642D02*
X161542438Y-69046785D01*
X161542438Y-69046785D02*
X161590057Y-68999166D01*
X161494819Y-68665832D02*
X161494819Y-68046785D01*
X161494819Y-68046785D02*
X161875771Y-68380118D01*
X161875771Y-68380118D02*
X161875771Y-68237261D01*
X161875771Y-68237261D02*
X161923390Y-68142023D01*
X161923390Y-68142023D02*
X161971009Y-68094404D01*
X161971009Y-68094404D02*
X162066247Y-68046785D01*
X162066247Y-68046785D02*
X162304342Y-68046785D01*
X162304342Y-68046785D02*
X162399580Y-68094404D01*
X162399580Y-68094404D02*
X162447200Y-68142023D01*
X162447200Y-68142023D02*
X162494819Y-68237261D01*
X162494819Y-68237261D02*
X162494819Y-68522975D01*
X162494819Y-68522975D02*
X162447200Y-68618213D01*
X162447200Y-68618213D02*
X162399580Y-68665832D01*
X144609819Y-67733333D02*
X145324104Y-67733333D01*
X145324104Y-67733333D02*
X145466961Y-67780952D01*
X145466961Y-67780952D02*
X145562200Y-67876190D01*
X145562200Y-67876190D02*
X145609819Y-68019047D01*
X145609819Y-68019047D02*
X145609819Y-68114285D01*
X144705057Y-67304761D02*
X144657438Y-67257142D01*
X144657438Y-67257142D02*
X144609819Y-67161904D01*
X144609819Y-67161904D02*
X144609819Y-66923809D01*
X144609819Y-66923809D02*
X144657438Y-66828571D01*
X144657438Y-66828571D02*
X144705057Y-66780952D01*
X144705057Y-66780952D02*
X144800295Y-66733333D01*
X144800295Y-66733333D02*
X144895533Y-66733333D01*
X144895533Y-66733333D02*
X145038390Y-66780952D01*
X145038390Y-66780952D02*
X145609819Y-67352380D01*
X145609819Y-67352380D02*
X145609819Y-66733333D01*
X145233333Y-66454819D02*
X144900000Y-65978628D01*
X144661905Y-66454819D02*
X144661905Y-65454819D01*
X144661905Y-65454819D02*
X145042857Y-65454819D01*
X145042857Y-65454819D02*
X145138095Y-65502438D01*
X145138095Y-65502438D02*
X145185714Y-65550057D01*
X145185714Y-65550057D02*
X145233333Y-65645295D01*
X145233333Y-65645295D02*
X145233333Y-65788152D01*
X145233333Y-65788152D02*
X145185714Y-65883390D01*
X145185714Y-65883390D02*
X145138095Y-65931009D01*
X145138095Y-65931009D02*
X145042857Y-65978628D01*
X145042857Y-65978628D02*
X144661905Y-65978628D01*
X145566667Y-65454819D02*
X146185714Y-65454819D01*
X146185714Y-65454819D02*
X145852381Y-65835771D01*
X145852381Y-65835771D02*
X145995238Y-65835771D01*
X145995238Y-65835771D02*
X146090476Y-65883390D01*
X146090476Y-65883390D02*
X146138095Y-65931009D01*
X146138095Y-65931009D02*
X146185714Y-66026247D01*
X146185714Y-66026247D02*
X146185714Y-66264342D01*
X146185714Y-66264342D02*
X146138095Y-66359580D01*
X146138095Y-66359580D02*
X146090476Y-66407200D01*
X146090476Y-66407200D02*
X145995238Y-66454819D01*
X145995238Y-66454819D02*
X145709524Y-66454819D01*
X145709524Y-66454819D02*
X145614286Y-66407200D01*
X145614286Y-66407200D02*
X145566667Y-66359580D01*
X157576667Y-64807200D02*
X157719524Y-64854819D01*
X157719524Y-64854819D02*
X157957619Y-64854819D01*
X157957619Y-64854819D02*
X158052857Y-64807200D01*
X158052857Y-64807200D02*
X158100476Y-64759580D01*
X158100476Y-64759580D02*
X158148095Y-64664342D01*
X158148095Y-64664342D02*
X158148095Y-64569104D01*
X158148095Y-64569104D02*
X158100476Y-64473866D01*
X158100476Y-64473866D02*
X158052857Y-64426247D01*
X158052857Y-64426247D02*
X157957619Y-64378628D01*
X157957619Y-64378628D02*
X157767143Y-64331009D01*
X157767143Y-64331009D02*
X157671905Y-64283390D01*
X157671905Y-64283390D02*
X157624286Y-64235771D01*
X157624286Y-64235771D02*
X157576667Y-64140533D01*
X157576667Y-64140533D02*
X157576667Y-64045295D01*
X157576667Y-64045295D02*
X157624286Y-63950057D01*
X157624286Y-63950057D02*
X157671905Y-63902438D01*
X157671905Y-63902438D02*
X157767143Y-63854819D01*
X157767143Y-63854819D02*
X158005238Y-63854819D01*
X158005238Y-63854819D02*
X158148095Y-63902438D01*
X158481429Y-63854819D02*
X158719524Y-64854819D01*
X158719524Y-64854819D02*
X158910000Y-64140533D01*
X158910000Y-64140533D02*
X159100476Y-64854819D01*
X159100476Y-64854819D02*
X159338572Y-63854819D01*
X159671905Y-63950057D02*
X159719524Y-63902438D01*
X159719524Y-63902438D02*
X159814762Y-63854819D01*
X159814762Y-63854819D02*
X160052857Y-63854819D01*
X160052857Y-63854819D02*
X160148095Y-63902438D01*
X160148095Y-63902438D02*
X160195714Y-63950057D01*
X160195714Y-63950057D02*
X160243333Y-64045295D01*
X160243333Y-64045295D02*
X160243333Y-64140533D01*
X160243333Y-64140533D02*
X160195714Y-64283390D01*
X160195714Y-64283390D02*
X159624286Y-64854819D01*
X159624286Y-64854819D02*
X160243333Y-64854819D01*
X160033333Y-93759580D02*
X159985714Y-93807200D01*
X159985714Y-93807200D02*
X159842857Y-93854819D01*
X159842857Y-93854819D02*
X159747619Y-93854819D01*
X159747619Y-93854819D02*
X159604762Y-93807200D01*
X159604762Y-93807200D02*
X159509524Y-93711961D01*
X159509524Y-93711961D02*
X159461905Y-93616723D01*
X159461905Y-93616723D02*
X159414286Y-93426247D01*
X159414286Y-93426247D02*
X159414286Y-93283390D01*
X159414286Y-93283390D02*
X159461905Y-93092914D01*
X159461905Y-93092914D02*
X159509524Y-92997676D01*
X159509524Y-92997676D02*
X159604762Y-92902438D01*
X159604762Y-92902438D02*
X159747619Y-92854819D01*
X159747619Y-92854819D02*
X159842857Y-92854819D01*
X159842857Y-92854819D02*
X159985714Y-92902438D01*
X159985714Y-92902438D02*
X160033333Y-92950057D01*
X160366667Y-92854819D02*
X161033333Y-92854819D01*
X161033333Y-92854819D02*
X160604762Y-93854819D01*
D12*
%TO.C,M10*%
X164545000Y-79580000D02*
X164545000Y-78250000D01*
X165875000Y-79580000D02*
X164545000Y-79580000D01*
X167145000Y-76920000D02*
X172285000Y-76920000D01*
X167145000Y-79580000D02*
X167145000Y-76920000D01*
X167145000Y-79580000D02*
X172285000Y-79580000D01*
X172285000Y-79580000D02*
X172285000Y-76920000D01*
%TO.C,J1*%
X161890000Y-93390000D02*
X161890000Y-96210000D01*
X161890000Y-93390000D02*
X163590000Y-92090000D01*
X161890000Y-96210000D02*
X163590000Y-97510000D01*
X163590000Y-92090000D02*
X172310000Y-92090000D01*
X163590000Y-97510000D02*
X172310000Y-97510000D01*
X172310000Y-92090000D02*
X172310000Y-97510000D01*
%TO.C,M2*%
X146190000Y-72870000D02*
X146190000Y-75530000D01*
X151330000Y-72870000D02*
X146190000Y-72870000D01*
X151330000Y-72870000D02*
X151330000Y-75530000D01*
X151330000Y-75530000D02*
X146190000Y-75530000D01*
X152600000Y-72870000D02*
X153930000Y-72870000D01*
X153930000Y-72870000D02*
X153930000Y-74200000D01*
%TO.C,C6*%
X150004165Y-62970000D02*
X150235835Y-62970000D01*
X150004165Y-63690000D02*
X150235835Y-63690000D01*
%TO.C,M11*%
X164545000Y-75730000D02*
X164545000Y-74400000D01*
X165875000Y-75730000D02*
X164545000Y-75730000D01*
X167145000Y-73070000D02*
X172285000Y-73070000D01*
X167145000Y-75730000D02*
X167145000Y-73070000D01*
X167145000Y-75730000D02*
X172285000Y-75730000D01*
X172285000Y-75730000D02*
X172285000Y-73070000D01*
%TO.C,M6*%
X146190000Y-88070000D02*
X146190000Y-90730000D01*
X151330000Y-88070000D02*
X146190000Y-88070000D01*
X151330000Y-88070000D02*
X151330000Y-90730000D01*
X151330000Y-90730000D02*
X146190000Y-90730000D01*
X152600000Y-88070000D02*
X153930000Y-88070000D01*
X153930000Y-88070000D02*
X153930000Y-89400000D01*
D13*
%TO.C,U2*%
X155147500Y-69847500D02*
X161652500Y-69847500D01*
X155147500Y-73352500D02*
X155147500Y-69847500D01*
X161652500Y-69847500D02*
X161652500Y-73352500D01*
X161652500Y-73352500D02*
X155147500Y-73352500D01*
D14*
X156210000Y-76600000D02*
G75*
G02*
X156010000Y-76600000I-100000J0D01*
G01*
X156010000Y-76600000D02*
G75*
G02*
X156210000Y-76600000I100000J0D01*
G01*
D12*
%TO.C,M8*%
X164545000Y-87130000D02*
X164545000Y-85800000D01*
X165875000Y-87130000D02*
X164545000Y-87130000D01*
X167145000Y-84470000D02*
X172285000Y-84470000D01*
X167145000Y-87130000D02*
X167145000Y-84470000D01*
X167145000Y-87130000D02*
X172285000Y-87130000D01*
X172285000Y-87130000D02*
X172285000Y-84470000D01*
%TO.C,J4*%
X164050000Y-61925000D02*
X164050000Y-63175000D01*
X164340000Y-62215000D02*
X164340000Y-68185000D01*
X164340000Y-68185000D02*
X171960000Y-68185000D01*
X164350000Y-62225000D02*
X164350000Y-62975000D01*
X164350000Y-62975000D02*
X166150000Y-62975000D01*
X164350000Y-64475000D02*
X165100000Y-64475000D01*
X165100000Y-64475000D02*
X165100000Y-67425000D01*
X165100000Y-67425000D02*
X168150000Y-67425000D01*
X165300000Y-61925000D02*
X164050000Y-61925000D01*
X166150000Y-62225000D02*
X164350000Y-62225000D01*
X166150000Y-62975000D02*
X166150000Y-62225000D01*
X167650000Y-62225000D02*
X167650000Y-62975000D01*
X167650000Y-62975000D02*
X168650000Y-62975000D01*
X168650000Y-62225000D02*
X167650000Y-62225000D01*
X168650000Y-62975000D02*
X168650000Y-62225000D01*
X170150000Y-62225000D02*
X170150000Y-62975000D01*
X170150000Y-62975000D02*
X171950000Y-62975000D01*
X171200000Y-64475000D02*
X171200000Y-67425000D01*
X171200000Y-67425000D02*
X168150000Y-67425000D01*
X171950000Y-62225000D02*
X170150000Y-62225000D01*
X171950000Y-62975000D02*
X171950000Y-62225000D01*
X171950000Y-64475000D02*
X171200000Y-64475000D01*
X171960000Y-62215000D02*
X164340000Y-62215000D01*
X171960000Y-68185000D02*
X171960000Y-62215000D01*
%TO.C,M5*%
X146190000Y-84270000D02*
X146190000Y-86930000D01*
X151330000Y-84270000D02*
X146190000Y-84270000D01*
X151330000Y-84270000D02*
X151330000Y-86930000D01*
X151330000Y-86930000D02*
X146190000Y-86930000D01*
X152600000Y-84270000D02*
X153930000Y-84270000D01*
X153930000Y-84270000D02*
X153930000Y-85600000D01*
%TO.C,M9*%
X164590000Y-83330000D02*
X164590000Y-82000000D01*
X165920000Y-83330000D02*
X164590000Y-83330000D01*
X167190000Y-80670000D02*
X172330000Y-80670000D01*
X167190000Y-83330000D02*
X167190000Y-80670000D01*
X167190000Y-83330000D02*
X172330000Y-83330000D01*
X172330000Y-83330000D02*
X172330000Y-80670000D01*
%TO.C,R1*%
X159732742Y-85757500D02*
X160207258Y-85757500D01*
X159732742Y-86802500D02*
X160207258Y-86802500D01*
%TO.C,M3*%
X146190000Y-76620000D02*
X146190000Y-79280000D01*
X151330000Y-76620000D02*
X146190000Y-76620000D01*
X151330000Y-76620000D02*
X151330000Y-79280000D01*
X151330000Y-79280000D02*
X146190000Y-79280000D01*
X152600000Y-76620000D02*
X153930000Y-76620000D01*
X153930000Y-76620000D02*
X153930000Y-77950000D01*
%TO.C,C4*%
X155916665Y-93040000D02*
X156148335Y-93040000D01*
X155916665Y-93760000D02*
X156148335Y-93760000D01*
%TO.C,R2*%
X146292742Y-62297500D02*
X146767258Y-62297500D01*
X146292742Y-63342500D02*
X146767258Y-63342500D01*
D14*
%TO.C,U1*%
X155412500Y-77200000D02*
G75*
G02*
X155212500Y-77200000I-100000J0D01*
G01*
X155212500Y-77200000D02*
G75*
G02*
X155412500Y-77200000I100000J0D01*
G01*
D13*
X163012500Y-83500000D02*
X162757500Y-83500000D01*
X163012500Y-83245000D02*
X163012500Y-83500000D01*
X163012500Y-76755000D02*
X163012500Y-76500000D01*
X163012500Y-76500000D02*
X162757500Y-76500000D01*
X156012500Y-83500000D02*
X156267500Y-83500000D01*
X156012500Y-83245000D02*
X156012500Y-83500000D01*
X156012500Y-76755000D02*
X156012500Y-76500000D01*
X156012500Y-76500000D02*
X156267500Y-76500000D01*
D12*
%TO.C,C2*%
X156014165Y-91790000D02*
X156245835Y-91790000D01*
X156014165Y-92510000D02*
X156245835Y-92510000D01*
%TO.C,M7*%
X164545000Y-90930000D02*
X164545000Y-89600000D01*
X165875000Y-90930000D02*
X164545000Y-90930000D01*
X167145000Y-88270000D02*
X172285000Y-88270000D01*
X167145000Y-90930000D02*
X167145000Y-88270000D01*
X167145000Y-90930000D02*
X172285000Y-90930000D01*
X172285000Y-90930000D02*
X172285000Y-88270000D01*
%TO.C,M4*%
X146190000Y-80470000D02*
X146190000Y-83130000D01*
X151330000Y-80470000D02*
X146190000Y-80470000D01*
X151330000Y-80470000D02*
X151330000Y-83130000D01*
X151330000Y-83130000D02*
X146190000Y-83130000D01*
X152600000Y-80470000D02*
X153930000Y-80470000D01*
X153930000Y-80470000D02*
X153930000Y-81800000D01*
D15*
%TO.C,R5*%
G36*
X156116059Y-95510689D02*
G01*
X156122139Y-95511042D01*
X156126806Y-95511815D01*
X156131011Y-95513160D01*
X156135241Y-95515012D01*
X156147251Y-95522367D01*
X156157101Y-95531902D01*
X156164635Y-95543160D01*
X156169700Y-95555686D01*
X156172142Y-95569022D01*
X156171804Y-95582711D01*
X156168533Y-95596298D01*
X156165300Y-95603814D01*
X156159468Y-95612715D01*
X156151522Y-95621237D01*
X156142446Y-95628488D01*
X156133222Y-95633572D01*
X156132111Y-95634009D01*
X156122389Y-95636681D01*
X156111506Y-95638138D01*
X156100949Y-95638249D01*
X156094211Y-95637384D01*
X156081034Y-95632931D01*
X156069050Y-95625667D01*
X156058823Y-95616034D01*
X156050919Y-95604474D01*
X156050103Y-95602876D01*
X156047692Y-95597770D01*
X156046123Y-95593567D01*
X156045218Y-95589293D01*
X156044794Y-95583977D01*
X156044673Y-95576646D01*
X156044669Y-95573580D01*
X156044738Y-95565277D01*
X156045057Y-95559337D01*
X156045789Y-95554813D01*
X156047097Y-95550755D01*
X156049146Y-95546216D01*
X156049538Y-95545414D01*
X156057103Y-95533597D01*
X156067118Y-95523481D01*
X156078868Y-95515778D01*
X156079477Y-95515474D01*
X156084179Y-95513295D01*
X156088252Y-95511883D01*
X156092648Y-95511073D01*
X156098315Y-95510703D01*
X156106204Y-95510606D01*
X156107618Y-95510605D01*
X156116059Y-95510689D01*
G37*
G36*
X156654608Y-94096880D02*
G01*
X156714275Y-94101479D01*
X156750931Y-94105924D01*
X156810543Y-94115823D01*
X156869240Y-94128872D01*
X156926915Y-94145008D01*
X156983459Y-94164166D01*
X157038765Y-94186284D01*
X157092727Y-94211298D01*
X157145236Y-94239145D01*
X157196184Y-94269761D01*
X157245466Y-94303084D01*
X157292972Y-94339049D01*
X157338597Y-94377594D01*
X157382231Y-94418655D01*
X157423768Y-94462168D01*
X157463101Y-94508071D01*
X157489051Y-94541306D01*
X157524150Y-94590721D01*
X157556254Y-94641533D01*
X157585367Y-94693750D01*
X157611492Y-94747385D01*
X157634634Y-94802446D01*
X157654797Y-94858945D01*
X157671984Y-94916891D01*
X157686200Y-94976296D01*
X157697449Y-95037169D01*
X157705735Y-95099521D01*
X157706543Y-95107233D01*
X157707497Y-95118974D01*
X157708281Y-95133440D01*
X157708894Y-95150098D01*
X157709338Y-95168411D01*
X157709613Y-95187847D01*
X157709717Y-95207871D01*
X157709653Y-95227948D01*
X157709419Y-95247544D01*
X157709016Y-95266126D01*
X157708443Y-95283158D01*
X157707702Y-95298106D01*
X157706792Y-95310436D01*
X157706494Y-95313474D01*
X157699131Y-95371372D01*
X157689422Y-95427230D01*
X157677258Y-95481454D01*
X157662529Y-95534451D01*
X157645125Y-95586625D01*
X157624936Y-95638382D01*
X157608242Y-95676427D01*
X157604449Y-95684451D01*
X157601045Y-95691210D01*
X157598293Y-95696217D01*
X157596455Y-95698984D01*
X157595886Y-95699360D01*
X157594557Y-95698000D01*
X157591218Y-95694381D01*
X157586062Y-95688720D01*
X157579285Y-95681233D01*
X157571081Y-95672135D01*
X157561643Y-95661641D01*
X157551168Y-95649967D01*
X157539847Y-95637328D01*
X157527877Y-95623941D01*
X157527227Y-95623213D01*
X157511805Y-95605984D01*
X157498350Y-95591045D01*
X157486649Y-95578189D01*
X157476492Y-95567212D01*
X157467667Y-95557907D01*
X157459962Y-95550067D01*
X157453166Y-95543486D01*
X157447067Y-95537958D01*
X157441455Y-95533277D01*
X157436116Y-95529236D01*
X157430841Y-95525629D01*
X157425416Y-95522250D01*
X157421110Y-95519734D01*
X157398746Y-95508815D01*
X157375267Y-95500901D01*
X157351023Y-95496023D01*
X157326363Y-95494213D01*
X157301634Y-95495504D01*
X157277185Y-95499927D01*
X157260127Y-95505008D01*
X157236770Y-95514873D01*
X157215188Y-95527440D01*
X157195556Y-95542508D01*
X157178047Y-95559879D01*
X157162833Y-95579353D01*
X157150089Y-95600733D01*
X157139987Y-95623819D01*
X157132701Y-95648412D01*
X157131857Y-95652241D01*
X157130122Y-95663170D01*
X157128991Y-95675964D01*
X157128488Y-95689536D01*
X157128634Y-95702802D01*
X157129452Y-95714677D01*
X157130436Y-95721579D01*
X157135346Y-95741965D01*
X157142257Y-95762094D01*
X157150807Y-95781102D01*
X157160635Y-95798123D01*
X157165184Y-95804644D01*
X157167513Y-95807532D01*
X157171873Y-95812680D01*
X157178083Y-95819883D01*
X157185960Y-95828934D01*
X157195326Y-95839627D01*
X157205997Y-95851756D01*
X157217792Y-95865115D01*
X157230532Y-95879497D01*
X157244034Y-95894697D01*
X157258117Y-95910508D01*
X157265582Y-95918872D01*
X157357990Y-96022333D01*
X157343245Y-96036024D01*
X157337406Y-96041320D01*
X157332350Y-96045671D01*
X157328612Y-96048634D01*
X157326727Y-96049763D01*
X157326712Y-96049764D01*
X157324781Y-96048567D01*
X157320731Y-96044990D01*
X157314650Y-96039125D01*
X157306625Y-96031063D01*
X157296744Y-96020896D01*
X157285094Y-96008715D01*
X157271763Y-95994613D01*
X157256840Y-95978680D01*
X157240410Y-95961008D01*
X157222562Y-95941690D01*
X157203383Y-95920816D01*
X157201670Y-95918946D01*
X157185774Y-95901584D01*
X157171959Y-95886467D01*
X157160064Y-95873406D01*
X157149926Y-95862208D01*
X157141381Y-95852685D01*
X157134266Y-95844645D01*
X157128420Y-95837897D01*
X157123678Y-95832251D01*
X157119878Y-95827516D01*
X157116857Y-95823502D01*
X157114453Y-95820017D01*
X157112502Y-95816871D01*
X157110841Y-95813874D01*
X157109308Y-95810835D01*
X157109301Y-95810820D01*
X157107042Y-95806029D01*
X157105093Y-95801413D01*
X157103374Y-95796595D01*
X157101807Y-95791200D01*
X157100313Y-95784851D01*
X157098814Y-95777172D01*
X157097230Y-95767788D01*
X157095483Y-95756322D01*
X157093494Y-95742398D01*
X157091184Y-95725641D01*
X157090663Y-95721816D01*
X157088899Y-95709031D01*
X157087232Y-95697306D01*
X157085724Y-95687042D01*
X157084435Y-95678641D01*
X157083427Y-95672507D01*
X157082760Y-95669040D01*
X157082566Y-95668421D01*
X157080801Y-95668427D01*
X157076008Y-95668827D01*
X157068445Y-95669591D01*
X157058370Y-95670688D01*
X157046041Y-95672089D01*
X157031715Y-95673765D01*
X157015652Y-95675685D01*
X156998108Y-95677820D01*
X156979342Y-95680139D01*
X156959611Y-95682614D01*
X156959470Y-95682632D01*
X156837375Y-95698057D01*
X156836442Y-95692957D01*
X156835940Y-95690172D01*
X156834928Y-95684534D01*
X156833479Y-95676452D01*
X156831668Y-95666333D01*
X156829566Y-95654587D01*
X156827247Y-95641621D01*
X156825068Y-95629430D01*
X156822643Y-95615951D01*
X156820375Y-95603527D01*
X156818336Y-95592532D01*
X156816596Y-95583335D01*
X156815224Y-95576308D01*
X156814292Y-95571823D01*
X156813877Y-95570254D01*
X156811750Y-95570054D01*
X156807157Y-95570661D01*
X156800796Y-95571903D01*
X156793368Y-95573607D01*
X156785570Y-95575599D01*
X156778103Y-95577708D01*
X156771663Y-95579761D01*
X156766952Y-95581586D01*
X156765893Y-95582109D01*
X156757571Y-95587829D01*
X156749462Y-95595484D01*
X156742437Y-95604102D01*
X156737367Y-95612711D01*
X156736422Y-95614973D01*
X156735316Y-95618286D01*
X156734430Y-95621889D01*
X156733785Y-95625966D01*
X156733403Y-95630704D01*
X156733305Y-95636289D01*
X156733514Y-95642905D01*
X156734050Y-95650738D01*
X156734936Y-95659975D01*
X156736192Y-95670801D01*
X156737841Y-95683401D01*
X156739904Y-95697962D01*
X156742403Y-95714668D01*
X156745359Y-95733705D01*
X156748793Y-95755260D01*
X156752728Y-95779517D01*
X156757185Y-95806663D01*
X156762186Y-95836883D01*
X156762322Y-95837704D01*
X156780041Y-95944481D01*
X156789797Y-95956148D01*
X156808699Y-95977887D01*
X156829873Y-96000704D01*
X156852717Y-96024024D01*
X156876632Y-96047270D01*
X156901015Y-96069869D01*
X156925267Y-96091246D01*
X156948787Y-96110825D01*
X156963230Y-96122187D01*
X156980666Y-96135027D01*
X156998920Y-96147501D01*
X157017498Y-96159324D01*
X157035905Y-96170210D01*
X157053646Y-96179872D01*
X157070227Y-96188025D01*
X157085154Y-96194384D01*
X157092856Y-96197136D01*
X157096803Y-96198905D01*
X157098942Y-96200802D01*
X157099068Y-96201265D01*
X157097572Y-96202968D01*
X157093307Y-96205692D01*
X157086604Y-96209296D01*
X157077795Y-96213635D01*
X157067211Y-96218566D01*
X157055186Y-96223947D01*
X157042050Y-96229634D01*
X157028135Y-96235484D01*
X157013774Y-96241355D01*
X156999298Y-96247102D01*
X156985039Y-96252583D01*
X156971329Y-96257655D01*
X156958499Y-96262175D01*
X156955270Y-96263269D01*
X156896909Y-96281143D01*
X156838010Y-96295787D01*
X156778412Y-96307233D01*
X156717957Y-96315512D01*
X156670019Y-96319798D01*
X156662803Y-96320163D01*
X156652846Y-96320474D01*
X156640720Y-96320730D01*
X156626999Y-96320928D01*
X156612253Y-96321066D01*
X156597055Y-96321141D01*
X156581978Y-96321153D01*
X156567593Y-96321097D01*
X156554473Y-96320973D01*
X156543190Y-96320777D01*
X156534316Y-96320508D01*
X156530868Y-96320340D01*
X156473631Y-96315400D01*
X156416147Y-96307362D01*
X156358899Y-96296329D01*
X156302368Y-96282403D01*
X156247035Y-96265685D01*
X156207011Y-96251528D01*
X156150527Y-96228488D01*
X156095624Y-96202559D01*
X156042391Y-96173810D01*
X155990918Y-96142307D01*
X155941295Y-96108118D01*
X155893611Y-96071311D01*
X155847958Y-96031952D01*
X155804424Y-95990110D01*
X155795305Y-95980343D01*
X156070289Y-95980343D01*
X156070345Y-95980613D01*
X156072665Y-95979336D01*
X156077669Y-95976599D01*
X156085131Y-95972525D01*
X156094827Y-95967237D01*
X156106529Y-95960858D01*
X156120013Y-95953511D01*
X156135052Y-95945320D01*
X156151420Y-95936407D01*
X156168891Y-95926896D01*
X156187241Y-95916909D01*
X156198728Y-95910658D01*
X156217457Y-95900451D01*
X156235406Y-95890638D01*
X156252354Y-95881343D01*
X156268079Y-95872687D01*
X156282360Y-95864795D01*
X156294974Y-95857789D01*
X156305699Y-95851792D01*
X156314314Y-95846928D01*
X156320598Y-95843319D01*
X156324327Y-95841088D01*
X156325260Y-95840451D01*
X156329919Y-95834691D01*
X156333790Y-95826935D01*
X156336328Y-95818491D01*
X156337035Y-95812111D01*
X156336723Y-95809048D01*
X156335744Y-95804156D01*
X156334047Y-95797252D01*
X156331581Y-95788153D01*
X156328292Y-95776675D01*
X156324130Y-95762634D01*
X156319044Y-95745846D01*
X156312981Y-95726129D01*
X156311789Y-95722275D01*
X156306895Y-95706550D01*
X156302270Y-95691837D01*
X156298010Y-95678429D01*
X156294210Y-95666620D01*
X156290965Y-95656704D01*
X156288372Y-95648974D01*
X156286526Y-95643724D01*
X156285521Y-95641248D01*
X156285388Y-95641091D01*
X156283969Y-95642283D01*
X156280431Y-95645510D01*
X156275048Y-95650513D01*
X156268095Y-95657035D01*
X156259846Y-95664819D01*
X156250575Y-95673608D01*
X156240556Y-95683145D01*
X156240517Y-95683182D01*
X156196784Y-95724891D01*
X156213009Y-95772636D01*
X156229233Y-95820381D01*
X156146890Y-95902123D01*
X156133371Y-95915578D01*
X156120704Y-95928252D01*
X156109060Y-95939971D01*
X156098610Y-95950557D01*
X156089526Y-95959834D01*
X156081981Y-95967628D01*
X156076145Y-95973761D01*
X156072191Y-95978058D01*
X156070289Y-95980343D01*
X155795305Y-95980343D01*
X155763100Y-95945851D01*
X155724075Y-95899244D01*
X155705428Y-95875048D01*
X155672627Y-95828722D01*
X155642014Y-95780292D01*
X155613787Y-95730146D01*
X155588144Y-95678674D01*
X155565281Y-95626265D01*
X155545398Y-95573308D01*
X155544860Y-95571649D01*
X155771175Y-95571649D01*
X155771242Y-95575832D01*
X155771643Y-95581092D01*
X155772402Y-95587639D01*
X155773545Y-95595679D01*
X155775098Y-95605421D01*
X155777087Y-95617073D01*
X155779536Y-95630843D01*
X155782473Y-95646939D01*
X155785922Y-95665570D01*
X155789908Y-95686942D01*
X155794459Y-95711265D01*
X155796849Y-95724038D01*
X155802054Y-95751774D01*
X155806697Y-95776321D01*
X155810791Y-95797750D01*
X155814352Y-95816134D01*
X155817395Y-95831546D01*
X155819933Y-95844059D01*
X155821982Y-95853743D01*
X155823555Y-95860674D01*
X155824669Y-95864922D01*
X155825336Y-95866560D01*
X155825509Y-95866415D01*
X155825865Y-95864013D01*
X155826511Y-95858596D01*
X155827415Y-95850448D01*
X155828551Y-95839851D01*
X155829887Y-95827088D01*
X155831394Y-95812443D01*
X155833043Y-95796199D01*
X155834804Y-95778638D01*
X155836648Y-95760044D01*
X155837636Y-95749999D01*
X155839491Y-95731125D01*
X155841256Y-95713247D01*
X155842903Y-95696635D01*
X155844407Y-95681557D01*
X155845739Y-95668282D01*
X155846874Y-95657077D01*
X155847783Y-95648212D01*
X155848440Y-95641956D01*
X155848817Y-95638576D01*
X155848897Y-95638040D01*
X155850498Y-95637547D01*
X155854861Y-95636239D01*
X155861568Y-95634241D01*
X155863979Y-95633525D01*
X155967212Y-95633525D01*
X155972959Y-95637908D01*
X155977472Y-95640806D01*
X155984783Y-95644806D01*
X155994617Y-95649776D01*
X156006696Y-95655587D01*
X156020744Y-95662107D01*
X156036484Y-95669207D01*
X156053639Y-95676755D01*
X156071933Y-95684622D01*
X156072830Y-95685003D01*
X156090368Y-95692451D01*
X156105083Y-95698694D01*
X156117201Y-95703829D01*
X156126949Y-95707948D01*
X156134550Y-95711148D01*
X156140232Y-95713524D01*
X156144219Y-95715169D01*
X156146737Y-95716179D01*
X156148012Y-95716649D01*
X156148233Y-95716709D01*
X156149532Y-95715597D01*
X156152950Y-95712352D01*
X156158270Y-95707188D01*
X156165273Y-95700319D01*
X156173742Y-95691961D01*
X156183459Y-95682327D01*
X156194206Y-95671634D01*
X156205765Y-95660095D01*
X156211596Y-95654261D01*
X156225283Y-95640551D01*
X156236811Y-95628977D01*
X156246365Y-95619336D01*
X156254131Y-95611421D01*
X156260294Y-95605029D01*
X156265039Y-95599953D01*
X156268551Y-95595990D01*
X156271015Y-95592934D01*
X156272617Y-95590581D01*
X156273542Y-95588725D01*
X156273975Y-95587161D01*
X156274101Y-95585686D01*
X156274107Y-95585099D01*
X156273788Y-95581734D01*
X156272903Y-95575735D01*
X156271562Y-95567682D01*
X156269877Y-95558159D01*
X156267959Y-95547746D01*
X156265919Y-95537027D01*
X156263867Y-95526582D01*
X156261914Y-95516994D01*
X156260173Y-95508845D01*
X156258753Y-95502716D01*
X156257766Y-95499190D01*
X156257669Y-95498937D01*
X156256397Y-95497753D01*
X156253156Y-95495741D01*
X156247816Y-95492839D01*
X156240250Y-95488984D01*
X156230331Y-95484114D01*
X156217932Y-95478167D01*
X156202925Y-95471080D01*
X156185181Y-95462791D01*
X156164575Y-95453237D01*
X156158031Y-95450215D01*
X156059800Y-95404877D01*
X156019103Y-95425438D01*
X156006060Y-95432052D01*
X155995664Y-95437456D01*
X155987602Y-95441928D01*
X155981561Y-95445747D01*
X155977228Y-95449191D01*
X155974289Y-95452537D01*
X155972432Y-95456065D01*
X155971344Y-95460051D01*
X155970711Y-95464774D01*
X155970366Y-95468726D01*
X155970139Y-95472884D01*
X155969882Y-95479956D01*
X155969604Y-95489542D01*
X155969316Y-95501245D01*
X155969026Y-95514664D01*
X155968744Y-95529401D01*
X155968479Y-95545057D01*
X155968297Y-95557156D01*
X155967212Y-95633525D01*
X155863979Y-95633525D01*
X155870204Y-95631676D01*
X155880351Y-95628668D01*
X155891437Y-95625388D01*
X155933679Y-95612899D01*
X155934114Y-95552227D01*
X155934176Y-95538420D01*
X155934164Y-95525715D01*
X155934083Y-95514480D01*
X155933938Y-95505079D01*
X155933736Y-95497881D01*
X155933481Y-95493251D01*
X155933180Y-95491556D01*
X155933170Y-95491554D01*
X155930792Y-95492134D01*
X155925712Y-95493775D01*
X155918316Y-95496334D01*
X155908986Y-95499665D01*
X155898108Y-95503623D01*
X155886064Y-95508063D01*
X155873241Y-95512840D01*
X155860020Y-95517809D01*
X155846788Y-95522824D01*
X155833927Y-95527742D01*
X155821822Y-95532417D01*
X155810857Y-95536703D01*
X155801416Y-95540457D01*
X155793883Y-95543532D01*
X155788643Y-95545783D01*
X155786079Y-95547067D01*
X155786009Y-95547117D01*
X155781238Y-95551519D01*
X155776888Y-95556713D01*
X155776322Y-95557537D01*
X155774932Y-95559621D01*
X155773720Y-95561536D01*
X155772712Y-95563488D01*
X155771935Y-95565685D01*
X155771414Y-95568336D01*
X155771175Y-95571649D01*
X155544860Y-95571649D01*
X155533657Y-95537110D01*
X155517376Y-95477846D01*
X155504341Y-95418125D01*
X155498273Y-95380855D01*
X156111410Y-95380855D01*
X156113151Y-95381805D01*
X156117532Y-95383958D01*
X156124187Y-95387144D01*
X156132745Y-95391192D01*
X156142839Y-95395933D01*
X156154101Y-95401194D01*
X156166160Y-95406807D01*
X156178650Y-95412599D01*
X156191202Y-95418401D01*
X156203446Y-95424042D01*
X156215015Y-95429352D01*
X156225539Y-95434160D01*
X156234651Y-95438295D01*
X156241982Y-95441587D01*
X156247164Y-95443865D01*
X156249827Y-95444959D01*
X156250082Y-95445031D01*
X156251354Y-95443719D01*
X156254203Y-95439948D01*
X156258406Y-95434042D01*
X156263737Y-95426324D01*
X156269974Y-95417117D01*
X156276893Y-95406742D01*
X156281888Y-95399163D01*
X156289322Y-95387749D01*
X156296317Y-95376859D01*
X156302622Y-95366893D01*
X156307987Y-95358253D01*
X156312161Y-95351340D01*
X156314895Y-95346555D01*
X156315714Y-95344932D01*
X156318782Y-95334998D01*
X156320224Y-95323367D01*
X156319977Y-95311264D01*
X156318022Y-95300074D01*
X156312680Y-95286103D01*
X156304973Y-95274031D01*
X156295294Y-95263974D01*
X156284037Y-95256047D01*
X156271595Y-95250366D01*
X156258361Y-95247045D01*
X156244730Y-95246202D01*
X156231093Y-95247950D01*
X156217846Y-95252407D01*
X156205381Y-95259686D01*
X156198851Y-95265075D01*
X156196190Y-95267923D01*
X156192010Y-95272876D01*
X156186557Y-95279608D01*
X156180078Y-95287793D01*
X156172818Y-95297104D01*
X156165024Y-95307216D01*
X156156942Y-95317803D01*
X156148819Y-95328538D01*
X156140900Y-95339095D01*
X156133432Y-95349148D01*
X156126662Y-95358372D01*
X156120834Y-95366439D01*
X156116197Y-95373025D01*
X156112996Y-95377803D01*
X156111477Y-95380446D01*
X156111410Y-95380855D01*
X155498273Y-95380855D01*
X155494560Y-95358048D01*
X155490834Y-95323558D01*
X156037709Y-95323558D01*
X156039927Y-95338725D01*
X156044371Y-95351537D01*
X156051027Y-95361940D01*
X156054126Y-95365243D01*
X156059738Y-95370629D01*
X156113092Y-95302862D01*
X156123624Y-95289527D01*
X156133767Y-95276766D01*
X156143295Y-95264857D01*
X156151980Y-95254081D01*
X156159594Y-95244720D01*
X156165910Y-95237053D01*
X156170702Y-95231361D01*
X156173741Y-95227924D01*
X156174226Y-95227426D01*
X156188769Y-95215374D01*
X156205103Y-95205997D01*
X156222894Y-95199429D01*
X156241808Y-95195804D01*
X156255051Y-95195088D01*
X156271475Y-95196159D01*
X156286974Y-95199546D01*
X156302643Y-95205515D01*
X156307197Y-95207678D01*
X156315536Y-95212074D01*
X156322345Y-95216458D01*
X156328804Y-95221688D01*
X156336092Y-95228623D01*
X156336417Y-95228947D01*
X156343273Y-95236097D01*
X156348382Y-95242297D01*
X156352569Y-95248689D01*
X156356657Y-95256414D01*
X156357474Y-95258092D01*
X156364897Y-95277018D01*
X156369096Y-95296216D01*
X156370062Y-95315475D01*
X156367786Y-95334586D01*
X156362259Y-95353337D01*
X156361522Y-95355196D01*
X156359745Y-95358768D01*
X156356386Y-95364741D01*
X156351672Y-95372739D01*
X156345832Y-95382389D01*
X156339091Y-95393315D01*
X156331678Y-95405142D01*
X156323819Y-95417495D01*
X156323218Y-95418433D01*
X156315587Y-95430372D01*
X156308581Y-95441425D01*
X156302390Y-95451284D01*
X156297203Y-95459645D01*
X156293210Y-95466203D01*
X156290599Y-95470651D01*
X156289559Y-95472684D01*
X156289557Y-95472774D01*
X156291393Y-95473762D01*
X156295297Y-95475495D01*
X156298349Y-95476756D01*
X156307859Y-95479171D01*
X156318736Y-95479700D01*
X156329672Y-95478412D01*
X156339359Y-95475378D01*
X156341192Y-95474484D01*
X156345328Y-95472221D01*
X156348844Y-95470007D01*
X156352114Y-95467452D01*
X156355510Y-95464162D01*
X156359406Y-95459746D01*
X156364174Y-95453811D01*
X156370189Y-95445966D01*
X156377217Y-95436625D01*
X156379749Y-95433403D01*
X156384311Y-95427775D01*
X156390798Y-95419865D01*
X156399105Y-95409799D01*
X156409127Y-95397703D01*
X156420758Y-95383701D01*
X156433893Y-95367921D01*
X156448426Y-95350487D01*
X156464252Y-95331525D01*
X156481267Y-95311161D01*
X156499363Y-95289520D01*
X156518437Y-95266727D01*
X156538383Y-95242909D01*
X156559095Y-95218191D01*
X156580468Y-95192699D01*
X156602397Y-95166557D01*
X156624777Y-95139893D01*
X156647502Y-95112831D01*
X156670466Y-95085497D01*
X156689909Y-95062365D01*
X156734801Y-95062365D01*
X156738056Y-95083557D01*
X156738849Y-95088817D01*
X156740026Y-95096775D01*
X156741548Y-95107157D01*
X156743377Y-95119693D01*
X156745473Y-95134109D01*
X156747797Y-95150135D01*
X156750311Y-95167497D01*
X156752974Y-95185925D01*
X156755748Y-95205146D01*
X156758594Y-95224888D01*
X156761473Y-95244880D01*
X156764345Y-95264849D01*
X156767171Y-95284523D01*
X156769913Y-95303631D01*
X156772531Y-95321901D01*
X156774986Y-95339060D01*
X156777238Y-95354836D01*
X156779250Y-95368959D01*
X156780981Y-95381155D01*
X156782393Y-95391153D01*
X156783447Y-95398680D01*
X156784102Y-95403466D01*
X156784322Y-95405232D01*
X156785724Y-95406494D01*
X156789594Y-95408927D01*
X156795427Y-95412240D01*
X156802718Y-95416141D01*
X156807402Y-95418551D01*
X156816285Y-95423217D01*
X156823454Y-95427303D01*
X156828515Y-95430566D01*
X156831070Y-95432766D01*
X156831284Y-95433161D01*
X156831682Y-95435264D01*
X156832560Y-95440355D01*
X156833871Y-95448151D01*
X156835569Y-95458369D01*
X156837608Y-95470726D01*
X156839940Y-95484939D01*
X156842518Y-95500726D01*
X156845297Y-95517802D01*
X156848230Y-95535886D01*
X156849118Y-95541373D01*
X156852544Y-95562529D01*
X156855491Y-95580648D01*
X156858005Y-95595962D01*
X156860132Y-95608704D01*
X156861916Y-95619109D01*
X156863405Y-95627408D01*
X156864642Y-95633836D01*
X156865674Y-95638626D01*
X156866546Y-95642012D01*
X156867303Y-95644226D01*
X156867992Y-95645501D01*
X156868657Y-95646073D01*
X156869344Y-95646172D01*
X156869549Y-95646147D01*
X156871746Y-95645880D01*
X156876953Y-95645291D01*
X156884888Y-95644408D01*
X156895269Y-95643265D01*
X156907810Y-95641891D01*
X156922230Y-95640318D01*
X156938246Y-95638577D01*
X156955573Y-95636698D01*
X156973930Y-95634713D01*
X156981452Y-95633901D01*
X157000063Y-95631878D01*
X157017698Y-95629932D01*
X157034082Y-95628095D01*
X157048938Y-95626400D01*
X157061993Y-95624879D01*
X157072969Y-95623564D01*
X157081593Y-95622488D01*
X157087588Y-95621682D01*
X157090679Y-95621179D01*
X157091045Y-95621066D01*
X157092187Y-95619065D01*
X157094152Y-95614882D01*
X157096524Y-95609405D01*
X157096622Y-95609170D01*
X157110712Y-95579503D01*
X157127670Y-95551038D01*
X157146718Y-95524921D01*
X157151766Y-95518578D01*
X157155911Y-95513241D01*
X157158785Y-95509392D01*
X157160022Y-95507513D01*
X157160034Y-95507409D01*
X157158340Y-95506786D01*
X157154235Y-95505402D01*
X157148465Y-95503507D01*
X157145588Y-95502574D01*
X157132541Y-95497700D01*
X157118216Y-95491228D01*
X157103819Y-95483757D01*
X157090550Y-95475887D01*
X157086103Y-95472950D01*
X157078460Y-95467160D01*
X157069435Y-95459427D01*
X157059698Y-95450407D01*
X157049919Y-95440757D01*
X157040769Y-95431134D01*
X157032918Y-95422194D01*
X157028193Y-95416208D01*
X157018504Y-95401894D01*
X157009076Y-95385818D01*
X157000321Y-95368825D01*
X156992646Y-95351761D01*
X156986461Y-95335470D01*
X156982408Y-95321757D01*
X156981889Y-95318756D01*
X156981029Y-95312659D01*
X156979848Y-95303663D01*
X156978372Y-95291966D01*
X156976624Y-95277765D01*
X156974626Y-95261256D01*
X156972403Y-95242637D01*
X156969978Y-95222105D01*
X156967374Y-95199858D01*
X156964615Y-95176091D01*
X156961724Y-95151003D01*
X156958724Y-95124790D01*
X156955640Y-95097650D01*
X156953167Y-95075758D01*
X156950063Y-95048221D01*
X156947058Y-95021575D01*
X156944171Y-94996009D01*
X156941425Y-94971708D01*
X156938841Y-94948860D01*
X156936440Y-94927651D01*
X156934243Y-94908268D01*
X156932271Y-94890898D01*
X156930545Y-94875728D01*
X156929087Y-94862943D01*
X156927918Y-94852732D01*
X156927059Y-94845280D01*
X156926531Y-94840775D01*
X156926358Y-94839401D01*
X156925253Y-94840343D01*
X156922161Y-94843639D01*
X156917235Y-94849114D01*
X156910626Y-94856592D01*
X156902486Y-94865898D01*
X156892969Y-94876856D01*
X156882227Y-94889291D01*
X156870412Y-94903028D01*
X156857676Y-94917890D01*
X156844171Y-94933704D01*
X156830379Y-94949906D01*
X156734801Y-95062365D01*
X156689909Y-95062365D01*
X156693565Y-95058016D01*
X156716694Y-95030514D01*
X156739746Y-95003118D01*
X156762616Y-94975951D01*
X156785200Y-94949141D01*
X156807391Y-94922812D01*
X156829085Y-94897090D01*
X156850176Y-94872101D01*
X156870559Y-94847970D01*
X156890129Y-94824823D01*
X156908779Y-94802786D01*
X156911495Y-94799579D01*
X156918817Y-94790934D01*
X156916659Y-94769761D01*
X156915931Y-94760806D01*
X156915302Y-94749624D01*
X156914818Y-94737298D01*
X156914524Y-94724915D01*
X156914456Y-94717114D01*
X156914508Y-94704789D01*
X156914572Y-94702122D01*
X156953712Y-94702122D01*
X156953717Y-94705165D01*
X156953796Y-94708536D01*
X156953968Y-94712385D01*
X156954248Y-94716864D01*
X156954655Y-94722127D01*
X156955204Y-94728325D01*
X156955914Y-94735610D01*
X156956800Y-94744135D01*
X156957881Y-94754051D01*
X156959172Y-94765511D01*
X156960692Y-94778666D01*
X156962457Y-94793669D01*
X156964484Y-94810671D01*
X156966790Y-94829826D01*
X156969392Y-94851285D01*
X156972307Y-94875200D01*
X156975552Y-94901723D01*
X156979145Y-94931007D01*
X156983101Y-94963203D01*
X156987439Y-94998464D01*
X156989612Y-95016122D01*
X156994889Y-95058911D01*
X156999786Y-95098440D01*
X157004306Y-95134742D01*
X157008455Y-95167848D01*
X157012235Y-95197791D01*
X157015651Y-95224601D01*
X157018708Y-95248311D01*
X157021409Y-95268952D01*
X157023758Y-95286557D01*
X157025761Y-95301156D01*
X157027419Y-95312781D01*
X157028739Y-95321464D01*
X157029723Y-95327238D01*
X157030200Y-95329504D01*
X157037464Y-95352003D01*
X157047598Y-95373164D01*
X157060353Y-95392769D01*
X157075481Y-95410597D01*
X157092732Y-95426431D01*
X157111857Y-95440049D01*
X157132609Y-95451234D01*
X157154737Y-95459766D01*
X157177994Y-95465426D01*
X157185786Y-95466614D01*
X157196285Y-95467689D01*
X157206532Y-95468047D01*
X157217527Y-95467669D01*
X157230270Y-95466540D01*
X157237212Y-95465736D01*
X157246996Y-95464341D01*
X157257184Y-95462555D01*
X157266487Y-95460621D01*
X157272886Y-95459000D01*
X157295982Y-95450630D01*
X157317461Y-95439479D01*
X157337129Y-95425756D01*
X157354788Y-95409674D01*
X157370244Y-95391442D01*
X157383301Y-95371273D01*
X157393764Y-95349377D01*
X157401435Y-95325966D01*
X157403214Y-95318444D01*
X157403968Y-95314982D01*
X157404654Y-95311766D01*
X157405257Y-95308648D01*
X157405764Y-95305476D01*
X157406160Y-95302102D01*
X157406432Y-95298377D01*
X157406564Y-95294150D01*
X157406544Y-95289272D01*
X157406356Y-95283593D01*
X157405987Y-95276965D01*
X157405423Y-95269236D01*
X157404649Y-95260259D01*
X157403652Y-95249882D01*
X157402416Y-95237958D01*
X157400929Y-95224335D01*
X157399175Y-95208865D01*
X157397141Y-95191398D01*
X157394813Y-95171784D01*
X157392176Y-95149874D01*
X157389216Y-95125518D01*
X157385920Y-95098567D01*
X157382273Y-95068870D01*
X157378260Y-95036280D01*
X157373868Y-95000645D01*
X157370876Y-94976365D01*
X157367032Y-94945193D01*
X157363280Y-94914821D01*
X157359643Y-94885419D01*
X157356141Y-94857157D01*
X157352797Y-94830208D01*
X157349630Y-94804741D01*
X157346663Y-94780927D01*
X157343918Y-94758938D01*
X157341414Y-94738944D01*
X157339174Y-94721116D01*
X157337219Y-94705625D01*
X157335571Y-94692642D01*
X157334250Y-94682338D01*
X157333279Y-94674883D01*
X157332678Y-94670448D01*
X157332509Y-94669339D01*
X157326898Y-94647076D01*
X157318206Y-94625421D01*
X157306658Y-94604798D01*
X157292480Y-94585629D01*
X157281488Y-94573678D01*
X157262528Y-94556977D01*
X157242249Y-94543291D01*
X157220744Y-94532657D01*
X157198108Y-94525112D01*
X157174435Y-94520692D01*
X157149819Y-94519436D01*
X157143114Y-94519639D01*
X157116566Y-94522043D01*
X157092282Y-94526708D01*
X157070015Y-94533739D01*
X157049516Y-94543239D01*
X157030535Y-94555311D01*
X157012825Y-94570060D01*
X157006053Y-94576719D01*
X156994738Y-94589109D01*
X156985521Y-94601075D01*
X156977590Y-94613778D01*
X156970543Y-94627514D01*
X156963241Y-94644859D01*
X156958211Y-94661662D01*
X156955159Y-94679145D01*
X156953860Y-94696407D01*
X156953766Y-94699253D01*
X156953712Y-94702122D01*
X156914572Y-94702122D01*
X156914743Y-94694963D01*
X156915220Y-94686823D01*
X156915999Y-94679555D01*
X156917140Y-94672348D01*
X156918137Y-94667143D01*
X156925107Y-94639522D01*
X156934415Y-94614227D01*
X156946044Y-94591275D01*
X156959980Y-94570685D01*
X156976207Y-94552473D01*
X156994710Y-94536657D01*
X157015472Y-94523254D01*
X157038479Y-94512282D01*
X157063715Y-94503757D01*
X157064727Y-94503479D01*
X157075327Y-94500918D01*
X157087250Y-94498570D01*
X157099463Y-94496594D01*
X157110933Y-94495152D01*
X157120627Y-94494405D01*
X157123502Y-94494337D01*
X157128362Y-94494091D01*
X157131518Y-94493492D01*
X157132199Y-94492974D01*
X157131141Y-94490073D01*
X157128342Y-94485549D01*
X157124366Y-94480161D01*
X157119777Y-94474666D01*
X157115138Y-94469823D01*
X157114627Y-94469342D01*
X157101370Y-94459117D01*
X157085678Y-94450818D01*
X157067503Y-94444438D01*
X157046796Y-94439967D01*
X157023510Y-94437394D01*
X156997599Y-94436712D01*
X156969013Y-94437910D01*
X156959703Y-94438652D01*
X156930179Y-94441807D01*
X156902368Y-94446002D01*
X156875783Y-94451400D01*
X156849939Y-94458163D01*
X156824352Y-94466450D01*
X156798535Y-94476425D01*
X156772004Y-94488248D01*
X156744274Y-94502082D01*
X156714859Y-94518086D01*
X156706207Y-94523006D01*
X156688556Y-94533129D01*
X156757089Y-94567986D01*
X156771338Y-94575284D01*
X156784900Y-94582328D01*
X156797442Y-94588938D01*
X156808629Y-94594933D01*
X156818128Y-94600132D01*
X156825603Y-94604355D01*
X156830720Y-94607421D01*
X156832906Y-94608932D01*
X156842758Y-94619241D01*
X156850117Y-94631324D01*
X156854879Y-94644660D01*
X156856942Y-94658729D01*
X156856201Y-94673011D01*
X156852555Y-94686985D01*
X156849679Y-94693556D01*
X156847752Y-94696565D01*
X156843941Y-94701791D01*
X156838495Y-94708918D01*
X156831663Y-94717628D01*
X156823696Y-94727604D01*
X156814843Y-94738530D01*
X156805353Y-94750089D01*
X156801353Y-94754919D01*
X156767659Y-94795471D01*
X156736037Y-94833511D01*
X156706449Y-94869084D01*
X156678857Y-94902233D01*
X156653226Y-94933002D01*
X156629518Y-94961436D01*
X156607696Y-94987578D01*
X156587723Y-95011473D01*
X156569562Y-95033164D01*
X156553176Y-95052697D01*
X156538528Y-95070114D01*
X156525581Y-95085460D01*
X156514298Y-95098780D01*
X156504643Y-95110116D01*
X156496577Y-95119514D01*
X156490064Y-95127017D01*
X156485068Y-95132670D01*
X156481550Y-95136516D01*
X156479475Y-95138599D01*
X156479120Y-95138893D01*
X156464987Y-95147439D01*
X156449730Y-95153260D01*
X156433938Y-95156204D01*
X156418200Y-95156118D01*
X156414495Y-95155629D01*
X156410404Y-95154681D01*
X156403768Y-95152718D01*
X156394518Y-95149715D01*
X156382583Y-95145647D01*
X156367893Y-95140490D01*
X156350378Y-95134219D01*
X156329967Y-95126810D01*
X156306589Y-95118238D01*
X156288183Y-95111443D01*
X156265558Y-95103088D01*
X156245861Y-95095850D01*
X156228921Y-95089669D01*
X156214568Y-95084488D01*
X156202631Y-95080247D01*
X156192941Y-95076887D01*
X156185327Y-95074349D01*
X156179619Y-95072574D01*
X156175647Y-95071503D01*
X156173240Y-95071077D01*
X156172229Y-95071237D01*
X156172224Y-95071244D01*
X156170648Y-95073221D01*
X156167407Y-95077277D01*
X156162904Y-95082908D01*
X156157545Y-95089606D01*
X156154682Y-95093184D01*
X156143213Y-95107774D01*
X156131437Y-95123236D01*
X156119626Y-95139177D01*
X156108052Y-95155209D01*
X156096985Y-95170940D01*
X156086699Y-95185979D01*
X156077464Y-95199937D01*
X156069553Y-95212423D01*
X156063236Y-95223046D01*
X156059451Y-95230064D01*
X156051843Y-95246195D01*
X156046145Y-95260768D01*
X156042090Y-95274721D01*
X156039409Y-95288992D01*
X156037835Y-95304520D01*
X156037733Y-95306093D01*
X156037709Y-95323558D01*
X155490834Y-95323558D01*
X155488042Y-95297717D01*
X155484793Y-95237233D01*
X155484821Y-95176698D01*
X155488134Y-95116213D01*
X155494739Y-95055880D01*
X155496513Y-95043456D01*
X155498075Y-95034609D01*
X156204226Y-95034609D01*
X156205907Y-95035274D01*
X156210418Y-95036884D01*
X156217449Y-95039334D01*
X156226688Y-95042520D01*
X156237824Y-95046336D01*
X156250546Y-95050677D01*
X156264542Y-95055438D01*
X156279500Y-95060515D01*
X156295110Y-95065800D01*
X156311061Y-95071191D01*
X156327041Y-95076581D01*
X156342738Y-95081866D01*
X156357842Y-95086940D01*
X156372041Y-95091698D01*
X156385023Y-95096035D01*
X156396478Y-95099846D01*
X156406095Y-95103026D01*
X156413561Y-95105470D01*
X156418566Y-95107072D01*
X156420707Y-95107708D01*
X156426744Y-95108601D01*
X156433324Y-95108248D01*
X156439513Y-95107131D01*
X156446135Y-95105057D01*
X156452924Y-95101962D01*
X156454961Y-95100776D01*
X156456593Y-95099383D01*
X156459409Y-95096501D01*
X156463473Y-95092051D01*
X156468849Y-95085957D01*
X156475603Y-95078142D01*
X156483799Y-95068529D01*
X156493501Y-95057042D01*
X156504774Y-95043603D01*
X156517682Y-95028136D01*
X156532290Y-95010563D01*
X156548662Y-94990808D01*
X156566863Y-94968794D01*
X156586957Y-94944444D01*
X156609009Y-94917681D01*
X156633083Y-94888428D01*
X156634380Y-94886851D01*
X156653309Y-94863823D01*
X156671692Y-94841435D01*
X156689415Y-94819823D01*
X156706365Y-94799128D01*
X156722430Y-94779488D01*
X156737497Y-94761042D01*
X156751453Y-94743928D01*
X156764184Y-94728285D01*
X156775579Y-94714253D01*
X156785523Y-94701968D01*
X156793904Y-94691571D01*
X156800610Y-94683200D01*
X156805527Y-94676994D01*
X156808542Y-94673091D01*
X156809517Y-94671705D01*
X156812142Y-94663109D01*
X156812042Y-94653736D01*
X156809373Y-94644451D01*
X156804288Y-94636118D01*
X156802870Y-94634509D01*
X156800220Y-94632574D01*
X156794703Y-94629307D01*
X156786453Y-94624778D01*
X156775604Y-94619057D01*
X156762290Y-94612215D01*
X156746647Y-94604323D01*
X156728807Y-94595451D01*
X156724686Y-94593417D01*
X156707993Y-94585190D01*
X156694010Y-94578320D01*
X156682478Y-94572692D01*
X156673135Y-94568195D01*
X156665722Y-94564716D01*
X156659979Y-94562144D01*
X156655646Y-94560366D01*
X156652461Y-94559270D01*
X156650166Y-94558743D01*
X156648500Y-94558674D01*
X156647203Y-94558950D01*
X156646015Y-94559458D01*
X156645999Y-94559466D01*
X156643416Y-94561186D01*
X156638744Y-94564773D01*
X156632378Y-94569905D01*
X156624715Y-94576257D01*
X156616151Y-94583508D01*
X156608643Y-94589974D01*
X156591523Y-94605398D01*
X156572868Y-94623252D01*
X156552993Y-94643215D01*
X156532214Y-94664968D01*
X156510846Y-94688192D01*
X156502841Y-94697109D01*
X156499255Y-94701038D01*
X156493785Y-94706915D01*
X156486845Y-94714300D01*
X156478848Y-94722755D01*
X156470208Y-94731840D01*
X156462117Y-94740305D01*
X156444455Y-94758810D01*
X156426246Y-94778020D01*
X156407783Y-94797622D01*
X156389355Y-94817300D01*
X156371255Y-94836742D01*
X156353772Y-94855631D01*
X156337200Y-94873655D01*
X156321828Y-94890497D01*
X156307948Y-94905845D01*
X156295851Y-94919383D01*
X156287613Y-94928745D01*
X156279905Y-94937707D01*
X156271539Y-94947645D01*
X156262756Y-94958256D01*
X156253794Y-94969236D01*
X156244891Y-94980282D01*
X156236289Y-94991089D01*
X156228225Y-95001354D01*
X156220940Y-95010774D01*
X156214671Y-95019045D01*
X156209659Y-95025862D01*
X156206143Y-95030923D01*
X156204362Y-95033923D01*
X156204226Y-95034609D01*
X155498075Y-95034609D01*
X155506954Y-94984330D01*
X155520552Y-94926079D01*
X155537239Y-94868818D01*
X155556947Y-94812658D01*
X155579608Y-94757712D01*
X155605156Y-94704095D01*
X155633522Y-94651919D01*
X155664639Y-94601297D01*
X155698439Y-94552342D01*
X155734855Y-94505167D01*
X155773819Y-94459886D01*
X155815263Y-94416611D01*
X155859120Y-94375456D01*
X155905321Y-94336533D01*
X155931177Y-94316516D01*
X155979656Y-94282155D01*
X156029856Y-94250569D01*
X156081632Y-94221797D01*
X156134842Y-94195874D01*
X156189342Y-94172838D01*
X156244990Y-94152725D01*
X156301642Y-94135572D01*
X156359154Y-94121416D01*
X156417383Y-94110294D01*
X156476187Y-94102243D01*
X156535421Y-94097299D01*
X156594942Y-94095499D01*
X156654608Y-94096880D01*
G37*
D12*
%TO.C,C5*%
X150044165Y-64020000D02*
X150275835Y-64020000D01*
X150044165Y-64740000D02*
X150275835Y-64740000D01*
%TO.C,C1*%
X162440000Y-74483335D02*
X162440000Y-74251665D01*
X163160000Y-74483335D02*
X163160000Y-74251665D01*
%TO.C,SW1*%
X155995000Y-87150000D02*
X155995000Y-88350000D01*
X155995000Y-89950000D02*
X155995000Y-91150000D01*
X155995000Y-91150000D02*
X162395000Y-91150000D01*
X162395000Y-87150000D02*
X155995000Y-87150000D01*
X162395000Y-88350000D02*
X162395000Y-87150000D01*
X162395000Y-91150000D02*
X162395000Y-89950000D01*
%TO.C,M12*%
X164545000Y-71930000D02*
X164545000Y-70600000D01*
X165875000Y-71930000D02*
X164545000Y-71930000D01*
X167145000Y-69270000D02*
X172285000Y-69270000D01*
X167145000Y-71930000D02*
X167145000Y-69270000D01*
X167145000Y-71930000D02*
X172285000Y-71930000D01*
X172285000Y-71930000D02*
X172285000Y-69270000D01*
%TO.C,J3*%
X146390000Y-91890000D02*
X146390000Y-97860000D01*
X146390000Y-97860000D02*
X154010000Y-97860000D01*
X146400000Y-95600000D02*
X147150000Y-95600000D01*
X146400000Y-97100000D02*
X146400000Y-97850000D01*
X146400000Y-97850000D02*
X148200000Y-97850000D01*
X147150000Y-92650000D02*
X150200000Y-92650000D01*
X147150000Y-95600000D02*
X147150000Y-92650000D01*
X148200000Y-97100000D02*
X146400000Y-97100000D01*
X148200000Y-97850000D02*
X148200000Y-97100000D01*
X149700000Y-97100000D02*
X149700000Y-97850000D01*
X149700000Y-97850000D02*
X150700000Y-97850000D01*
X150700000Y-97100000D02*
X149700000Y-97100000D01*
X150700000Y-97850000D02*
X150700000Y-97100000D01*
X152200000Y-97100000D02*
X152200000Y-97850000D01*
X152200000Y-97850000D02*
X154000000Y-97850000D01*
X153050000Y-98150000D02*
X154300000Y-98150000D01*
X153250000Y-92650000D02*
X150200000Y-92650000D01*
X153250000Y-95600000D02*
X153250000Y-92650000D01*
X154000000Y-95600000D02*
X153250000Y-95600000D01*
X154000000Y-97100000D02*
X152200000Y-97100000D01*
X154000000Y-97850000D02*
X154000000Y-97100000D01*
X154010000Y-91890000D02*
X146390000Y-91890000D01*
X154010000Y-97860000D02*
X154010000Y-91890000D01*
X154300000Y-98150000D02*
X154300000Y-96900000D01*
%TO.C,C3*%
X162840000Y-68948335D02*
X162840000Y-68716665D01*
X163560000Y-68948335D02*
X163560000Y-68716665D01*
%TO.C,M1*%
X146190000Y-69070000D02*
X146190000Y-71730000D01*
X151330000Y-69070000D02*
X146190000Y-69070000D01*
X151330000Y-69070000D02*
X151330000Y-71730000D01*
X151330000Y-71730000D02*
X146190000Y-71730000D01*
X152600000Y-69070000D02*
X153930000Y-69070000D01*
X153930000Y-69070000D02*
X153930000Y-70400000D01*
%TO.C,J2*%
X146090000Y-68070000D02*
X146090000Y-66960000D01*
X146850000Y-68070000D02*
X146090000Y-68070000D01*
X147610000Y-65850000D02*
X151355000Y-65850000D01*
X147610000Y-66396529D02*
X147610000Y-65850000D01*
X147610000Y-68070000D02*
X147610000Y-67523471D01*
X147610000Y-68070000D02*
X151355000Y-68070000D01*
X151355000Y-66652470D02*
X151355000Y-65850000D01*
X151355000Y-68070000D02*
X151355000Y-67267530D01*
%TO.C,R3*%
X146312742Y-64057500D02*
X146787258Y-64057500D01*
X146312742Y-65102500D02*
X146787258Y-65102500D01*
%TO.C,SW2*%
X155710000Y-62400000D02*
X155710000Y-63600000D01*
X155710000Y-65200000D02*
X155710000Y-66400000D01*
X155710000Y-66400000D02*
X162110000Y-66400000D01*
X162110000Y-62400000D02*
X155710000Y-62400000D01*
X162110000Y-63600000D02*
X162110000Y-62400000D01*
X162110000Y-66400000D02*
X162110000Y-65200000D01*
%TO.C,C7*%
X159954165Y-91820000D02*
X160185835Y-91820000D01*
X159954165Y-92540000D02*
X160185835Y-92540000D01*
%TD*%
M02*
