%TF.GenerationSoftware,KiCad,Pcbnew,8.0.4-8.0.4-0~ubuntu22.04.1*%
%TF.CreationDate,2024-08-07T00:11:22+05:30*%
%TF.ProjectId,esp32Shield,65737033-3253-4686-9965-6c642e6b6963,rev?*%
%TF.SameCoordinates,Original*%
%TF.FileFunction,Copper,L2,Bot*%
%TF.FilePolarity,Positive*%
%FSLAX46Y46*%
G04 Gerber Fmt 4.6, Leading zero omitted, Abs format (unit mm)*
G04 Created by KiCad (PCBNEW 8.0.4-8.0.4-0~ubuntu22.04.1) date 2024-08-07 00:11:22*
%MOMM*%
%LPD*%
G01*
G04 APERTURE LIST*
G04 Aperture macros list*
%AMRoundRect*
0 Rectangle with rounded corners*
0 $1 Rounding radius*
0 $2 $3 $4 $5 $6 $7 $8 $9 X,Y pos of 4 corners*
0 Add a 4 corners polygon primitive as box body*
4,1,4,$2,$3,$4,$5,$6,$7,$8,$9,$2,$3,0*
0 Add four circle primitives for the rounded corners*
1,1,$1+$1,$2,$3*
1,1,$1+$1,$4,$5*
1,1,$1+$1,$6,$7*
1,1,$1+$1,$8,$9*
0 Add four rect primitives between the rounded corners*
20,1,$1+$1,$2,$3,$4,$5,0*
20,1,$1+$1,$4,$5,$6,$7,0*
20,1,$1+$1,$6,$7,$8,$9,0*
20,1,$1+$1,$8,$9,$2,$3,0*%
G04 Aperture macros list end*
%TA.AperFunction,ComponentPad*%
%ADD10R,1.700000X1.700000*%
%TD*%
%TA.AperFunction,ComponentPad*%
%ADD11O,1.700000X1.700000*%
%TD*%
%TA.AperFunction,ComponentPad*%
%ADD12R,3.800000X3.800000*%
%TD*%
%TA.AperFunction,ComponentPad*%
%ADD13C,3.800000*%
%TD*%
%TA.AperFunction,ComponentPad*%
%ADD14RoundRect,0.250000X-0.600000X-0.750000X0.600000X-0.750000X0.600000X0.750000X-0.600000X0.750000X0*%
%TD*%
%TA.AperFunction,ComponentPad*%
%ADD15O,1.700000X2.000000*%
%TD*%
%TA.AperFunction,ComponentPad*%
%ADD16RoundRect,0.250000X0.600000X0.750000X-0.600000X0.750000X-0.600000X-0.750000X0.600000X-0.750000X0*%
%TD*%
%TA.AperFunction,ComponentPad*%
%ADD17R,1.000000X1.000000*%
%TD*%
%TA.AperFunction,ComponentPad*%
%ADD18O,1.000000X1.000000*%
%TD*%
%TA.AperFunction,ViaPad*%
%ADD19C,0.600000*%
%TD*%
%TA.AperFunction,Conductor*%
%ADD20C,0.250000*%
%TD*%
%TA.AperFunction,Conductor*%
%ADD21C,1.500000*%
%TD*%
G04 APERTURE END LIST*
D10*
%TO.P,M10,1,Pin_1*%
%TO.N,+5V*%
X165875000Y-78250000D03*
D11*
%TO.P,M10,2,Pin_2*%
%TO.N,PWM10*%
X168415000Y-78250000D03*
%TO.P,M10,3,Pin_3*%
%TO.N,GND*%
X170955000Y-78250000D03*
%TD*%
D12*
%TO.P,J1,1,1*%
%TO.N,GND*%
X164600000Y-94800000D03*
D13*
%TO.P,J1,2,2*%
%TO.N,+5V*%
X169600000Y-94800000D03*
%TD*%
D10*
%TO.P,M2,1,Pin_1*%
%TO.N,+5V*%
X152600000Y-74200000D03*
D11*
%TO.P,M2,2,Pin_2*%
%TO.N,PWM2*%
X150060000Y-74200000D03*
%TO.P,M2,3,Pin_3*%
%TO.N,GND*%
X147520000Y-74200000D03*
%TD*%
D10*
%TO.P,M11,1,Pin_1*%
%TO.N,+5V*%
X165875000Y-74400000D03*
D11*
%TO.P,M11,2,Pin_2*%
%TO.N,PWM11*%
X168415000Y-74400000D03*
%TO.P,M11,3,Pin_3*%
%TO.N,GND*%
X170955000Y-74400000D03*
%TD*%
D10*
%TO.P,M6,1,Pin_1*%
%TO.N,+5V*%
X152600000Y-89400000D03*
D11*
%TO.P,M6,2,Pin_2*%
%TO.N,PWM6*%
X150060000Y-89400000D03*
%TO.P,M6,3,Pin_3*%
%TO.N,GND*%
X147520000Y-89400000D03*
%TD*%
D10*
%TO.P,M8,1,Pin_1*%
%TO.N,+5V*%
X165875000Y-85800000D03*
D11*
%TO.P,M8,2,Pin_2*%
%TO.N,PWM8*%
X168415000Y-85800000D03*
%TO.P,M8,3,Pin_3*%
%TO.N,GND*%
X170955000Y-85800000D03*
%TD*%
D14*
%TO.P,J4,1,Pin_1*%
%TO.N,SDA*%
X166900000Y-64675000D03*
D15*
%TO.P,J4,2,Pin_2*%
%TO.N,SCL*%
X169400000Y-64675000D03*
%TD*%
D10*
%TO.P,M5,1,Pin_1*%
%TO.N,+5V*%
X152600000Y-85600000D03*
D11*
%TO.P,M5,2,Pin_2*%
%TO.N,PWM5*%
X150060000Y-85600000D03*
%TO.P,M5,3,Pin_3*%
%TO.N,GND*%
X147520000Y-85600000D03*
%TD*%
D10*
%TO.P,M9,1,Pin_1*%
%TO.N,+5V*%
X165920000Y-82000000D03*
D11*
%TO.P,M9,2,Pin_2*%
%TO.N,PWM9*%
X168460000Y-82000000D03*
%TO.P,M9,3,Pin_3*%
%TO.N,GND*%
X171000000Y-82000000D03*
%TD*%
D10*
%TO.P,M3,1,Pin_1*%
%TO.N,+5V*%
X152600000Y-77950000D03*
D11*
%TO.P,M3,2,Pin_2*%
%TO.N,PWM3*%
X150060000Y-77950000D03*
%TO.P,M3,3,Pin_3*%
%TO.N,GND*%
X147520000Y-77950000D03*
%TD*%
D10*
%TO.P,M7,1,Pin_1*%
%TO.N,+5V*%
X165875000Y-89600000D03*
D11*
%TO.P,M7,2,Pin_2*%
%TO.N,PWM7*%
X168415000Y-89600000D03*
%TO.P,M7,3,Pin_3*%
%TO.N,GND*%
X170955000Y-89600000D03*
%TD*%
D10*
%TO.P,M4,1,Pin_1*%
%TO.N,+5V*%
X152600000Y-81800000D03*
D11*
%TO.P,M4,2,Pin_2*%
%TO.N,PWM4*%
X150060000Y-81800000D03*
%TO.P,M4,3,Pin_3*%
%TO.N,GND*%
X147520000Y-81800000D03*
%TD*%
D10*
%TO.P,M12,1,Pin_1*%
%TO.N,+5V*%
X165875000Y-70600000D03*
D11*
%TO.P,M12,2,Pin_2*%
%TO.N,PWM12*%
X168415000Y-70600000D03*
%TO.P,M12,3,Pin_3*%
%TO.N,GND*%
X170955000Y-70600000D03*
%TD*%
D16*
%TO.P,J3,1,Pin_1*%
%TO.N,+5V*%
X151450000Y-95400000D03*
D15*
%TO.P,J3,2,Pin_2*%
%TO.N,GND*%
X148950000Y-95400000D03*
%TD*%
D10*
%TO.P,M1,1,Pin_1*%
%TO.N,+5V*%
X152600000Y-70400000D03*
D11*
%TO.P,M1,2,Pin_2*%
%TO.N,PWM1*%
X150060000Y-70400000D03*
%TO.P,M1,3,Pin_3*%
%TO.N,GND*%
X147520000Y-70400000D03*
%TD*%
D17*
%TO.P,J2,1,Pin_1*%
%TO.N,+3.3V*%
X146850000Y-66960000D03*
D18*
%TO.P,J2,2,Pin_2*%
%TO.N,TX*%
X148120000Y-66960000D03*
%TO.P,J2,3,Pin_3*%
%TO.N,RX*%
X149390000Y-66960000D03*
%TO.P,J2,4,Pin_4*%
%TO.N,GND*%
X150660000Y-66960000D03*
%TD*%
D19*
%TO.N,SCL*%
X163690044Y-77400000D03*
%TO.N,SDA*%
X163200000Y-76600000D03*
%TO.N,IO12*%
X159127888Y-84527888D03*
X160886688Y-85679760D03*
%TO.N,reset*%
X154944391Y-79749112D03*
X156200000Y-87600000D03*
%TO.N,boot*%
X164675000Y-72000000D03*
X161400000Y-65600000D03*
X153310000Y-65580000D03*
X164150000Y-83350000D03*
%TO.N,TX*%
X154625000Y-70000000D03*
%TO.N,RX*%
X161480000Y-69000000D03*
%TO.N,GND*%
X157000000Y-75000000D03*
X159400000Y-80000000D03*
X157200000Y-93000000D03*
X162975000Y-73225000D03*
X150720000Y-64380000D03*
X163200000Y-66800000D03*
X153800000Y-64400000D03*
X161800000Y-89400000D03*
%TO.N,+3.3V*%
X158600000Y-76000000D03*
X162975000Y-75758058D03*
X155500000Y-94170000D03*
X155569391Y-78895803D03*
X158800000Y-85400000D03*
%TD*%
D20*
%TO.N,SCL*%
X163690044Y-77400000D02*
X164050000Y-77040044D01*
X164050000Y-70025000D02*
X169400000Y-64675000D01*
X164050000Y-77040044D02*
X164050000Y-70025000D01*
%TO.N,SDA*%
X163600000Y-67600000D02*
X166525000Y-64675000D01*
X163200000Y-76600000D02*
X163600000Y-76200000D01*
X163600000Y-76200000D02*
X163600000Y-67600000D01*
X166525000Y-64675000D02*
X166900000Y-64675000D01*
%TO.N,IO12*%
X159127888Y-84527888D02*
X159734816Y-84527888D01*
X159734816Y-84527888D02*
X160886688Y-85679760D01*
%TO.N,reset*%
X155600000Y-86000000D02*
X155600000Y-87000000D01*
X154944391Y-79749112D02*
X154944391Y-85344391D01*
X154944391Y-85344391D02*
X155600000Y-86000000D01*
X155600000Y-87000000D02*
X156200000Y-87600000D01*
%TO.N,boot*%
X153330000Y-65600000D02*
X161400000Y-65600000D01*
X164430000Y-83350000D02*
X164675000Y-83105000D01*
X164150000Y-83350000D02*
X164430000Y-83350000D01*
X164675000Y-83105000D02*
X164675000Y-72000000D01*
%TO.N,TX*%
X154625000Y-70000000D02*
X153850000Y-69225000D01*
X153850000Y-69225000D02*
X150345000Y-69225000D01*
X150345000Y-69225000D02*
X148120000Y-67000000D01*
%TO.N,RX*%
X155458884Y-67600000D02*
X154283884Y-68775000D01*
X161480000Y-68280000D02*
X160800000Y-67600000D01*
X154283884Y-68775000D02*
X151165000Y-68775000D01*
X160800000Y-67600000D02*
X155458884Y-67600000D01*
X151165000Y-68775000D02*
X149390000Y-67000000D01*
X161480000Y-69000000D02*
X161480000Y-68280000D01*
D21*
%TO.N,+5V*%
X165920000Y-82000000D02*
X165920000Y-78295000D01*
X152600000Y-81800000D02*
X152600000Y-85600000D01*
X152600000Y-81800000D02*
X152600000Y-77950000D01*
X165875000Y-89600000D02*
X165875000Y-85800000D01*
X165920000Y-78295000D02*
X165875000Y-78250000D01*
X165875000Y-78250000D02*
X165875000Y-74400000D01*
D20*
%TO.N,+3.3V*%
X157400000Y-84000000D02*
X156600000Y-84000000D01*
X155569391Y-82969391D02*
X155569391Y-78895803D01*
X158800000Y-90070000D02*
X158800000Y-85400000D01*
X151600000Y-75375000D02*
X152375000Y-75375000D01*
X151425000Y-75200000D02*
X151600000Y-75375000D01*
X155500000Y-94170000D02*
X155500000Y-93370000D01*
X148885000Y-71363299D02*
X151425000Y-73903299D01*
X155500000Y-93370000D02*
X158800000Y-90070000D01*
X151425000Y-73903299D02*
X151425000Y-75200000D01*
X152375000Y-75375000D02*
X155569391Y-78569391D01*
X156600000Y-84000000D02*
X155569391Y-82969391D01*
X158800000Y-85400000D02*
X157400000Y-84000000D01*
X155569391Y-78569391D02*
X155569391Y-78895803D01*
X146850000Y-67000000D02*
X148885000Y-69035000D01*
X148885000Y-69035000D02*
X148885000Y-71363299D01*
X162975000Y-75758058D02*
X162733058Y-76000000D01*
X162733058Y-76000000D02*
X158600000Y-76000000D01*
%TD*%
%TA.AperFunction,Conductor*%
%TO.N,GND*%
G36*
X173342539Y-62020185D02*
G01*
X173388294Y-62072989D01*
X173399500Y-62124500D01*
X173399500Y-98075500D01*
X173379815Y-98142539D01*
X173327011Y-98188294D01*
X173275500Y-98199500D01*
X144924500Y-98199500D01*
X144857461Y-98179815D01*
X144811706Y-98127011D01*
X144800500Y-98075500D01*
X144800500Y-94599983D01*
X150099500Y-94599983D01*
X150099500Y-96200001D01*
X150099501Y-96200018D01*
X150110000Y-96302796D01*
X150110001Y-96302799D01*
X150157621Y-96446504D01*
X150165186Y-96469334D01*
X150257288Y-96618656D01*
X150381344Y-96742712D01*
X150530666Y-96834814D01*
X150697203Y-96889999D01*
X150799991Y-96900500D01*
X152100008Y-96900499D01*
X152202797Y-96889999D01*
X152369334Y-96834814D01*
X152518656Y-96742712D01*
X152642712Y-96618656D01*
X152734814Y-96469334D01*
X152789999Y-96302797D01*
X152800500Y-96200009D01*
X152800500Y-95779998D01*
X157724569Y-95779998D01*
X157724569Y-95780001D01*
X157744269Y-96055442D01*
X157744270Y-96055449D01*
X157802966Y-96325267D01*
X157802968Y-96325274D01*
X157848184Y-96446504D01*
X157899470Y-96584008D01*
X157899472Y-96584012D01*
X158031808Y-96826367D01*
X158031813Y-96826375D01*
X158197292Y-97047430D01*
X158197308Y-97047448D01*
X158392551Y-97242691D01*
X158392569Y-97242707D01*
X158613624Y-97408186D01*
X158613632Y-97408191D01*
X158855987Y-97540527D01*
X158855991Y-97540529D01*
X158855993Y-97540530D01*
X159114726Y-97637032D01*
X159384559Y-97695731D01*
X159638781Y-97713913D01*
X159659999Y-97715431D01*
X159660000Y-97715431D01*
X159660001Y-97715431D01*
X159679701Y-97714021D01*
X159935441Y-97695731D01*
X160205274Y-97637032D01*
X160464007Y-97540530D01*
X160706373Y-97408188D01*
X160927438Y-97242701D01*
X161122701Y-97047438D01*
X161288188Y-96826373D01*
X161420530Y-96584007D01*
X161517032Y-96325274D01*
X161575731Y-96055441D01*
X161595431Y-95780000D01*
X161575731Y-95504559D01*
X161517032Y-95234726D01*
X161420530Y-94975993D01*
X161420296Y-94975565D01*
X161324427Y-94799994D01*
X167194754Y-94799994D01*
X167194754Y-94800005D01*
X167213718Y-95101446D01*
X167213719Y-95101453D01*
X167270320Y-95398164D01*
X167363659Y-95685431D01*
X167363661Y-95685436D01*
X167492265Y-95958732D01*
X167492268Y-95958738D01*
X167654111Y-96213763D01*
X167654114Y-96213767D01*
X167654115Y-96213768D01*
X167727765Y-96302796D01*
X167846652Y-96446505D01*
X168066836Y-96653272D01*
X168066846Y-96653280D01*
X168311193Y-96830808D01*
X168311198Y-96830810D01*
X168311205Y-96830816D01*
X168575896Y-96976332D01*
X168575901Y-96976334D01*
X168575903Y-96976335D01*
X168575904Y-96976336D01*
X168856734Y-97087524D01*
X168856737Y-97087525D01*
X168954259Y-97112564D01*
X169149302Y-97162642D01*
X169296039Y-97181179D01*
X169448963Y-97200499D01*
X169448969Y-97200499D01*
X169448973Y-97200500D01*
X169448975Y-97200500D01*
X169751025Y-97200500D01*
X169751027Y-97200500D01*
X169751032Y-97200499D01*
X169751036Y-97200499D01*
X169830591Y-97190448D01*
X170050698Y-97162642D01*
X170343262Y-97087525D01*
X170343265Y-97087524D01*
X170624095Y-96976336D01*
X170624096Y-96976335D01*
X170624094Y-96976335D01*
X170624104Y-96976332D01*
X170888795Y-96830816D01*
X171133162Y-96653274D01*
X171353349Y-96446504D01*
X171545885Y-96213768D01*
X171707733Y-95958736D01*
X171836341Y-95685430D01*
X171929681Y-95398160D01*
X171986280Y-95101457D01*
X171991464Y-95019061D01*
X172005246Y-94800005D01*
X172005246Y-94799994D01*
X171986281Y-94498553D01*
X171986280Y-94498546D01*
X171986280Y-94498543D01*
X171929681Y-94201840D01*
X171836341Y-93914570D01*
X171707733Y-93641264D01*
X171545885Y-93386232D01*
X171353349Y-93153496D01*
X171133162Y-92946726D01*
X171133159Y-92946724D01*
X171133153Y-92946719D01*
X170888806Y-92769191D01*
X170888799Y-92769186D01*
X170888795Y-92769184D01*
X170624104Y-92623668D01*
X170624101Y-92623666D01*
X170624096Y-92623664D01*
X170624095Y-92623663D01*
X170343265Y-92512475D01*
X170343262Y-92512474D01*
X170050695Y-92437357D01*
X169751036Y-92399500D01*
X169751027Y-92399500D01*
X169448973Y-92399500D01*
X169448963Y-92399500D01*
X169149304Y-92437357D01*
X168856737Y-92512474D01*
X168856734Y-92512475D01*
X168575904Y-92623663D01*
X168575903Y-92623664D01*
X168311205Y-92769184D01*
X168311193Y-92769191D01*
X168066846Y-92946719D01*
X168066836Y-92946727D01*
X167846652Y-93153494D01*
X167654111Y-93386236D01*
X167492268Y-93641261D01*
X167492265Y-93641267D01*
X167363661Y-93914563D01*
X167363659Y-93914568D01*
X167270320Y-94201835D01*
X167213719Y-94498546D01*
X167213718Y-94498553D01*
X167194754Y-94799994D01*
X161324427Y-94799994D01*
X161288191Y-94733632D01*
X161288186Y-94733624D01*
X161122707Y-94512569D01*
X161122691Y-94512551D01*
X160927448Y-94317308D01*
X160927430Y-94317292D01*
X160706375Y-94151813D01*
X160706367Y-94151808D01*
X160464012Y-94019472D01*
X160464008Y-94019470D01*
X160318465Y-93965186D01*
X160205274Y-93922968D01*
X160205270Y-93922967D01*
X160205267Y-93922966D01*
X159935449Y-93864270D01*
X159935442Y-93864269D01*
X159660001Y-93844569D01*
X159659999Y-93844569D01*
X159384557Y-93864269D01*
X159384550Y-93864270D01*
X159114732Y-93922966D01*
X159114727Y-93922967D01*
X159114726Y-93922968D01*
X159052172Y-93946299D01*
X158855991Y-94019470D01*
X158855987Y-94019472D01*
X158613632Y-94151808D01*
X158613624Y-94151813D01*
X158392569Y-94317292D01*
X158392551Y-94317308D01*
X158197308Y-94512551D01*
X158197292Y-94512569D01*
X158031813Y-94733624D01*
X158031808Y-94733632D01*
X157899472Y-94975987D01*
X157899470Y-94975991D01*
X157802966Y-95234732D01*
X157744270Y-95504550D01*
X157744269Y-95504557D01*
X157724569Y-95779998D01*
X152800500Y-95779998D01*
X152800499Y-94599992D01*
X152789999Y-94497203D01*
X152734814Y-94330666D01*
X152642712Y-94181344D01*
X152518656Y-94057288D01*
X152369334Y-93965186D01*
X152202797Y-93910001D01*
X152202795Y-93910000D01*
X152100010Y-93899500D01*
X150799998Y-93899500D01*
X150799981Y-93899501D01*
X150697203Y-93910000D01*
X150697200Y-93910001D01*
X150530668Y-93965185D01*
X150530663Y-93965187D01*
X150381342Y-94057289D01*
X150257289Y-94181342D01*
X150165187Y-94330663D01*
X150165185Y-94330668D01*
X150159026Y-94349255D01*
X150110001Y-94497203D01*
X150110001Y-94497204D01*
X150110000Y-94497204D01*
X150099500Y-94599983D01*
X144800500Y-94599983D01*
X144800500Y-89399999D01*
X148704341Y-89399999D01*
X148704341Y-89400000D01*
X148724936Y-89635403D01*
X148724938Y-89635413D01*
X148786094Y-89863655D01*
X148786096Y-89863659D01*
X148786097Y-89863663D01*
X148870499Y-90044663D01*
X148885965Y-90077830D01*
X148885967Y-90077834D01*
X148923619Y-90131606D01*
X149021505Y-90271401D01*
X149188599Y-90438495D01*
X149273404Y-90497876D01*
X149382165Y-90574032D01*
X149382167Y-90574033D01*
X149382170Y-90574035D01*
X149596337Y-90673903D01*
X149824592Y-90735063D01*
X150001034Y-90750500D01*
X150059999Y-90755659D01*
X150060000Y-90755659D01*
X150060001Y-90755659D01*
X150118966Y-90750500D01*
X150295408Y-90735063D01*
X150523663Y-90673903D01*
X150737830Y-90574035D01*
X150931401Y-90438495D01*
X151053329Y-90316566D01*
X151114648Y-90283084D01*
X151184340Y-90288068D01*
X151240274Y-90329939D01*
X151257189Y-90360917D01*
X151306202Y-90492328D01*
X151306206Y-90492335D01*
X151392452Y-90607544D01*
X151392455Y-90607547D01*
X151507664Y-90693793D01*
X151507671Y-90693797D01*
X151642517Y-90744091D01*
X151642516Y-90744091D01*
X151649444Y-90744835D01*
X151702127Y-90750500D01*
X153497872Y-90750499D01*
X153557483Y-90744091D01*
X153692331Y-90693796D01*
X153807546Y-90607546D01*
X153893796Y-90492331D01*
X153944091Y-90357483D01*
X153950500Y-90297873D01*
X153950499Y-88502128D01*
X153944091Y-88442517D01*
X153942810Y-88439083D01*
X153893797Y-88307671D01*
X153893793Y-88307664D01*
X153807547Y-88192455D01*
X153807544Y-88192452D01*
X153692335Y-88106206D01*
X153692328Y-88106202D01*
X153557482Y-88055908D01*
X153557483Y-88055908D01*
X153497883Y-88049501D01*
X153497881Y-88049500D01*
X153497873Y-88049500D01*
X153497864Y-88049500D01*
X151702129Y-88049500D01*
X151702123Y-88049501D01*
X151642516Y-88055908D01*
X151507671Y-88106202D01*
X151507664Y-88106206D01*
X151392455Y-88192452D01*
X151392452Y-88192455D01*
X151306206Y-88307664D01*
X151306203Y-88307669D01*
X151257189Y-88439083D01*
X151215317Y-88495016D01*
X151149853Y-88519433D01*
X151081580Y-88504581D01*
X151053326Y-88483430D01*
X150931402Y-88361506D01*
X150931395Y-88361501D01*
X150737834Y-88225967D01*
X150737830Y-88225965D01*
X150737828Y-88225964D01*
X150523663Y-88126097D01*
X150523659Y-88126096D01*
X150523655Y-88126094D01*
X150295413Y-88064938D01*
X150295403Y-88064936D01*
X150060001Y-88044341D01*
X150059999Y-88044341D01*
X149824596Y-88064936D01*
X149824586Y-88064938D01*
X149596344Y-88126094D01*
X149596335Y-88126098D01*
X149382171Y-88225964D01*
X149382169Y-88225965D01*
X149188597Y-88361505D01*
X149021505Y-88528597D01*
X148885965Y-88722169D01*
X148885964Y-88722171D01*
X148786098Y-88936335D01*
X148786094Y-88936344D01*
X148724938Y-89164586D01*
X148724936Y-89164596D01*
X148704341Y-89399999D01*
X144800500Y-89399999D01*
X144800500Y-66412135D01*
X145849500Y-66412135D01*
X145849500Y-67507870D01*
X145849501Y-67507876D01*
X145855908Y-67567483D01*
X145906202Y-67702328D01*
X145906206Y-67702335D01*
X145992452Y-67817544D01*
X145992455Y-67817547D01*
X146107664Y-67903793D01*
X146107671Y-67903797D01*
X146152618Y-67920561D01*
X146242517Y-67954091D01*
X146302127Y-67960500D01*
X146874547Y-67960499D01*
X146941586Y-67980183D01*
X146962228Y-67996818D01*
X148223181Y-69257771D01*
X148256666Y-69319094D01*
X148259500Y-69345452D01*
X148259500Y-71424910D01*
X148283535Y-71545743D01*
X148283540Y-71545760D01*
X148330685Y-71659580D01*
X148330688Y-71659585D01*
X148352567Y-71692328D01*
X148352568Y-71692331D01*
X148352569Y-71692331D01*
X148399140Y-71762030D01*
X148399141Y-71762031D01*
X148399142Y-71762032D01*
X148486267Y-71849157D01*
X148486268Y-71849157D01*
X148493335Y-71856224D01*
X148493334Y-71856224D01*
X148493338Y-71856227D01*
X149448522Y-72811411D01*
X149482007Y-72872734D01*
X149477023Y-72942426D01*
X149435151Y-72998359D01*
X149413246Y-73011474D01*
X149382171Y-73025964D01*
X149382169Y-73025965D01*
X149188597Y-73161505D01*
X149021505Y-73328597D01*
X148885965Y-73522169D01*
X148885964Y-73522171D01*
X148786098Y-73736335D01*
X148786094Y-73736344D01*
X148724938Y-73964586D01*
X148724936Y-73964596D01*
X148704341Y-74199999D01*
X148704341Y-74200000D01*
X148724936Y-74435403D01*
X148724938Y-74435413D01*
X148786094Y-74663655D01*
X148786096Y-74663659D01*
X148786097Y-74663663D01*
X148869134Y-74841735D01*
X148885965Y-74877830D01*
X148885967Y-74877834D01*
X148994104Y-75032268D01*
X149021505Y-75071401D01*
X149188599Y-75238495D01*
X149283555Y-75304984D01*
X149382165Y-75374032D01*
X149382167Y-75374033D01*
X149382170Y-75374035D01*
X149596337Y-75473903D01*
X149824592Y-75535063D01*
X150012918Y-75551539D01*
X150059999Y-75555659D01*
X150060000Y-75555659D01*
X150060001Y-75555659D01*
X150099234Y-75552226D01*
X150295408Y-75535063D01*
X150523663Y-75473903D01*
X150689345Y-75396643D01*
X150758421Y-75386152D01*
X150822205Y-75414672D01*
X150856311Y-75461575D01*
X150870688Y-75496286D01*
X150870690Y-75496290D01*
X150896599Y-75535064D01*
X150896600Y-75535065D01*
X150939140Y-75598731D01*
X150939141Y-75598732D01*
X150939142Y-75598733D01*
X151026267Y-75685858D01*
X151026268Y-75685858D01*
X151033335Y-75692925D01*
X151033334Y-75692925D01*
X151033338Y-75692928D01*
X151107071Y-75766661D01*
X151107074Y-75766665D01*
X151107075Y-75766665D01*
X151114141Y-75773731D01*
X151114142Y-75773733D01*
X151161154Y-75820745D01*
X151201268Y-75860859D01*
X151303707Y-75929307D01*
X151303713Y-75929310D01*
X151303714Y-75929311D01*
X151417548Y-75976463D01*
X151447307Y-75982382D01*
X151472015Y-75987297D01*
X151472031Y-75987300D01*
X151472051Y-75987304D01*
X151538391Y-76000499D01*
X151538392Y-76000500D01*
X151538393Y-76000500D01*
X151538394Y-76000500D01*
X152064548Y-76000500D01*
X152131587Y-76020185D01*
X152152229Y-76036819D01*
X152503229Y-76387819D01*
X152536714Y-76449142D01*
X152531730Y-76518834D01*
X152489858Y-76574767D01*
X152424394Y-76599184D01*
X152415548Y-76599500D01*
X151702129Y-76599500D01*
X151702123Y-76599501D01*
X151642516Y-76605908D01*
X151507671Y-76656202D01*
X151507664Y-76656206D01*
X151392455Y-76742452D01*
X151392452Y-76742455D01*
X151306206Y-76857664D01*
X151306203Y-76857669D01*
X151257189Y-76989083D01*
X151215317Y-77045016D01*
X151149853Y-77069433D01*
X151081580Y-77054581D01*
X151053326Y-77033430D01*
X150931402Y-76911506D01*
X150931395Y-76911501D01*
X150737834Y-76775967D01*
X150737830Y-76775965D01*
X150737828Y-76775964D01*
X150523663Y-76676097D01*
X150523659Y-76676096D01*
X150523655Y-76676094D01*
X150295413Y-76614938D01*
X150295403Y-76614936D01*
X150060001Y-76594341D01*
X150059999Y-76594341D01*
X149824596Y-76614936D01*
X149824586Y-76614938D01*
X149596344Y-76676094D01*
X149596335Y-76676098D01*
X149382171Y-76775964D01*
X149382169Y-76775965D01*
X149188597Y-76911505D01*
X149021505Y-77078597D01*
X148885965Y-77272169D01*
X148885964Y-77272171D01*
X148786098Y-77486335D01*
X148786094Y-77486344D01*
X148724938Y-77714586D01*
X148724936Y-77714596D01*
X148704341Y-77949999D01*
X148704341Y-77950000D01*
X148724936Y-78185403D01*
X148724938Y-78185413D01*
X148786094Y-78413655D01*
X148786096Y-78413659D01*
X148786097Y-78413663D01*
X148819555Y-78485413D01*
X148885965Y-78627830D01*
X148885967Y-78627834D01*
X148959469Y-78732805D01*
X149021505Y-78821401D01*
X149188599Y-78988495D01*
X149265482Y-79042329D01*
X149382165Y-79124032D01*
X149382167Y-79124033D01*
X149382170Y-79124035D01*
X149596337Y-79223903D01*
X149824592Y-79285063D01*
X150012918Y-79301539D01*
X150059999Y-79305659D01*
X150060000Y-79305659D01*
X150060001Y-79305659D01*
X150099234Y-79302226D01*
X150295408Y-79285063D01*
X150523663Y-79223903D01*
X150737830Y-79124035D01*
X150931401Y-78988495D01*
X151053329Y-78866566D01*
X151114648Y-78833084D01*
X151184340Y-78838068D01*
X151240274Y-78879939D01*
X151257189Y-78910917D01*
X151306202Y-79042328D01*
X151306203Y-79042329D01*
X151324766Y-79067126D01*
X151349184Y-79132590D01*
X151349500Y-79141438D01*
X151349500Y-80608561D01*
X151329815Y-80675600D01*
X151324767Y-80682872D01*
X151306204Y-80707668D01*
X151306203Y-80707669D01*
X151257189Y-80839083D01*
X151215317Y-80895016D01*
X151149853Y-80919433D01*
X151081580Y-80904581D01*
X151053326Y-80883430D01*
X150931402Y-80761506D01*
X150931395Y-80761501D01*
X150737834Y-80625967D01*
X150737830Y-80625965D01*
X150737828Y-80625964D01*
X150523663Y-80526097D01*
X150523659Y-80526096D01*
X150523655Y-80526094D01*
X150295413Y-80464938D01*
X150295403Y-80464936D01*
X150060001Y-80444341D01*
X150059999Y-80444341D01*
X149824596Y-80464936D01*
X149824586Y-80464938D01*
X149596344Y-80526094D01*
X149596335Y-80526098D01*
X149382171Y-80625964D01*
X149382169Y-80625965D01*
X149188597Y-80761505D01*
X149021505Y-80928597D01*
X148885965Y-81122169D01*
X148885964Y-81122171D01*
X148786098Y-81336335D01*
X148786094Y-81336344D01*
X148724938Y-81564586D01*
X148724936Y-81564596D01*
X148704341Y-81799999D01*
X148704341Y-81800000D01*
X148724936Y-82035403D01*
X148724938Y-82035413D01*
X148786094Y-82263655D01*
X148786096Y-82263659D01*
X148786097Y-82263663D01*
X148870499Y-82444663D01*
X148885965Y-82477830D01*
X148885967Y-82477834D01*
X148946744Y-82564632D01*
X149021505Y-82671401D01*
X149188599Y-82838495D01*
X149283555Y-82904984D01*
X149382165Y-82974032D01*
X149382167Y-82974033D01*
X149382170Y-82974035D01*
X149596337Y-83073903D01*
X149824592Y-83135063D01*
X150012918Y-83151539D01*
X150059999Y-83155659D01*
X150060000Y-83155659D01*
X150060001Y-83155659D01*
X150099234Y-83152226D01*
X150295408Y-83135063D01*
X150523663Y-83073903D01*
X150737830Y-82974035D01*
X150931401Y-82838495D01*
X151053329Y-82716566D01*
X151114648Y-82683084D01*
X151184340Y-82688068D01*
X151240274Y-82729939D01*
X151257189Y-82760917D01*
X151306202Y-82892328D01*
X151306203Y-82892329D01*
X151306204Y-82892331D01*
X151324349Y-82916569D01*
X151324766Y-82917126D01*
X151349184Y-82982590D01*
X151349500Y-82991438D01*
X151349500Y-84408561D01*
X151329815Y-84475600D01*
X151324767Y-84482872D01*
X151306204Y-84507668D01*
X151306203Y-84507669D01*
X151257189Y-84639083D01*
X151215317Y-84695016D01*
X151149853Y-84719433D01*
X151081580Y-84704581D01*
X151053326Y-84683430D01*
X150931402Y-84561506D01*
X150931395Y-84561501D01*
X150737834Y-84425967D01*
X150737830Y-84425965D01*
X150737828Y-84425964D01*
X150523663Y-84326097D01*
X150523659Y-84326096D01*
X150523655Y-84326094D01*
X150295413Y-84264938D01*
X150295403Y-84264936D01*
X150060001Y-84244341D01*
X150059999Y-84244341D01*
X149824596Y-84264936D01*
X149824586Y-84264938D01*
X149596344Y-84326094D01*
X149596335Y-84326098D01*
X149382171Y-84425964D01*
X149382169Y-84425965D01*
X149188597Y-84561505D01*
X149021505Y-84728597D01*
X148885965Y-84922169D01*
X148885964Y-84922171D01*
X148786098Y-85136335D01*
X148786094Y-85136344D01*
X148724938Y-85364586D01*
X148724936Y-85364596D01*
X148704341Y-85599999D01*
X148704341Y-85600000D01*
X148724936Y-85835403D01*
X148724938Y-85835413D01*
X148786094Y-86063655D01*
X148786096Y-86063659D01*
X148786097Y-86063663D01*
X148870499Y-86244663D01*
X148885965Y-86277830D01*
X148885967Y-86277834D01*
X148908807Y-86310452D01*
X149021505Y-86471401D01*
X149188599Y-86638495D01*
X149273404Y-86697876D01*
X149382165Y-86774032D01*
X149382167Y-86774033D01*
X149382170Y-86774035D01*
X149596337Y-86873903D01*
X149596343Y-86873904D01*
X149596344Y-86873905D01*
X149597486Y-86874211D01*
X149824592Y-86935063D01*
X150001034Y-86950500D01*
X150059999Y-86955659D01*
X150060000Y-86955659D01*
X150060001Y-86955659D01*
X150118966Y-86950500D01*
X150295408Y-86935063D01*
X150523663Y-86873903D01*
X150737830Y-86774035D01*
X150931401Y-86638495D01*
X151053329Y-86516566D01*
X151114648Y-86483084D01*
X151184340Y-86488068D01*
X151240274Y-86529939D01*
X151257189Y-86560917D01*
X151306202Y-86692328D01*
X151306206Y-86692335D01*
X151392452Y-86807544D01*
X151392455Y-86807547D01*
X151507664Y-86893793D01*
X151507671Y-86893797D01*
X151642517Y-86944091D01*
X151642516Y-86944091D01*
X151649444Y-86944835D01*
X151702127Y-86950500D01*
X153497872Y-86950499D01*
X153557483Y-86944091D01*
X153692331Y-86893796D01*
X153807546Y-86807546D01*
X153893796Y-86692331D01*
X153944091Y-86557483D01*
X153950500Y-86497873D01*
X153950499Y-84702128D01*
X153944091Y-84642517D01*
X153942810Y-84639083D01*
X153893797Y-84507671D01*
X153893795Y-84507668D01*
X153875233Y-84482872D01*
X153850816Y-84417408D01*
X153850500Y-84408561D01*
X153850500Y-82991438D01*
X153870185Y-82924399D01*
X153875234Y-82917126D01*
X153875651Y-82916569D01*
X153893796Y-82892331D01*
X153901603Y-82871401D01*
X153944091Y-82757482D01*
X153948101Y-82720184D01*
X153950500Y-82697873D01*
X153950499Y-80902128D01*
X153944091Y-80842517D01*
X153942810Y-80839083D01*
X153893797Y-80707671D01*
X153893795Y-80707668D01*
X153875233Y-80682872D01*
X153850816Y-80617408D01*
X153850500Y-80608561D01*
X153850500Y-79141438D01*
X153870185Y-79074399D01*
X153875234Y-79067126D01*
X153893796Y-79042331D01*
X153912292Y-78992742D01*
X153926742Y-78953998D01*
X153944091Y-78907483D01*
X153950500Y-78847873D01*
X153950499Y-78134449D01*
X153970183Y-78067412D01*
X154022987Y-78021657D01*
X154092146Y-78011713D01*
X154155702Y-78040738D01*
X154162180Y-78046770D01*
X154746651Y-78631241D01*
X154780136Y-78692564D01*
X154782190Y-78732805D01*
X154764526Y-78889584D01*
X154737460Y-78953998D01*
X154682261Y-78992742D01*
X154594871Y-79023321D01*
X154442128Y-79119296D01*
X154314575Y-79246849D01*
X154218602Y-79399588D01*
X154159022Y-79569857D01*
X154159021Y-79569862D01*
X154138826Y-79749108D01*
X154138826Y-79749115D01*
X154159021Y-79928361D01*
X154159022Y-79928366D01*
X154218602Y-80098636D01*
X154299884Y-80227993D01*
X154318891Y-80293966D01*
X154318891Y-85406002D01*
X154342926Y-85526835D01*
X154342931Y-85526852D01*
X154390076Y-85640671D01*
X154390078Y-85640675D01*
X154416192Y-85679758D01*
X154416194Y-85679760D01*
X154458532Y-85743123D01*
X154458535Y-85743127D01*
X154549977Y-85834569D01*
X154549999Y-85834589D01*
X154938181Y-86222771D01*
X154971666Y-86284094D01*
X154974500Y-86310452D01*
X154974500Y-87061610D01*
X154998535Y-87182444D01*
X154998538Y-87182454D01*
X155012347Y-87215792D01*
X155012347Y-87215793D01*
X155045685Y-87296280D01*
X155045690Y-87296289D01*
X155079914Y-87347507D01*
X155079915Y-87347509D01*
X155114141Y-87398733D01*
X155205586Y-87490178D01*
X155205608Y-87490198D01*
X155373787Y-87658377D01*
X155407272Y-87719700D01*
X155409326Y-87732173D01*
X155414630Y-87779249D01*
X155474210Y-87949521D01*
X155533790Y-88044341D01*
X155570184Y-88102262D01*
X155697738Y-88229816D01*
X155850478Y-88325789D01*
X156020745Y-88385368D01*
X156020750Y-88385369D01*
X156199996Y-88405565D01*
X156200000Y-88405565D01*
X156200004Y-88405565D01*
X156379249Y-88385369D01*
X156379252Y-88385368D01*
X156379255Y-88385368D01*
X156549522Y-88325789D01*
X156702262Y-88229816D01*
X156829816Y-88102262D01*
X156925789Y-87949522D01*
X156985368Y-87779255D01*
X156990673Y-87732173D01*
X157005565Y-87600003D01*
X157005565Y-87599996D01*
X156985369Y-87420750D01*
X156985368Y-87420745D01*
X156977666Y-87398733D01*
X156925789Y-87250478D01*
X156829816Y-87097738D01*
X156702262Y-86970184D01*
X156660735Y-86944091D01*
X156549521Y-86874210D01*
X156379249Y-86814630D01*
X156335616Y-86809714D01*
X156271202Y-86782647D01*
X156231647Y-86725052D01*
X156225500Y-86686494D01*
X156225500Y-85938396D01*
X156225500Y-85938394D01*
X156201463Y-85817548D01*
X156187652Y-85784207D01*
X156154312Y-85703714D01*
X156112191Y-85640677D01*
X156085858Y-85601267D01*
X156085856Y-85601264D01*
X155995637Y-85511045D01*
X155995606Y-85511016D01*
X155606210Y-85121620D01*
X155572725Y-85060297D01*
X155569891Y-85033939D01*
X155569891Y-84153843D01*
X155589576Y-84086804D01*
X155642380Y-84041049D01*
X155711538Y-84031105D01*
X155775094Y-84060130D01*
X155781572Y-84066162D01*
X156111016Y-84395606D01*
X156111045Y-84395637D01*
X156201263Y-84485855D01*
X156201267Y-84485858D01*
X156303707Y-84554307D01*
X156303713Y-84554310D01*
X156303714Y-84554311D01*
X156417548Y-84601463D01*
X156477971Y-84613481D01*
X156538393Y-84625500D01*
X156538394Y-84625500D01*
X157089548Y-84625500D01*
X157156587Y-84645185D01*
X157177229Y-84661819D01*
X157973787Y-85458377D01*
X158007272Y-85519700D01*
X158009326Y-85532173D01*
X158014630Y-85579249D01*
X158074211Y-85749523D01*
X158124935Y-85830249D01*
X158143009Y-85859014D01*
X158155493Y-85878881D01*
X158174500Y-85944854D01*
X158174500Y-89759547D01*
X158154815Y-89826586D01*
X158138181Y-89847228D01*
X155014144Y-92971264D01*
X155014138Y-92971272D01*
X154945690Y-93073708D01*
X154945688Y-93073713D01*
X154912642Y-93153495D01*
X154912642Y-93153496D01*
X154898538Y-93187545D01*
X154898535Y-93187555D01*
X154874500Y-93308389D01*
X154874500Y-93625145D01*
X154855494Y-93691117D01*
X154774211Y-93820476D01*
X154714631Y-93990745D01*
X154714630Y-93990750D01*
X154694435Y-94169996D01*
X154694435Y-94170003D01*
X154714630Y-94349249D01*
X154714631Y-94349254D01*
X154774211Y-94519523D01*
X154824777Y-94599998D01*
X154870184Y-94672262D01*
X154997738Y-94799816D01*
X154998031Y-94800000D01*
X155123185Y-94878640D01*
X155150478Y-94895789D01*
X155320745Y-94955368D01*
X155320750Y-94955369D01*
X155499996Y-94975565D01*
X155500000Y-94975565D01*
X155500004Y-94975565D01*
X155679249Y-94955369D01*
X155679252Y-94955368D01*
X155679255Y-94955368D01*
X155849522Y-94895789D01*
X156002262Y-94799816D01*
X156129816Y-94672262D01*
X156225789Y-94519522D01*
X156285368Y-94349255D01*
X156285369Y-94349249D01*
X156305565Y-94170003D01*
X156305565Y-94169996D01*
X156285369Y-93990750D01*
X156285368Y-93990745D01*
X156225788Y-93820475D01*
X156165848Y-93725083D01*
X156146847Y-93657846D01*
X156167214Y-93591011D01*
X156183155Y-93571434D01*
X159198729Y-90555860D01*
X159198733Y-90555858D01*
X159285858Y-90468733D01*
X159354311Y-90366286D01*
X159354312Y-90366285D01*
X159393614Y-90271401D01*
X159401463Y-90252452D01*
X159425500Y-90131606D01*
X159425500Y-85944854D01*
X159444507Y-85878881D01*
X159456991Y-85859014D01*
X159503995Y-85784207D01*
X159525788Y-85749524D01*
X159525789Y-85749522D01*
X159585368Y-85579255D01*
X159588560Y-85550920D01*
X159615624Y-85486510D01*
X159673218Y-85446953D01*
X159743054Y-85444813D01*
X159799461Y-85477123D01*
X160060475Y-85738137D01*
X160093960Y-85799460D01*
X160096014Y-85811933D01*
X160101318Y-85859009D01*
X160160898Y-86029281D01*
X160256872Y-86182022D01*
X160384426Y-86309576D01*
X160537166Y-86405549D01*
X160707433Y-86465128D01*
X160707438Y-86465129D01*
X160886684Y-86485325D01*
X160886688Y-86485325D01*
X160886692Y-86485325D01*
X161065937Y-86465129D01*
X161065940Y-86465128D01*
X161065943Y-86465128D01*
X161236210Y-86405549D01*
X161388950Y-86309576D01*
X161516504Y-86182022D01*
X161612477Y-86029282D01*
X161672056Y-85859015D01*
X161674716Y-85835413D01*
X161692253Y-85679760D01*
X161692253Y-85679756D01*
X161672057Y-85500510D01*
X161672056Y-85500505D01*
X161653317Y-85446953D01*
X161612477Y-85330238D01*
X161516504Y-85177498D01*
X161388950Y-85049944D01*
X161238381Y-84955335D01*
X161236209Y-84953970D01*
X161088071Y-84902135D01*
X164524500Y-84902135D01*
X164524500Y-86697870D01*
X164524501Y-86697876D01*
X164530908Y-86757483D01*
X164581203Y-86892329D01*
X164581204Y-86892331D01*
X164599766Y-86917126D01*
X164624184Y-86982590D01*
X164624500Y-86991438D01*
X164624500Y-88408561D01*
X164604815Y-88475600D01*
X164599767Y-88482872D01*
X164581204Y-88507668D01*
X164581202Y-88507671D01*
X164530908Y-88642517D01*
X164524501Y-88702116D01*
X164524500Y-88702135D01*
X164524500Y-90497870D01*
X164524501Y-90497876D01*
X164530908Y-90557483D01*
X164581202Y-90692328D01*
X164581206Y-90692335D01*
X164667452Y-90807544D01*
X164667455Y-90807547D01*
X164782664Y-90893793D01*
X164782671Y-90893797D01*
X164917517Y-90944091D01*
X164917516Y-90944091D01*
X164924444Y-90944835D01*
X164977127Y-90950500D01*
X166772872Y-90950499D01*
X166832483Y-90944091D01*
X166967331Y-90893796D01*
X167082546Y-90807546D01*
X167168796Y-90692331D01*
X167217810Y-90560916D01*
X167259681Y-90504984D01*
X167325145Y-90480566D01*
X167393418Y-90495417D01*
X167421673Y-90516569D01*
X167543599Y-90638495D01*
X167622573Y-90693793D01*
X167737165Y-90774032D01*
X167737167Y-90774033D01*
X167737170Y-90774035D01*
X167951337Y-90873903D01*
X168179592Y-90935063D01*
X168356034Y-90950500D01*
X168414999Y-90955659D01*
X168415000Y-90955659D01*
X168415001Y-90955659D01*
X168473966Y-90950500D01*
X168650408Y-90935063D01*
X168878663Y-90873903D01*
X169092830Y-90774035D01*
X169286401Y-90638495D01*
X169453495Y-90471401D01*
X169589035Y-90277830D01*
X169688903Y-90063663D01*
X169750063Y-89835408D01*
X169770659Y-89600000D01*
X169750063Y-89364592D01*
X169688903Y-89136337D01*
X169589035Y-88922171D01*
X169453495Y-88728599D01*
X169453494Y-88728597D01*
X169286402Y-88561506D01*
X169286395Y-88561501D01*
X169092834Y-88425967D01*
X169092830Y-88425965D01*
X169092828Y-88425964D01*
X168878663Y-88326097D01*
X168878659Y-88326096D01*
X168878655Y-88326094D01*
X168650413Y-88264938D01*
X168650403Y-88264936D01*
X168415001Y-88244341D01*
X168414999Y-88244341D01*
X168179596Y-88264936D01*
X168179586Y-88264938D01*
X167951344Y-88326094D01*
X167951335Y-88326098D01*
X167737171Y-88425964D01*
X167737169Y-88425965D01*
X167543600Y-88561503D01*
X167421673Y-88683430D01*
X167360350Y-88716914D01*
X167290658Y-88711930D01*
X167234725Y-88670058D01*
X167217810Y-88639081D01*
X167168797Y-88507671D01*
X167168795Y-88507668D01*
X167150233Y-88482872D01*
X167125816Y-88417408D01*
X167125500Y-88408561D01*
X167125500Y-86991438D01*
X167145185Y-86924399D01*
X167150234Y-86917126D01*
X167168796Y-86892331D01*
X167175555Y-86874211D01*
X167209705Y-86782647D01*
X167217810Y-86760916D01*
X167259681Y-86704984D01*
X167325145Y-86680566D01*
X167393418Y-86695417D01*
X167421673Y-86716569D01*
X167543599Y-86838495D01*
X167594607Y-86874211D01*
X167737165Y-86974032D01*
X167737167Y-86974033D01*
X167737170Y-86974035D01*
X167951337Y-87073903D01*
X168179592Y-87135063D01*
X168367918Y-87151539D01*
X168414999Y-87155659D01*
X168415000Y-87155659D01*
X168415001Y-87155659D01*
X168454234Y-87152226D01*
X168650408Y-87135063D01*
X168878663Y-87073903D01*
X169092830Y-86974035D01*
X169286401Y-86838495D01*
X169453495Y-86671401D01*
X169589035Y-86477830D01*
X169688903Y-86263663D01*
X169750063Y-86035408D01*
X169770659Y-85800000D01*
X169750063Y-85564592D01*
X169688903Y-85336337D01*
X169589035Y-85122171D01*
X169588650Y-85121620D01*
X169453494Y-84928597D01*
X169286402Y-84761506D01*
X169286395Y-84761501D01*
X169092834Y-84625967D01*
X169092830Y-84625965D01*
X169040281Y-84601461D01*
X168878663Y-84526097D01*
X168878659Y-84526096D01*
X168878655Y-84526094D01*
X168650413Y-84464938D01*
X168650403Y-84464936D01*
X168415001Y-84444341D01*
X168414999Y-84444341D01*
X168179596Y-84464936D01*
X168179586Y-84464938D01*
X167951344Y-84526094D01*
X167951335Y-84526098D01*
X167737171Y-84625964D01*
X167737169Y-84625965D01*
X167543600Y-84761503D01*
X167421673Y-84883430D01*
X167360350Y-84916914D01*
X167290658Y-84911930D01*
X167234725Y-84870058D01*
X167217810Y-84839081D01*
X167168797Y-84707671D01*
X167168793Y-84707664D01*
X167082547Y-84592455D01*
X167082544Y-84592452D01*
X166967335Y-84506206D01*
X166967328Y-84506202D01*
X166832482Y-84455908D01*
X166832483Y-84455908D01*
X166772883Y-84449501D01*
X166772881Y-84449500D01*
X166772873Y-84449500D01*
X166772864Y-84449500D01*
X164977129Y-84449500D01*
X164977123Y-84449501D01*
X164917516Y-84455908D01*
X164782671Y-84506202D01*
X164782664Y-84506206D01*
X164667455Y-84592452D01*
X164667452Y-84592455D01*
X164581206Y-84707664D01*
X164581202Y-84707671D01*
X164530908Y-84842517D01*
X164524501Y-84902116D01*
X164524500Y-84902135D01*
X161088071Y-84902135D01*
X161065937Y-84894390D01*
X161018861Y-84889086D01*
X160954447Y-84862019D01*
X160945065Y-84853547D01*
X160225014Y-84133496D01*
X160224994Y-84133474D01*
X160133551Y-84042031D01*
X160108999Y-84025626D01*
X160071395Y-84000500D01*
X160071396Y-84000500D01*
X160071394Y-84000498D01*
X160031106Y-83973578D01*
X160031102Y-83973576D01*
X159946161Y-83938393D01*
X159917269Y-83926425D01*
X159907243Y-83924431D01*
X159856845Y-83914406D01*
X159796426Y-83902388D01*
X159796423Y-83902388D01*
X159796422Y-83902388D01*
X159672743Y-83902388D01*
X159606771Y-83883382D01*
X159477411Y-83802099D01*
X159307142Y-83742519D01*
X159307137Y-83742518D01*
X159127892Y-83722323D01*
X159127884Y-83722323D01*
X158948638Y-83742518D01*
X158948633Y-83742519D01*
X158778364Y-83802099D01*
X158625625Y-83898072D01*
X158493148Y-84030550D01*
X158491270Y-84028672D01*
X158443957Y-84061825D01*
X158374143Y-84064619D01*
X158316611Y-84032021D01*
X157890198Y-83605608D01*
X157890178Y-83605586D01*
X157798733Y-83514141D01*
X157747509Y-83479915D01*
X157696287Y-83445689D01*
X157696286Y-83445688D01*
X157696283Y-83445686D01*
X157696280Y-83445685D01*
X157614003Y-83411606D01*
X157582453Y-83398537D01*
X157572427Y-83396543D01*
X157522029Y-83386518D01*
X157461610Y-83374500D01*
X157461607Y-83374500D01*
X157461606Y-83374500D01*
X156910452Y-83374500D01*
X156843413Y-83354815D01*
X156822771Y-83338181D01*
X156231210Y-82746620D01*
X156197725Y-82685297D01*
X156194891Y-82658939D01*
X156194891Y-79440657D01*
X156213898Y-79374684D01*
X156295179Y-79245327D01*
X156302676Y-79223903D01*
X156354759Y-79075058D01*
X156354760Y-79075052D01*
X156374956Y-78895806D01*
X156374956Y-78895799D01*
X156354760Y-78716553D01*
X156354759Y-78716548D01*
X156346367Y-78692564D01*
X156295180Y-78546281D01*
X156199207Y-78393541D01*
X156172915Y-78367249D01*
X156146035Y-78327020D01*
X156123705Y-78273110D01*
X156123703Y-78273105D01*
X156072572Y-78196584D01*
X156055249Y-78170658D01*
X156055246Y-78170655D01*
X156055244Y-78170652D01*
X155965028Y-78080436D01*
X155964997Y-78080407D01*
X153884586Y-75999996D01*
X157794435Y-75999996D01*
X157794435Y-76000003D01*
X157814630Y-76179249D01*
X157814631Y-76179254D01*
X157874211Y-76349523D01*
X157936806Y-76449142D01*
X157970184Y-76502262D01*
X158097738Y-76629816D01*
X158171389Y-76676094D01*
X158206234Y-76697989D01*
X158250478Y-76725789D01*
X158403275Y-76779255D01*
X158420745Y-76785368D01*
X158420750Y-76785369D01*
X158599996Y-76805565D01*
X158600000Y-76805565D01*
X158600004Y-76805565D01*
X158779249Y-76785369D01*
X158779252Y-76785368D01*
X158779255Y-76785368D01*
X158949522Y-76725789D01*
X159078883Y-76644505D01*
X159144855Y-76625500D01*
X162286495Y-76625500D01*
X162353534Y-76645185D01*
X162399289Y-76697989D01*
X162409715Y-76735618D01*
X162414630Y-76779246D01*
X162414631Y-76779252D01*
X162474210Y-76949521D01*
X162568658Y-77099833D01*
X162570184Y-77102262D01*
X162697738Y-77229816D01*
X162765146Y-77272171D01*
X162827508Y-77311356D01*
X162873799Y-77363691D01*
X162884756Y-77402466D01*
X162904674Y-77579250D01*
X162904675Y-77579254D01*
X162964255Y-77749523D01*
X163018020Y-77835089D01*
X163060228Y-77902262D01*
X163187782Y-78029816D01*
X163340522Y-78125789D01*
X163365277Y-78134451D01*
X163510789Y-78185368D01*
X163510794Y-78185369D01*
X163690040Y-78205565D01*
X163690044Y-78205565D01*
X163690048Y-78205565D01*
X163869293Y-78185369D01*
X163869296Y-78185368D01*
X163869299Y-78185368D01*
X163869300Y-78185367D01*
X163869303Y-78185367D01*
X163884544Y-78180034D01*
X163954323Y-78176471D01*
X164014951Y-78211200D01*
X164047178Y-78273193D01*
X164049500Y-78297075D01*
X164049500Y-82449092D01*
X164029815Y-82516131D01*
X163977011Y-82561886D01*
X163966463Y-82566130D01*
X163910093Y-82585854D01*
X163800478Y-82624210D01*
X163647737Y-82720184D01*
X163520184Y-82847737D01*
X163424211Y-83000476D01*
X163364631Y-83170745D01*
X163364630Y-83170750D01*
X163344435Y-83349996D01*
X163344435Y-83350003D01*
X163364630Y-83529249D01*
X163364631Y-83529254D01*
X163424211Y-83699523D01*
X163455132Y-83748733D01*
X163520184Y-83852262D01*
X163647738Y-83979816D01*
X163680660Y-84000502D01*
X163785156Y-84066162D01*
X163800478Y-84075789D01*
X163952989Y-84129155D01*
X163970745Y-84135368D01*
X163970750Y-84135369D01*
X164149996Y-84155565D01*
X164150000Y-84155565D01*
X164150004Y-84155565D01*
X164329249Y-84135369D01*
X164329252Y-84135368D01*
X164329255Y-84135368D01*
X164499522Y-84075789D01*
X164652262Y-83979816D01*
X164722113Y-83909963D01*
X164740898Y-83894547D01*
X164777509Y-83870084D01*
X164828733Y-83835858D01*
X164915858Y-83748733D01*
X164915859Y-83748731D01*
X164922925Y-83741665D01*
X164922928Y-83741661D01*
X165073729Y-83590860D01*
X165073733Y-83590858D01*
X165160858Y-83503733D01*
X165199642Y-83445689D01*
X165226423Y-83405609D01*
X165280035Y-83360803D01*
X165329525Y-83350499D01*
X166817871Y-83350499D01*
X166817872Y-83350499D01*
X166877483Y-83344091D01*
X167012331Y-83293796D01*
X167127546Y-83207546D01*
X167213796Y-83092331D01*
X167262810Y-82960916D01*
X167304681Y-82904984D01*
X167370145Y-82880566D01*
X167438418Y-82895417D01*
X167466673Y-82916569D01*
X167588599Y-83038495D01*
X167685384Y-83106265D01*
X167782165Y-83174032D01*
X167782167Y-83174033D01*
X167782170Y-83174035D01*
X167996337Y-83273903D01*
X168224592Y-83335063D01*
X168412918Y-83351539D01*
X168459999Y-83355659D01*
X168460000Y-83355659D01*
X168460001Y-83355659D01*
X168499234Y-83352226D01*
X168695408Y-83335063D01*
X168923663Y-83273903D01*
X169137830Y-83174035D01*
X169331401Y-83038495D01*
X169498495Y-82871401D01*
X169634035Y-82677830D01*
X169733903Y-82463663D01*
X169795063Y-82235408D01*
X169815659Y-82000000D01*
X169795063Y-81764592D01*
X169733903Y-81536337D01*
X169634035Y-81322171D01*
X169498495Y-81128599D01*
X169498494Y-81128597D01*
X169331402Y-80961506D01*
X169331395Y-80961501D01*
X169137834Y-80825967D01*
X169137830Y-80825965D01*
X169137828Y-80825964D01*
X168923663Y-80726097D01*
X168923659Y-80726096D01*
X168923655Y-80726094D01*
X168695413Y-80664938D01*
X168695403Y-80664936D01*
X168460001Y-80644341D01*
X168459999Y-80644341D01*
X168224596Y-80664936D01*
X168224586Y-80664938D01*
X167996344Y-80726094D01*
X167996335Y-80726098D01*
X167782171Y-80825964D01*
X167782169Y-80825965D01*
X167588600Y-80961503D01*
X167466673Y-81083430D01*
X167405350Y-81116914D01*
X167335658Y-81111930D01*
X167279725Y-81070058D01*
X167262810Y-81039081D01*
X167213797Y-80907671D01*
X167213795Y-80907668D01*
X167195233Y-80882872D01*
X167170816Y-80817408D01*
X167170500Y-80808561D01*
X167170500Y-79360133D01*
X167178318Y-79316800D01*
X167182474Y-79305659D01*
X167217810Y-79210916D01*
X167259681Y-79154983D01*
X167325146Y-79130566D01*
X167393419Y-79145418D01*
X167421673Y-79166569D01*
X167543599Y-79288495D01*
X167568112Y-79305659D01*
X167737165Y-79424032D01*
X167737167Y-79424033D01*
X167737170Y-79424035D01*
X167951337Y-79523903D01*
X168179592Y-79585063D01*
X168367918Y-79601539D01*
X168414999Y-79605659D01*
X168415000Y-79605659D01*
X168415001Y-79605659D01*
X168454234Y-79602226D01*
X168650408Y-79585063D01*
X168878663Y-79523903D01*
X169092830Y-79424035D01*
X169286401Y-79288495D01*
X169453495Y-79121401D01*
X169589035Y-78927830D01*
X169688903Y-78713663D01*
X169750063Y-78485408D01*
X169770659Y-78250000D01*
X169750063Y-78014592D01*
X169688903Y-77786337D01*
X169589035Y-77572171D01*
X169528933Y-77486335D01*
X169453494Y-77378597D01*
X169286402Y-77211506D01*
X169286395Y-77211501D01*
X169092834Y-77075967D01*
X169092830Y-77075965D01*
X169078822Y-77069433D01*
X168878663Y-76976097D01*
X168878659Y-76976096D01*
X168878655Y-76976094D01*
X168650413Y-76914938D01*
X168650403Y-76914936D01*
X168415001Y-76894341D01*
X168414999Y-76894341D01*
X168179596Y-76914936D01*
X168179586Y-76914938D01*
X167951344Y-76976094D01*
X167951335Y-76976098D01*
X167737171Y-77075964D01*
X167737169Y-77075965D01*
X167543600Y-77211503D01*
X167421673Y-77333430D01*
X167360350Y-77366914D01*
X167290658Y-77361930D01*
X167234725Y-77320058D01*
X167217810Y-77289081D01*
X167168797Y-77157671D01*
X167168795Y-77157668D01*
X167150233Y-77132872D01*
X167125816Y-77067408D01*
X167125500Y-77058561D01*
X167125500Y-75591438D01*
X167145185Y-75524399D01*
X167150234Y-75517126D01*
X167154331Y-75511653D01*
X167168796Y-75492331D01*
X167175669Y-75473905D01*
X167212744Y-75374500D01*
X167217810Y-75360916D01*
X167259681Y-75304984D01*
X167325145Y-75280566D01*
X167393418Y-75295417D01*
X167421673Y-75316569D01*
X167543599Y-75438495D01*
X167576561Y-75461575D01*
X167737165Y-75574032D01*
X167737167Y-75574033D01*
X167737170Y-75574035D01*
X167951337Y-75673903D01*
X168179592Y-75735063D01*
X168367918Y-75751539D01*
X168414999Y-75755659D01*
X168415000Y-75755659D01*
X168415001Y-75755659D01*
X168454234Y-75752226D01*
X168650408Y-75735063D01*
X168878663Y-75673903D01*
X169092830Y-75574035D01*
X169286401Y-75438495D01*
X169453495Y-75271401D01*
X169589035Y-75077830D01*
X169688903Y-74863663D01*
X169750063Y-74635408D01*
X169770659Y-74400000D01*
X169750063Y-74164592D01*
X169688903Y-73936337D01*
X169589035Y-73722171D01*
X169453495Y-73528599D01*
X169453494Y-73528597D01*
X169286402Y-73361506D01*
X169286395Y-73361501D01*
X169092834Y-73225967D01*
X169092830Y-73225965D01*
X169092828Y-73225964D01*
X168878663Y-73126097D01*
X168878659Y-73126096D01*
X168878655Y-73126094D01*
X168650413Y-73064938D01*
X168650403Y-73064936D01*
X168415001Y-73044341D01*
X168414999Y-73044341D01*
X168179596Y-73064936D01*
X168179586Y-73064938D01*
X167951344Y-73126094D01*
X167951335Y-73126098D01*
X167737171Y-73225964D01*
X167737169Y-73225965D01*
X167543600Y-73361503D01*
X167421673Y-73483430D01*
X167360350Y-73516914D01*
X167290658Y-73511930D01*
X167234725Y-73470058D01*
X167217810Y-73439081D01*
X167168797Y-73307671D01*
X167168793Y-73307664D01*
X167082547Y-73192455D01*
X167082544Y-73192452D01*
X166967335Y-73106206D01*
X166967328Y-73106202D01*
X166832482Y-73055908D01*
X166832483Y-73055908D01*
X166772883Y-73049501D01*
X166772881Y-73049500D01*
X166772873Y-73049500D01*
X166772865Y-73049500D01*
X165424500Y-73049500D01*
X165357461Y-73029815D01*
X165311706Y-72977011D01*
X165300500Y-72925500D01*
X165300500Y-72544854D01*
X165319507Y-72478881D01*
X165400788Y-72349524D01*
X165460368Y-72179254D01*
X165460369Y-72179249D01*
X165473736Y-72060616D01*
X165500802Y-71996202D01*
X165558397Y-71956646D01*
X165596956Y-71950499D01*
X166772871Y-71950499D01*
X166772872Y-71950499D01*
X166832483Y-71944091D01*
X166967331Y-71893796D01*
X167082546Y-71807546D01*
X167168796Y-71692331D01*
X167168796Y-71692329D01*
X167168798Y-71692327D01*
X167203860Y-71598317D01*
X167217810Y-71560916D01*
X167259681Y-71504984D01*
X167325145Y-71480566D01*
X167393418Y-71495417D01*
X167421673Y-71516569D01*
X167543599Y-71638495D01*
X167622573Y-71693793D01*
X167737165Y-71774032D01*
X167737167Y-71774033D01*
X167737170Y-71774035D01*
X167951337Y-71873903D01*
X168179592Y-71935063D01*
X168367918Y-71951539D01*
X168414999Y-71955659D01*
X168415000Y-71955659D01*
X168415001Y-71955659D01*
X168454234Y-71952226D01*
X168650408Y-71935063D01*
X168878663Y-71873903D01*
X169092830Y-71774035D01*
X169286401Y-71638495D01*
X169453495Y-71471401D01*
X169589035Y-71277830D01*
X169688903Y-71063663D01*
X169750063Y-70835408D01*
X169770659Y-70600000D01*
X169750063Y-70364592D01*
X169688903Y-70136337D01*
X169589035Y-69922171D01*
X169453495Y-69728599D01*
X169453494Y-69728597D01*
X169286402Y-69561506D01*
X169286395Y-69561501D01*
X169092834Y-69425967D01*
X169092830Y-69425965D01*
X169092828Y-69425964D01*
X168878663Y-69326097D01*
X168878659Y-69326096D01*
X168878655Y-69326094D01*
X168650413Y-69264938D01*
X168650403Y-69264936D01*
X168415001Y-69244341D01*
X168414999Y-69244341D01*
X168179596Y-69264936D01*
X168179586Y-69264938D01*
X167951344Y-69326094D01*
X167951335Y-69326098D01*
X167737171Y-69425964D01*
X167737169Y-69425965D01*
X167543600Y-69561503D01*
X167421673Y-69683430D01*
X167360350Y-69716914D01*
X167290658Y-69711930D01*
X167234725Y-69670058D01*
X167217810Y-69639081D01*
X167168797Y-69507671D01*
X167168793Y-69507664D01*
X167082547Y-69392455D01*
X167082544Y-69392452D01*
X166967335Y-69306206D01*
X166967328Y-69306202D01*
X166832482Y-69255908D01*
X166832483Y-69255908D01*
X166772883Y-69249501D01*
X166772881Y-69249500D01*
X166772873Y-69249500D01*
X166772865Y-69249500D01*
X166009451Y-69249500D01*
X165942412Y-69229815D01*
X165896657Y-69177011D01*
X165886713Y-69107853D01*
X165915738Y-69044297D01*
X165921770Y-69037819D01*
X167257261Y-67702328D01*
X168828949Y-66130640D01*
X168890270Y-66097157D01*
X168954945Y-66100391D01*
X169083757Y-66142246D01*
X169293713Y-66175500D01*
X169293714Y-66175500D01*
X169506286Y-66175500D01*
X169506287Y-66175500D01*
X169716243Y-66142246D01*
X169918412Y-66076557D01*
X170107816Y-65980051D01*
X170142765Y-65954659D01*
X170279786Y-65855109D01*
X170279788Y-65855106D01*
X170279792Y-65855104D01*
X170430104Y-65704792D01*
X170430106Y-65704788D01*
X170430109Y-65704786D01*
X170555048Y-65532820D01*
X170555047Y-65532820D01*
X170555051Y-65532816D01*
X170651557Y-65343412D01*
X170717246Y-65141243D01*
X170750500Y-64931287D01*
X170750500Y-64418713D01*
X170717246Y-64208757D01*
X170651557Y-64006588D01*
X170555051Y-63817184D01*
X170555049Y-63817181D01*
X170555048Y-63817179D01*
X170430109Y-63645213D01*
X170279786Y-63494890D01*
X170107820Y-63369951D01*
X169918414Y-63273444D01*
X169918413Y-63273443D01*
X169918412Y-63273443D01*
X169716243Y-63207754D01*
X169716241Y-63207753D01*
X169716240Y-63207753D01*
X169554957Y-63182208D01*
X169506287Y-63174500D01*
X169293713Y-63174500D01*
X169245042Y-63182208D01*
X169083760Y-63207753D01*
X168881585Y-63273444D01*
X168692179Y-63369951D01*
X168520215Y-63494889D01*
X168381398Y-63633706D01*
X168320075Y-63667190D01*
X168250383Y-63662206D01*
X168194450Y-63620334D01*
X168188178Y-63611120D01*
X168092712Y-63456344D01*
X167968657Y-63332289D01*
X167968656Y-63332288D01*
X167819334Y-63240186D01*
X167652797Y-63185001D01*
X167652795Y-63185000D01*
X167550010Y-63174500D01*
X166249998Y-63174500D01*
X166249981Y-63174501D01*
X166147203Y-63185000D01*
X166147200Y-63185001D01*
X165980668Y-63240185D01*
X165980663Y-63240187D01*
X165831342Y-63332289D01*
X165707289Y-63456342D01*
X165615187Y-63605663D01*
X165615185Y-63605668D01*
X165610325Y-63620334D01*
X165560001Y-63772203D01*
X165560001Y-63772204D01*
X165560000Y-63772204D01*
X165549500Y-63874983D01*
X165549500Y-64714546D01*
X165529815Y-64781585D01*
X165513181Y-64802227D01*
X163201269Y-67114140D01*
X163114144Y-67201264D01*
X163114142Y-67201267D01*
X163045692Y-67303705D01*
X163045684Y-67303719D01*
X163012347Y-67384207D01*
X163006823Y-67397543D01*
X162998537Y-67417545D01*
X162998535Y-67417553D01*
X162974500Y-67538389D01*
X162974500Y-74841735D01*
X162954815Y-74908774D01*
X162902011Y-74954529D01*
X162864384Y-74964955D01*
X162795750Y-74972688D01*
X162625478Y-75032268D01*
X162472737Y-75128242D01*
X162345184Y-75255795D01*
X162307059Y-75316472D01*
X162254724Y-75362763D01*
X162202065Y-75374500D01*
X159144855Y-75374500D01*
X159078883Y-75355494D01*
X158949523Y-75274211D01*
X158779254Y-75214631D01*
X158779249Y-75214630D01*
X158600004Y-75194435D01*
X158599996Y-75194435D01*
X158420750Y-75214630D01*
X158420745Y-75214631D01*
X158250476Y-75274211D01*
X158097737Y-75370184D01*
X157970184Y-75497737D01*
X157874211Y-75650476D01*
X157814631Y-75820745D01*
X157814630Y-75820750D01*
X157794435Y-75999996D01*
X153884586Y-75999996D01*
X153600106Y-75715516D01*
X153566621Y-75654193D01*
X153571605Y-75584501D01*
X153613477Y-75528568D01*
X153644455Y-75511653D01*
X153692326Y-75493798D01*
X153692326Y-75493797D01*
X153692331Y-75493796D01*
X153807546Y-75407546D01*
X153893796Y-75292331D01*
X153944091Y-75157483D01*
X153950500Y-75097873D01*
X153950499Y-73302128D01*
X153944091Y-73242517D01*
X153937918Y-73225967D01*
X153893797Y-73107671D01*
X153893793Y-73107664D01*
X153807547Y-72992455D01*
X153807544Y-72992452D01*
X153692335Y-72906206D01*
X153692328Y-72906202D01*
X153557482Y-72855908D01*
X153557483Y-72855908D01*
X153497883Y-72849501D01*
X153497881Y-72849500D01*
X153497873Y-72849500D01*
X153497864Y-72849500D01*
X151702129Y-72849500D01*
X151702123Y-72849501D01*
X151642516Y-72855908D01*
X151507671Y-72906202D01*
X151507669Y-72906203D01*
X151482066Y-72925370D01*
X151416601Y-72949786D01*
X151348328Y-72934934D01*
X151320075Y-72913783D01*
X150325778Y-71919486D01*
X150292293Y-71858163D01*
X150297277Y-71788471D01*
X150339149Y-71732538D01*
X150381364Y-71712031D01*
X150475929Y-71686692D01*
X150523653Y-71673906D01*
X150523654Y-71673905D01*
X150523663Y-71673903D01*
X150737830Y-71574035D01*
X150931401Y-71438495D01*
X151053329Y-71316566D01*
X151114648Y-71283084D01*
X151184340Y-71288068D01*
X151240274Y-71329939D01*
X151257189Y-71360917D01*
X151306202Y-71492328D01*
X151306206Y-71492335D01*
X151392452Y-71607544D01*
X151392455Y-71607547D01*
X151507664Y-71693793D01*
X151507671Y-71693797D01*
X151642517Y-71744091D01*
X151642516Y-71744091D01*
X151649444Y-71744835D01*
X151702127Y-71750500D01*
X153497872Y-71750499D01*
X153557483Y-71744091D01*
X153692331Y-71693796D01*
X153807546Y-71607546D01*
X153893796Y-71492331D01*
X153944091Y-71357483D01*
X153950500Y-71297873D01*
X153950499Y-70745950D01*
X153970183Y-70678913D01*
X154022987Y-70633158D01*
X154092146Y-70623214D01*
X154140469Y-70640957D01*
X154275478Y-70725789D01*
X154445745Y-70785368D01*
X154445750Y-70785369D01*
X154624996Y-70805565D01*
X154625000Y-70805565D01*
X154625004Y-70805565D01*
X154804249Y-70785369D01*
X154804252Y-70785368D01*
X154804255Y-70785368D01*
X154974522Y-70725789D01*
X155127262Y-70629816D01*
X155254816Y-70502262D01*
X155350789Y-70349522D01*
X155410368Y-70179255D01*
X155430565Y-70000000D01*
X155410368Y-69820745D01*
X155350789Y-69650478D01*
X155254816Y-69497738D01*
X155127262Y-69370184D01*
X154974519Y-69274208D01*
X154934659Y-69260261D01*
X154877883Y-69219539D01*
X154852136Y-69154586D01*
X154865593Y-69086025D01*
X154887929Y-69055543D01*
X155681655Y-68261819D01*
X155742978Y-68228334D01*
X155769336Y-68225500D01*
X160489548Y-68225500D01*
X160556587Y-68245185D01*
X160577229Y-68261819D01*
X160765968Y-68450558D01*
X160799453Y-68511881D01*
X160794469Y-68581573D01*
X160783282Y-68604208D01*
X160754211Y-68650476D01*
X160754210Y-68650478D01*
X160694633Y-68820737D01*
X160694630Y-68820750D01*
X160674435Y-68999996D01*
X160674435Y-69000003D01*
X160694630Y-69179249D01*
X160694631Y-69179254D01*
X160754211Y-69349523D01*
X160847341Y-69497737D01*
X160850184Y-69502262D01*
X160977738Y-69629816D01*
X161041783Y-69670058D01*
X161116353Y-69716914D01*
X161130478Y-69725789D01*
X161138509Y-69728599D01*
X161300745Y-69785368D01*
X161300750Y-69785369D01*
X161479996Y-69805565D01*
X161480000Y-69805565D01*
X161480004Y-69805565D01*
X161659249Y-69785369D01*
X161659252Y-69785368D01*
X161659255Y-69785368D01*
X161829522Y-69725789D01*
X161982262Y-69629816D01*
X162109816Y-69502262D01*
X162205789Y-69349522D01*
X162265368Y-69179255D01*
X162273413Y-69107853D01*
X162285565Y-69000003D01*
X162285565Y-68999996D01*
X162265369Y-68820750D01*
X162265368Y-68820745D01*
X162214157Y-68674392D01*
X162205789Y-68650478D01*
X162124505Y-68521116D01*
X162105500Y-68455145D01*
X162105500Y-68218394D01*
X162100734Y-68194437D01*
X162100733Y-68194430D01*
X162092754Y-68154309D01*
X162092754Y-68154308D01*
X162081464Y-68097553D01*
X162081463Y-68097552D01*
X162081463Y-68097548D01*
X162034311Y-67983714D01*
X162034310Y-67983713D01*
X162034307Y-67983707D01*
X161965858Y-67881267D01*
X161965855Y-67881263D01*
X161875637Y-67791045D01*
X161875606Y-67791016D01*
X161290198Y-67205608D01*
X161290178Y-67205586D01*
X161198733Y-67114141D01*
X161147509Y-67079915D01*
X161096287Y-67045689D01*
X161096286Y-67045688D01*
X161096283Y-67045686D01*
X161096280Y-67045685D01*
X161015792Y-67012347D01*
X160982453Y-66998537D01*
X160972427Y-66996543D01*
X160922029Y-66986518D01*
X160861610Y-66974500D01*
X160861607Y-66974500D01*
X160861606Y-66974500D01*
X155520491Y-66974500D01*
X155397277Y-66974500D01*
X155397273Y-66974500D01*
X155336855Y-66986518D01*
X155276432Y-66998537D01*
X155276427Y-66998538D01*
X155243091Y-67012347D01*
X155229281Y-67018067D01*
X155207053Y-67027274D01*
X155162597Y-67045688D01*
X155152441Y-67052475D01*
X155152333Y-67052547D01*
X155060152Y-67114140D01*
X155026485Y-67147808D01*
X154973026Y-67201267D01*
X154973023Y-67201270D01*
X154061113Y-68113181D01*
X153999790Y-68146666D01*
X153973432Y-68149500D01*
X151475452Y-68149500D01*
X151408413Y-68129815D01*
X151387771Y-68113181D01*
X150422398Y-67147808D01*
X150388913Y-67086485D01*
X150386676Y-67047975D01*
X150395341Y-66960000D01*
X150376024Y-66763868D01*
X150318814Y-66575273D01*
X150318811Y-66575269D01*
X150318811Y-66575266D01*
X150225913Y-66401467D01*
X150225909Y-66401460D01*
X150100883Y-66249116D01*
X149948539Y-66124090D01*
X149948532Y-66124086D01*
X149774733Y-66031188D01*
X149774727Y-66031186D01*
X149648997Y-65993046D01*
X149586129Y-65973975D01*
X149390000Y-65954659D01*
X149193870Y-65973975D01*
X149005266Y-66031188D01*
X148831467Y-66124086D01*
X148826399Y-66127473D01*
X148825305Y-66125836D01*
X148769337Y-66149596D01*
X148700471Y-66137795D01*
X148683843Y-66127109D01*
X148683601Y-66127473D01*
X148678532Y-66124086D01*
X148504733Y-66031188D01*
X148504727Y-66031186D01*
X148378997Y-65993046D01*
X148316129Y-65973975D01*
X148120000Y-65954659D01*
X147923870Y-65973975D01*
X147794462Y-66013231D01*
X147735273Y-66031186D01*
X147735272Y-66031186D01*
X147735267Y-66031188D01*
X147733143Y-66032324D01*
X147731898Y-66032583D01*
X147729641Y-66033518D01*
X147729463Y-66033089D01*
X147664740Y-66046564D01*
X147600382Y-66022231D01*
X147592331Y-66016204D01*
X147592328Y-66016202D01*
X147457482Y-65965908D01*
X147457483Y-65965908D01*
X147397883Y-65959501D01*
X147397881Y-65959500D01*
X147397873Y-65959500D01*
X147397864Y-65959500D01*
X146302129Y-65959500D01*
X146302123Y-65959501D01*
X146242516Y-65965908D01*
X146107671Y-66016202D01*
X146107664Y-66016206D01*
X145992455Y-66102452D01*
X145992452Y-66102455D01*
X145906206Y-66217664D01*
X145906202Y-66217671D01*
X145855908Y-66352517D01*
X145849501Y-66412116D01*
X145849500Y-66412135D01*
X144800500Y-66412135D01*
X144800500Y-65579996D01*
X152504435Y-65579996D01*
X152504435Y-65580003D01*
X152524630Y-65759249D01*
X152524631Y-65759254D01*
X152584211Y-65929523D01*
X152649556Y-66033518D01*
X152680184Y-66082262D01*
X152807738Y-66209816D01*
X152960478Y-66305789D01*
X153017632Y-66325788D01*
X153130745Y-66365368D01*
X153130750Y-66365369D01*
X153309996Y-66385565D01*
X153310000Y-66385565D01*
X153310004Y-66385565D01*
X153489249Y-66365369D01*
X153489252Y-66365368D01*
X153489255Y-66365368D01*
X153659522Y-66305789D01*
X153757053Y-66244505D01*
X153823025Y-66225500D01*
X160855145Y-66225500D01*
X160921117Y-66244506D01*
X161036722Y-66317146D01*
X161050478Y-66325789D01*
X161163591Y-66365369D01*
X161220745Y-66385368D01*
X161220750Y-66385369D01*
X161399996Y-66405565D01*
X161400000Y-66405565D01*
X161400004Y-66405565D01*
X161579249Y-66385369D01*
X161579252Y-66385368D01*
X161579255Y-66385368D01*
X161749522Y-66325789D01*
X161902262Y-66229816D01*
X162029816Y-66102262D01*
X162125789Y-65949522D01*
X162185368Y-65779255D01*
X162185369Y-65779249D01*
X162205565Y-65600003D01*
X162205565Y-65599996D01*
X162185369Y-65420750D01*
X162185368Y-65420745D01*
X162125788Y-65250476D01*
X162057152Y-65141243D01*
X162029816Y-65097738D01*
X161902262Y-64970184D01*
X161878883Y-64955494D01*
X161749523Y-64874211D01*
X161579254Y-64814631D01*
X161579249Y-64814630D01*
X161400004Y-64794435D01*
X161399996Y-64794435D01*
X161220750Y-64814630D01*
X161220745Y-64814631D01*
X161050476Y-64874211D01*
X160921117Y-64955494D01*
X160855145Y-64974500D01*
X153886143Y-64974500D01*
X153819104Y-64954815D01*
X153815370Y-64952137D01*
X153659523Y-64854211D01*
X153489254Y-64794631D01*
X153489249Y-64794630D01*
X153310004Y-64774435D01*
X153309996Y-64774435D01*
X153130750Y-64794630D01*
X153130745Y-64794631D01*
X152960476Y-64854211D01*
X152807737Y-64950184D01*
X152680184Y-65077737D01*
X152584211Y-65230476D01*
X152524631Y-65400745D01*
X152524630Y-65400750D01*
X152504435Y-65579996D01*
X144800500Y-65579996D01*
X144800500Y-62124500D01*
X144820185Y-62057461D01*
X144872989Y-62011706D01*
X144924500Y-62000500D01*
X173275500Y-62000500D01*
X173342539Y-62020185D01*
G37*
%TD.AperFunction*%
%TD*%
M02*
