%TF.GenerationSoftware,KiCad,Pcbnew,8.0.4-8.0.4-0~ubuntu22.04.1*%
%TF.CreationDate,2024-08-07T00:11:22+05:30*%
%TF.ProjectId,esp32Shield,65737033-3253-4686-9965-6c642e6b6963,rev?*%
%TF.SameCoordinates,Original*%
%TF.FileFunction,Copper,L1,Top*%
%TF.FilePolarity,Positive*%
%FSLAX46Y46*%
G04 Gerber Fmt 4.6, Leading zero omitted, Abs format (unit mm)*
G04 Created by KiCad (PCBNEW 8.0.4-8.0.4-0~ubuntu22.04.1) date 2024-08-07 00:11:22*
%MOMM*%
%LPD*%
G01*
G04 APERTURE LIST*
G04 Aperture macros list*
%AMRoundRect*
0 Rectangle with rounded corners*
0 $1 Rounding radius*
0 $2 $3 $4 $5 $6 $7 $8 $9 X,Y pos of 4 corners*
0 Add a 4 corners polygon primitive as box body*
4,1,4,$2,$3,$4,$5,$6,$7,$8,$9,$2,$3,0*
0 Add four circle primitives for the rounded corners*
1,1,$1+$1,$2,$3*
1,1,$1+$1,$4,$5*
1,1,$1+$1,$6,$7*
1,1,$1+$1,$8,$9*
0 Add four rect primitives between the rounded corners*
20,1,$1+$1,$2,$3,$4,$5,0*
20,1,$1+$1,$4,$5,$6,$7,0*
20,1,$1+$1,$6,$7,$8,$9,0*
20,1,$1+$1,$8,$9,$2,$3,0*%
G04 Aperture macros list end*
%TA.AperFunction,ComponentPad*%
%ADD10R,1.700000X1.700000*%
%TD*%
%TA.AperFunction,ComponentPad*%
%ADD11O,1.700000X1.700000*%
%TD*%
%TA.AperFunction,ComponentPad*%
%ADD12R,3.800000X3.800000*%
%TD*%
%TA.AperFunction,ComponentPad*%
%ADD13C,3.800000*%
%TD*%
%TA.AperFunction,SMDPad,CuDef*%
%ADD14RoundRect,0.155000X-0.212500X-0.155000X0.212500X-0.155000X0.212500X0.155000X-0.212500X0.155000X0*%
%TD*%
%TA.AperFunction,SMDPad,CuDef*%
%ADD15RoundRect,0.069750X0.395250X-0.585250X0.395250X0.585250X-0.395250X0.585250X-0.395250X-0.585250X0*%
%TD*%
%TA.AperFunction,SMDPad,CuDef*%
%ADD16RoundRect,0.098250X1.521750X-0.556750X1.521750X0.556750X-1.521750X0.556750X-1.521750X-0.556750X0*%
%TD*%
%TA.AperFunction,ComponentPad*%
%ADD17RoundRect,0.250000X-0.600000X-0.750000X0.600000X-0.750000X0.600000X0.750000X-0.600000X0.750000X0*%
%TD*%
%TA.AperFunction,ComponentPad*%
%ADD18O,1.700000X2.000000*%
%TD*%
%TA.AperFunction,SMDPad,CuDef*%
%ADD19RoundRect,0.200000X-0.200000X-0.275000X0.200000X-0.275000X0.200000X0.275000X-0.200000X0.275000X0*%
%TD*%
%TA.AperFunction,SMDPad,CuDef*%
%ADD20R,5.400000X5.400000*%
%TD*%
%TA.AperFunction,SMDPad,CuDef*%
%ADD21RoundRect,0.043750X-0.131250X-0.181250X0.131250X-0.181250X0.131250X0.181250X-0.131250X0.181250X0*%
%TD*%
%TA.AperFunction,SMDPad,CuDef*%
%ADD22RoundRect,0.043750X-0.181250X-0.131250X0.181250X-0.131250X0.181250X0.131250X-0.181250X0.131250X0*%
%TD*%
%TA.AperFunction,SMDPad,CuDef*%
%ADD23RoundRect,0.155000X0.155000X-0.212500X0.155000X0.212500X-0.155000X0.212500X-0.155000X-0.212500X0*%
%TD*%
%TA.AperFunction,SMDPad,CuDef*%
%ADD24R,1.250000X1.000000*%
%TD*%
%TA.AperFunction,ComponentPad*%
%ADD25RoundRect,0.250000X0.600000X0.750000X-0.600000X0.750000X-0.600000X-0.750000X0.600000X-0.750000X0*%
%TD*%
%TA.AperFunction,ComponentPad*%
%ADD26R,1.000000X1.000000*%
%TD*%
%TA.AperFunction,ComponentPad*%
%ADD27O,1.000000X1.000000*%
%TD*%
%TA.AperFunction,ViaPad*%
%ADD28C,0.600000*%
%TD*%
%TA.AperFunction,Conductor*%
%ADD29C,0.250000*%
%TD*%
G04 APERTURE END LIST*
D10*
%TO.P,M10,1,Pin_1*%
%TO.N,+5V*%
X165875000Y-78250000D03*
D11*
%TO.P,M10,2,Pin_2*%
%TO.N,PWM10*%
X168415000Y-78250000D03*
%TO.P,M10,3,Pin_3*%
%TO.N,GND*%
X170955000Y-78250000D03*
%TD*%
D12*
%TO.P,J1,1,1*%
%TO.N,GND*%
X164600000Y-94800000D03*
D13*
%TO.P,J1,2,2*%
%TO.N,+5V*%
X169600000Y-94800000D03*
%TD*%
D10*
%TO.P,M2,1,Pin_1*%
%TO.N,+5V*%
X152600000Y-74200000D03*
D11*
%TO.P,M2,2,Pin_2*%
%TO.N,PWM2*%
X150060000Y-74200000D03*
%TO.P,M2,3,Pin_3*%
%TO.N,GND*%
X147520000Y-74200000D03*
%TD*%
D14*
%TO.P,C6,1*%
%TO.N,+3.3V*%
X149552500Y-63330000D03*
%TO.P,C6,2*%
%TO.N,GND*%
X150687500Y-63330000D03*
%TD*%
D10*
%TO.P,M11,1,Pin_1*%
%TO.N,+5V*%
X165875000Y-74400000D03*
D11*
%TO.P,M11,2,Pin_2*%
%TO.N,PWM11*%
X168415000Y-74400000D03*
%TO.P,M11,3,Pin_3*%
%TO.N,GND*%
X170955000Y-74400000D03*
%TD*%
D10*
%TO.P,M6,1,Pin_1*%
%TO.N,+5V*%
X152600000Y-89400000D03*
D11*
%TO.P,M6,2,Pin_2*%
%TO.N,PWM6*%
X150060000Y-89400000D03*
%TO.P,M6,3,Pin_3*%
%TO.N,GND*%
X147520000Y-89400000D03*
%TD*%
D15*
%TO.P,U2,1,GND/ADJ*%
%TO.N,GND*%
X156110000Y-74945000D03*
%TO.P,U2,2,VOUT*%
%TO.N,+3.3V*%
X158400000Y-74945000D03*
%TO.P,U2,3,VIN*%
%TO.N,+5V*%
X160690000Y-74945000D03*
D16*
%TO.P,U2,4*%
%TO.N,N/C*%
X158400000Y-68255000D03*
%TD*%
D10*
%TO.P,M8,1,Pin_1*%
%TO.N,+5V*%
X165875000Y-85800000D03*
D11*
%TO.P,M8,2,Pin_2*%
%TO.N,PWM8*%
X168415000Y-85800000D03*
%TO.P,M8,3,Pin_3*%
%TO.N,GND*%
X170955000Y-85800000D03*
%TD*%
D17*
%TO.P,J4,1,Pin_1*%
%TO.N,SDA*%
X166900000Y-64675000D03*
D18*
%TO.P,J4,2,Pin_2*%
%TO.N,SCL*%
X169400000Y-64675000D03*
%TD*%
D10*
%TO.P,M5,1,Pin_1*%
%TO.N,+5V*%
X152600000Y-85600000D03*
D11*
%TO.P,M5,2,Pin_2*%
%TO.N,PWM5*%
X150060000Y-85600000D03*
%TO.P,M5,3,Pin_3*%
%TO.N,GND*%
X147520000Y-85600000D03*
%TD*%
D10*
%TO.P,M9,1,Pin_1*%
%TO.N,+5V*%
X165920000Y-82000000D03*
D11*
%TO.P,M9,2,Pin_2*%
%TO.N,PWM9*%
X168460000Y-82000000D03*
%TO.P,M9,3,Pin_3*%
%TO.N,GND*%
X171000000Y-82000000D03*
%TD*%
D19*
%TO.P,R1,1*%
%TO.N,+3.3V*%
X159145000Y-86280000D03*
%TO.P,R1,2*%
%TO.N,IO12*%
X160795000Y-86280000D03*
%TD*%
D10*
%TO.P,M3,1,Pin_1*%
%TO.N,+5V*%
X152600000Y-77950000D03*
D11*
%TO.P,M3,2,Pin_2*%
%TO.N,PWM3*%
X150060000Y-77950000D03*
%TO.P,M3,3,Pin_3*%
%TO.N,GND*%
X147520000Y-77950000D03*
%TD*%
D14*
%TO.P,C4,1*%
%TO.N,+3.3V*%
X155465000Y-93400000D03*
%TO.P,C4,2*%
%TO.N,GND*%
X156600000Y-93400000D03*
%TD*%
D19*
%TO.P,R2,1*%
%TO.N,+3.3V*%
X145705000Y-62820000D03*
%TO.P,R2,2*%
%TO.N,boot*%
X147355000Y-62820000D03*
%TD*%
D20*
%TO.P,U1,49,GND*%
%TO.N,GND*%
X159512500Y-80000000D03*
D21*
%TO.P,U1,48,CAP1_NC*%
%TO.N,unconnected-(U1-CAP1_NC-Pad48)*%
X156762500Y-76735000D03*
%TO.P,U1,47,CAP2_NC*%
%TO.N,unconnected-(U1-CAP2_NC-Pad47)*%
X157262500Y-76735000D03*
%TO.P,U1,46,VDDA*%
%TO.N,+3.3V*%
X157762500Y-76735000D03*
%TO.P,U1,45,XTAL_P_NC*%
%TO.N,unconnected-(U1-XTAL_P_NC-Pad45)*%
X158262500Y-76735000D03*
%TO.P,U1,44,XTAL_N_NC*%
%TO.N,unconnected-(U1-XTAL_N_NC-Pad44)*%
X158762500Y-76735000D03*
%TO.P,U1,43,VDDA*%
%TO.N,+3.3V*%
X159262500Y-76735000D03*
%TO.P,U1,42,IO21*%
%TO.N,unconnected-(U1-IO21-Pad42)*%
X159762500Y-76735000D03*
%TO.P,U1,41,U0TXD*%
%TO.N,TX*%
X160262500Y-76735000D03*
%TO.P,U1,40,U0RXD*%
%TO.N,RX*%
X160762500Y-76735000D03*
%TO.P,U1,39,IO22*%
%TO.N,unconnected-(U1-IO22-Pad39)*%
X161262500Y-76735000D03*
%TO.P,U1,38,IO19*%
%TO.N,PWM12*%
X161762500Y-76735000D03*
%TO.P,U1,37,VDD3P3_CPU*%
%TO.N,+3.3V*%
X162262500Y-76735000D03*
D22*
%TO.P,U1,36,IO23*%
%TO.N,SDA*%
X162777500Y-77250000D03*
%TO.P,U1,35,IO18*%
%TO.N,SCL*%
X162777500Y-77750000D03*
%TO.P,U1,34,IO5*%
%TO.N,PWM11*%
X162777500Y-78250000D03*
%TO.P,U1,33,SD1*%
%TO.N,unconnected-(U1-SD1-Pad33)*%
X162777500Y-78750000D03*
%TO.P,U1,32,SD0*%
%TO.N,unconnected-(U1-SD0-Pad32)*%
X162777500Y-79250000D03*
%TO.P,U1,31,CLK*%
%TO.N,unconnected-(U1-CLK-Pad31)*%
X162777500Y-79750000D03*
%TO.P,U1,30,CMD*%
%TO.N,unconnected-(U1-CMD-Pad30)*%
X162777500Y-80250000D03*
%TO.P,U1,29,SD3*%
%TO.N,unconnected-(U1-SD3-Pad29)*%
X162777500Y-80750000D03*
%TO.P,U1,28,SD2*%
%TO.N,unconnected-(U1-SD2-Pad28)*%
X162777500Y-81250000D03*
%TO.P,U1,27,IO17*%
%TO.N,unconnected-(U1-IO17-Pad27)*%
X162777500Y-81750000D03*
%TO.P,U1,26,VDD_SDIO*%
%TO.N,unconnected-(U1-VDD_SDIO-Pad26)*%
X162777500Y-82250000D03*
%TO.P,U1,25,IO16*%
%TO.N,unconnected-(U1-IO16-Pad25)*%
X162777500Y-82750000D03*
D21*
%TO.P,U1,24,IO4*%
%TO.N,PWM10*%
X162262500Y-83265000D03*
%TO.P,U1,23,IO0*%
%TO.N,boot*%
X161762500Y-83265000D03*
%TO.P,U1,22,IO2*%
%TO.N,PWM9*%
X161262500Y-83265000D03*
%TO.P,U1,21,IO15*%
%TO.N,PWM8*%
X160762500Y-83265000D03*
%TO.P,U1,20,IO13*%
%TO.N,PWM7*%
X160262500Y-83265000D03*
%TO.P,U1,19,VDD3P3_RTC*%
%TO.N,+3.3V*%
X159762500Y-83265000D03*
%TO.P,U1,18,IO12*%
%TO.N,IO12*%
X159262500Y-83265000D03*
%TO.P,U1,17,IO14*%
%TO.N,PWM6*%
X158762500Y-83265000D03*
%TO.P,U1,16,IO27*%
%TO.N,PWM5*%
X158262500Y-83265000D03*
%TO.P,U1,15,IO26*%
%TO.N,PWM4*%
X157762500Y-83265000D03*
%TO.P,U1,14,IO25*%
%TO.N,PWM3*%
X157262500Y-83265000D03*
%TO.P,U1,13,IO33*%
%TO.N,PWM2*%
X156762500Y-83265000D03*
D22*
%TO.P,U1,12,IO32*%
%TO.N,PWM1*%
X156247500Y-82750000D03*
%TO.P,U1,11,IO35*%
%TO.N,unconnected-(U1-IO35-Pad11)*%
X156247500Y-82250000D03*
%TO.P,U1,10,IO34*%
%TO.N,unconnected-(U1-IO34-Pad10)*%
X156247500Y-81750000D03*
%TO.P,U1,9,EN*%
%TO.N,reset*%
X156247500Y-81250000D03*
%TO.P,U1,8,SENSOR_VN*%
%TO.N,unconnected-(U1-SENSOR_VN-Pad8)*%
X156247500Y-80750000D03*
%TO.P,U1,7,SENSOR_CAPN*%
%TO.N,unconnected-(U1-SENSOR_CAPN-Pad7)*%
X156247500Y-80250000D03*
%TO.P,U1,6,SENSOR_CAPP*%
%TO.N,unconnected-(U1-SENSOR_CAPP-Pad6)*%
X156247500Y-79750000D03*
%TO.P,U1,5,SENSOR_VP*%
%TO.N,unconnected-(U1-SENSOR_VP-Pad5)*%
X156247500Y-79250000D03*
%TO.P,U1,4,VDDA3P3*%
%TO.N,+3.3V*%
X156247500Y-78750000D03*
%TO.P,U1,3,VDDA3P3*%
X156247500Y-78250000D03*
%TO.P,U1,2,LNA_IN*%
%TO.N,unconnected-(U1-LNA_IN-Pad2)*%
X156247500Y-77750000D03*
%TO.P,U1,1,VDDA*%
%TO.N,+3.3V*%
X156247500Y-77250000D03*
%TD*%
D14*
%TO.P,C2,1*%
%TO.N,reset*%
X155562500Y-92150000D03*
%TO.P,C2,2*%
%TO.N,GND*%
X156697500Y-92150000D03*
%TD*%
D10*
%TO.P,M7,1,Pin_1*%
%TO.N,+5V*%
X165875000Y-89600000D03*
D11*
%TO.P,M7,2,Pin_2*%
%TO.N,PWM7*%
X168415000Y-89600000D03*
%TO.P,M7,3,Pin_3*%
%TO.N,GND*%
X170955000Y-89600000D03*
%TD*%
D10*
%TO.P,M4,1,Pin_1*%
%TO.N,+5V*%
X152600000Y-81800000D03*
D11*
%TO.P,M4,2,Pin_2*%
%TO.N,PWM4*%
X150060000Y-81800000D03*
%TO.P,M4,3,Pin_3*%
%TO.N,GND*%
X147520000Y-81800000D03*
%TD*%
D14*
%TO.P,C5,1*%
%TO.N,reset*%
X149592500Y-64380000D03*
%TO.P,C5,2*%
%TO.N,GND*%
X150727500Y-64380000D03*
%TD*%
D23*
%TO.P,C1,1*%
%TO.N,+3.3V*%
X162800000Y-74935000D03*
%TO.P,C1,2*%
%TO.N,GND*%
X162800000Y-73800000D03*
%TD*%
D24*
%TO.P,SW1,1,1*%
%TO.N,GND*%
X163070000Y-89150000D03*
%TO.P,SW1,2,2*%
%TO.N,reset*%
X155320000Y-89150000D03*
%TD*%
D10*
%TO.P,M12,1,Pin_1*%
%TO.N,+5V*%
X165875000Y-70600000D03*
D11*
%TO.P,M12,2,Pin_2*%
%TO.N,PWM12*%
X168415000Y-70600000D03*
%TO.P,M12,3,Pin_3*%
%TO.N,GND*%
X170955000Y-70600000D03*
%TD*%
D25*
%TO.P,J3,1,Pin_1*%
%TO.N,+5V*%
X151450000Y-95400000D03*
D18*
%TO.P,J3,2,Pin_2*%
%TO.N,GND*%
X148950000Y-95400000D03*
%TD*%
D23*
%TO.P,C3,1*%
%TO.N,boot*%
X163200000Y-69400000D03*
%TO.P,C3,2*%
%TO.N,GND*%
X163200000Y-68265000D03*
%TD*%
D10*
%TO.P,M1,1,Pin_1*%
%TO.N,+5V*%
X152600000Y-70400000D03*
D11*
%TO.P,M1,2,Pin_2*%
%TO.N,PWM1*%
X150060000Y-70400000D03*
%TO.P,M1,3,Pin_3*%
%TO.N,GND*%
X147520000Y-70400000D03*
%TD*%
D26*
%TO.P,J2,1,Pin_1*%
%TO.N,+3.3V*%
X146850000Y-66960000D03*
D27*
%TO.P,J2,2,Pin_2*%
%TO.N,TX*%
X148120000Y-66960000D03*
%TO.P,J2,3,Pin_3*%
%TO.N,RX*%
X149390000Y-66960000D03*
%TO.P,J2,4,Pin_4*%
%TO.N,GND*%
X150660000Y-66960000D03*
%TD*%
D19*
%TO.P,R3,1*%
%TO.N,+3.3V*%
X145725000Y-64580000D03*
%TO.P,R3,2*%
%TO.N,reset*%
X147375000Y-64580000D03*
%TD*%
D24*
%TO.P,SW2,1,1*%
%TO.N,GND*%
X155035000Y-64400000D03*
%TO.P,SW2,2,2*%
%TO.N,boot*%
X162785000Y-64400000D03*
%TD*%
D14*
%TO.P,C7,1*%
%TO.N,+5V*%
X159502500Y-92180000D03*
%TO.P,C7,2*%
%TO.N,GND*%
X160637500Y-92180000D03*
%TD*%
D28*
%TO.N,SCL*%
X163690044Y-77400000D03*
%TO.N,SDA*%
X163200000Y-76600000D03*
%TO.N,IO12*%
X159127888Y-84527888D03*
X160886688Y-85679760D03*
%TO.N,reset*%
X154944391Y-79749112D03*
X156200000Y-87600000D03*
%TO.N,boot*%
X164675000Y-72000000D03*
X161400000Y-65600000D03*
X153310000Y-65580000D03*
X164150000Y-83350000D03*
%TO.N,TX*%
X154625000Y-70000000D03*
%TO.N,RX*%
X161480000Y-69000000D03*
%TO.N,GND*%
X157000000Y-75000000D03*
X159400000Y-80000000D03*
X157200000Y-93000000D03*
X162975000Y-73225000D03*
X150720000Y-64380000D03*
X163200000Y-66800000D03*
X153800000Y-64400000D03*
X161800000Y-89400000D03*
%TO.N,+3.3V*%
X158600000Y-76000000D03*
X162975000Y-75758058D03*
X155500000Y-94170000D03*
X155569391Y-78895803D03*
X158800000Y-85400000D03*
%TD*%
D29*
%TO.N,SCL*%
X162777500Y-77750000D02*
X163340044Y-77750000D01*
X163340044Y-77750000D02*
X163690044Y-77400000D01*
%TO.N,SDA*%
X162777500Y-77022500D02*
X163200000Y-76600000D01*
X162777500Y-77250000D02*
X162777500Y-77022500D01*
X163327500Y-76727500D02*
X163200000Y-76600000D01*
%TO.N,IO12*%
X159262500Y-84393276D02*
X159127888Y-84527888D01*
X159262500Y-83265000D02*
X159262500Y-84393276D01*
X161000000Y-86200000D02*
X161000000Y-85793072D01*
X160886688Y-85679760D02*
X160886688Y-86188312D01*
X161000000Y-85793072D02*
X160886688Y-85679760D01*
X160886688Y-86188312D02*
X160795000Y-86280000D01*
%TO.N,reset*%
X150870000Y-65470000D02*
X150360000Y-65470000D01*
X148020000Y-65470000D02*
X150360000Y-65470000D01*
X147375000Y-64825000D02*
X148020000Y-65470000D01*
X154000000Y-68600000D02*
X154000000Y-75000000D01*
X147375000Y-64580000D02*
X147375000Y-64825000D01*
X149562500Y-64410000D02*
X149592500Y-64380000D01*
X155697500Y-81035204D02*
X155697500Y-80502221D01*
X156247500Y-81250000D02*
X155912296Y-81250000D01*
X155325000Y-89200000D02*
X155325000Y-91925000D01*
X155697500Y-80502221D02*
X154944391Y-79749112D01*
X154800000Y-75800000D02*
X154800000Y-79604721D01*
X155912296Y-81250000D02*
X155697500Y-81035204D01*
X156200000Y-87600000D02*
X156200000Y-88325000D01*
X154000000Y-75000000D02*
X154800000Y-75800000D01*
X147575000Y-64825000D02*
X147575000Y-64200000D01*
X154000000Y-68600000D02*
X150870000Y-65470000D01*
X154800000Y-79604721D02*
X154944391Y-79749112D01*
X155325000Y-91925000D02*
X155600000Y-92200000D01*
X147395000Y-64410000D02*
X149562500Y-64410000D01*
X156200000Y-88325000D02*
X155325000Y-89200000D01*
%TO.N,boot*%
X161675000Y-65600000D02*
X162875000Y-64400000D01*
X151930000Y-63280000D02*
X151930000Y-64200000D01*
X163600000Y-83900000D02*
X161900000Y-83900000D01*
X162875000Y-64400000D02*
X162565000Y-64710000D01*
X147355000Y-62820000D02*
X147575000Y-62600000D01*
X161900000Y-83900000D02*
X161762500Y-83762500D01*
X161762500Y-83762500D02*
X161762500Y-83265000D01*
X162565000Y-68765000D02*
X163200000Y-69400000D01*
X151250000Y-62600000D02*
X151930000Y-63280000D01*
X147575000Y-62600000D02*
X151250000Y-62600000D01*
X164675000Y-72000000D02*
X164225000Y-72000000D01*
X163000000Y-70775000D02*
X163000000Y-69600000D01*
X161400000Y-65600000D02*
X161675000Y-65600000D01*
X164150000Y-83350000D02*
X163600000Y-83900000D01*
X163000000Y-69600000D02*
X163200000Y-69400000D01*
X164225000Y-72000000D02*
X163000000Y-70775000D01*
X162565000Y-64710000D02*
X162565000Y-68765000D01*
X147575000Y-62687500D02*
X147487500Y-62600000D01*
X151930000Y-64200000D02*
X153310000Y-65580000D01*
X147375000Y-62850000D02*
X147375000Y-63015000D01*
%TO.N,TX*%
X160262500Y-76058194D02*
X160262500Y-76735000D01*
X154450000Y-73050000D02*
X155365000Y-73965000D01*
X159600000Y-75395694D02*
X160262500Y-76058194D01*
X154625000Y-70000000D02*
X154450000Y-70175000D01*
X154450000Y-70175000D02*
X154450000Y-73050000D01*
X155365000Y-73965000D02*
X158960694Y-73965000D01*
X159600000Y-74604306D02*
X159600000Y-75395694D01*
X158960694Y-73965000D02*
X159600000Y-74604306D01*
%TO.N,RX*%
X161480000Y-69000000D02*
X161480000Y-75695694D01*
X161480000Y-75695694D02*
X161250694Y-75925000D01*
X149390000Y-67000000D02*
X149200000Y-67000000D01*
X161237296Y-75925000D02*
X160762500Y-76399796D01*
X160762500Y-76399796D02*
X160762500Y-76735000D01*
X161250694Y-75925000D02*
X161237296Y-75925000D01*
%TO.N,GND*%
X160637500Y-92180000D02*
X161650000Y-92180000D01*
X163075000Y-89200000D02*
X162000000Y-89200000D01*
X159512500Y-80000000D02*
X159400000Y-80000000D01*
X155125000Y-64400000D02*
X153800000Y-64400000D01*
X156735000Y-92200000D02*
X156735000Y-93265000D01*
X156800000Y-93400000D02*
X157200000Y-93000000D01*
X156110000Y-74945000D02*
X156945000Y-74945000D01*
X156735000Y-93265000D02*
X156600000Y-93400000D01*
X162800000Y-73800000D02*
X162800000Y-73400000D01*
X163200000Y-68265000D02*
X163200000Y-66800000D01*
X150687500Y-63330000D02*
X150687500Y-64340000D01*
X163070000Y-90760000D02*
X163070000Y-89150000D01*
X156600000Y-93400000D02*
X156800000Y-93400000D01*
X156255000Y-74945000D02*
X156200000Y-75000000D01*
X162800000Y-73400000D02*
X162975000Y-73225000D01*
X162000000Y-89200000D02*
X161800000Y-89400000D01*
X150687500Y-64340000D02*
X150727500Y-64380000D01*
X161650000Y-92180000D02*
X163070000Y-90760000D01*
X156945000Y-74945000D02*
X157000000Y-75000000D01*
%TO.N,+3.3V*%
X145745000Y-64545000D02*
X145745000Y-64410000D01*
X156247500Y-77250000D02*
X155912296Y-77250000D01*
X145725000Y-63070000D02*
X145735000Y-63060000D01*
X145725000Y-64390000D02*
X145745000Y-64410000D01*
X158600000Y-76000000D02*
X158162296Y-76000000D01*
X156247500Y-78250000D02*
X156247500Y-78750000D01*
X157762500Y-76399796D02*
X157547704Y-76185000D01*
X155500000Y-93435000D02*
X155465000Y-93400000D01*
X158862704Y-76000000D02*
X159262500Y-76399796D01*
X156247500Y-76414796D02*
X156247500Y-77250000D01*
X155912296Y-78250000D02*
X156247500Y-78250000D01*
X158800000Y-85400000D02*
X158800000Y-85825000D01*
X155912296Y-77250000D02*
X155697500Y-77464796D01*
X155697500Y-78035204D02*
X155912296Y-78250000D01*
X156477296Y-76185000D02*
X156247500Y-76414796D01*
X155697500Y-77464796D02*
X155697500Y-78035204D01*
X162904238Y-75758058D02*
X162262500Y-76399796D01*
X148280000Y-63700000D02*
X148650000Y-63330000D01*
X155715194Y-78750000D02*
X156247500Y-78750000D01*
X145725000Y-64580000D02*
X146605000Y-63700000D01*
X159400000Y-85400000D02*
X158800000Y-85400000D01*
X157762500Y-76735000D02*
X157762500Y-76399796D01*
X162975000Y-75110000D02*
X162800000Y-74935000D01*
X158600000Y-76000000D02*
X158862704Y-76000000D01*
X145735000Y-63060000D02*
X145735000Y-62765000D01*
X146605000Y-63700000D02*
X148280000Y-63700000D01*
X145725000Y-64580000D02*
X145725000Y-63070000D01*
X158400000Y-75800000D02*
X158400000Y-74945000D01*
X146850000Y-67000000D02*
X145725000Y-65875000D01*
X159762500Y-83265000D02*
X159762500Y-85037500D01*
X158600000Y-76000000D02*
X158400000Y-75800000D01*
X148650000Y-63330000D02*
X149552500Y-63330000D01*
X158800000Y-85825000D02*
X159175000Y-86200000D01*
X159762500Y-85037500D02*
X159400000Y-85400000D01*
X155500000Y-94170000D02*
X155500000Y-93435000D01*
X159262500Y-76399796D02*
X159262500Y-76735000D01*
X145725000Y-65875000D02*
X145725000Y-64580000D01*
X155569391Y-78895803D02*
X155715194Y-78750000D01*
X162975000Y-75758058D02*
X162904238Y-75758058D01*
X157547704Y-76185000D02*
X156477296Y-76185000D01*
X162262500Y-76399796D02*
X162262500Y-76735000D01*
X158162296Y-76000000D02*
X157762500Y-76399796D01*
X162975000Y-75758058D02*
X162975000Y-75110000D01*
%TO.N,PWM1*%
X154350000Y-79459619D02*
X154319391Y-79490228D01*
X155912296Y-82750000D02*
X156247500Y-82750000D01*
X154319391Y-79490228D02*
X154319391Y-80007996D01*
X151400000Y-71740000D02*
X151400000Y-75350000D01*
X151400000Y-75350000D02*
X151650000Y-75600000D01*
X153963604Y-75600000D02*
X154350000Y-75986396D01*
X155200000Y-82037704D02*
X155912296Y-82750000D01*
X155200000Y-80888605D02*
X155200000Y-82037704D01*
X151650000Y-75600000D02*
X153963604Y-75600000D01*
X150060000Y-70400000D02*
X151400000Y-71740000D01*
X154350000Y-75986396D02*
X154350000Y-79459619D01*
X154319391Y-80007996D02*
X155200000Y-80888605D01*
%TO.N,PWM2*%
X151450000Y-76050000D02*
X153777208Y-76050000D01*
X154400000Y-80725001D02*
X154400000Y-81874100D01*
X153869391Y-80194392D02*
X154400000Y-80725001D01*
X153900000Y-79273223D02*
X153869391Y-79303832D01*
X154400000Y-81874100D02*
X155790900Y-83265000D01*
X150060000Y-74200000D02*
X150060000Y-74660000D01*
X155790900Y-83265000D02*
X156762500Y-83265000D01*
X153900000Y-76172792D02*
X153900000Y-79273223D01*
X153869391Y-79303832D02*
X153869391Y-80194392D01*
X150060000Y-74660000D02*
X151450000Y-76050000D01*
X153777208Y-76050000D02*
X153900000Y-76172792D01*
%TO.N,PWM3*%
X157262500Y-83265000D02*
X157262500Y-83600204D01*
X155704504Y-83815000D02*
X154864504Y-82975000D01*
X150060000Y-78660000D02*
X150060000Y-77950000D01*
X151425000Y-82975000D02*
X151425000Y-80025000D01*
X157262500Y-83600204D02*
X157047704Y-83815000D01*
X157047704Y-83815000D02*
X155704504Y-83815000D01*
X151425000Y-80025000D02*
X150060000Y-78660000D01*
X154864504Y-82975000D02*
X151425000Y-82975000D01*
%TO.N,PWM4*%
X154111396Y-83600000D02*
X150657919Y-83600000D01*
X150060000Y-83002081D02*
X150060000Y-81800000D01*
X150657919Y-83600000D02*
X150060000Y-83002081D01*
X157762500Y-83265000D02*
X157762500Y-83736600D01*
X157234100Y-84265000D02*
X154776396Y-84265000D01*
X154776396Y-84265000D02*
X154111396Y-83600000D01*
X157762500Y-83736600D02*
X157234100Y-84265000D01*
%TO.N,PWM5*%
X157185496Y-84950000D02*
X154300000Y-84950000D01*
X158262500Y-83872996D02*
X157185496Y-84950000D01*
X153775000Y-84425000D02*
X151235000Y-84425000D01*
X158262500Y-83265000D02*
X158262500Y-83872996D01*
X154300000Y-84950000D02*
X153775000Y-84425000D01*
X151235000Y-84425000D02*
X150060000Y-85600000D01*
%TO.N,PWM6*%
X154267500Y-89907500D02*
X154307500Y-89867500D01*
X150060000Y-89400000D02*
X151235000Y-90575000D01*
X154307500Y-87867500D02*
X155400000Y-86775000D01*
X158762500Y-84009392D02*
X158762500Y-83265000D01*
X155996892Y-86775000D02*
X158762500Y-84009392D01*
X154307500Y-89867500D02*
X154307500Y-87867500D01*
X151235000Y-90575000D02*
X153600000Y-90575000D01*
X155400000Y-86775000D02*
X155996892Y-86775000D01*
X153600000Y-90575000D02*
X154267500Y-89907500D01*
%TO.N,PWM7*%
X165160000Y-88200000D02*
X167015000Y-88200000D01*
X163070000Y-86110000D02*
X162200812Y-86110000D01*
X160262500Y-84171688D02*
X160262500Y-83265000D01*
X163070000Y-86110000D02*
X165160000Y-88200000D01*
X167015000Y-88200000D02*
X168415000Y-89600000D01*
X162200812Y-86110000D02*
X160262500Y-84171688D01*
%TO.N,PWM8*%
X164645000Y-86975000D02*
X167240000Y-86975000D01*
X162920000Y-85250000D02*
X164645000Y-86975000D01*
X167240000Y-86975000D02*
X168415000Y-85800000D01*
X160762500Y-83265000D02*
X160762500Y-84035292D01*
X161977208Y-85250000D02*
X162920000Y-85250000D01*
X160762500Y-84035292D02*
X161977208Y-85250000D01*
%TO.N,PWM9*%
X161262500Y-83265000D02*
X161262500Y-83898896D01*
X161262500Y-83898896D02*
X162163604Y-84800000D01*
X164600000Y-84800000D02*
X164900000Y-84500000D01*
X162163604Y-84800000D02*
X162600000Y-84800000D01*
X164900000Y-84500000D02*
X166900000Y-84500000D01*
X166900000Y-84500000D02*
X168415000Y-82985000D01*
X168415000Y-82985000D02*
X168415000Y-82000000D01*
X162600000Y-84800000D02*
X164600000Y-84800000D01*
%TO.N,PWM10*%
X162262500Y-83265000D02*
X163195000Y-83265000D01*
X163740000Y-82720000D02*
X163740000Y-81860000D01*
X163195000Y-83265000D02*
X163740000Y-82720000D01*
X163740000Y-81860000D02*
X166175000Y-79425000D01*
X167240000Y-79425000D02*
X168415000Y-78250000D01*
X166175000Y-79425000D02*
X167240000Y-79425000D01*
%TO.N,PWM11*%
X163723928Y-78250000D02*
X162777500Y-78250000D01*
X168415000Y-74400000D02*
X167240000Y-75575000D01*
X167240000Y-75575000D02*
X166340044Y-75575000D01*
X166340044Y-75575000D02*
X164315044Y-77600000D01*
X164315044Y-77600000D02*
X164315044Y-77658884D01*
X164315044Y-77658884D02*
X163723928Y-78250000D01*
%TO.N,PWM12*%
X164391116Y-72600000D02*
X164416116Y-72625000D01*
X164416116Y-72625000D02*
X166390000Y-72625000D01*
X161762500Y-76735000D02*
X161762500Y-76049590D01*
X161762500Y-76049590D02*
X162000000Y-75812090D01*
X162600000Y-72600000D02*
X164391116Y-72600000D01*
X162000000Y-73200000D02*
X162600000Y-72600000D01*
X162000000Y-75812090D02*
X162000000Y-73200000D01*
X166390000Y-72625000D02*
X168415000Y-70600000D01*
%TD*%
%TA.AperFunction,Conductor*%
%TO.N,+5V*%
G36*
X173342539Y-62020185D02*
G01*
X173388294Y-62072989D01*
X173399500Y-62124500D01*
X173399500Y-98075500D01*
X173379815Y-98142539D01*
X173327011Y-98188294D01*
X173275500Y-98199500D01*
X144924500Y-98199500D01*
X144857461Y-98179815D01*
X144811706Y-98127011D01*
X144800500Y-98075500D01*
X144800500Y-95143713D01*
X147599500Y-95143713D01*
X147599500Y-95656286D01*
X147619094Y-95780001D01*
X147632754Y-95866243D01*
X147694228Y-96055441D01*
X147698444Y-96068414D01*
X147794951Y-96257820D01*
X147919890Y-96429786D01*
X148070213Y-96580109D01*
X148242179Y-96705048D01*
X148242181Y-96705049D01*
X148242184Y-96705051D01*
X148431588Y-96801557D01*
X148633757Y-96867246D01*
X148843713Y-96900500D01*
X148843714Y-96900500D01*
X149056286Y-96900500D01*
X149056287Y-96900500D01*
X149266243Y-96867246D01*
X149468412Y-96801557D01*
X149657816Y-96705051D01*
X149690424Y-96681360D01*
X149829786Y-96580109D01*
X149829788Y-96580106D01*
X149829792Y-96580104D01*
X149980104Y-96429792D01*
X149980106Y-96429788D01*
X149980109Y-96429786D01*
X150105048Y-96257820D01*
X150105047Y-96257820D01*
X150105051Y-96257816D01*
X150201557Y-96068412D01*
X150267246Y-95866243D01*
X150280906Y-95779998D01*
X157724569Y-95779998D01*
X157724569Y-95780001D01*
X157744269Y-96055442D01*
X157744270Y-96055449D01*
X157773110Y-96188022D01*
X157802968Y-96325274D01*
X157841949Y-96429786D01*
X157899470Y-96584008D01*
X157899472Y-96584012D01*
X158031808Y-96826367D01*
X158031813Y-96826375D01*
X158197292Y-97047430D01*
X158197308Y-97047448D01*
X158392551Y-97242691D01*
X158392569Y-97242707D01*
X158613624Y-97408186D01*
X158613632Y-97408191D01*
X158855987Y-97540527D01*
X158855991Y-97540529D01*
X158855993Y-97540530D01*
X159114726Y-97637032D01*
X159384559Y-97695731D01*
X159638781Y-97713913D01*
X159659999Y-97715431D01*
X159660000Y-97715431D01*
X159660001Y-97715431D01*
X159679701Y-97714021D01*
X159935441Y-97695731D01*
X160205274Y-97637032D01*
X160464007Y-97540530D01*
X160706373Y-97408188D01*
X160927438Y-97242701D01*
X161122701Y-97047438D01*
X161288188Y-96826373D01*
X161420530Y-96584007D01*
X161517032Y-96325274D01*
X161575731Y-96055441D01*
X161595431Y-95780000D01*
X161575731Y-95504559D01*
X161517032Y-95234726D01*
X161420530Y-94975993D01*
X161420296Y-94975565D01*
X161288191Y-94733632D01*
X161288186Y-94733624D01*
X161122707Y-94512569D01*
X161122691Y-94512551D01*
X160927448Y-94317308D01*
X160927430Y-94317292D01*
X160706375Y-94151813D01*
X160706367Y-94151808D01*
X160464012Y-94019472D01*
X160464008Y-94019470D01*
X160365917Y-93982884D01*
X160205274Y-93922968D01*
X160205270Y-93922967D01*
X160205267Y-93922966D01*
X159935449Y-93864270D01*
X159935442Y-93864269D01*
X159660001Y-93844569D01*
X159659999Y-93844569D01*
X159384557Y-93864269D01*
X159384550Y-93864270D01*
X159114732Y-93922966D01*
X159114727Y-93922967D01*
X159114726Y-93922968D01*
X159088489Y-93932754D01*
X158855991Y-94019470D01*
X158855987Y-94019472D01*
X158613632Y-94151808D01*
X158613624Y-94151813D01*
X158392569Y-94317292D01*
X158392551Y-94317308D01*
X158197308Y-94512551D01*
X158197292Y-94512569D01*
X158031813Y-94733624D01*
X158031808Y-94733632D01*
X157899472Y-94975987D01*
X157899470Y-94975991D01*
X157802966Y-95234732D01*
X157744270Y-95504550D01*
X157744269Y-95504557D01*
X157724569Y-95779998D01*
X150280906Y-95779998D01*
X150300500Y-95656287D01*
X150300500Y-95143713D01*
X150267246Y-94933757D01*
X150201557Y-94731588D01*
X150105051Y-94542184D01*
X150105049Y-94542181D01*
X150105048Y-94542179D01*
X149980109Y-94370213D01*
X149829786Y-94219890D01*
X149657820Y-94094951D01*
X149468414Y-93998444D01*
X149468413Y-93998443D01*
X149468412Y-93998443D01*
X149266243Y-93932754D01*
X149266241Y-93932753D01*
X149266240Y-93932753D01*
X149104957Y-93907208D01*
X149056287Y-93899500D01*
X148843713Y-93899500D01*
X148795042Y-93907208D01*
X148633760Y-93932753D01*
X148431585Y-93998444D01*
X148242179Y-94094951D01*
X148070213Y-94219890D01*
X147919890Y-94370213D01*
X147794951Y-94542179D01*
X147698444Y-94731585D01*
X147698443Y-94731587D01*
X147698443Y-94731588D01*
X147697779Y-94733632D01*
X147632753Y-94933760D01*
X147599500Y-95143713D01*
X144800500Y-95143713D01*
X144800500Y-65420519D01*
X144820185Y-65353480D01*
X144872989Y-65307725D01*
X144942147Y-65297781D01*
X145005703Y-65326806D01*
X145012181Y-65332838D01*
X145063181Y-65383838D01*
X145096666Y-65445161D01*
X145099500Y-65471519D01*
X145099500Y-65813393D01*
X145099500Y-65936607D01*
X145106933Y-65973975D01*
X145106933Y-65973982D01*
X145110812Y-65993479D01*
X145115632Y-66017712D01*
X145123537Y-66057451D01*
X145160683Y-66147132D01*
X145170688Y-66171286D01*
X145170690Y-66171290D01*
X145193550Y-66205501D01*
X145193551Y-66205502D01*
X145239141Y-66273732D01*
X145239144Y-66273736D01*
X145330586Y-66365178D01*
X145330608Y-66365198D01*
X145813181Y-66847771D01*
X145846666Y-66909094D01*
X145849500Y-66935452D01*
X145849500Y-67507870D01*
X145849501Y-67507876D01*
X145855908Y-67567483D01*
X145906202Y-67702328D01*
X145906206Y-67702335D01*
X145992452Y-67817544D01*
X145992455Y-67817547D01*
X146107664Y-67903793D01*
X146107671Y-67903797D01*
X146242517Y-67954091D01*
X146242516Y-67954091D01*
X146249444Y-67954835D01*
X146302127Y-67960500D01*
X147397872Y-67960499D01*
X147457483Y-67954091D01*
X147592331Y-67903796D01*
X147600379Y-67897770D01*
X147665842Y-67873351D01*
X147729474Y-67886895D01*
X147729645Y-67886483D01*
X147731875Y-67887406D01*
X147733146Y-67887677D01*
X147735273Y-67888814D01*
X147923868Y-67946024D01*
X148120000Y-67965341D01*
X148316132Y-67946024D01*
X148504727Y-67888814D01*
X148678538Y-67795910D01*
X148678544Y-67795904D01*
X148683607Y-67792523D01*
X148684703Y-67794164D01*
X148740639Y-67770405D01*
X148809507Y-67782194D01*
X148826148Y-67792888D01*
X148826393Y-67792523D01*
X148831458Y-67795907D01*
X148831462Y-67795910D01*
X148976344Y-67873351D01*
X149003147Y-67887678D01*
X149005273Y-67888814D01*
X149193868Y-67946024D01*
X149390000Y-67965341D01*
X149586132Y-67946024D01*
X149774727Y-67888814D01*
X149948538Y-67795910D01*
X149948544Y-67795904D01*
X149953607Y-67792523D01*
X149954703Y-67794164D01*
X150010639Y-67770405D01*
X150079507Y-67782194D01*
X150096148Y-67792888D01*
X150096393Y-67792523D01*
X150101458Y-67795907D01*
X150101462Y-67795910D01*
X150246344Y-67873351D01*
X150273147Y-67887678D01*
X150275273Y-67888814D01*
X150463868Y-67946024D01*
X150660000Y-67965341D01*
X150856132Y-67946024D01*
X151044727Y-67888814D01*
X151046853Y-67887678D01*
X151178060Y-67817546D01*
X151218538Y-67795910D01*
X151370883Y-67670883D01*
X151495910Y-67518538D01*
X151588814Y-67344727D01*
X151591908Y-67334527D01*
X151630200Y-67276091D01*
X151694010Y-67247631D01*
X151763078Y-67258188D01*
X151798249Y-67282840D01*
X153338181Y-68822771D01*
X153371666Y-68884094D01*
X153374500Y-68910452D01*
X153374500Y-74850500D01*
X153354815Y-74917539D01*
X153302011Y-74963294D01*
X153250500Y-74974500D01*
X152149500Y-74974500D01*
X152082461Y-74954815D01*
X152036706Y-74902011D01*
X152025500Y-74850500D01*
X152025500Y-71678393D01*
X152025499Y-71678389D01*
X152004742Y-71574034D01*
X152001463Y-71557548D01*
X151954311Y-71443714D01*
X151954310Y-71443713D01*
X151954307Y-71443707D01*
X151885858Y-71341267D01*
X151885855Y-71341263D01*
X151795637Y-71251045D01*
X151795606Y-71251016D01*
X151400237Y-70855647D01*
X151366752Y-70794324D01*
X151368143Y-70735872D01*
X151369500Y-70730809D01*
X151395063Y-70635408D01*
X151415659Y-70400000D01*
X151412561Y-70364596D01*
X151399715Y-70217768D01*
X151395063Y-70164592D01*
X151333903Y-69936337D01*
X151234035Y-69722171D01*
X151229618Y-69715862D01*
X151098494Y-69528597D01*
X150931402Y-69361506D01*
X150931395Y-69361501D01*
X150914287Y-69349522D01*
X150851716Y-69305709D01*
X150737834Y-69225967D01*
X150737830Y-69225965D01*
X150713522Y-69214630D01*
X150523663Y-69126097D01*
X150523659Y-69126096D01*
X150523655Y-69126094D01*
X150295413Y-69064938D01*
X150295403Y-69064936D01*
X150060001Y-69044341D01*
X150059999Y-69044341D01*
X149824596Y-69064936D01*
X149824586Y-69064938D01*
X149596344Y-69126094D01*
X149596335Y-69126098D01*
X149382171Y-69225964D01*
X149382169Y-69225965D01*
X149188597Y-69361505D01*
X149021505Y-69528597D01*
X148891575Y-69714158D01*
X148836998Y-69757783D01*
X148767500Y-69764977D01*
X148705145Y-69733454D01*
X148688425Y-69714158D01*
X148558494Y-69528597D01*
X148391402Y-69361506D01*
X148391395Y-69361501D01*
X148374287Y-69349522D01*
X148311716Y-69305709D01*
X148197834Y-69225967D01*
X148197830Y-69225965D01*
X148173522Y-69214630D01*
X147983663Y-69126097D01*
X147983659Y-69126096D01*
X147983655Y-69126094D01*
X147755413Y-69064938D01*
X147755403Y-69064936D01*
X147520001Y-69044341D01*
X147519999Y-69044341D01*
X147284596Y-69064936D01*
X147284586Y-69064938D01*
X147056344Y-69126094D01*
X147056335Y-69126098D01*
X146842171Y-69225964D01*
X146842169Y-69225965D01*
X146648597Y-69361505D01*
X146481505Y-69528597D01*
X146345965Y-69722169D01*
X146345964Y-69722171D01*
X146246098Y-69936335D01*
X146246094Y-69936344D01*
X146184938Y-70164586D01*
X146184936Y-70164596D01*
X146164341Y-70399999D01*
X146164341Y-70400000D01*
X146184936Y-70635403D01*
X146184938Y-70635413D01*
X146246094Y-70863655D01*
X146246096Y-70863659D01*
X146246097Y-70863663D01*
X146326004Y-71035023D01*
X146345965Y-71077830D01*
X146345967Y-71077834D01*
X146413117Y-71173733D01*
X146481505Y-71271401D01*
X146648599Y-71438495D01*
X146695594Y-71471401D01*
X146842165Y-71574032D01*
X146842167Y-71574033D01*
X146842170Y-71574035D01*
X147056337Y-71673903D01*
X147284592Y-71735063D01*
X147472918Y-71751539D01*
X147519999Y-71755659D01*
X147520000Y-71755659D01*
X147520001Y-71755659D01*
X147559234Y-71752226D01*
X147755408Y-71735063D01*
X147983663Y-71673903D01*
X148197830Y-71574035D01*
X148391401Y-71438495D01*
X148558495Y-71271401D01*
X148688425Y-71085842D01*
X148743002Y-71042217D01*
X148812500Y-71035023D01*
X148874855Y-71066546D01*
X148891575Y-71085842D01*
X149021500Y-71271395D01*
X149021505Y-71271401D01*
X149188599Y-71438495D01*
X149235594Y-71471401D01*
X149382165Y-71574032D01*
X149382167Y-71574033D01*
X149382170Y-71574035D01*
X149596337Y-71673903D01*
X149824592Y-71735063D01*
X150012918Y-71751539D01*
X150059999Y-71755659D01*
X150060000Y-71755659D01*
X150060001Y-71755659D01*
X150099234Y-71752226D01*
X150295408Y-71735063D01*
X150395873Y-71708143D01*
X150465722Y-71709806D01*
X150515647Y-71740237D01*
X150738181Y-71962771D01*
X150771666Y-72024094D01*
X150774500Y-72050452D01*
X150774500Y-72848423D01*
X150754815Y-72915462D01*
X150702011Y-72961217D01*
X150632853Y-72971161D01*
X150598096Y-72960805D01*
X150523669Y-72926099D01*
X150523655Y-72926094D01*
X150295413Y-72864938D01*
X150295403Y-72864936D01*
X150060001Y-72844341D01*
X150059999Y-72844341D01*
X149824596Y-72864936D01*
X149824586Y-72864938D01*
X149596344Y-72926094D01*
X149596335Y-72926098D01*
X149382171Y-73025964D01*
X149382169Y-73025965D01*
X149188597Y-73161505D01*
X149021505Y-73328597D01*
X148891575Y-73514158D01*
X148836998Y-73557783D01*
X148767500Y-73564977D01*
X148705145Y-73533454D01*
X148688425Y-73514158D01*
X148558494Y-73328597D01*
X148391402Y-73161506D01*
X148391395Y-73161501D01*
X148197834Y-73025967D01*
X148197830Y-73025965D01*
X148171137Y-73013518D01*
X147983663Y-72926097D01*
X147983659Y-72926096D01*
X147983655Y-72926094D01*
X147755413Y-72864938D01*
X147755403Y-72864936D01*
X147520001Y-72844341D01*
X147519999Y-72844341D01*
X147284596Y-72864936D01*
X147284586Y-72864938D01*
X147056344Y-72926094D01*
X147056335Y-72926098D01*
X146842171Y-73025964D01*
X146842169Y-73025965D01*
X146648597Y-73161505D01*
X146481505Y-73328597D01*
X146345965Y-73522169D01*
X146345964Y-73522171D01*
X146246098Y-73736335D01*
X146246094Y-73736344D01*
X146184938Y-73964586D01*
X146184936Y-73964596D01*
X146164341Y-74199999D01*
X146164341Y-74200000D01*
X146184936Y-74435403D01*
X146184938Y-74435413D01*
X146246094Y-74663655D01*
X146246096Y-74663659D01*
X146246097Y-74663663D01*
X146326004Y-74835023D01*
X146345965Y-74877830D01*
X146345967Y-74877834D01*
X146412978Y-74973535D01*
X146481505Y-75071401D01*
X146648599Y-75238495D01*
X146695594Y-75271401D01*
X146842165Y-75374032D01*
X146842167Y-75374033D01*
X146842170Y-75374035D01*
X147056337Y-75473903D01*
X147284592Y-75535063D01*
X147472918Y-75551539D01*
X147519999Y-75555659D01*
X147520000Y-75555659D01*
X147520001Y-75555659D01*
X147559234Y-75552226D01*
X147755408Y-75535063D01*
X147983663Y-75473903D01*
X148197830Y-75374035D01*
X148391401Y-75238495D01*
X148558495Y-75071401D01*
X148688425Y-74885842D01*
X148743002Y-74842217D01*
X148812500Y-74835023D01*
X148874855Y-74866546D01*
X148891575Y-74885842D01*
X149021500Y-75071395D01*
X149021505Y-75071401D01*
X149188599Y-75238495D01*
X149235594Y-75271401D01*
X149382165Y-75374032D01*
X149382167Y-75374033D01*
X149382170Y-75374035D01*
X149596337Y-75473903D01*
X149824592Y-75535063D01*
X150027170Y-75552786D01*
X150092238Y-75578238D01*
X150104043Y-75588633D01*
X150961016Y-76445606D01*
X150961045Y-76445637D01*
X151051264Y-76535856D01*
X151051267Y-76535858D01*
X151109097Y-76574498D01*
X151109098Y-76574500D01*
X151126969Y-76586440D01*
X151153715Y-76604312D01*
X151202454Y-76624500D01*
X151267548Y-76651463D01*
X151318547Y-76661607D01*
X151388391Y-76675499D01*
X151388392Y-76675500D01*
X151388393Y-76675500D01*
X151388394Y-76675500D01*
X153150500Y-76675500D01*
X153217539Y-76695185D01*
X153263294Y-76747989D01*
X153274500Y-76799500D01*
X153274500Y-79081320D01*
X153269163Y-79117309D01*
X153267927Y-79121381D01*
X153263058Y-79145855D01*
X153263059Y-79145856D01*
X153245158Y-79235857D01*
X153245157Y-79235859D01*
X153243891Y-79242223D01*
X153243891Y-80255998D01*
X153253323Y-80303423D01*
X153267926Y-80376838D01*
X153267928Y-80376844D01*
X153280307Y-80406729D01*
X153315079Y-80490678D01*
X153347555Y-80539280D01*
X153347556Y-80539284D01*
X153347558Y-80539284D01*
X153383533Y-80593125D01*
X153470658Y-80680250D01*
X153470660Y-80680251D01*
X153477726Y-80687317D01*
X153477725Y-80687317D01*
X153477729Y-80687320D01*
X153738181Y-80947772D01*
X153771666Y-81009095D01*
X153774500Y-81035453D01*
X153774500Y-81935711D01*
X153782533Y-81976095D01*
X153782533Y-81976096D01*
X153798535Y-82056545D01*
X153798537Y-82056552D01*
X153806651Y-82076139D01*
X153806653Y-82076144D01*
X153848020Y-82176016D01*
X153845946Y-82176874D01*
X153858146Y-82235434D01*
X153833155Y-82300681D01*
X153776855Y-82342058D01*
X153734545Y-82349500D01*
X152174500Y-82349500D01*
X152107461Y-82329815D01*
X152061706Y-82277011D01*
X152050500Y-82225500D01*
X152050500Y-80092741D01*
X152050501Y-80092720D01*
X152050501Y-79963392D01*
X152029956Y-79860112D01*
X152029956Y-79860111D01*
X152026463Y-79842548D01*
X151990574Y-79755904D01*
X151990574Y-79755903D01*
X151979315Y-79728721D01*
X151979308Y-79728708D01*
X151910858Y-79626267D01*
X151910855Y-79626263D01*
X151175155Y-78890564D01*
X151141670Y-78829241D01*
X151146654Y-78759550D01*
X151161258Y-78731765D01*
X151234035Y-78627830D01*
X151333903Y-78413663D01*
X151395063Y-78185408D01*
X151415659Y-77950000D01*
X151395063Y-77714592D01*
X151333903Y-77486337D01*
X151234035Y-77272171D01*
X151228425Y-77264158D01*
X151098494Y-77078597D01*
X150931402Y-76911506D01*
X150931395Y-76911501D01*
X150737834Y-76775967D01*
X150737830Y-76775965D01*
X150696769Y-76756818D01*
X150523663Y-76676097D01*
X150523659Y-76676096D01*
X150523655Y-76676094D01*
X150295413Y-76614938D01*
X150295403Y-76614936D01*
X150060001Y-76594341D01*
X150059999Y-76594341D01*
X149824596Y-76614936D01*
X149824586Y-76614938D01*
X149596344Y-76676094D01*
X149596335Y-76676098D01*
X149382171Y-76775964D01*
X149382169Y-76775965D01*
X149188597Y-76911505D01*
X149021505Y-77078597D01*
X148891575Y-77264158D01*
X148836998Y-77307783D01*
X148767500Y-77314977D01*
X148705145Y-77283454D01*
X148688425Y-77264158D01*
X148558494Y-77078597D01*
X148391402Y-76911506D01*
X148391395Y-76911501D01*
X148197834Y-76775967D01*
X148197830Y-76775965D01*
X148156769Y-76756818D01*
X147983663Y-76676097D01*
X147983659Y-76676096D01*
X147983655Y-76676094D01*
X147755413Y-76614938D01*
X147755403Y-76614936D01*
X147520001Y-76594341D01*
X147519999Y-76594341D01*
X147284596Y-76614936D01*
X147284586Y-76614938D01*
X147056344Y-76676094D01*
X147056335Y-76676098D01*
X146842171Y-76775964D01*
X146842169Y-76775965D01*
X146648597Y-76911505D01*
X146481505Y-77078597D01*
X146345965Y-77272169D01*
X146345964Y-77272171D01*
X146246098Y-77486335D01*
X146246094Y-77486344D01*
X146184938Y-77714586D01*
X146184936Y-77714596D01*
X146164341Y-77949999D01*
X146164341Y-77950000D01*
X146184936Y-78185403D01*
X146184938Y-78185413D01*
X146246094Y-78413655D01*
X146246096Y-78413659D01*
X146246097Y-78413663D01*
X146279555Y-78485413D01*
X146345965Y-78627830D01*
X146345967Y-78627834D01*
X146411926Y-78722032D01*
X146481505Y-78821401D01*
X146648599Y-78988495D01*
X146745384Y-79056265D01*
X146842165Y-79124032D01*
X146842167Y-79124033D01*
X146842170Y-79124035D01*
X147056337Y-79223903D01*
X147284592Y-79285063D01*
X147452210Y-79299728D01*
X147519999Y-79305659D01*
X147520000Y-79305659D01*
X147520001Y-79305659D01*
X147559234Y-79302226D01*
X147755408Y-79285063D01*
X147983663Y-79223903D01*
X148197830Y-79124035D01*
X148391401Y-78988495D01*
X148558495Y-78821401D01*
X148688425Y-78635842D01*
X148743002Y-78592217D01*
X148812500Y-78585023D01*
X148874855Y-78616546D01*
X148891575Y-78635842D01*
X149021500Y-78821395D01*
X149021505Y-78821401D01*
X149188599Y-78988495D01*
X149285384Y-79056265D01*
X149382165Y-79124032D01*
X149382167Y-79124033D01*
X149382170Y-79124035D01*
X149596337Y-79223903D01*
X149596342Y-79223904D01*
X149596346Y-79223906D01*
X149694202Y-79250125D01*
X149759550Y-79267634D01*
X149815138Y-79299728D01*
X150763181Y-80247771D01*
X150796666Y-80309094D01*
X150799500Y-80335452D01*
X150799500Y-80460081D01*
X150779815Y-80527120D01*
X150727011Y-80572875D01*
X150657853Y-80582819D01*
X150623095Y-80572463D01*
X150616701Y-80569481D01*
X150523663Y-80526097D01*
X150523659Y-80526096D01*
X150523655Y-80526094D01*
X150295413Y-80464938D01*
X150295403Y-80464936D01*
X150060001Y-80444341D01*
X150059999Y-80444341D01*
X149824596Y-80464936D01*
X149824586Y-80464938D01*
X149596344Y-80526094D01*
X149596335Y-80526098D01*
X149382171Y-80625964D01*
X149382169Y-80625965D01*
X149188597Y-80761505D01*
X149021505Y-80928597D01*
X148891575Y-81114158D01*
X148836998Y-81157783D01*
X148767500Y-81164977D01*
X148705145Y-81133454D01*
X148688425Y-81114158D01*
X148558494Y-80928597D01*
X148391402Y-80761506D01*
X148391395Y-80761501D01*
X148197834Y-80625967D01*
X148197830Y-80625965D01*
X148197828Y-80625964D01*
X147983663Y-80526097D01*
X147983659Y-80526096D01*
X147983655Y-80526094D01*
X147755413Y-80464938D01*
X147755403Y-80464936D01*
X147520001Y-80444341D01*
X147519999Y-80444341D01*
X147284596Y-80464936D01*
X147284586Y-80464938D01*
X147056344Y-80526094D01*
X147056335Y-80526098D01*
X146842171Y-80625964D01*
X146842169Y-80625965D01*
X146648597Y-80761505D01*
X146481505Y-80928597D01*
X146345965Y-81122169D01*
X146345964Y-81122171D01*
X146246098Y-81336335D01*
X146246094Y-81336344D01*
X146184938Y-81564586D01*
X146184936Y-81564596D01*
X146164341Y-81799999D01*
X146164341Y-81800000D01*
X146184936Y-82035403D01*
X146184938Y-82035413D01*
X146246094Y-82263655D01*
X146246096Y-82263659D01*
X146246097Y-82263663D01*
X146286124Y-82349500D01*
X146345965Y-82477830D01*
X146345967Y-82477834D01*
X146435972Y-82606373D01*
X146481505Y-82671401D01*
X146648599Y-82838495D01*
X146695594Y-82871401D01*
X146842165Y-82974032D01*
X146842167Y-82974033D01*
X146842170Y-82974035D01*
X147056337Y-83073903D01*
X147284592Y-83135063D01*
X147472918Y-83151539D01*
X147519999Y-83155659D01*
X147520000Y-83155659D01*
X147520001Y-83155659D01*
X147559234Y-83152226D01*
X147755408Y-83135063D01*
X147983663Y-83073903D01*
X148197830Y-82974035D01*
X148391401Y-82838495D01*
X148558495Y-82671401D01*
X148688425Y-82485842D01*
X148743002Y-82442217D01*
X148812500Y-82435023D01*
X148874855Y-82466546D01*
X148891575Y-82485842D01*
X149021500Y-82671395D01*
X149021505Y-82671401D01*
X149188599Y-82838495D01*
X149382170Y-82974035D01*
X149382175Y-82974037D01*
X149382199Y-82974054D01*
X149425824Y-83028630D01*
X149433059Y-83057762D01*
X149433311Y-83057712D01*
X149434374Y-83063059D01*
X149434479Y-83063479D01*
X149434499Y-83063685D01*
X149438251Y-83082544D01*
X149438251Y-83082548D01*
X149458535Y-83184526D01*
X149458536Y-83184529D01*
X149458537Y-83184533D01*
X149465149Y-83200496D01*
X149465150Y-83200501D01*
X149465151Y-83200501D01*
X149505688Y-83298367D01*
X149532080Y-83337864D01*
X149532081Y-83337867D01*
X149532082Y-83337867D01*
X149574141Y-83400814D01*
X149665586Y-83492259D01*
X149665608Y-83492279D01*
X150168935Y-83995606D01*
X150168964Y-83995637D01*
X150211058Y-84037731D01*
X150244543Y-84099054D01*
X150239559Y-84168746D01*
X150197687Y-84224679D01*
X150132223Y-84249096D01*
X150112570Y-84248940D01*
X150060002Y-84244341D01*
X150059999Y-84244341D01*
X149824596Y-84264936D01*
X149824586Y-84264938D01*
X149596344Y-84326094D01*
X149596335Y-84326098D01*
X149382171Y-84425964D01*
X149382169Y-84425965D01*
X149188597Y-84561505D01*
X149021505Y-84728597D01*
X148891575Y-84914158D01*
X148836998Y-84957783D01*
X148767500Y-84964977D01*
X148705145Y-84933454D01*
X148688425Y-84914158D01*
X148558494Y-84728597D01*
X148391402Y-84561506D01*
X148391395Y-84561501D01*
X148197834Y-84425967D01*
X148197830Y-84425965D01*
X148197828Y-84425964D01*
X147983663Y-84326097D01*
X147983659Y-84326096D01*
X147983655Y-84326094D01*
X147755413Y-84264938D01*
X147755403Y-84264936D01*
X147520001Y-84244341D01*
X147519999Y-84244341D01*
X147284596Y-84264936D01*
X147284586Y-84264938D01*
X147056344Y-84326094D01*
X147056335Y-84326098D01*
X146842171Y-84425964D01*
X146842169Y-84425965D01*
X146648597Y-84561505D01*
X146481505Y-84728597D01*
X146345965Y-84922169D01*
X146345964Y-84922171D01*
X146246098Y-85136335D01*
X146246094Y-85136344D01*
X146184938Y-85364586D01*
X146184936Y-85364596D01*
X146164341Y-85599999D01*
X146164341Y-85600000D01*
X146184936Y-85835403D01*
X146184938Y-85835413D01*
X146246094Y-86063655D01*
X146246096Y-86063659D01*
X146246097Y-86063663D01*
X146319319Y-86220687D01*
X146345965Y-86277830D01*
X146345967Y-86277834D01*
X146414891Y-86376267D01*
X146481505Y-86471401D01*
X146648599Y-86638495D01*
X146733084Y-86697652D01*
X146842165Y-86774032D01*
X146842167Y-86774033D01*
X146842170Y-86774035D01*
X147056337Y-86873903D01*
X147056343Y-86873904D01*
X147056344Y-86873905D01*
X147061073Y-86875172D01*
X147284592Y-86935063D01*
X147472918Y-86951539D01*
X147519999Y-86955659D01*
X147520000Y-86955659D01*
X147520001Y-86955659D01*
X147559234Y-86952226D01*
X147755408Y-86935063D01*
X147983663Y-86873903D01*
X148197830Y-86774035D01*
X148391401Y-86638495D01*
X148558495Y-86471401D01*
X148688425Y-86285842D01*
X148743002Y-86242217D01*
X148812500Y-86235023D01*
X148874855Y-86266546D01*
X148891575Y-86285842D01*
X149021500Y-86471395D01*
X149021505Y-86471401D01*
X149188599Y-86638495D01*
X149273084Y-86697652D01*
X149382165Y-86774032D01*
X149382167Y-86774033D01*
X149382170Y-86774035D01*
X149596337Y-86873903D01*
X149596343Y-86873904D01*
X149596344Y-86873905D01*
X149601073Y-86875172D01*
X149824592Y-86935063D01*
X150012918Y-86951539D01*
X150059999Y-86955659D01*
X150060000Y-86955659D01*
X150060001Y-86955659D01*
X150099234Y-86952226D01*
X150295408Y-86935063D01*
X150523663Y-86873903D01*
X150737830Y-86774035D01*
X150931401Y-86638495D01*
X151098495Y-86471401D01*
X151234035Y-86277830D01*
X151333903Y-86063663D01*
X151395063Y-85835408D01*
X151415659Y-85600000D01*
X151413515Y-85575500D01*
X151401298Y-85435858D01*
X151395063Y-85364592D01*
X151368143Y-85264125D01*
X151369806Y-85194277D01*
X151400235Y-85144353D01*
X151457773Y-85086817D01*
X151519097Y-85053333D01*
X151545453Y-85050500D01*
X153464548Y-85050500D01*
X153531587Y-85070185D01*
X153552229Y-85086819D01*
X153811016Y-85345606D01*
X153811045Y-85345637D01*
X153901261Y-85435853D01*
X153901267Y-85435858D01*
X153921724Y-85449527D01*
X153921726Y-85449528D01*
X154003714Y-85504312D01*
X154084207Y-85537652D01*
X154117548Y-85551463D01*
X154137695Y-85555470D01*
X154174563Y-85562804D01*
X154174583Y-85562807D01*
X154174605Y-85562812D01*
X154238391Y-85575499D01*
X154238392Y-85575500D01*
X154238393Y-85575500D01*
X154238394Y-85575500D01*
X156012440Y-85575500D01*
X156079479Y-85595185D01*
X156125234Y-85647989D01*
X156135178Y-85717147D01*
X156106153Y-85780703D01*
X156100121Y-85787181D01*
X155774121Y-86113181D01*
X155712798Y-86146666D01*
X155686440Y-86149500D01*
X155338389Y-86149500D01*
X155277971Y-86161518D01*
X155234743Y-86170116D01*
X155217546Y-86173537D01*
X155103716Y-86220687D01*
X155103707Y-86220692D01*
X155001268Y-86289140D01*
X154977229Y-86313180D01*
X154914142Y-86376267D01*
X153821644Y-87468764D01*
X153821638Y-87468772D01*
X153787414Y-87519989D01*
X153787415Y-87519990D01*
X153753188Y-87571213D01*
X153753185Y-87571218D01*
X153741872Y-87598534D01*
X153741871Y-87598537D01*
X153706038Y-87685045D01*
X153706035Y-87685054D01*
X153700249Y-87714141D01*
X153700250Y-87714142D01*
X153682921Y-87801266D01*
X153682918Y-87801277D01*
X153682001Y-87805884D01*
X153682000Y-87805896D01*
X153682000Y-89557047D01*
X153662315Y-89624086D01*
X153645681Y-89644728D01*
X153377229Y-89913181D01*
X153315906Y-89946666D01*
X153289548Y-89949500D01*
X151545452Y-89949500D01*
X151478413Y-89929815D01*
X151457771Y-89913181D01*
X151400237Y-89855647D01*
X151366752Y-89794324D01*
X151368143Y-89735872D01*
X151395063Y-89635408D01*
X151415659Y-89400000D01*
X151412561Y-89364596D01*
X151395063Y-89164596D01*
X151395063Y-89164592D01*
X151339649Y-88957783D01*
X151333905Y-88936344D01*
X151333904Y-88936343D01*
X151333903Y-88936337D01*
X151234035Y-88722171D01*
X151228425Y-88714158D01*
X151098494Y-88528597D01*
X150931402Y-88361506D01*
X150931395Y-88361501D01*
X150737834Y-88225967D01*
X150737830Y-88225965D01*
X150702098Y-88209303D01*
X150523663Y-88126097D01*
X150523659Y-88126096D01*
X150523655Y-88126094D01*
X150295413Y-88064938D01*
X150295403Y-88064936D01*
X150060001Y-88044341D01*
X150059999Y-88044341D01*
X149824596Y-88064936D01*
X149824586Y-88064938D01*
X149596344Y-88126094D01*
X149596335Y-88126098D01*
X149382171Y-88225964D01*
X149382169Y-88225965D01*
X149188597Y-88361505D01*
X149021505Y-88528597D01*
X148891575Y-88714158D01*
X148836998Y-88757783D01*
X148767500Y-88764977D01*
X148705145Y-88733454D01*
X148688425Y-88714158D01*
X148558494Y-88528597D01*
X148391402Y-88361506D01*
X148391395Y-88361501D01*
X148197834Y-88225967D01*
X148197830Y-88225965D01*
X148162098Y-88209303D01*
X147983663Y-88126097D01*
X147983659Y-88126096D01*
X147983655Y-88126094D01*
X147755413Y-88064938D01*
X147755403Y-88064936D01*
X147520001Y-88044341D01*
X147519999Y-88044341D01*
X147284596Y-88064936D01*
X147284586Y-88064938D01*
X147056344Y-88126094D01*
X147056335Y-88126098D01*
X146842171Y-88225964D01*
X146842169Y-88225965D01*
X146648597Y-88361505D01*
X146481505Y-88528597D01*
X146345965Y-88722169D01*
X146345964Y-88722171D01*
X146246098Y-88936335D01*
X146246094Y-88936344D01*
X146184938Y-89164586D01*
X146184936Y-89164596D01*
X146164341Y-89399999D01*
X146164341Y-89400000D01*
X146184936Y-89635403D01*
X146184938Y-89635413D01*
X146246094Y-89863655D01*
X146246096Y-89863659D01*
X146246097Y-89863663D01*
X146323575Y-90029815D01*
X146345965Y-90077830D01*
X146345967Y-90077834D01*
X146430994Y-90199264D01*
X146481505Y-90271401D01*
X146648599Y-90438495D01*
X146695594Y-90471401D01*
X146842165Y-90574032D01*
X146842167Y-90574033D01*
X146842170Y-90574035D01*
X147056337Y-90673903D01*
X147284592Y-90735063D01*
X147472918Y-90751539D01*
X147519999Y-90755659D01*
X147520000Y-90755659D01*
X147520001Y-90755659D01*
X147559234Y-90752226D01*
X147755408Y-90735063D01*
X147983663Y-90673903D01*
X148197830Y-90574035D01*
X148391401Y-90438495D01*
X148558495Y-90271401D01*
X148682855Y-90093797D01*
X148688425Y-90085842D01*
X148743002Y-90042217D01*
X148812500Y-90035023D01*
X148874855Y-90066546D01*
X148891575Y-90085842D01*
X149021500Y-90271395D01*
X149021505Y-90271401D01*
X149188599Y-90438495D01*
X149235594Y-90471401D01*
X149382165Y-90574032D01*
X149382167Y-90574033D01*
X149382170Y-90574035D01*
X149596337Y-90673903D01*
X149824592Y-90735063D01*
X150012918Y-90751539D01*
X150059999Y-90755659D01*
X150060000Y-90755659D01*
X150060001Y-90755659D01*
X150099234Y-90752226D01*
X150295408Y-90735063D01*
X150395873Y-90708143D01*
X150465722Y-90709806D01*
X150515647Y-90740237D01*
X150746016Y-90970606D01*
X150746045Y-90970637D01*
X150836264Y-91060856D01*
X150836267Y-91060858D01*
X150913190Y-91112256D01*
X150938710Y-91129309D01*
X150938712Y-91129310D01*
X150938715Y-91129312D01*
X151005396Y-91156931D01*
X151005398Y-91156933D01*
X151045640Y-91173601D01*
X151052548Y-91176463D01*
X151112971Y-91188481D01*
X151173393Y-91200500D01*
X153661607Y-91200500D01*
X153722029Y-91188481D01*
X153782452Y-91176463D01*
X153825256Y-91158733D01*
X153896286Y-91129312D01*
X153947509Y-91095084D01*
X153998733Y-91060858D01*
X154085858Y-90973733D01*
X154085858Y-90973731D01*
X154096066Y-90963524D01*
X154096067Y-90963521D01*
X154487820Y-90571769D01*
X154549142Y-90538285D01*
X154618834Y-90543269D01*
X154674767Y-90585141D01*
X154699184Y-90650605D01*
X154699500Y-90659451D01*
X154699500Y-91869045D01*
X154697482Y-91891327D01*
X154697423Y-91891646D01*
X154694500Y-91928789D01*
X154694500Y-92371190D01*
X154694501Y-92371215D01*
X154697423Y-92408354D01*
X154743630Y-92567400D01*
X154791086Y-92647644D01*
X154808269Y-92715368D01*
X154786109Y-92781631D01*
X154772036Y-92798445D01*
X154730442Y-92840039D01*
X154730434Y-92840049D01*
X154646129Y-92982601D01*
X154646128Y-92982604D01*
X154599924Y-93141637D01*
X154599923Y-93141643D01*
X154597000Y-93178789D01*
X154597000Y-93621190D01*
X154597001Y-93621215D01*
X154599923Y-93658354D01*
X154599923Y-93658357D01*
X154599924Y-93658358D01*
X154646130Y-93817400D01*
X154694684Y-93899500D01*
X154698948Y-93906709D01*
X154716131Y-93974433D01*
X154714916Y-93983769D01*
X154715411Y-93983825D01*
X154694435Y-94169996D01*
X154694435Y-94170003D01*
X154714630Y-94349249D01*
X154714631Y-94349254D01*
X154774211Y-94519523D01*
X154788447Y-94542179D01*
X154870184Y-94672262D01*
X154997738Y-94799816D01*
X155088080Y-94856582D01*
X155123185Y-94878640D01*
X155150478Y-94895789D01*
X155258993Y-94933760D01*
X155320745Y-94955368D01*
X155320750Y-94955369D01*
X155499996Y-94975565D01*
X155500000Y-94975565D01*
X155500004Y-94975565D01*
X155679249Y-94955369D01*
X155679252Y-94955368D01*
X155679255Y-94955368D01*
X155849522Y-94895789D01*
X156002262Y-94799816D01*
X156129816Y-94672262D01*
X156225789Y-94519522D01*
X156285368Y-94349255D01*
X156288594Y-94320614D01*
X156315660Y-94256203D01*
X156373255Y-94216647D01*
X156411809Y-94210499D01*
X156878702Y-94210499D01*
X156915858Y-94207576D01*
X157074900Y-94161370D01*
X157217454Y-94077063D01*
X157334563Y-93959954D01*
X157418870Y-93817400D01*
X157418873Y-93817387D01*
X157420696Y-93813177D01*
X157465383Y-93759466D01*
X157493545Y-93745375D01*
X157549522Y-93725789D01*
X157702262Y-93629816D01*
X157829816Y-93502262D01*
X157925789Y-93349522D01*
X157985368Y-93179255D01*
X157989606Y-93141642D01*
X158005565Y-93000003D01*
X158005565Y-92999996D01*
X157985369Y-92820750D01*
X157985368Y-92820745D01*
X157957098Y-92739954D01*
X157925789Y-92650478D01*
X157924008Y-92647644D01*
X157880706Y-92578729D01*
X157829816Y-92497738D01*
X157702262Y-92370184D01*
X157702260Y-92370182D01*
X157623526Y-92320710D01*
X157577236Y-92268375D01*
X157565499Y-92215717D01*
X157565499Y-91928809D01*
X157565498Y-91928784D01*
X157562576Y-91891645D01*
X157562576Y-91891642D01*
X157516370Y-91732600D01*
X157432063Y-91590046D01*
X157432061Y-91590044D01*
X157432058Y-91590040D01*
X157314959Y-91472941D01*
X157314950Y-91472934D01*
X157172398Y-91388629D01*
X157172395Y-91388628D01*
X157013362Y-91342424D01*
X157013356Y-91342423D01*
X156976203Y-91339500D01*
X156418809Y-91339500D01*
X156418784Y-91339501D01*
X156381645Y-91342423D01*
X156222598Y-91388630D01*
X156193119Y-91406064D01*
X156125394Y-91423245D01*
X156066880Y-91406064D01*
X156037399Y-91388629D01*
X156030239Y-91385531D01*
X156031034Y-91383693D01*
X155981017Y-91351749D01*
X155951813Y-91288275D01*
X155950500Y-91270281D01*
X155950500Y-90266303D01*
X155970185Y-90199264D01*
X156022989Y-90153509D01*
X156045989Y-90145625D01*
X156052472Y-90144092D01*
X156052483Y-90144091D01*
X156187331Y-90093796D01*
X156302546Y-90007546D01*
X156388796Y-89892331D01*
X156439091Y-89757483D01*
X156445500Y-89697873D01*
X156445499Y-89015450D01*
X156465183Y-88948412D01*
X156481813Y-88927775D01*
X156598729Y-88810860D01*
X156598733Y-88810858D01*
X156685858Y-88723733D01*
X156754311Y-88621286D01*
X156754312Y-88621285D01*
X156786938Y-88542517D01*
X156801463Y-88507452D01*
X156817671Y-88425967D01*
X156818497Y-88421815D01*
X156818497Y-88421812D01*
X156825500Y-88386607D01*
X156825500Y-88263393D01*
X156825500Y-88144854D01*
X156844507Y-88078881D01*
X156848952Y-88071808D01*
X156925789Y-87949522D01*
X156985368Y-87779255D01*
X156988601Y-87750565D01*
X157005565Y-87600003D01*
X157005565Y-87599996D01*
X156985369Y-87420750D01*
X156985368Y-87420745D01*
X156968916Y-87373729D01*
X156925789Y-87250478D01*
X156924914Y-87249086D01*
X156853269Y-87135063D01*
X156829816Y-87097738D01*
X156781960Y-87049882D01*
X156748475Y-86988559D01*
X156753459Y-86918867D01*
X156781958Y-86874522D01*
X157899724Y-85756756D01*
X157961046Y-85723273D01*
X158030738Y-85728257D01*
X158086671Y-85770129D01*
X158092398Y-85778467D01*
X158168891Y-85900204D01*
X158185514Y-85941985D01*
X158198535Y-86007446D01*
X158198538Y-86007457D01*
X158207800Y-86029814D01*
X158207801Y-86029816D01*
X158235061Y-86095630D01*
X158244500Y-86143080D01*
X158244500Y-86611613D01*
X158250913Y-86682192D01*
X158250913Y-86682194D01*
X158250914Y-86682196D01*
X158301522Y-86844606D01*
X158373712Y-86964023D01*
X158389530Y-86990188D01*
X158509811Y-87110469D01*
X158509813Y-87110470D01*
X158509815Y-87110472D01*
X158655394Y-87198478D01*
X158817804Y-87249086D01*
X158888384Y-87255500D01*
X158888387Y-87255500D01*
X159401613Y-87255500D01*
X159401616Y-87255500D01*
X159472196Y-87249086D01*
X159634606Y-87198478D01*
X159780185Y-87110472D01*
X159816756Y-87073901D01*
X159882319Y-87008339D01*
X159943642Y-86974854D01*
X160013334Y-86979838D01*
X160057681Y-87008339D01*
X160159811Y-87110469D01*
X160159813Y-87110470D01*
X160159815Y-87110472D01*
X160305394Y-87198478D01*
X160467804Y-87249086D01*
X160538384Y-87255500D01*
X160538387Y-87255500D01*
X161051613Y-87255500D01*
X161051616Y-87255500D01*
X161122196Y-87249086D01*
X161284606Y-87198478D01*
X161430185Y-87110472D01*
X161550472Y-86990185D01*
X161638478Y-86844606D01*
X161681476Y-86706616D01*
X161720211Y-86648472D01*
X161784236Y-86620497D01*
X161853222Y-86631578D01*
X161868749Y-86640405D01*
X161904526Y-86664312D01*
X161904527Y-86664312D01*
X161904528Y-86664313D01*
X161921629Y-86671396D01*
X161985019Y-86697652D01*
X162018360Y-86711463D01*
X162078783Y-86723481D01*
X162139205Y-86735500D01*
X162139206Y-86735500D01*
X162759548Y-86735500D01*
X162826587Y-86755185D01*
X162847229Y-86771819D01*
X164085894Y-88010485D01*
X164119379Y-88071808D01*
X164114395Y-88141500D01*
X164072523Y-88197433D01*
X164007059Y-88221850D01*
X163945921Y-88208550D01*
X163945641Y-88209303D01*
X163940405Y-88207350D01*
X163938786Y-88206998D01*
X163938785Y-88206998D01*
X163937328Y-88206202D01*
X163802482Y-88155908D01*
X163802483Y-88155908D01*
X163742883Y-88149501D01*
X163742881Y-88149500D01*
X163742873Y-88149500D01*
X163742864Y-88149500D01*
X162397129Y-88149500D01*
X162397123Y-88149501D01*
X162337516Y-88155908D01*
X162202671Y-88206202D01*
X162202664Y-88206206D01*
X162087455Y-88292452D01*
X162087452Y-88292455D01*
X162001206Y-88407664D01*
X162001203Y-88407669D01*
X161963193Y-88509580D01*
X161921321Y-88565513D01*
X161871200Y-88587864D01*
X161843276Y-88593418D01*
X161805215Y-88595022D01*
X161800001Y-88594435D01*
X161799996Y-88594435D01*
X161620750Y-88614630D01*
X161620745Y-88614631D01*
X161450476Y-88674211D01*
X161297737Y-88770184D01*
X161170184Y-88897737D01*
X161074211Y-89050476D01*
X161014631Y-89220745D01*
X161014630Y-89220750D01*
X160994435Y-89399996D01*
X160994435Y-89400003D01*
X161014630Y-89579249D01*
X161014631Y-89579254D01*
X161074211Y-89749523D01*
X161145931Y-89863664D01*
X161170184Y-89902262D01*
X161297738Y-90029816D01*
X161364924Y-90072032D01*
X161447490Y-90123912D01*
X161450478Y-90125789D01*
X161531621Y-90154182D01*
X161620745Y-90185368D01*
X161620750Y-90185369D01*
X161799996Y-90205565D01*
X161800000Y-90205565D01*
X161800004Y-90205565D01*
X161979249Y-90185369D01*
X161979252Y-90185368D01*
X161979255Y-90185368D01*
X162149522Y-90125789D01*
X162149523Y-90125787D01*
X162149529Y-90125786D01*
X162155795Y-90122769D01*
X162156345Y-90123912D01*
X162216604Y-90106877D01*
X162258686Y-90114689D01*
X162337517Y-90144091D01*
X162345062Y-90145874D01*
X162344523Y-90148151D01*
X162398287Y-90170408D01*
X162438147Y-90227793D01*
X162444500Y-90266975D01*
X162444500Y-90449548D01*
X162424815Y-90516587D01*
X162408181Y-90537229D01*
X161436394Y-91509015D01*
X161375071Y-91542500D01*
X161305379Y-91537516D01*
X161261028Y-91509011D01*
X161254957Y-91502940D01*
X161254954Y-91502937D01*
X161254952Y-91502936D01*
X161254950Y-91502934D01*
X161112398Y-91418629D01*
X161112395Y-91418628D01*
X160953362Y-91372424D01*
X160953356Y-91372423D01*
X160916203Y-91369500D01*
X160358809Y-91369500D01*
X160358784Y-91369501D01*
X160321645Y-91372423D01*
X160162599Y-91418630D01*
X160020049Y-91502934D01*
X160020040Y-91502941D01*
X159902941Y-91620040D01*
X159902934Y-91620049D01*
X159818629Y-91762601D01*
X159818628Y-91762604D01*
X159772424Y-91921637D01*
X159772423Y-91921643D01*
X159769500Y-91958789D01*
X159769500Y-92401190D01*
X159769501Y-92401215D01*
X159772423Y-92438354D01*
X159772423Y-92438357D01*
X159772424Y-92438358D01*
X159802666Y-92542452D01*
X159818630Y-92597400D01*
X159902934Y-92739950D01*
X159902941Y-92739959D01*
X160020040Y-92857058D01*
X160020044Y-92857061D01*
X160020046Y-92857063D01*
X160162600Y-92941370D01*
X160204541Y-92953555D01*
X160321637Y-92987575D01*
X160321640Y-92987575D01*
X160321642Y-92987576D01*
X160358797Y-92990500D01*
X160916202Y-92990499D01*
X160953358Y-92987576D01*
X161112400Y-92941370D01*
X161254954Y-92857063D01*
X161259894Y-92852123D01*
X161270199Y-92841819D01*
X161331522Y-92808334D01*
X161357880Y-92805500D01*
X161711608Y-92805500D01*
X161711608Y-92805499D01*
X161776878Y-92792517D01*
X161776879Y-92792517D01*
X161795745Y-92788764D01*
X161832452Y-92781463D01*
X161865792Y-92767652D01*
X161946286Y-92734312D01*
X162004405Y-92695477D01*
X162012209Y-92690262D01*
X162078884Y-92669382D01*
X162146265Y-92687864D01*
X162192957Y-92739840D01*
X162204393Y-92806615D01*
X162202274Y-92826319D01*
X162199501Y-92852123D01*
X162199500Y-92852130D01*
X162199500Y-96747870D01*
X162199501Y-96747876D01*
X162205908Y-96807483D01*
X162256202Y-96942328D01*
X162256206Y-96942335D01*
X162342452Y-97057544D01*
X162342455Y-97057547D01*
X162457664Y-97143793D01*
X162457671Y-97143797D01*
X162592517Y-97194091D01*
X162592516Y-97194091D01*
X162599444Y-97194835D01*
X162652127Y-97200500D01*
X166547872Y-97200499D01*
X166607483Y-97194091D01*
X166742331Y-97143796D01*
X166857546Y-97057546D01*
X166943796Y-96942331D01*
X166994091Y-96807483D01*
X167000500Y-96747873D01*
X167000499Y-92852128D01*
X166994091Y-92792517D01*
X166974486Y-92739954D01*
X166943797Y-92657671D01*
X166943793Y-92657664D01*
X166857547Y-92542455D01*
X166857544Y-92542452D01*
X166742335Y-92456206D01*
X166742328Y-92456202D01*
X166607482Y-92405908D01*
X166607483Y-92405908D01*
X166547883Y-92399501D01*
X166547881Y-92399500D01*
X166547873Y-92399500D01*
X166547864Y-92399500D01*
X162652129Y-92399500D01*
X162652121Y-92399501D01*
X162623964Y-92402528D01*
X162555205Y-92390121D01*
X162504069Y-92342509D01*
X162486791Y-92274809D01*
X162508857Y-92208516D01*
X162523025Y-92191563D01*
X163468729Y-91245860D01*
X163468733Y-91245858D01*
X163555858Y-91158733D01*
X163624311Y-91056286D01*
X163671463Y-90942452D01*
X163695500Y-90821606D01*
X163695500Y-90266975D01*
X163715185Y-90199937D01*
X163767989Y-90154182D01*
X163795135Y-90146736D01*
X163794932Y-90145876D01*
X163802479Y-90144092D01*
X163802481Y-90144091D01*
X163802483Y-90144091D01*
X163937331Y-90093796D01*
X164052546Y-90007546D01*
X164138796Y-89892331D01*
X164189091Y-89757483D01*
X164195500Y-89697873D01*
X164195499Y-88602128D01*
X164189091Y-88542517D01*
X164183899Y-88528597D01*
X164138796Y-88407669D01*
X164138004Y-88406218D01*
X164137652Y-88404601D01*
X164135697Y-88399359D01*
X164136450Y-88399077D01*
X164123149Y-88337946D01*
X164147562Y-88272480D01*
X164203494Y-88230606D01*
X164273185Y-88225619D01*
X164334510Y-88259101D01*
X164674141Y-88598732D01*
X164674142Y-88598733D01*
X164749620Y-88674211D01*
X164761268Y-88685859D01*
X164863707Y-88754307D01*
X164863713Y-88754310D01*
X164863714Y-88754311D01*
X164977548Y-88801463D01*
X165037971Y-88813481D01*
X165098393Y-88825500D01*
X165098394Y-88825500D01*
X166704548Y-88825500D01*
X166771587Y-88845185D01*
X166792229Y-88861819D01*
X167074762Y-89144352D01*
X167108247Y-89205675D01*
X167106856Y-89264126D01*
X167079938Y-89364586D01*
X167079936Y-89364596D01*
X167059341Y-89599999D01*
X167059341Y-89600000D01*
X167079936Y-89835403D01*
X167079938Y-89835413D01*
X167141094Y-90063655D01*
X167141096Y-90063659D01*
X167141097Y-90063663D01*
X167181590Y-90150500D01*
X167240965Y-90277830D01*
X167240967Y-90277834D01*
X167298564Y-90360090D01*
X167376505Y-90471401D01*
X167543599Y-90638495D01*
X167640384Y-90706265D01*
X167737165Y-90774032D01*
X167737167Y-90774033D01*
X167737170Y-90774035D01*
X167951337Y-90873903D01*
X168179592Y-90935063D01*
X168367918Y-90951539D01*
X168414999Y-90955659D01*
X168415000Y-90955659D01*
X168415001Y-90955659D01*
X168454234Y-90952226D01*
X168650408Y-90935063D01*
X168878663Y-90873903D01*
X169092830Y-90774035D01*
X169286401Y-90638495D01*
X169453495Y-90471401D01*
X169583425Y-90285842D01*
X169638002Y-90242217D01*
X169707500Y-90235023D01*
X169769855Y-90266546D01*
X169786575Y-90285842D01*
X169916500Y-90471395D01*
X169916505Y-90471401D01*
X170083599Y-90638495D01*
X170180384Y-90706265D01*
X170277165Y-90774032D01*
X170277167Y-90774033D01*
X170277170Y-90774035D01*
X170491337Y-90873903D01*
X170719592Y-90935063D01*
X170907918Y-90951539D01*
X170954999Y-90955659D01*
X170955000Y-90955659D01*
X170955001Y-90955659D01*
X170994234Y-90952226D01*
X171190408Y-90935063D01*
X171418663Y-90873903D01*
X171632830Y-90774035D01*
X171826401Y-90638495D01*
X171993495Y-90471401D01*
X172129035Y-90277830D01*
X172228903Y-90063663D01*
X172290063Y-89835408D01*
X172310659Y-89600000D01*
X172308843Y-89579249D01*
X172293161Y-89400000D01*
X172290063Y-89364592D01*
X172228903Y-89136337D01*
X172129035Y-88922171D01*
X172123425Y-88914158D01*
X171993494Y-88728597D01*
X171826402Y-88561506D01*
X171826395Y-88561501D01*
X171632834Y-88425967D01*
X171632830Y-88425965D01*
X171593583Y-88407664D01*
X171418663Y-88326097D01*
X171418659Y-88326096D01*
X171418655Y-88326094D01*
X171190413Y-88264938D01*
X171190403Y-88264936D01*
X170955001Y-88244341D01*
X170954999Y-88244341D01*
X170719596Y-88264936D01*
X170719586Y-88264938D01*
X170491344Y-88326094D01*
X170491335Y-88326098D01*
X170277171Y-88425964D01*
X170277169Y-88425965D01*
X170083597Y-88561505D01*
X169916505Y-88728597D01*
X169786575Y-88914158D01*
X169731998Y-88957783D01*
X169662500Y-88964977D01*
X169600145Y-88933454D01*
X169583425Y-88914158D01*
X169453494Y-88728597D01*
X169286402Y-88561506D01*
X169286395Y-88561501D01*
X169092834Y-88425967D01*
X169092830Y-88425965D01*
X169053583Y-88407664D01*
X168878663Y-88326097D01*
X168878659Y-88326096D01*
X168878655Y-88326094D01*
X168650413Y-88264938D01*
X168650403Y-88264936D01*
X168415001Y-88244341D01*
X168414999Y-88244341D01*
X168179596Y-88264936D01*
X168179586Y-88264938D01*
X168079126Y-88291856D01*
X168009276Y-88290193D01*
X167959352Y-88259762D01*
X167505198Y-87805608D01*
X167505178Y-87805586D01*
X167450157Y-87750565D01*
X167416672Y-87689242D01*
X167421656Y-87619550D01*
X167463528Y-87563617D01*
X167490384Y-87548324D01*
X167536286Y-87529312D01*
X167587509Y-87495084D01*
X167638733Y-87460858D01*
X167725858Y-87373733D01*
X167725859Y-87373731D01*
X167732925Y-87366665D01*
X167732928Y-87366661D01*
X167959353Y-87140235D01*
X168020674Y-87106752D01*
X168079125Y-87108143D01*
X168113780Y-87117428D01*
X168179592Y-87135063D01*
X168367918Y-87151539D01*
X168414999Y-87155659D01*
X168415000Y-87155659D01*
X168415001Y-87155659D01*
X168454234Y-87152226D01*
X168650408Y-87135063D01*
X168878663Y-87073903D01*
X169092830Y-86974035D01*
X169286401Y-86838495D01*
X169453495Y-86671401D01*
X169583425Y-86485842D01*
X169638002Y-86442217D01*
X169707500Y-86435023D01*
X169769855Y-86466546D01*
X169786575Y-86485842D01*
X169916500Y-86671395D01*
X169916505Y-86671401D01*
X170083599Y-86838495D01*
X170134164Y-86873901D01*
X170277165Y-86974032D01*
X170277167Y-86974033D01*
X170277170Y-86974035D01*
X170491337Y-87073903D01*
X170719592Y-87135063D01*
X170907918Y-87151539D01*
X170954999Y-87155659D01*
X170955000Y-87155659D01*
X170955001Y-87155659D01*
X170994234Y-87152226D01*
X171190408Y-87135063D01*
X171418663Y-87073903D01*
X171632830Y-86974035D01*
X171826401Y-86838495D01*
X171993495Y-86671401D01*
X172129035Y-86477830D01*
X172228903Y-86263663D01*
X172290063Y-86035408D01*
X172310659Y-85800000D01*
X172309537Y-85787181D01*
X172293161Y-85600000D01*
X172290063Y-85564592D01*
X172233719Y-85354310D01*
X172228905Y-85336344D01*
X172228904Y-85336343D01*
X172228903Y-85336337D01*
X172129035Y-85122171D01*
X172123425Y-85114158D01*
X171993494Y-84928597D01*
X171826402Y-84761506D01*
X171826395Y-84761501D01*
X171632834Y-84625967D01*
X171632830Y-84625965D01*
X171632828Y-84625964D01*
X171418663Y-84526097D01*
X171418659Y-84526096D01*
X171418655Y-84526094D01*
X171190413Y-84464938D01*
X171190403Y-84464936D01*
X170955001Y-84444341D01*
X170954999Y-84444341D01*
X170719596Y-84464936D01*
X170719586Y-84464938D01*
X170491344Y-84526094D01*
X170491335Y-84526098D01*
X170277171Y-84625964D01*
X170277169Y-84625965D01*
X170083597Y-84761505D01*
X169916505Y-84928597D01*
X169786575Y-85114158D01*
X169731998Y-85157783D01*
X169662500Y-85164977D01*
X169600145Y-85133454D01*
X169583425Y-85114158D01*
X169453494Y-84928597D01*
X169286402Y-84761506D01*
X169286395Y-84761501D01*
X169092834Y-84625967D01*
X169092830Y-84625965D01*
X169092828Y-84625964D01*
X168878663Y-84526097D01*
X168878659Y-84526096D01*
X168878655Y-84526094D01*
X168650413Y-84464938D01*
X168650403Y-84464936D01*
X168415001Y-84444341D01*
X168414999Y-84444341D01*
X168179596Y-84464936D01*
X168179586Y-84464938D01*
X168134911Y-84476909D01*
X168065061Y-84475246D01*
X168007199Y-84436083D01*
X167979695Y-84371854D01*
X167991282Y-84302952D01*
X168015137Y-84269453D01*
X168900855Y-83383736D01*
X168900855Y-83383735D01*
X168900858Y-83383733D01*
X168969312Y-83281285D01*
X168969316Y-83281273D01*
X168970229Y-83279568D01*
X168970949Y-83278834D01*
X168972697Y-83276219D01*
X168973192Y-83276550D01*
X169019185Y-83229718D01*
X169027148Y-83225646D01*
X169137830Y-83174035D01*
X169331401Y-83038495D01*
X169498495Y-82871401D01*
X169628425Y-82685842D01*
X169683002Y-82642217D01*
X169752500Y-82635023D01*
X169814855Y-82666546D01*
X169831575Y-82685842D01*
X169961500Y-82871395D01*
X169961505Y-82871401D01*
X170128599Y-83038495D01*
X170191513Y-83082548D01*
X170322165Y-83174032D01*
X170322167Y-83174033D01*
X170322170Y-83174035D01*
X170536337Y-83273903D01*
X170536343Y-83273904D01*
X170536344Y-83273905D01*
X170591285Y-83288626D01*
X170764592Y-83335063D01*
X170935273Y-83349996D01*
X170999999Y-83355659D01*
X171000000Y-83355659D01*
X171000001Y-83355659D01*
X171039234Y-83352226D01*
X171235408Y-83335063D01*
X171463663Y-83273903D01*
X171677830Y-83174035D01*
X171871401Y-83038495D01*
X172038495Y-82871401D01*
X172174035Y-82677830D01*
X172273903Y-82463663D01*
X172335063Y-82235408D01*
X172355659Y-82000000D01*
X172335063Y-81764592D01*
X172273903Y-81536337D01*
X172174035Y-81322171D01*
X172168425Y-81314158D01*
X172038494Y-81128597D01*
X171871402Y-80961506D01*
X171871395Y-80961501D01*
X171677834Y-80825967D01*
X171677830Y-80825965D01*
X171677828Y-80825964D01*
X171463663Y-80726097D01*
X171463659Y-80726096D01*
X171463655Y-80726094D01*
X171235413Y-80664938D01*
X171235403Y-80664936D01*
X171000001Y-80644341D01*
X170999999Y-80644341D01*
X170764596Y-80664936D01*
X170764586Y-80664938D01*
X170536344Y-80726094D01*
X170536335Y-80726098D01*
X170322171Y-80825964D01*
X170322169Y-80825965D01*
X170128597Y-80961505D01*
X169961505Y-81128597D01*
X169831575Y-81314158D01*
X169776998Y-81357783D01*
X169707500Y-81364977D01*
X169645145Y-81333454D01*
X169628425Y-81314158D01*
X169498494Y-81128597D01*
X169331402Y-80961506D01*
X169331395Y-80961501D01*
X169137834Y-80825967D01*
X169137830Y-80825965D01*
X169137828Y-80825964D01*
X168923663Y-80726097D01*
X168923659Y-80726096D01*
X168923655Y-80726094D01*
X168695413Y-80664938D01*
X168695403Y-80664936D01*
X168460001Y-80644341D01*
X168459999Y-80644341D01*
X168224596Y-80664936D01*
X168224586Y-80664938D01*
X167996344Y-80726094D01*
X167996335Y-80726098D01*
X167782171Y-80825964D01*
X167782169Y-80825965D01*
X167588597Y-80961505D01*
X167421505Y-81128597D01*
X167285965Y-81322169D01*
X167285964Y-81322171D01*
X167186098Y-81536335D01*
X167186094Y-81536344D01*
X167124938Y-81764586D01*
X167124936Y-81764596D01*
X167104341Y-81999999D01*
X167104341Y-82000000D01*
X167124936Y-82235403D01*
X167124938Y-82235413D01*
X167186094Y-82463655D01*
X167186096Y-82463659D01*
X167186097Y-82463663D01*
X167266004Y-82635023D01*
X167285965Y-82677830D01*
X167285967Y-82677834D01*
X167394281Y-82832521D01*
X167421501Y-82871396D01*
X167421506Y-82871402D01*
X167445075Y-82894971D01*
X167478560Y-82956294D01*
X167473576Y-83025986D01*
X167445075Y-83070333D01*
X166677229Y-83838181D01*
X166615906Y-83871666D01*
X166589548Y-83874500D01*
X164988870Y-83874500D01*
X164921831Y-83854815D01*
X164876076Y-83802011D01*
X164866132Y-83732853D01*
X164874207Y-83706346D01*
X164873489Y-83706095D01*
X164935368Y-83529254D01*
X164935369Y-83529249D01*
X164955565Y-83350003D01*
X164955565Y-83349996D01*
X164935369Y-83170750D01*
X164935368Y-83170745D01*
X164904507Y-83082549D01*
X164875789Y-83000478D01*
X164779816Y-82847738D01*
X164652262Y-82720184D01*
X164597607Y-82685842D01*
X164499524Y-82624212D01*
X164499520Y-82624210D01*
X164448545Y-82606373D01*
X164391769Y-82565651D01*
X164366022Y-82500698D01*
X164365500Y-82489332D01*
X164365500Y-82170452D01*
X164385185Y-82103413D01*
X164401819Y-82082771D01*
X166397771Y-80086819D01*
X166459094Y-80053334D01*
X166485452Y-80050500D01*
X167301607Y-80050500D01*
X167362029Y-80038481D01*
X167422452Y-80026463D01*
X167459008Y-80011321D01*
X167536286Y-79979312D01*
X167587509Y-79945084D01*
X167638733Y-79910858D01*
X167725858Y-79823733D01*
X167725859Y-79823731D01*
X167732925Y-79816665D01*
X167732928Y-79816661D01*
X167959353Y-79590235D01*
X168020674Y-79556752D01*
X168079125Y-79558143D01*
X168113780Y-79567428D01*
X168179592Y-79585063D01*
X168367918Y-79601539D01*
X168414999Y-79605659D01*
X168415000Y-79605659D01*
X168415001Y-79605659D01*
X168454234Y-79602226D01*
X168650408Y-79585063D01*
X168878663Y-79523903D01*
X169092830Y-79424035D01*
X169286401Y-79288495D01*
X169453495Y-79121401D01*
X169583425Y-78935842D01*
X169638002Y-78892217D01*
X169707500Y-78885023D01*
X169769855Y-78916546D01*
X169786575Y-78935842D01*
X169916500Y-79121395D01*
X169916505Y-79121401D01*
X170083599Y-79288495D01*
X170108112Y-79305659D01*
X170277165Y-79424032D01*
X170277167Y-79424033D01*
X170277170Y-79424035D01*
X170491337Y-79523903D01*
X170719592Y-79585063D01*
X170907918Y-79601539D01*
X170954999Y-79605659D01*
X170955000Y-79605659D01*
X170955001Y-79605659D01*
X170994234Y-79602226D01*
X171190408Y-79585063D01*
X171418663Y-79523903D01*
X171632830Y-79424035D01*
X171826401Y-79288495D01*
X171993495Y-79121401D01*
X172129035Y-78927830D01*
X172228903Y-78713663D01*
X172290063Y-78485408D01*
X172310659Y-78250000D01*
X172290063Y-78014592D01*
X172228903Y-77786337D01*
X172129035Y-77572171D01*
X172123425Y-77564158D01*
X171993494Y-77378597D01*
X171826402Y-77211506D01*
X171826395Y-77211501D01*
X171632834Y-77075967D01*
X171632830Y-77075965D01*
X171632828Y-77075964D01*
X171418663Y-76976097D01*
X171418659Y-76976096D01*
X171418655Y-76976094D01*
X171190413Y-76914938D01*
X171190403Y-76914936D01*
X170955001Y-76894341D01*
X170954999Y-76894341D01*
X170719596Y-76914936D01*
X170719586Y-76914938D01*
X170491344Y-76976094D01*
X170491335Y-76976098D01*
X170277171Y-77075964D01*
X170277169Y-77075965D01*
X170083597Y-77211505D01*
X169916505Y-77378597D01*
X169786575Y-77564158D01*
X169731998Y-77607783D01*
X169662500Y-77614977D01*
X169600145Y-77583454D01*
X169583425Y-77564158D01*
X169453494Y-77378597D01*
X169286402Y-77211506D01*
X169286395Y-77211501D01*
X169092834Y-77075967D01*
X169092830Y-77075965D01*
X169092828Y-77075964D01*
X168878663Y-76976097D01*
X168878659Y-76976096D01*
X168878655Y-76976094D01*
X168650413Y-76914938D01*
X168650403Y-76914936D01*
X168415001Y-76894341D01*
X168414999Y-76894341D01*
X168179596Y-76914936D01*
X168179586Y-76914938D01*
X167951344Y-76976094D01*
X167951335Y-76976098D01*
X167737171Y-77075964D01*
X167737169Y-77075965D01*
X167543597Y-77211505D01*
X167376505Y-77378597D01*
X167240965Y-77572169D01*
X167240964Y-77572171D01*
X167141098Y-77786335D01*
X167141094Y-77786344D01*
X167079938Y-78014586D01*
X167079936Y-78014596D01*
X167059341Y-78249999D01*
X167059341Y-78250000D01*
X167079936Y-78485403D01*
X167079937Y-78485408D01*
X167106628Y-78585023D01*
X167106856Y-78585872D01*
X167105193Y-78655722D01*
X167074763Y-78705645D01*
X167017229Y-78763180D01*
X166955906Y-78796666D01*
X166929547Y-78799500D01*
X166113389Y-78799500D01*
X166052971Y-78811518D01*
X165992548Y-78823537D01*
X165992546Y-78823537D01*
X165992545Y-78823538D01*
X165992543Y-78823538D01*
X165966814Y-78834196D01*
X165878718Y-78870685D01*
X165878709Y-78870690D01*
X165851660Y-78888765D01*
X165851659Y-78888766D01*
X165776268Y-78939140D01*
X165732705Y-78982703D01*
X165689142Y-79026267D01*
X163714681Y-81000728D01*
X163653358Y-81034213D01*
X163583666Y-81029229D01*
X163527733Y-80987357D01*
X163503316Y-80921893D01*
X163503000Y-80913047D01*
X163503000Y-80576140D01*
X163502558Y-80572463D01*
X163495631Y-80514780D01*
X163495631Y-80485219D01*
X163503000Y-80423860D01*
X163503000Y-80076140D01*
X163495631Y-80014780D01*
X163495631Y-79985219D01*
X163503000Y-79923860D01*
X163503000Y-79576140D01*
X163495631Y-79514780D01*
X163495631Y-79485219D01*
X163503000Y-79423860D01*
X163503000Y-79076140D01*
X163495631Y-79014780D01*
X163495659Y-78984983D01*
X163495720Y-78984483D01*
X163523378Y-78920321D01*
X163581334Y-78881298D01*
X163618807Y-78875500D01*
X163785536Y-78875500D01*
X163785536Y-78875499D01*
X163872731Y-78858156D01*
X163872732Y-78858156D01*
X163884049Y-78855904D01*
X163906380Y-78851463D01*
X163948254Y-78834118D01*
X164020214Y-78804312D01*
X164020217Y-78804309D01*
X164020219Y-78804309D01*
X164043845Y-78788521D01*
X164071996Y-78769711D01*
X164122661Y-78735858D01*
X164209786Y-78648733D01*
X164209787Y-78648731D01*
X164216853Y-78641665D01*
X164216856Y-78641661D01*
X164713773Y-78144744D01*
X164713777Y-78144742D01*
X164800902Y-78057617D01*
X164869355Y-77955170D01*
X164877516Y-77935464D01*
X164904394Y-77895238D01*
X166562816Y-76236819D01*
X166624139Y-76203334D01*
X166650497Y-76200500D01*
X167301608Y-76200500D01*
X167301608Y-76200499D01*
X167392347Y-76182451D01*
X167392348Y-76182451D01*
X167402473Y-76180436D01*
X167422452Y-76176463D01*
X167469942Y-76156791D01*
X167469945Y-76156791D01*
X167536281Y-76129314D01*
X167536280Y-76129314D01*
X167536286Y-76129312D01*
X167587509Y-76095084D01*
X167638733Y-76060858D01*
X167725858Y-75973733D01*
X167725859Y-75973731D01*
X167732925Y-75966665D01*
X167732928Y-75966661D01*
X167959353Y-75740235D01*
X168020674Y-75706752D01*
X168079125Y-75708143D01*
X168113780Y-75717428D01*
X168179592Y-75735063D01*
X168367918Y-75751539D01*
X168414999Y-75755659D01*
X168415000Y-75755659D01*
X168415001Y-75755659D01*
X168454234Y-75752226D01*
X168650408Y-75735063D01*
X168878663Y-75673903D01*
X169092830Y-75574035D01*
X169286401Y-75438495D01*
X169453495Y-75271401D01*
X169583425Y-75085842D01*
X169638002Y-75042217D01*
X169707500Y-75035023D01*
X169769855Y-75066546D01*
X169786575Y-75085842D01*
X169916500Y-75271395D01*
X169916505Y-75271401D01*
X170083599Y-75438495D01*
X170134164Y-75473901D01*
X170277165Y-75574032D01*
X170277167Y-75574033D01*
X170277170Y-75574035D01*
X170491337Y-75673903D01*
X170719592Y-75735063D01*
X170907918Y-75751539D01*
X170954999Y-75755659D01*
X170955000Y-75755659D01*
X170955001Y-75755659D01*
X170994234Y-75752226D01*
X171190408Y-75735063D01*
X171418663Y-75673903D01*
X171632830Y-75574035D01*
X171826401Y-75438495D01*
X171993495Y-75271401D01*
X172129035Y-75077830D01*
X172228903Y-74863663D01*
X172290063Y-74635408D01*
X172310659Y-74400000D01*
X172290063Y-74164592D01*
X172228903Y-73936337D01*
X172129035Y-73722171D01*
X172126267Y-73718217D01*
X171993494Y-73528597D01*
X171826402Y-73361506D01*
X171826395Y-73361501D01*
X171632834Y-73225967D01*
X171632830Y-73225965D01*
X171631833Y-73225500D01*
X171418663Y-73126097D01*
X171418659Y-73126096D01*
X171418655Y-73126094D01*
X171190413Y-73064938D01*
X171190403Y-73064936D01*
X170955001Y-73044341D01*
X170954999Y-73044341D01*
X170719596Y-73064936D01*
X170719586Y-73064938D01*
X170491344Y-73126094D01*
X170491335Y-73126098D01*
X170277171Y-73225964D01*
X170277169Y-73225965D01*
X170083597Y-73361505D01*
X169916505Y-73528597D01*
X169786575Y-73714158D01*
X169731998Y-73757783D01*
X169662500Y-73764977D01*
X169600145Y-73733454D01*
X169583425Y-73714158D01*
X169453494Y-73528597D01*
X169286402Y-73361506D01*
X169286395Y-73361501D01*
X169092834Y-73225967D01*
X169092830Y-73225965D01*
X169091833Y-73225500D01*
X168878663Y-73126097D01*
X168878659Y-73126096D01*
X168878655Y-73126094D01*
X168650413Y-73064938D01*
X168650403Y-73064936D01*
X168415001Y-73044341D01*
X168414999Y-73044341D01*
X168179596Y-73064936D01*
X168179586Y-73064938D01*
X167951344Y-73126094D01*
X167951335Y-73126098D01*
X167737171Y-73225964D01*
X167737169Y-73225965D01*
X167543597Y-73361505D01*
X167376505Y-73528597D01*
X167240965Y-73722169D01*
X167240964Y-73722171D01*
X167141098Y-73936335D01*
X167141094Y-73936344D01*
X167079938Y-74164586D01*
X167079936Y-74164596D01*
X167059341Y-74399999D01*
X167059341Y-74400000D01*
X167079936Y-74635403D01*
X167079938Y-74635413D01*
X167106856Y-74735872D01*
X167105193Y-74805722D01*
X167074763Y-74855645D01*
X167017229Y-74913180D01*
X166955906Y-74946666D01*
X166929547Y-74949500D01*
X166278437Y-74949500D01*
X166244319Y-74956286D01*
X166244318Y-74956285D01*
X166157599Y-74973535D01*
X166157591Y-74973537D01*
X166043760Y-75020687D01*
X165945068Y-75086632D01*
X165945065Y-75086634D01*
X165941308Y-75089143D01*
X164303966Y-76726485D01*
X164242643Y-76759970D01*
X164172951Y-76754986D01*
X164150314Y-76743798D01*
X164062536Y-76688644D01*
X164016244Y-76636310D01*
X164005287Y-76597533D01*
X163985369Y-76420750D01*
X163985368Y-76420745D01*
X163925788Y-76250476D01*
X163866921Y-76156791D01*
X163829816Y-76097738D01*
X163791879Y-76059801D01*
X163758394Y-75998478D01*
X163761721Y-75944760D01*
X163758819Y-75944098D01*
X163760365Y-75937319D01*
X163760368Y-75937313D01*
X163780565Y-75758058D01*
X163778557Y-75740237D01*
X163760369Y-75578808D01*
X163760368Y-75578803D01*
X163735146Y-75506722D01*
X163700789Y-75408536D01*
X163700788Y-75408535D01*
X163700787Y-75408531D01*
X163628769Y-75293916D01*
X163609768Y-75226680D01*
X163610143Y-75218230D01*
X163610500Y-75213703D01*
X163610499Y-74656298D01*
X163607576Y-74619142D01*
X163561370Y-74460100D01*
X163543936Y-74430622D01*
X163526752Y-74362901D01*
X163543937Y-74304376D01*
X163561369Y-74274901D01*
X163561370Y-74274900D01*
X163593416Y-74164596D01*
X163607575Y-74115862D01*
X163607576Y-74115856D01*
X163610499Y-74078710D01*
X163610500Y-74078703D01*
X163610499Y-73753940D01*
X163629506Y-73687969D01*
X163700788Y-73574525D01*
X163721911Y-73514158D01*
X163760368Y-73404255D01*
X163765186Y-73361501D01*
X163768102Y-73335617D01*
X163795168Y-73271203D01*
X163852763Y-73231648D01*
X163891322Y-73225500D01*
X164216610Y-73225500D01*
X164240802Y-73227883D01*
X164259732Y-73231648D01*
X164263769Y-73232451D01*
X164354507Y-73250499D01*
X164354508Y-73250500D01*
X164354509Y-73250500D01*
X166451608Y-73250500D01*
X166451608Y-73250499D01*
X166542347Y-73232451D01*
X166542348Y-73232451D01*
X166552473Y-73230436D01*
X166572452Y-73226463D01*
X166572457Y-73226460D01*
X166572460Y-73226460D01*
X166605787Y-73212654D01*
X166605786Y-73212654D01*
X166605792Y-73212652D01*
X166686286Y-73179312D01*
X166737509Y-73145084D01*
X166788733Y-73110858D01*
X166875858Y-73023733D01*
X166875858Y-73023731D01*
X166886066Y-73013524D01*
X166886068Y-73013521D01*
X167959353Y-71940235D01*
X168020674Y-71906752D01*
X168079125Y-71908143D01*
X168113780Y-71917428D01*
X168179592Y-71935063D01*
X168347656Y-71949767D01*
X168414999Y-71955659D01*
X168415000Y-71955659D01*
X168415001Y-71955659D01*
X168482344Y-71949767D01*
X168650408Y-71935063D01*
X168878663Y-71873903D01*
X169092830Y-71774035D01*
X169286401Y-71638495D01*
X169453495Y-71471401D01*
X169583425Y-71285842D01*
X169638002Y-71242217D01*
X169707500Y-71235023D01*
X169769855Y-71266546D01*
X169786575Y-71285842D01*
X169916500Y-71471395D01*
X169916505Y-71471401D01*
X170083599Y-71638495D01*
X170180384Y-71706265D01*
X170277165Y-71774032D01*
X170277167Y-71774033D01*
X170277170Y-71774035D01*
X170491337Y-71873903D01*
X170719592Y-71935063D01*
X170887656Y-71949767D01*
X170954999Y-71955659D01*
X170955000Y-71955659D01*
X170955001Y-71955659D01*
X171022344Y-71949767D01*
X171190408Y-71935063D01*
X171418663Y-71873903D01*
X171632830Y-71774035D01*
X171826401Y-71638495D01*
X171993495Y-71471401D01*
X172129035Y-71277830D01*
X172228903Y-71063663D01*
X172290063Y-70835408D01*
X172310659Y-70600000D01*
X172290063Y-70364592D01*
X172228903Y-70136337D01*
X172129035Y-69922171D01*
X172123425Y-69914158D01*
X171993494Y-69728597D01*
X171826402Y-69561506D01*
X171826395Y-69561501D01*
X171632834Y-69425967D01*
X171632830Y-69425965D01*
X171574079Y-69398569D01*
X171418663Y-69326097D01*
X171418659Y-69326096D01*
X171418655Y-69326094D01*
X171190413Y-69264938D01*
X171190403Y-69264936D01*
X170955001Y-69244341D01*
X170954999Y-69244341D01*
X170719596Y-69264936D01*
X170719586Y-69264938D01*
X170491344Y-69326094D01*
X170491335Y-69326098D01*
X170277171Y-69425964D01*
X170277169Y-69425965D01*
X170083597Y-69561505D01*
X169916505Y-69728597D01*
X169786575Y-69914158D01*
X169731998Y-69957783D01*
X169662500Y-69964977D01*
X169600145Y-69933454D01*
X169583425Y-69914158D01*
X169453494Y-69728597D01*
X169286402Y-69561506D01*
X169286395Y-69561501D01*
X169092834Y-69425967D01*
X169092830Y-69425965D01*
X169034079Y-69398569D01*
X168878663Y-69326097D01*
X168878659Y-69326096D01*
X168878655Y-69326094D01*
X168650413Y-69264938D01*
X168650403Y-69264936D01*
X168415001Y-69244341D01*
X168414999Y-69244341D01*
X168179596Y-69264936D01*
X168179586Y-69264938D01*
X167951344Y-69326094D01*
X167951335Y-69326098D01*
X167737171Y-69425964D01*
X167737169Y-69425965D01*
X167543597Y-69561505D01*
X167376505Y-69728597D01*
X167240965Y-69922169D01*
X167240964Y-69922171D01*
X167141098Y-70136335D01*
X167141094Y-70136344D01*
X167079938Y-70364586D01*
X167079936Y-70364596D01*
X167059341Y-70599999D01*
X167059341Y-70600000D01*
X167079936Y-70835403D01*
X167079938Y-70835413D01*
X167106856Y-70935872D01*
X167105193Y-71005722D01*
X167074762Y-71055646D01*
X166167229Y-71963181D01*
X166105906Y-71996666D01*
X166079548Y-71999500D01*
X165591322Y-71999500D01*
X165524283Y-71979815D01*
X165478528Y-71927011D01*
X165468102Y-71889383D01*
X165460369Y-71820750D01*
X165460368Y-71820748D01*
X165460368Y-71820745D01*
X165400789Y-71650478D01*
X165304816Y-71497738D01*
X165177262Y-71370184D01*
X165043033Y-71285842D01*
X165024523Y-71274211D01*
X164854254Y-71214631D01*
X164854249Y-71214630D01*
X164675004Y-71194435D01*
X164674996Y-71194435D01*
X164495746Y-71214631D01*
X164495745Y-71214631D01*
X164442223Y-71233359D01*
X164372444Y-71236920D01*
X164313589Y-71203998D01*
X163661819Y-70552228D01*
X163628334Y-70490905D01*
X163625500Y-70464547D01*
X163625500Y-70284807D01*
X163645185Y-70217768D01*
X163686379Y-70178075D01*
X163759954Y-70134563D01*
X163877063Y-70017454D01*
X163961370Y-69874900D01*
X164002464Y-69733454D01*
X164007575Y-69715862D01*
X164007576Y-69715856D01*
X164010499Y-69678710D01*
X164010500Y-69678703D01*
X164010499Y-69121298D01*
X164007576Y-69084142D01*
X163961370Y-68925100D01*
X163943936Y-68895622D01*
X163926752Y-68827901D01*
X163943937Y-68769376D01*
X163961369Y-68739901D01*
X163961370Y-68739900D01*
X164007576Y-68580858D01*
X164010500Y-68543703D01*
X164010499Y-67986298D01*
X164007576Y-67949142D01*
X163961370Y-67790100D01*
X163877063Y-67647546D01*
X163877061Y-67647544D01*
X163877058Y-67647540D01*
X163861819Y-67632301D01*
X163828334Y-67570978D01*
X163825500Y-67544620D01*
X163825500Y-67344854D01*
X163844507Y-67278881D01*
X163849324Y-67271216D01*
X163886240Y-67212463D01*
X163925788Y-67149524D01*
X163925789Y-67149522D01*
X163985368Y-66979255D01*
X163985369Y-66979249D01*
X164005565Y-66800003D01*
X164005565Y-66799996D01*
X163985369Y-66620750D01*
X163985368Y-66620745D01*
X163925788Y-66450476D01*
X163848367Y-66327262D01*
X163829816Y-66297738D01*
X163702262Y-66170184D01*
X163657799Y-66142246D01*
X163549523Y-66074211D01*
X163379254Y-66014631D01*
X163379249Y-66014630D01*
X163300617Y-66005771D01*
X163236203Y-65978705D01*
X163196647Y-65921110D01*
X163190500Y-65882551D01*
X163190500Y-65524499D01*
X163210185Y-65457460D01*
X163262989Y-65411705D01*
X163314500Y-65400499D01*
X163457871Y-65400499D01*
X163457872Y-65400499D01*
X163517483Y-65394091D01*
X163652331Y-65343796D01*
X163767546Y-65257546D01*
X163853796Y-65142331D01*
X163904091Y-65007483D01*
X163910500Y-64947873D01*
X163910499Y-63874983D01*
X165549500Y-63874983D01*
X165549500Y-65475001D01*
X165549501Y-65475018D01*
X165560000Y-65577796D01*
X165560001Y-65577799D01*
X165615185Y-65744331D01*
X165615187Y-65744336D01*
X165624389Y-65759254D01*
X165707288Y-65893656D01*
X165831344Y-66017712D01*
X165980666Y-66109814D01*
X166147203Y-66164999D01*
X166249991Y-66175500D01*
X167550008Y-66175499D01*
X167652797Y-66164999D01*
X167819334Y-66109814D01*
X167968656Y-66017712D01*
X168092712Y-65893656D01*
X168184814Y-65744334D01*
X168184814Y-65744331D01*
X168188178Y-65738879D01*
X168240126Y-65692154D01*
X168309088Y-65680931D01*
X168373170Y-65708774D01*
X168381398Y-65716294D01*
X168520213Y-65855109D01*
X168692179Y-65980048D01*
X168692181Y-65980049D01*
X168692184Y-65980051D01*
X168881588Y-66076557D01*
X169083757Y-66142246D01*
X169293713Y-66175500D01*
X169293714Y-66175500D01*
X169506286Y-66175500D01*
X169506287Y-66175500D01*
X169716243Y-66142246D01*
X169918412Y-66076557D01*
X170107816Y-65980051D01*
X170141115Y-65955858D01*
X170279786Y-65855109D01*
X170279788Y-65855106D01*
X170279792Y-65855104D01*
X170430104Y-65704792D01*
X170430106Y-65704788D01*
X170430109Y-65704786D01*
X170555048Y-65532820D01*
X170555047Y-65532820D01*
X170555051Y-65532816D01*
X170651557Y-65343412D01*
X170717246Y-65141243D01*
X170750500Y-64931287D01*
X170750500Y-64418713D01*
X170717246Y-64208757D01*
X170651557Y-64006588D01*
X170555051Y-63817184D01*
X170555049Y-63817181D01*
X170555048Y-63817179D01*
X170430109Y-63645213D01*
X170279786Y-63494890D01*
X170107820Y-63369951D01*
X169918414Y-63273444D01*
X169918413Y-63273443D01*
X169918412Y-63273443D01*
X169716243Y-63207754D01*
X169716241Y-63207753D01*
X169716240Y-63207753D01*
X169554957Y-63182208D01*
X169506287Y-63174500D01*
X169293713Y-63174500D01*
X169245042Y-63182208D01*
X169083760Y-63207753D01*
X168881585Y-63273444D01*
X168692179Y-63369951D01*
X168520215Y-63494889D01*
X168381398Y-63633706D01*
X168320075Y-63667190D01*
X168250383Y-63662206D01*
X168194450Y-63620334D01*
X168188178Y-63611120D01*
X168092712Y-63456344D01*
X167968657Y-63332289D01*
X167968656Y-63332288D01*
X167819334Y-63240186D01*
X167652797Y-63185001D01*
X167652795Y-63185000D01*
X167550010Y-63174500D01*
X166249998Y-63174500D01*
X166249981Y-63174501D01*
X166147203Y-63185000D01*
X166147200Y-63185001D01*
X165980668Y-63240185D01*
X165980663Y-63240187D01*
X165831342Y-63332289D01*
X165707289Y-63456342D01*
X165615187Y-63605663D01*
X165615185Y-63605668D01*
X165597954Y-63657669D01*
X165560001Y-63772203D01*
X165560001Y-63772204D01*
X165560000Y-63772204D01*
X165549500Y-63874983D01*
X163910499Y-63874983D01*
X163910499Y-63852128D01*
X163904091Y-63792517D01*
X163896514Y-63772203D01*
X163853797Y-63657671D01*
X163853793Y-63657664D01*
X163767547Y-63542455D01*
X163767544Y-63542452D01*
X163652335Y-63456206D01*
X163652328Y-63456202D01*
X163517482Y-63405908D01*
X163517483Y-63405908D01*
X163457883Y-63399501D01*
X163457881Y-63399500D01*
X163457873Y-63399500D01*
X163457864Y-63399500D01*
X162112129Y-63399500D01*
X162112123Y-63399501D01*
X162052516Y-63405908D01*
X161917671Y-63456202D01*
X161917664Y-63456206D01*
X161802455Y-63542452D01*
X161802452Y-63542455D01*
X161716206Y-63657664D01*
X161716202Y-63657671D01*
X161665908Y-63792517D01*
X161659501Y-63852116D01*
X161659501Y-63852123D01*
X161659500Y-63852135D01*
X161659500Y-64679547D01*
X161639815Y-64746586D01*
X161623172Y-64767237D01*
X161618345Y-64772063D01*
X161557019Y-64805542D01*
X161516790Y-64807593D01*
X161400003Y-64794435D01*
X161399996Y-64794435D01*
X161220750Y-64814630D01*
X161220745Y-64814631D01*
X161050476Y-64874211D01*
X160897737Y-64970184D01*
X160770184Y-65097737D01*
X160674211Y-65250476D01*
X160614631Y-65420745D01*
X160614630Y-65420750D01*
X160594435Y-65599996D01*
X160594435Y-65600003D01*
X160614630Y-65779249D01*
X160614631Y-65779254D01*
X160674211Y-65949523D01*
X160724969Y-66030303D01*
X160770184Y-66102262D01*
X160897738Y-66229816D01*
X160967636Y-66273736D01*
X161050474Y-66325787D01*
X161050478Y-66325789D01*
X161163591Y-66365369D01*
X161220745Y-66385368D01*
X161220750Y-66385369D01*
X161399996Y-66405565D01*
X161400000Y-66405565D01*
X161400004Y-66405565D01*
X161579249Y-66385369D01*
X161579252Y-66385368D01*
X161579255Y-66385368D01*
X161749522Y-66325789D01*
X161749523Y-66325787D01*
X161749526Y-66325787D01*
X161749529Y-66325786D01*
X161755795Y-66322769D01*
X161756323Y-66323866D01*
X161816757Y-66306785D01*
X161883593Y-66327148D01*
X161928811Y-66380413D01*
X161939500Y-66430779D01*
X161939500Y-68137931D01*
X161919815Y-68204970D01*
X161867011Y-68250725D01*
X161797853Y-68260669D01*
X161774546Y-68254973D01*
X161659257Y-68214632D01*
X161659249Y-68214630D01*
X161480004Y-68194435D01*
X161479996Y-68194435D01*
X161300750Y-68214630D01*
X161300745Y-68214631D01*
X161130476Y-68274211D01*
X160977737Y-68370184D01*
X160850184Y-68497737D01*
X160750506Y-68656374D01*
X160748360Y-68655025D01*
X160709347Y-68698195D01*
X160641912Y-68716476D01*
X160575297Y-68695397D01*
X160530654Y-68641650D01*
X160520499Y-68592506D01*
X160520499Y-67659004D01*
X160505089Y-67541945D01*
X160444757Y-67396291D01*
X160444756Y-67396290D01*
X160444756Y-67396289D01*
X160357703Y-67282840D01*
X160348784Y-67271216D01*
X160286246Y-67223229D01*
X160223710Y-67175243D01*
X160121489Y-67132902D01*
X160078055Y-67114911D01*
X159960997Y-67099500D01*
X156839001Y-67099500D01*
X156721952Y-67114909D01*
X156721944Y-67114911D01*
X156576289Y-67175243D01*
X156451216Y-67271216D01*
X156355243Y-67396289D01*
X156294911Y-67541944D01*
X156294911Y-67541945D01*
X156279500Y-67658995D01*
X156279500Y-68850998D01*
X156294909Y-68968047D01*
X156294911Y-68968055D01*
X156355243Y-69113710D01*
X156364749Y-69126098D01*
X156451216Y-69238784D01*
X156497386Y-69274211D01*
X156576289Y-69334756D01*
X156576290Y-69334756D01*
X156576291Y-69334757D01*
X156721945Y-69395089D01*
X156839003Y-69410500D01*
X159960996Y-69410499D01*
X159960998Y-69410499D01*
X160078047Y-69395090D01*
X160078046Y-69395090D01*
X160078055Y-69395089D01*
X160223709Y-69334757D01*
X160348784Y-69238784D01*
X160444757Y-69113709D01*
X160451431Y-69097594D01*
X160495268Y-69043193D01*
X160561562Y-69021126D01*
X160629262Y-69038403D01*
X160676874Y-69089539D01*
X160689212Y-69131162D01*
X160694630Y-69179250D01*
X160694631Y-69179254D01*
X160754211Y-69349524D01*
X160835493Y-69478881D01*
X160854500Y-69544854D01*
X160854500Y-75371842D01*
X160834815Y-75438881D01*
X160818180Y-75459524D01*
X160770980Y-75506723D01*
X160709657Y-75540207D01*
X160639965Y-75535222D01*
X160595619Y-75506722D01*
X160261819Y-75172922D01*
X160228334Y-75111599D01*
X160225500Y-75085241D01*
X160225500Y-74542700D01*
X160224220Y-74536267D01*
X160224218Y-74536259D01*
X160221662Y-74523407D01*
X160201463Y-74421855D01*
X160193016Y-74401463D01*
X160154311Y-74308020D01*
X160154309Y-74308017D01*
X160154307Y-74308013D01*
X160085858Y-74205573D01*
X160085855Y-74205569D01*
X159995637Y-74115351D01*
X159995606Y-74115322D01*
X159450892Y-73570608D01*
X159450872Y-73570586D01*
X159359427Y-73479141D01*
X159308203Y-73444915D01*
X159256981Y-73410689D01*
X159256980Y-73410688D01*
X159256977Y-73410686D01*
X159256974Y-73410685D01*
X159176486Y-73377347D01*
X159143146Y-73363537D01*
X159143138Y-73363535D01*
X159056426Y-73346286D01*
X159056417Y-73346286D01*
X159022301Y-73339500D01*
X159022300Y-73339500D01*
X155675453Y-73339500D01*
X155608414Y-73319815D01*
X155587772Y-73303181D01*
X155111819Y-72827228D01*
X155078334Y-72765905D01*
X155075500Y-72739547D01*
X155075500Y-70730809D01*
X155095185Y-70663770D01*
X155122191Y-70633859D01*
X155127252Y-70629821D01*
X155127262Y-70629816D01*
X155254816Y-70502262D01*
X155350789Y-70349522D01*
X155410368Y-70179255D01*
X155415204Y-70136335D01*
X155430565Y-70000003D01*
X155430565Y-69999996D01*
X155410369Y-69820750D01*
X155410368Y-69820745D01*
X155388337Y-69757783D01*
X155350789Y-69650478D01*
X155254816Y-69497738D01*
X155127262Y-69370184D01*
X155113451Y-69361506D01*
X154974521Y-69274210D01*
X154804249Y-69214630D01*
X154735616Y-69206897D01*
X154671202Y-69179830D01*
X154631647Y-69122235D01*
X154625500Y-69083677D01*
X154625500Y-68538396D01*
X154624227Y-68531998D01*
X154624226Y-68531993D01*
X154601463Y-68417548D01*
X154554311Y-68303714D01*
X154494788Y-68214632D01*
X154485857Y-68201265D01*
X154485854Y-68201262D01*
X152742868Y-66458277D01*
X152709383Y-66396954D01*
X152714367Y-66327262D01*
X152756239Y-66271329D01*
X152821703Y-66246912D01*
X152889976Y-66261764D01*
X152896521Y-66265603D01*
X152960473Y-66305787D01*
X152960477Y-66305788D01*
X152960478Y-66305789D01*
X153117856Y-66360858D01*
X153130745Y-66365368D01*
X153130750Y-66365369D01*
X153309996Y-66385565D01*
X153310000Y-66385565D01*
X153310004Y-66385565D01*
X153489249Y-66365369D01*
X153489252Y-66365368D01*
X153489255Y-66365368D01*
X153659522Y-66305789D01*
X153812262Y-66209816D01*
X153939816Y-66082262D01*
X154035789Y-65929522D01*
X154095368Y-65759255D01*
X154097049Y-65744336D01*
X154115565Y-65580003D01*
X154115565Y-65579997D01*
X154108102Y-65513765D01*
X154120156Y-65444943D01*
X154167505Y-65393564D01*
X154235115Y-65375939D01*
X154274653Y-65383698D01*
X154302517Y-65394091D01*
X154362127Y-65400500D01*
X155707872Y-65400499D01*
X155767483Y-65394091D01*
X155902331Y-65343796D01*
X156017546Y-65257546D01*
X156103796Y-65142331D01*
X156154091Y-65007483D01*
X156160500Y-64947873D01*
X156160499Y-63852128D01*
X156154091Y-63792517D01*
X156146514Y-63772203D01*
X156103797Y-63657671D01*
X156103793Y-63657664D01*
X156017547Y-63542455D01*
X156017544Y-63542452D01*
X155902335Y-63456206D01*
X155902328Y-63456202D01*
X155767482Y-63405908D01*
X155767483Y-63405908D01*
X155707883Y-63399501D01*
X155707881Y-63399500D01*
X155707873Y-63399500D01*
X155707864Y-63399500D01*
X154362129Y-63399500D01*
X154362123Y-63399501D01*
X154302516Y-63405908D01*
X154167671Y-63456202D01*
X154167664Y-63456206D01*
X154052457Y-63542451D01*
X154052449Y-63542459D01*
X154039495Y-63559763D01*
X153983560Y-63601633D01*
X153926347Y-63608670D01*
X153800004Y-63594435D01*
X153799996Y-63594435D01*
X153620750Y-63614630D01*
X153620745Y-63614631D01*
X153450476Y-63674211D01*
X153297737Y-63770184D01*
X153170184Y-63897737D01*
X153074211Y-64050476D01*
X153033335Y-64167295D01*
X152992613Y-64224071D01*
X152927660Y-64249818D01*
X152859099Y-64236362D01*
X152828612Y-64214021D01*
X152591819Y-63977228D01*
X152558334Y-63915905D01*
X152555500Y-63889547D01*
X152555500Y-63218396D01*
X152555499Y-63218388D01*
X152554658Y-63214163D01*
X152554659Y-63214141D01*
X152554654Y-63214143D01*
X152543481Y-63157971D01*
X152543481Y-63157970D01*
X152531464Y-63097555D01*
X152531463Y-63097548D01*
X152484311Y-62983714D01*
X152484310Y-62983713D01*
X152484307Y-62983707D01*
X152415858Y-62881267D01*
X152415855Y-62881263D01*
X152325637Y-62791045D01*
X152325606Y-62791016D01*
X151746771Y-62212181D01*
X151713286Y-62150858D01*
X151718270Y-62081166D01*
X151760142Y-62025233D01*
X151825606Y-62000816D01*
X151834452Y-62000500D01*
X173275500Y-62000500D01*
X173342539Y-62020185D01*
G37*
%TD.AperFunction*%
%TA.AperFunction,Conductor*%
G36*
X167097408Y-85118546D02*
G01*
X167152592Y-85161401D01*
X167175846Y-85227287D01*
X167164407Y-85286347D01*
X167141099Y-85336330D01*
X167141094Y-85336344D01*
X167079938Y-85564586D01*
X167079936Y-85564596D01*
X167059341Y-85799999D01*
X167059341Y-85800000D01*
X167079936Y-86035403D01*
X167079938Y-86035413D01*
X167106856Y-86135872D01*
X167105193Y-86205722D01*
X167074763Y-86255645D01*
X167017229Y-86313180D01*
X166955906Y-86346666D01*
X166929547Y-86349500D01*
X164955453Y-86349500D01*
X164888414Y-86329815D01*
X164867772Y-86313181D01*
X164562037Y-86007446D01*
X164191770Y-85637180D01*
X164158286Y-85575858D01*
X164163270Y-85506167D01*
X164205141Y-85450233D01*
X164270606Y-85425816D01*
X164279452Y-85425500D01*
X164661607Y-85425500D01*
X164722029Y-85413481D01*
X164782452Y-85401463D01*
X164825881Y-85383474D01*
X164896286Y-85354312D01*
X164947509Y-85320084D01*
X164998733Y-85285858D01*
X165085858Y-85198733D01*
X165085859Y-85198731D01*
X165092925Y-85191665D01*
X165092931Y-85191658D01*
X165122775Y-85161816D01*
X165184099Y-85128333D01*
X165210453Y-85125500D01*
X166961607Y-85125500D01*
X167022029Y-85113481D01*
X167027819Y-85112329D01*
X167097408Y-85118546D01*
G37*
%TD.AperFunction*%
%TD*%
M02*
