M48
; DRILL file {KiCad 8.0.1} date 2024-04-24T23:00:20+0530
; FORMAT={-:-/ absolute / inch / decimal}
; #@! TF.CreationDate,2024-04-24T23:00:20+05:30
; #@! TF.GenerationSoftware,Kicad,Pcbnew,8.0.1
; #@! TF.FileFunction,Plated,1,2,PTH
FMAT,2
INCH
; #@! TA.AperFunction,Plated,PTH,ComponentDrill
T1C0.0394
; #@! TA.AperFunction,Plated,PTH,ComponentDrill
T2C0.1772
%
G90
G05
T1
X0.7283Y2.7165
X0.7283Y2.6165
X0.7283Y2.5165
X0.74Y2.0
X0.84Y2.0
X0.9252Y2.7171
X0.9252Y2.6171
X0.9252Y2.5171
X0.94Y2.0
X1.04Y2.0
X1.1Y0.1
X1.122Y2.7165
X1.122Y2.6165
X1.122Y2.5165
X1.14Y2.0
X1.2Y0.1
X1.24Y2.0
X1.3Y0.1
X1.3189Y2.7181
X1.3189Y2.6181
X1.3189Y2.5181
X1.34Y2.0
X1.4Y0.1
X1.44Y2.0
X1.5Y0.1
X1.5157Y2.7171
X1.5157Y2.6171
X1.5157Y2.5171
X1.54Y2.0
X1.6Y0.1
X1.64Y2.0
X1.7Y0.1
X1.7126Y2.7181
X1.7126Y2.6181
X1.7126Y2.5181
X1.8Y2.0
X1.8Y0.1
X1.9Y2.0
X1.9094Y2.7171
X1.9094Y2.6171
X1.9094Y2.5171
X2.0Y2.0
X2.0Y0.1
X2.0079Y-0.315
X2.0079Y-0.415
X2.0079Y-0.515
X2.1Y2.0
X2.1Y0.1
X2.1063Y2.7171
X2.1063Y2.6171
X2.1063Y2.5171
X2.2Y2.0
X2.2Y0.1
X2.2047Y-0.315
X2.2047Y-0.415
X2.2047Y-0.515
X2.3Y2.0
X2.3Y0.1
X2.3031Y2.7181
X2.3031Y2.6181
X2.3031Y2.5181
X2.4Y2.0
X2.4Y0.1
X2.4016Y-0.314
X2.4016Y-0.414
X2.4016Y-0.514
X2.5Y2.7181
X2.5Y2.6181
X2.5Y2.5181
X2.5Y2.0
X2.5Y0.1
X2.5984Y-0.315
X2.5984Y-0.415
X2.5984Y-0.515
X2.6Y0.1
X2.7Y2.0
X2.7Y0.1
X2.7165Y2.7165
X2.7165Y2.6165
X2.7165Y2.5165
X2.7953Y-0.315
X2.7953Y-0.415
X2.7953Y-0.515
X2.8Y2.0
X2.9Y2.0
X2.9Y0.1
X2.9134Y2.7181
X2.9134Y2.6181
X2.9134Y2.5181
X2.9921Y-0.315
X2.9921Y-0.415
X2.9921Y-0.515
X3.0Y2.0
X3.0Y0.1
X3.1Y2.0
X3.1Y0.1
X3.1102Y2.7165
X3.1102Y2.6165
X3.1102Y2.5165
X3.189Y-0.314
X3.189Y-0.414
X3.189Y-0.514
X3.2Y2.0
X3.2Y0.1
X3.3Y2.0
X3.3Y0.1
X3.3071Y2.7165
X3.3071Y2.6165
X3.3071Y2.5165
X3.3858Y-0.314
X3.3858Y-0.414
X3.3858Y-0.514
X3.4Y2.0
X3.4Y0.1
X3.5Y0.1
X3.5236Y2.7165
X3.5236Y2.6165
X3.5236Y2.5165
X3.5827Y-0.314
X3.5827Y-0.414
X3.5827Y-0.514
X3.6Y0.1
X3.7795Y-0.314
X3.7795Y-0.414
X3.7795Y-0.514
X3.7992Y2.7165
X3.7992Y2.6165
X3.7992Y2.5165
X3.9764Y-0.315
X3.9764Y-0.415
X3.9764Y-0.515
X4.1717Y0.9055
X4.1717Y0.7087
X4.1717Y0.5118
X4.1722Y2.2756
X4.1722Y2.0925
X4.1722Y1.9094
X4.1722Y1.7264
X4.1722Y1.5433
X4.1722Y1.3602
X4.1722Y1.1024
X4.1722Y0.315
X4.2717Y0.9055
X4.2717Y0.7087
X4.2717Y0.5118
X4.2722Y2.2756
X4.2722Y2.0925
X4.2722Y1.9094
X4.2722Y1.7264
X4.2722Y1.5433
X4.2722Y1.3602
X4.2722Y1.1024
X4.2722Y0.315
X4.3717Y0.9055
X4.3717Y0.7087
X4.3717Y0.5118
X4.3722Y2.2756
X4.3722Y2.0925
X4.3722Y1.9094
X4.3722Y1.7264
X4.3722Y1.5433
X4.3722Y1.3602
X4.3722Y1.1024
X4.3722Y0.315
T2
X0.8661Y-0.2323
X0.8661Y-0.5157
M30
