%TF.GenerationSoftware,KiCad,Pcbnew,8.0.1*%
%TF.CreationDate,2024-04-24T22:59:36+05:30*%
%TF.ProjectId,mega_servos_1,6d656761-5f73-4657-9276-6f735f312e6b,rev?*%
%TF.SameCoordinates,PX5f5e100PY5f5e100*%
%TF.FileFunction,Copper,L1,Top*%
%TF.FilePolarity,Positive*%
%FSLAX46Y46*%
G04 Gerber Fmt 4.6, Leading zero omitted, Abs format (unit mm)*
G04 Created by KiCad (PCBNEW 8.0.1) date 2024-04-24 22:59:36*
%MOMM*%
%LPD*%
G01*
G04 APERTURE LIST*
G04 Aperture macros list*
%AMRoundRect*
0 Rectangle with rounded corners*
0 $1 Rounding radius*
0 $2 $3 $4 $5 $6 $7 $8 $9 X,Y pos of 4 corners*
0 Add a 4 corners polygon primitive as box body*
4,1,4,$2,$3,$4,$5,$6,$7,$8,$9,$2,$3,0*
0 Add four circle primitives for the rounded corners*
1,1,$1+$1,$2,$3*
1,1,$1+$1,$4,$5*
1,1,$1+$1,$6,$7*
1,1,$1+$1,$8,$9*
0 Add four rect primitives between the rounded corners*
20,1,$1+$1,$2,$3,$4,$5,0*
20,1,$1+$1,$4,$5,$6,$7,0*
20,1,$1+$1,$6,$7,$8,$9,0*
20,1,$1+$1,$8,$9,$2,$3,0*%
G04 Aperture macros list end*
%TA.AperFunction,NonConductor*%
%ADD10C,0.150000*%
%TD*%
%TA.AperFunction,ComponentPad*%
%ADD11R,1.700000X1.700000*%
%TD*%
%TA.AperFunction,ComponentPad*%
%ADD12O,1.700000X1.700000*%
%TD*%
%TA.AperFunction,ComponentPad*%
%ADD13RoundRect,1.500000X-1.500000X1.500000X-1.500000X-1.500000X1.500000X-1.500000X1.500000X1.500000X0*%
%TD*%
%TA.AperFunction,ComponentPad*%
%ADD14C,6.000000*%
%TD*%
%TA.AperFunction,Conductor*%
%ADD15C,0.250000*%
%TD*%
%TA.AperFunction,Conductor*%
%ADD16C,1.500000*%
%TD*%
%TA.AperFunction,Conductor*%
%ADD17C,0.500000*%
%TD*%
%TA.AperFunction,Conductor*%
%ADD18C,0.400000*%
%TD*%
G04 APERTURE END LIST*
D10*
X84500000Y74000000D02*
X85000000Y74000000D01*
X84500000Y74000000D01*
X84500000Y74000000D02*
X85500000Y74000000D01*
X84500000Y74000000D01*
X-11500000Y73500000D02*
X121000000Y73500000D01*
X121000000Y-20000000D01*
X-11500000Y-20000000D01*
X-11500000Y73500000D01*
D11*
%TO.P,J1,1,Pin_1*%
%TO.N,unconnected-(J1-Pin_1-Pad1)*%
X27940000Y2540000D03*
D12*
%TO.P,J1,2,Pin_2*%
%TO.N,/IOREF*%
X30480000Y2540000D03*
%TO.P,J1,3,Pin_3*%
%TO.N,/~{RESET}*%
X33020000Y2540000D03*
%TO.P,J1,4,Pin_4*%
%TO.N,unconnected-(J1-Pin_4-Pad4)*%
X35560000Y2540000D03*
%TO.P,J1,5,Pin_5*%
%TO.N,unconnected-(J1-Pin_5-Pad5)*%
X38100000Y2540000D03*
%TO.P,J1,6,Pin_6*%
%TO.N,unconnected-(J1-Pin_6-Pad6)*%
X40640000Y2540000D03*
%TO.P,J1,7,Pin_7*%
%TO.N,unconnected-(J1-Pin_7-Pad7)*%
X43180000Y2540000D03*
%TO.P,J1,8,Pin_8*%
%TO.N,/Vin*%
X45720000Y2540000D03*
%TD*%
D11*
%TO.P,J3,1,Pin_1*%
%TO.N,/A0*%
X50800000Y2540000D03*
D12*
%TO.P,J3,2,Pin_2*%
%TO.N,/A1*%
X53340000Y2540000D03*
%TO.P,J3,3,Pin_3*%
%TO.N,/A2*%
X55880000Y2540000D03*
%TO.P,J3,4,Pin_4*%
%TO.N,/A3*%
X58420000Y2540000D03*
%TO.P,J3,5,Pin_5*%
%TO.N,/A4*%
X60960000Y2540000D03*
%TO.P,J3,6,Pin_6*%
%TO.N,/A5*%
X63500000Y2540000D03*
%TO.P,J3,7,Pin_7*%
%TO.N,/A6*%
X66040000Y2540000D03*
%TO.P,J3,8,Pin_8*%
%TO.N,/A7*%
X68580000Y2540000D03*
%TD*%
D11*
%TO.P,J5,1,Pin_1*%
%TO.N,Net-(J5-Pin_1)*%
X73660000Y2540000D03*
D12*
%TO.P,J5,2,Pin_2*%
%TO.N,Net-(J5-Pin_2)*%
X76200000Y2540000D03*
%TO.P,J5,3,Pin_3*%
%TO.N,Net-(J5-Pin_3)*%
X78740000Y2540000D03*
%TO.P,J5,4,Pin_4*%
%TO.N,Net-(J5-Pin_4)*%
X81280000Y2540000D03*
%TO.P,J5,5,Pin_5*%
%TO.N,Net-(J5-Pin_5)*%
X83820000Y2540000D03*
%TO.P,J5,6,Pin_6*%
%TO.N,Net-(J5-Pin_6)*%
X86360000Y2540000D03*
%TO.P,J5,7,Pin_7*%
%TO.N,Net-(J5-Pin_7)*%
X88900000Y2540000D03*
%TO.P,J5,8,Pin_8*%
%TO.N,Net-(J5-Pin_8)*%
X91440000Y2540000D03*
%TD*%
D11*
%TO.P,J2,1,Pin_1*%
%TO.N,/SCL{slash}21*%
X18796000Y50800000D03*
D12*
%TO.P,J2,2,Pin_2*%
%TO.N,/SDA{slash}20*%
X21336000Y50800000D03*
%TO.P,J2,3,Pin_3*%
%TO.N,/AREF*%
X23876000Y50800000D03*
%TO.P,J2,4,Pin_4*%
%TO.N,Net-(J2-Pin_4)*%
X26416000Y50800000D03*
%TO.P,J2,5,Pin_5*%
%TO.N,/\u002A13*%
X28956000Y50800000D03*
%TO.P,J2,6,Pin_6*%
%TO.N,/\u002A12*%
X31496000Y50800000D03*
%TO.P,J2,7,Pin_7*%
%TO.N,/\u002A11*%
X34036000Y50800000D03*
%TO.P,J2,8,Pin_8*%
%TO.N,/\u002A10*%
X36576000Y50800000D03*
%TO.P,J2,9,Pin_9*%
%TO.N,/\u002A9*%
X39116000Y50800000D03*
%TO.P,J2,10,Pin_10*%
%TO.N,/\u002A8*%
X41656000Y50800000D03*
%TD*%
D11*
%TO.P,J4,1,Pin_1*%
%TO.N,Net-(J4-Pin_1)*%
X45720000Y50800000D03*
D12*
%TO.P,J4,2,Pin_2*%
%TO.N,Net-(J4-Pin_2)*%
X48260000Y50800000D03*
%TO.P,J4,3,Pin_3*%
%TO.N,/\u002A5*%
X50800000Y50800000D03*
%TO.P,J4,4,Pin_4*%
%TO.N,/\u002A4*%
X53340000Y50800000D03*
%TO.P,J4,5,Pin_5*%
%TO.N,Net-(J4-Pin_5)*%
X55880000Y50800000D03*
%TO.P,J4,6,Pin_6*%
%TO.N,/\u002A2*%
X58420000Y50800000D03*
%TO.P,J4,7,Pin_7*%
%TO.N,/TX0{slash}1*%
X60960000Y50800000D03*
%TO.P,J4,8,Pin_8*%
%TO.N,/RX0{slash}0*%
X63500000Y50800000D03*
%TD*%
D11*
%TO.P,J6,1,Pin_1*%
%TO.N,/TX3{slash}14*%
X68580000Y50800000D03*
D12*
%TO.P,J6,2,Pin_2*%
%TO.N,/RX3{slash}15*%
X71120000Y50800000D03*
%TO.P,J6,3,Pin_3*%
%TO.N,/TX2{slash}16*%
X73660000Y50800000D03*
%TO.P,J6,4,Pin_4*%
%TO.N,/RX2{slash}17*%
X76200000Y50800000D03*
%TO.P,J6,5,Pin_5*%
%TO.N,/TX1{slash}18*%
X78740000Y50800000D03*
%TO.P,J6,6,Pin_6*%
%TO.N,/RX1{slash}19*%
X81280000Y50800000D03*
%TO.P,J6,7,Pin_7*%
%TO.N,/SDA{slash}20*%
X83820000Y50800000D03*
%TO.P,J6,8,Pin_8*%
%TO.N,/SCL{slash}21*%
X86360000Y50800000D03*
%TD*%
D11*
%TO.P,M2,1,PWM*%
%TO.N,/\u002A12*%
X23500000Y63935000D03*
D12*
%TO.P,M2,2,+*%
%TO.N,/Vin*%
X23500000Y66475000D03*
%TO.P,M2,3,-*%
%TO.N,Net-(J2-Pin_4)*%
X23500000Y69015000D03*
%TD*%
D11*
%TO.P,M28,1,PWM*%
%TO.N,/A5*%
X76000000Y-8000000D03*
D12*
%TO.P,M28,2,+*%
%TO.N,/Vin*%
X76000000Y-10540000D03*
%TO.P,M28,3,-*%
%TO.N,Net-(J2-Pin_4)*%
X76000000Y-13080000D03*
%TD*%
D11*
%TO.P,M29,1,PWM*%
%TO.N,/A6*%
X81000000Y-7975000D03*
D12*
%TO.P,M29,2,+*%
%TO.N,/Vin*%
X81000000Y-10515000D03*
%TO.P,M29,3,-*%
%TO.N,Net-(J2-Pin_4)*%
X81000000Y-13055000D03*
%TD*%
D11*
%TO.P,M9,1,PWM*%
%TO.N,/\u002A5*%
X58500000Y63960000D03*
D12*
%TO.P,M9,2,+*%
%TO.N,/Vin*%
X58500000Y66500000D03*
%TO.P,M9,3,-*%
%TO.N,Net-(J2-Pin_4)*%
X58500000Y69040000D03*
%TD*%
D11*
%TO.P,M23,1,PWM*%
%TO.N,/A0*%
X51000000Y-8000000D03*
D12*
%TO.P,M23,2,+*%
%TO.N,/Vin*%
X51000000Y-10540000D03*
%TO.P,M23,3,-*%
%TO.N,Net-(J2-Pin_4)*%
X51000000Y-13080000D03*
%TD*%
D11*
%TO.P,M27,1,PWM*%
%TO.N,/A4*%
X71000000Y-8000000D03*
D12*
%TO.P,M27,2,+*%
%TO.N,/Vin*%
X71000000Y-10540000D03*
%TO.P,M27,3,-*%
%TO.N,Net-(J2-Pin_4)*%
X71000000Y-13080000D03*
%TD*%
D11*
%TO.P,M13,1,PWM*%
%TO.N,/TX0{slash}1*%
X79000000Y63920000D03*
D12*
%TO.P,M13,2,+*%
%TO.N,/Vin*%
X79000000Y66460000D03*
%TO.P,M13,3,-*%
%TO.N,Net-(J2-Pin_4)*%
X79000000Y69000000D03*
%TD*%
D11*
%TO.P,M3,1,PWM*%
%TO.N,/\u002A11*%
X28500000Y63920000D03*
D12*
%TO.P,M3,2,+*%
%TO.N,/Vin*%
X28500000Y66460000D03*
%TO.P,M3,3,-*%
%TO.N,Net-(J2-Pin_4)*%
X28500000Y69000000D03*
%TD*%
D13*
%TO.P,J8,1,Pin_1*%
%TO.N,/Vin*%
X22000000Y-5900000D03*
D14*
%TO.P,J8,2,Pin_2*%
%TO.N,Net-(J2-Pin_4)*%
X22000000Y-13100000D03*
%TD*%
D11*
%TO.P,M36,1,PWM*%
%TO.N,Net-(J5-Pin_6)*%
X105960000Y18000000D03*
D12*
%TO.P,M36,2,+*%
%TO.N,/Vin*%
X108500000Y18000000D03*
%TO.P,M36,3,-*%
%TO.N,Net-(J2-Pin_4)*%
X111040000Y18000000D03*
%TD*%
D11*
%TO.P,M31,1,PWM*%
%TO.N,Net-(J5-Pin_1)*%
X91000000Y-7975000D03*
D12*
%TO.P,M31,2,+*%
%TO.N,/Vin*%
X91000000Y-10515000D03*
%TO.P,M31,3,-*%
%TO.N,Net-(J2-Pin_4)*%
X91000000Y-13055000D03*
%TD*%
D11*
%TO.P,M24,1,PWM*%
%TO.N,/A1*%
X56000000Y-8000000D03*
D12*
%TO.P,M24,2,+*%
%TO.N,/Vin*%
X56000000Y-10540000D03*
%TO.P,M24,3,-*%
%TO.N,Net-(J2-Pin_4)*%
X56000000Y-13080000D03*
%TD*%
D11*
%TO.P,M17,1,PWM*%
%TO.N,/TX2{slash}16*%
X105975000Y34550000D03*
D12*
%TO.P,M17,2,+*%
%TO.N,/Vin*%
X108515000Y34550000D03*
%TO.P,M17,3,-*%
%TO.N,Net-(J2-Pin_4)*%
X111055000Y34550000D03*
%TD*%
D11*
%TO.P,M26,1,PWM*%
%TO.N,/A3*%
X66000000Y-8000000D03*
D12*
%TO.P,M26,2,+*%
%TO.N,/Vin*%
X66000000Y-10540000D03*
%TO.P,M26,3,-*%
%TO.N,Net-(J2-Pin_4)*%
X66000000Y-13080000D03*
%TD*%
D11*
%TO.P,M35,1,PWM*%
%TO.N,Net-(J5-Pin_5)*%
X105960000Y23000000D03*
D12*
%TO.P,M35,2,+*%
%TO.N,/Vin*%
X108500000Y23000000D03*
%TO.P,M35,3,-*%
%TO.N,Net-(J2-Pin_4)*%
X111040000Y23000000D03*
%TD*%
D11*
%TO.P,M8,1,PWM*%
%TO.N,Net-(J4-Pin_2)*%
X53500000Y63935000D03*
D12*
%TO.P,M8,2,+*%
%TO.N,/Vin*%
X53500000Y66475000D03*
%TO.P,M8,3,-*%
%TO.N,Net-(J2-Pin_4)*%
X53500000Y69015000D03*
%TD*%
D11*
%TO.P,M5,1,PWM*%
%TO.N,/\u002A9*%
X38500000Y63935000D03*
D12*
%TO.P,M5,2,+*%
%TO.N,/Vin*%
X38500000Y66475000D03*
%TO.P,M5,3,-*%
%TO.N,Net-(J2-Pin_4)*%
X38500000Y69015000D03*
%TD*%
D11*
%TO.P,M34,1,PWM*%
%TO.N,Net-(J5-Pin_4)*%
X105975000Y28000000D03*
D12*
%TO.P,M34,2,+*%
%TO.N,/Vin*%
X108515000Y28000000D03*
%TO.P,M34,3,-*%
%TO.N,Net-(J2-Pin_4)*%
X111055000Y28000000D03*
%TD*%
D11*
%TO.P,M6,1,PWM*%
%TO.N,/\u002A8*%
X43500000Y63960000D03*
D12*
%TO.P,M6,2,+*%
%TO.N,/Vin*%
X43500000Y66500000D03*
%TO.P,M6,3,-*%
%TO.N,Net-(J2-Pin_4)*%
X43500000Y69040000D03*
%TD*%
D11*
%TO.P,M7,1,PWM*%
%TO.N,Net-(J4-Pin_1)*%
X48500000Y63935000D03*
D12*
%TO.P,M7,2,+*%
%TO.N,/Vin*%
X48500000Y66475000D03*
%TO.P,M7,3,-*%
%TO.N,Net-(J2-Pin_4)*%
X48500000Y69015000D03*
%TD*%
D11*
%TO.P,M22,1,PWM*%
%TO.N,/SCL{slash}21*%
X105975000Y57800000D03*
D12*
%TO.P,M22,2,+*%
%TO.N,/Vin*%
X108515000Y57800000D03*
%TO.P,M22,3,-*%
%TO.N,Net-(J2-Pin_4)*%
X111055000Y57800000D03*
%TD*%
D11*
%TO.P,M32,1,PWM*%
%TO.N,Net-(J5-Pin_2)*%
X96000000Y-7975000D03*
D12*
%TO.P,M32,2,+*%
%TO.N,/Vin*%
X96000000Y-10515000D03*
%TO.P,M32,3,-*%
%TO.N,Net-(J2-Pin_4)*%
X96000000Y-13055000D03*
%TD*%
D11*
%TO.P,M30,1,PWM*%
%TO.N,/A7*%
X86000000Y-7975000D03*
D12*
%TO.P,M30,2,+*%
%TO.N,/Vin*%
X86000000Y-10515000D03*
%TO.P,M30,3,-*%
%TO.N,Net-(J2-Pin_4)*%
X86000000Y-13055000D03*
%TD*%
D11*
%TO.P,M1,1,PWM*%
%TO.N,/\u002A13*%
X18500000Y63920000D03*
D12*
%TO.P,M1,2,+*%
%TO.N,/Vin*%
X18500000Y66460000D03*
%TO.P,M1,3,-*%
%TO.N,Net-(J2-Pin_4)*%
X18500000Y69000000D03*
%TD*%
D11*
%TO.P,M12,1,PWM*%
%TO.N,/\u002A2*%
X74000000Y63960000D03*
D12*
%TO.P,M12,2,+*%
%TO.N,/Vin*%
X74000000Y66500000D03*
%TO.P,M12,3,-*%
%TO.N,Net-(J2-Pin_4)*%
X74000000Y69040000D03*
%TD*%
D11*
%TO.P,M11,1,PWM*%
%TO.N,Net-(J4-Pin_5)*%
X69000000Y63920000D03*
D12*
%TO.P,M11,2,+*%
%TO.N,/Vin*%
X69000000Y66460000D03*
%TO.P,M11,3,-*%
%TO.N,Net-(J2-Pin_4)*%
X69000000Y69000000D03*
%TD*%
D11*
%TO.P,M15,1,PWM*%
%TO.N,/TX3{slash}14*%
X89500000Y63920000D03*
D12*
%TO.P,M15,2,+*%
%TO.N,/Vin*%
X89500000Y66460000D03*
%TO.P,M15,3,-*%
%TO.N,Net-(J2-Pin_4)*%
X89500000Y69000000D03*
%TD*%
D11*
%TO.P,M25,1,PWM*%
%TO.N,/A2*%
X61000000Y-7975000D03*
D12*
%TO.P,M25,2,+*%
%TO.N,/Vin*%
X61000000Y-10515000D03*
%TO.P,M25,3,-*%
%TO.N,Net-(J2-Pin_4)*%
X61000000Y-13055000D03*
%TD*%
D11*
%TO.P,M37,1,PWM*%
%TO.N,Net-(J5-Pin_7)*%
X105960000Y13000000D03*
D12*
%TO.P,M37,2,+*%
%TO.N,/Vin*%
X108500000Y13000000D03*
%TO.P,M37,3,-*%
%TO.N,Net-(J2-Pin_4)*%
X111040000Y13000000D03*
%TD*%
D11*
%TO.P,M20,1,PWM*%
%TO.N,/RX1{slash}19*%
X105975000Y48500000D03*
D12*
%TO.P,M20,2,+*%
%TO.N,/Vin*%
X108515000Y48500000D03*
%TO.P,M20,3,-*%
%TO.N,Net-(J2-Pin_4)*%
X111055000Y48500000D03*
%TD*%
D11*
%TO.P,M10,1,PWM*%
%TO.N,/\u002A4*%
X63500000Y63960000D03*
D12*
%TO.P,M10,2,+*%
%TO.N,/Vin*%
X63500000Y66500000D03*
%TO.P,M10,3,-*%
%TO.N,Net-(J2-Pin_4)*%
X63500000Y69040000D03*
%TD*%
D11*
%TO.P,M19,1,PWM*%
%TO.N,/TX1{slash}18*%
X105975000Y43850000D03*
D12*
%TO.P,M19,2,+*%
%TO.N,/Vin*%
X108515000Y43850000D03*
%TO.P,M19,3,-*%
%TO.N,Net-(J2-Pin_4)*%
X111055000Y43850000D03*
%TD*%
D11*
%TO.P,M16,1,PWM*%
%TO.N,/RX3{slash}15*%
X96500000Y63920000D03*
D12*
%TO.P,M16,2,+*%
%TO.N,/Vin*%
X96500000Y66460000D03*
%TO.P,M16,3,-*%
%TO.N,Net-(J2-Pin_4)*%
X96500000Y69000000D03*
%TD*%
D11*
%TO.P,M33,1,PWM*%
%TO.N,Net-(J5-Pin_3)*%
X101000000Y-8000000D03*
D12*
%TO.P,M33,2,+*%
%TO.N,/Vin*%
X101000000Y-10540000D03*
%TO.P,M33,3,-*%
%TO.N,Net-(J2-Pin_4)*%
X101000000Y-13080000D03*
%TD*%
D11*
%TO.P,M21,1,PWM*%
%TO.N,/SDA{slash}20*%
X105975000Y53150000D03*
D12*
%TO.P,M21,2,+*%
%TO.N,/Vin*%
X108515000Y53150000D03*
%TO.P,M21,3,-*%
%TO.N,Net-(J2-Pin_4)*%
X111055000Y53150000D03*
%TD*%
D11*
%TO.P,Me1,1,PWM*%
%TO.N,/RX0{slash}0*%
X84000000Y63920000D03*
D12*
%TO.P,Me1,2,+*%
%TO.N,/Vin*%
X84000000Y66460000D03*
%TO.P,Me1,3,-*%
%TO.N,Net-(J2-Pin_4)*%
X84000000Y69000000D03*
%TD*%
D11*
%TO.P,M38,1,PWM*%
%TO.N,Net-(J5-Pin_8)*%
X105975000Y8000000D03*
D12*
%TO.P,M38,2,+*%
%TO.N,/Vin*%
X108515000Y8000000D03*
%TO.P,M38,3,-*%
%TO.N,Net-(J2-Pin_4)*%
X111055000Y8000000D03*
%TD*%
D11*
%TO.P,M18,1,PWM*%
%TO.N,/RX2{slash}17*%
X105975000Y39200000D03*
D12*
%TO.P,M18,2,+*%
%TO.N,/Vin*%
X108515000Y39200000D03*
%TO.P,M18,3,-*%
%TO.N,Net-(J2-Pin_4)*%
X111055000Y39200000D03*
%TD*%
D11*
%TO.P,M4,1,PWM*%
%TO.N,/\u002A10*%
X33500000Y63960000D03*
D12*
%TO.P,M4,2,+*%
%TO.N,/Vin*%
X33500000Y66500000D03*
%TO.P,M4,3,-*%
%TO.N,Net-(J2-Pin_4)*%
X33500000Y69040000D03*
%TD*%
D15*
%TO.N,/A0*%
X51000000Y1600000D02*
X51000000Y-8000000D01*
X50800000Y1800000D02*
X51000000Y1600000D01*
X50800000Y2540000D02*
X50800000Y1800000D01*
%TO.N,/A1*%
X53340000Y2540000D02*
X53340000Y-5340000D01*
X53340000Y-5340000D02*
X56000000Y-8000000D01*
%TO.N,/A2*%
X55880000Y-2855000D02*
X61000000Y-7975000D01*
X55880000Y2540000D02*
X55880000Y-2855000D01*
%TO.N,/A3*%
X58420000Y-420000D02*
X66000000Y-8000000D01*
X58420000Y2540000D02*
X58420000Y-420000D01*
%TO.N,/A4*%
X60960000Y1337919D02*
X70297919Y-8000000D01*
X70297919Y-8000000D02*
X71000000Y-8000000D01*
X60960000Y2540000D02*
X60960000Y1337919D01*
%TO.N,/A5*%
X63500000Y2540000D02*
X74040000Y-8000000D01*
X74040000Y-8000000D02*
X76000000Y-8000000D01*
%TO.N,/A6*%
X78235000Y-5210000D02*
X81000000Y-7975000D01*
X73790000Y-5210000D02*
X78235000Y-5210000D01*
X66040000Y2540000D02*
X73790000Y-5210000D01*
%TO.N,/A7*%
X75310000Y-4190000D02*
X82215000Y-4190000D01*
X82215000Y-4190000D02*
X86000000Y-7975000D01*
X68580000Y2540000D02*
X75310000Y-4190000D01*
%TO.N,Net-(J4-Pin_5)*%
X55880000Y50800000D02*
X55880000Y52002081D01*
X67797919Y63920000D02*
X69000000Y63920000D01*
X55880000Y52002081D02*
X67797919Y63920000D01*
%TO.N,Net-(J4-Pin_1)*%
X45720000Y61155000D02*
X48500000Y63935000D01*
X45720000Y50800000D02*
X45720000Y61155000D01*
%TO.N,Net-(J5-Pin_6)*%
X101820000Y18000000D02*
X105960000Y18000000D01*
X86360000Y2540000D02*
X101820000Y18000000D01*
%TO.N,/\u002A13*%
X18500000Y61256000D02*
X28956000Y50800000D01*
X18500000Y63920000D02*
X18500000Y61256000D01*
%TO.N,/\u002A12*%
X23500000Y58996000D02*
X23500000Y63935000D01*
X31496000Y51000000D02*
X23500000Y58996000D01*
X31496000Y50800000D02*
X31496000Y51000000D01*
X23500000Y59460000D02*
X23500000Y63935000D01*
%TO.N,/\u002A11*%
X34036000Y50800000D02*
X34036000Y58384000D01*
X34036000Y58384000D02*
X28500000Y63920000D01*
%TO.N,/\u002A10*%
X36576000Y50800000D02*
X36576000Y60884000D01*
X36576000Y60884000D02*
X33500000Y63960000D01*
%TO.N,/\u002A9*%
X39116000Y50800000D02*
X39116000Y63319000D01*
X39116000Y63319000D02*
X38500000Y63935000D01*
%TO.N,/\u002A8*%
X41656000Y62116000D02*
X43500000Y63960000D01*
X41656000Y50800000D02*
X41656000Y62116000D01*
%TO.N,Net-(J5-Pin_7)*%
X88900000Y2540000D02*
X99360000Y13000000D01*
X99360000Y13000000D02*
X105960000Y13000000D01*
%TO.N,/\u002A5*%
X58500000Y63960000D02*
X58500000Y60500000D01*
X50800000Y52800000D02*
X50800000Y50800000D01*
X58500000Y60500000D02*
X50800000Y52800000D01*
%TO.N,/\u002A4*%
X53340000Y52002081D02*
X63500000Y62162081D01*
X53340000Y50800000D02*
X53340000Y52002081D01*
X63500000Y62162081D02*
X63500000Y63960000D01*
%TO.N,Net-(J5-Pin_4)*%
X105975000Y27235000D02*
X105975000Y28000000D01*
X81280000Y2540000D02*
X105975000Y27235000D01*
%TO.N,/\u002A2*%
X58420000Y50800000D02*
X58420000Y52056396D01*
X67863604Y61500000D02*
X74000000Y61500000D01*
X58420000Y52056396D02*
X67863604Y61500000D01*
X74000000Y61500000D02*
X74000000Y63960000D01*
%TO.N,/TX0{slash}1*%
X69110000Y58950000D02*
X74030000Y58950000D01*
X60960000Y50800000D02*
X69110000Y58950000D01*
X74030000Y58950000D02*
X79000000Y63920000D01*
%TO.N,/RX0{slash}0*%
X84000000Y63000000D02*
X84000000Y63920000D01*
X63500000Y50800000D02*
X70350000Y57650000D01*
X70350000Y57650000D02*
X78650000Y57650000D01*
X78650000Y57650000D02*
X84000000Y63000000D01*
%TO.N,Net-(J5-Pin_5)*%
X83820000Y2540000D02*
X104280000Y23000000D01*
X104280000Y23000000D02*
X105960000Y23000000D01*
%TO.N,/TX3{slash}14*%
X74280000Y56500000D02*
X82000000Y56500000D01*
X83290000Y57710000D02*
X89500000Y63920000D01*
X83210000Y57710000D02*
X83290000Y57710000D01*
X82000000Y56500000D02*
X83210000Y57710000D01*
X68580000Y50800000D02*
X74280000Y56500000D01*
%TO.N,/RX3{slash}15*%
X75410000Y55090000D02*
X87670000Y55090000D01*
X71120000Y50800000D02*
X75410000Y55090000D01*
X87670000Y55090000D02*
X96500000Y63920000D01*
%TO.N,/TX2{slash}16*%
X73660000Y50800000D02*
X89910000Y34550000D01*
X89910000Y34550000D02*
X105975000Y34550000D01*
%TO.N,/RX2{slash}17*%
X76200000Y50800000D02*
X87800000Y39200000D01*
X87800000Y39200000D02*
X105975000Y39200000D01*
%TO.N,/TX1{slash}18*%
X78740000Y50800000D02*
X85690000Y43850000D01*
X85690000Y43850000D02*
X105975000Y43850000D01*
%TO.N,/RX1{slash}19*%
X105500000Y48025000D02*
X105975000Y48500000D01*
X81280000Y50800000D02*
X85080000Y47000000D01*
X105500000Y47000000D02*
X105500000Y48025000D01*
X85080000Y47000000D02*
X105500000Y47000000D01*
%TO.N,/SDA{slash}20*%
X105150000Y53150000D02*
X105975000Y53150000D01*
X86620000Y48000000D02*
X100000000Y48000000D01*
X83820000Y50800000D02*
X86620000Y48000000D01*
X100000000Y48000000D02*
X105150000Y53150000D01*
%TO.N,/SCL{slash}21*%
X93300000Y57800000D02*
X105975000Y57800000D01*
X86360000Y50860000D02*
X93300000Y57800000D01*
X86360000Y50800000D02*
X86360000Y50860000D01*
%TO.N,Net-(J5-Pin_8)*%
X96900000Y8000000D02*
X105975000Y8000000D01*
X91440000Y2540000D02*
X96900000Y8000000D01*
%TO.N,Net-(J5-Pin_1)*%
X86025000Y-3000000D02*
X78500000Y-3000000D01*
X91000000Y-7975000D02*
X86025000Y-3000000D01*
X73660000Y1840000D02*
X73660000Y2540000D01*
X78500000Y-3000000D02*
X73660000Y1840000D01*
%TO.N,Net-(J5-Pin_2)*%
X78537919Y-1000000D02*
X76200000Y1337919D01*
X76200000Y1337919D02*
X76200000Y2540000D01*
X89025000Y-1000000D02*
X78537919Y-1000000D01*
X96000000Y-7975000D02*
X89025000Y-1000000D01*
%TO.N,Net-(J5-Pin_3)*%
X101000000Y-8000000D02*
X93000000Y0D01*
X81280000Y0D02*
X78740000Y2540000D01*
X93000000Y0D02*
X81280000Y0D01*
D16*
%TO.N,/Vin*%
X89500000Y66460000D02*
X84000000Y66460000D01*
X81000000Y-10515000D02*
X86000000Y-10515000D01*
X43500000Y66500000D02*
X38525000Y66500000D01*
X56000000Y-10540000D02*
X60975000Y-10540000D01*
X43525000Y66475000D02*
X43500000Y66500000D01*
X45000000Y-10000000D02*
X45540000Y-10540000D01*
X84000000Y66460000D02*
X79000000Y66460000D01*
X108515000Y57800000D02*
X108515000Y59485000D01*
X71000000Y-10540000D02*
X76000000Y-10540000D01*
X108515000Y12985000D02*
X108500000Y13000000D01*
X108500000Y13000000D02*
X108500000Y18000000D01*
X108515000Y59485000D02*
X101540000Y66460000D01*
X79000000Y66460000D02*
X74040000Y66460000D01*
X66000000Y-10540000D02*
X71000000Y-10540000D01*
X31025000Y66475000D02*
X31010000Y66460000D01*
X51000000Y-10540000D02*
X56000000Y-10540000D01*
X91000000Y-10515000D02*
X96000000Y-10515000D01*
X69000000Y66460000D02*
X63540000Y66460000D01*
X23500000Y66475000D02*
X18515000Y66475000D01*
X101000000Y-10540000D02*
X105460000Y-10540000D01*
X74000000Y66500000D02*
X69040000Y66500000D01*
X58500000Y66500000D02*
X53525000Y66500000D01*
X28500000Y66460000D02*
X23515000Y66460000D01*
X38525000Y66500000D02*
X38500000Y66475000D01*
X101540000Y66460000D02*
X96500000Y66460000D01*
X63540000Y66460000D02*
X63500000Y66500000D01*
X74040000Y66460000D02*
X74000000Y66500000D01*
X22000000Y-5900000D02*
X44400000Y-5900000D01*
X108500000Y23000000D02*
X108500000Y27985000D01*
X96000000Y-10515000D02*
X100975000Y-10515000D01*
X108500000Y18000000D02*
X108500000Y23000000D01*
X44500000Y-6000000D02*
X45000000Y-6500000D01*
X108515000Y28000000D02*
X108515000Y34550000D01*
D17*
X44400000Y-5900000D02*
X44400000Y1220000D01*
D16*
X108515000Y43850000D02*
X108515000Y48500000D01*
X108500000Y27985000D02*
X108515000Y28000000D01*
X80975000Y-10540000D02*
X81000000Y-10515000D01*
X100975000Y-10515000D02*
X101000000Y-10540000D01*
X45000000Y-6500000D02*
X45000000Y-10000000D01*
X108515000Y8000000D02*
X108515000Y12985000D01*
X18515000Y66475000D02*
X18500000Y66460000D01*
X38500000Y66475000D02*
X33525000Y66475000D01*
X33525000Y66475000D02*
X31025000Y66475000D01*
X53500000Y66475000D02*
X48500000Y66475000D01*
X61000000Y-10515000D02*
X65975000Y-10515000D01*
X108515000Y39200000D02*
X108515000Y43850000D01*
X69040000Y66500000D02*
X69000000Y66460000D01*
X86000000Y-10515000D02*
X91000000Y-10515000D01*
X108515000Y53150000D02*
X108515000Y57800000D01*
X48500000Y66475000D02*
X43525000Y66475000D01*
X31010000Y66460000D02*
X28500000Y66460000D01*
X63500000Y66500000D02*
X58500000Y66500000D01*
X44400000Y-5900000D02*
X44500000Y-6000000D01*
D17*
X44400000Y1220000D02*
X45720000Y2540000D01*
D16*
X60975000Y-10540000D02*
X61000000Y-10515000D01*
X108515000Y48500000D02*
X108515000Y53150000D01*
X33525000Y66475000D02*
X33500000Y66500000D01*
X23515000Y66460000D02*
X23500000Y66475000D01*
D17*
X45000000Y-6500000D02*
X44400000Y-5900000D01*
D16*
X76000000Y-10540000D02*
X80975000Y-10540000D01*
X45540000Y-10540000D02*
X51000000Y-10540000D01*
X108515000Y34550000D02*
X108515000Y39200000D01*
X65975000Y-10515000D02*
X66000000Y-10540000D01*
X96500000Y66460000D02*
X89500000Y66460000D01*
X105460000Y-10540000D02*
X108515000Y-7485000D01*
X53525000Y66500000D02*
X53500000Y66475000D01*
X108515000Y-7485000D02*
X108515000Y8000000D01*
%TO.N,Net-(J2-Pin_4)*%
X111055000Y43850000D02*
X111055000Y39200000D01*
X111055000Y57800000D02*
X111055000Y53150000D01*
X71000000Y-13080000D02*
X66000000Y-13080000D01*
X90945000Y-13055000D02*
X86000000Y-13055000D01*
X23945000Y69015000D02*
X23960000Y69000000D01*
X79000000Y69000000D02*
X84000000Y69000000D01*
X107920000Y-13080000D02*
X101000000Y-13080000D01*
X101135000Y-12945000D02*
X101000000Y-13080000D01*
X48475000Y69040000D02*
X48500000Y69015000D01*
X111040000Y13000000D02*
X111040000Y8015000D01*
X111040000Y27960000D02*
X111040000Y23000000D01*
X61025000Y-13080000D02*
X61000000Y-13055000D01*
X66000000Y-13080000D02*
X61025000Y-13080000D01*
X111055000Y39200000D02*
X111055000Y34550000D01*
X57000000Y-13055000D02*
X56975000Y-13080000D01*
X58475000Y69015000D02*
X58500000Y69040000D01*
X38500000Y69015000D02*
X43475000Y69015000D01*
X110625000Y8430000D02*
X111055000Y8000000D01*
X33500000Y69040000D02*
X38475000Y69040000D01*
X69420000Y69000000D02*
X69460000Y69040000D01*
X38475000Y69040000D02*
X38500000Y69015000D01*
X40000000Y-13000000D02*
X39900000Y-13100000D01*
X111055000Y28000000D02*
X111000000Y28000000D01*
X23500000Y69015000D02*
X23945000Y69015000D01*
X39900000Y-13100000D02*
X22000000Y-13100000D01*
X76025000Y-13055000D02*
X76000000Y-13080000D01*
X76000000Y-13080000D02*
X71000000Y-13080000D01*
X111030000Y28025000D02*
X111055000Y28000000D01*
D18*
X23000000Y45000000D02*
X12000000Y45000000D01*
D16*
X18500000Y69000000D02*
X23485000Y69000000D01*
X91000000Y-13000000D02*
X90945000Y-13055000D01*
X69460000Y69040000D02*
X74000000Y69040000D01*
X63500000Y69040000D02*
X69460000Y69040000D01*
X111000000Y28000000D02*
X111040000Y27960000D01*
X51000000Y-13080000D02*
X40080000Y-13080000D01*
X111055000Y53150000D02*
X111055000Y48500000D01*
X28500000Y69000000D02*
X33460000Y69000000D01*
X111055000Y8000000D02*
X111055000Y-9945000D01*
X111065000Y23025000D02*
X111040000Y23000000D01*
X108000000Y69000000D02*
X96500000Y69000000D01*
X23485000Y69000000D02*
X23500000Y69015000D01*
D18*
X26416000Y50800000D02*
X26416000Y48416000D01*
D16*
X57000000Y-13055000D02*
X56025000Y-13055000D01*
X53500000Y69015000D02*
X58475000Y69015000D01*
D18*
X26416000Y48416000D02*
X23000000Y45000000D01*
D16*
X78960000Y69040000D02*
X79000000Y69000000D01*
D18*
X10000000Y66500000D02*
X12500000Y69000000D01*
D16*
X23960000Y69000000D02*
X28500000Y69000000D01*
X69000000Y69000000D02*
X69420000Y69000000D01*
D18*
X12500000Y69000000D02*
X18500000Y69000000D01*
D16*
X96000000Y-13055000D02*
X91000000Y-13055000D01*
D18*
X10000000Y47000000D02*
X10000000Y66500000D01*
D16*
X111055000Y65945000D02*
X108000000Y69000000D01*
X56975000Y-13080000D02*
X51000000Y-13080000D01*
X111055000Y-9945000D02*
X107920000Y-13080000D01*
X91000000Y-13055000D02*
X91000000Y-13000000D01*
X101000000Y-13080000D02*
X96025000Y-13080000D01*
D18*
X12000000Y45000000D02*
X10000000Y47000000D01*
D16*
X40080000Y-13080000D02*
X40000000Y-13000000D01*
X111055000Y48500000D02*
X111055000Y43850000D01*
X43475000Y69015000D02*
X43500000Y69040000D01*
X111040000Y18000000D02*
X111040000Y13000000D01*
X111055000Y57800000D02*
X111055000Y65945000D01*
X58500000Y69040000D02*
X63500000Y69040000D01*
X111040000Y8015000D02*
X111055000Y8000000D01*
X89500000Y69000000D02*
X96500000Y69000000D01*
X56025000Y-13055000D02*
X56000000Y-13080000D01*
X111040000Y23000000D02*
X111040000Y18000000D01*
X81000000Y-13055000D02*
X76025000Y-13055000D01*
X48500000Y69015000D02*
X53500000Y69015000D01*
X61000000Y-13055000D02*
X57000000Y-13055000D01*
X43500000Y69040000D02*
X48475000Y69040000D01*
X33460000Y69000000D02*
X33500000Y69040000D01*
X111055000Y34550000D02*
X111055000Y28000000D01*
X86000000Y-13055000D02*
X81000000Y-13055000D01*
X96025000Y-13080000D02*
X96000000Y-13055000D01*
X84000000Y69000000D02*
X89500000Y69000000D01*
X74000000Y69040000D02*
X78960000Y69040000D01*
D15*
%TO.N,Net-(J4-Pin_2)*%
X48260000Y50800000D02*
X48260000Y52760000D01*
X53500000Y58000000D02*
X53500000Y63935000D01*
X48260000Y52760000D02*
X53500000Y58000000D01*
%TD*%
M02*
